<svg width="64" height="64" viewBox="0 0 64 64" fill="none" xmlns="http://www.w3.org/2000/svg">
  <rect width="64" height="64" rx="16" fill="#E8F7FF"/>
  <circle cx="32" cy="27" r="19" fill="#BDEEFF" opacity="0.75"/>
  <g stroke="#0B8FE8" stroke-width="2" stroke-linejoin="round">
    <path d="M32 8C35.3 14.5 35.3 20 32 27C28.7 20 28.7 14.5 32 8Z" fill="#48BDF6"/>
    <path d="M22 11.5C27.5 16.2 30.3 21 32 27C25.8 24.5 22.3 20.4 22 11.5Z" fill="#41B7F2"/>
    <path d="M42 11.5C41.7 20.4 38.2 24.5 32 27C33.7 21 36.5 16.2 42 11.5Z" fill="#41B7F2"/>
    <path d="M14 20C21.6 20.7 27.1 22.7 32 27C25.6 28.1 20.3 26.7 14 20Z" fill="#35AEEF"/>
    <path d="M50 20C43.7 26.7 38.4 28.1 32 27C36.9 22.7 42.4 20.7 50 20Z" fill="#35AEEF"/>
    <path d="M13 33C20.2 28.8 25.8 27.6 32 27C28.4 32.3 23.1 35.1 13 33Z" fill="#2BA4E9"/>
    <path d="M51 33C40.9 35.1 35.6 32.3 32 27C38.2 27.6 43.8 28.8 51 33Z" fill="#2BA4E9"/>
  </g>
  <circle cx="32" cy="27" r="5.2" fill="#124B79"/>
  <circle cx="30" cy="25" r="1.3" fill="#082E4F"/>
  <path d="M32 32C32.8 39.5 32.6 47 28.2 56" stroke="#2D8F3E" stroke-width="4" stroke-linecap="round"/>
  <path d="M28.5 46C21 41 15 42 9.5 47.5C16.5 53 23 52.5 28.5 46Z" fill="#60B948" stroke="#2D8F3E" stroke-width="2" stroke-linejoin="round"/>
  <path d="M31 42C39 37 46 37.7 53.5 44C45.5 50.2 38.6 49.2 31 42Z" fill="#69C35A" stroke="#2D8F3E" stroke-width="2" stroke-linejoin="round"/>
</svg>
