<svg xmlns="http://www.w3.org/2000/svg" width="1367" height="768" viewBox="0 0 1367 768" version="1.1">
	<path fill="black" d="M 582 477.695 C 568.159 479.177, 550.658 484.136, 539.500 489.736 C 519.977 499.536, 499.467 518.370, 490.026 535.167 L 487.851 539.037 494.342 534.499 C 516.781 518.814, 550.849 509.510, 576.374 512.097 C 595.103 513.996, 606.775 517.773, 638.500 532.203 C 684.217 552.998, 708.439 559, 746.635 559 C 781.825 559, 808.775 553.043, 846 537.037 C 873.746 525.106, 902.606 516.706, 925.411 513.922 C 943.795 511.678, 974.872 514.095, 1004.845 520.099 C 1019.693 523.073, 1045.607 523.848, 1056.297 521.637 C 1071.704 518.451, 1087.323 509.665, 1095.341 499.674 C 1100.434 493.327, 1100.733 491.902, 1095.844 497.275 C 1093.244 500.134, 1088.490 503.636, 1084 505.999 C 1079.875 508.171, 1077.175 509.974, 1078 510.005 C 1079.158 510.050, 1079.062 510.395, 1077.582 511.515 C 1076.140 512.606, 1075.327 512.687, 1074.308 511.841 C 1073.562 511.221, 1072.663 511.004, 1072.309 511.357 C 1071.956 511.711, 1072.192 512, 1072.833 512 C 1073.475 512, 1074 512.477, 1074 513.059 C 1074 513.641, 1073.552 513.841, 1073.004 513.502 C 1072.456 513.164, 1071.115 512.715, 1070.024 512.505 C 1067.738 512.064, 1067.720 514.103, 1070 515.264 C 1070.827 515.685, 1070.153 515.777, 1068.500 515.468 C 1066.850 515.161, 1057.400 514.514, 1047.500 514.031 C 1037.600 513.547, 1027.925 512.866, 1026 512.516 C 1022.510 511.881, 1022.507 511.883, 1025 513.404 C 1027.492 514.924, 1027.492 514.930, 1025.250 515.090 C 1024.013 515.178, 1022.438 515.336, 1021.750 515.441 C 1021.063 515.546, 1019.600 515.240, 1018.500 514.761 C 1016.625 513.944, 1016.612 513.980, 1018.279 515.327 C 1019.867 516.608, 1019.887 516.829, 1018.466 517.375 C 1017.590 517.711, 1017.096 518.346, 1017.367 518.786 C 1018.340 520.358, 1011.859 519.995, 1001.764 517.910 C 996.119 516.744, 991.136 515.569, 990.690 515.299 C 990.245 515.029, 990.695 514.164, 991.690 513.377 C 993.427 512.003, 993.423 511.957, 991.604 512.223 C 989.236 512.569, 988.347 510.465, 990.510 509.635 C 991.433 509.280, 991.847 509.439, 991.493 510.011 C 991.157 510.555, 991.809 511, 992.941 511 C 995.188 511, 995.584 512.016, 993.967 513.633 C 993.256 514.344, 993.398 514.667, 994.423 514.667 C 995.242 514.667, 995.703 514.328, 995.447 513.914 C 995.191 513.500, 995.661 512.482, 996.491 511.652 C 997.321 510.822, 998 509.709, 998 509.178 C 998 507.724, 1000.828 506.934, 1003.829 507.550 C 1008.197 508.448, 1000.803 505.301, 992.907 502.903 C 987.641 501.304, 985.690 501.095, 984.074 501.960 C 982.108 503.012, 981.146 505.135, 982.750 504.882 C 985.565 504.437, 986.228 505.021, 984.872 506.750 C 983.621 508.345, 983.659 508.375, 985.292 507.092 C 986.748 505.949, 987.311 505.925, 988.292 506.967 C 989.237 507.971, 989.226 508.350, 988.244 508.710 C 987.553 508.964, 987.242 509.582, 987.553 510.085 C 988.314 511.318, 987.686 511.238, 984.787 509.733 C 983.444 509.036, 982.521 507.937, 982.737 507.290 C 982.962 506.615, 982.251 506.181, 981.064 506.270 C 978.761 506.444, 978.338 507.542, 980.250 508.384 C 980.938 508.687, 979.864 508.684, 977.865 508.378 C 975.865 508.071, 973.985 508.215, 973.687 508.698 C 973.388 509.181, 974.329 509.674, 975.778 509.794 C 977.226 509.914, 978.882 510.517, 979.456 511.135 C 980.221 511.958, 979.698 512.065, 977.500 511.534 C 965.786 508.709, 947.774 505.846, 938.500 505.337 C 925.391 504.617, 913.869 505.952, 898 510.030 C 891.675 511.655, 885.375 513.274, 884 513.628 C 881.943 514.158, 881.722 514.035, 882.750 512.936 C 884.242 511.342, 884.418 509.624, 883 510.500 C 882.450 510.840, 882 510.641, 882 510.059 C 882 509.477, 881.073 509, 879.941 509 C 878.809 509, 878.159 508.552, 878.497 508.004 C 879.526 506.339, 864.371 512.409, 848.500 520.018 C 813.667 536.718, 790.407 544.205, 763 547.539 C 724.249 552.252, 687.840 545.101, 647.647 524.881 C 630.379 516.195, 624.640 513, 626.302 513 C 626.714 513, 630.237 514.605, 634.131 516.566 C 638.026 518.528, 641.863 519.883, 642.658 519.578 C 643.453 519.273, 643.864 519.411, 643.571 519.886 C 641.577 523.112, 688.968 537.983, 712.269 541.443 C 727.743 543.740, 768.966 543.482, 770.452 541.078 C 770.676 540.716, 767.403 540.772, 763.180 541.204 C 753.292 542.214, 737.121 542.004, 736.411 540.856 C 736.109 540.367, 735.518 540.180, 735.097 540.440 C 734.676 540.700, 732.836 541.176, 731.009 541.498 C 727.952 542.037, 727.799 541.945, 729.093 540.350 C 730.269 538.900, 730.273 538.753, 729.112 539.452 C 728.349 539.912, 725.456 540.395, 722.683 540.525 C 718.183 540.737, 717.888 540.630, 719.938 539.533 C 721.915 538.475, 722.002 538.215, 720.565 537.663 C 719.647 537.311, 719.139 537.417, 719.437 537.898 C 720.208 539.146, 715.730 540.130, 714.567 538.967 C 713.944 538.344, 714.184 538, 715.241 538 C 716.144 538, 717.203 537.480, 717.595 536.845 C 717.988 536.211, 717.902 535.929, 717.405 536.220 C 716.907 536.512, 715.600 536.388, 714.500 535.945 C 713.034 535.355, 713.701 535.125, 717 535.084 C 722.855 535.010, 726 535.895, 726 537.617 C 726 538.377, 726.436 539, 726.969 539 C 727.501 539, 727.659 538.274, 727.318 537.388 C 726.799 536.034, 727.209 535.887, 729.868 536.471 C 733.016 537.162, 738.760 537.223, 744.500 536.625 C 746.150 536.454, 749.075 536.169, 751 535.994 C 752.925 535.819, 747.075 535.356, 738 534.965 C 711.157 533.811, 696.448 529.811, 660.040 513.765 C 637.021 503.620, 632.482 501.933, 619 498.509 C 605.239 495.015, 592.289 493.673, 578.500 494.311 C 564.217 494.972, 554.026 496.948, 541.139 501.553 C 535.905 503.424, 531.473 504.806, 531.291 504.624 C 530.714 504.048, 538.390 499.329, 546.591 495.218 C 565.525 485.725, 580.239 482.506, 601.258 483.258 C 622.428 484.014, 636.752 488.352, 665.250 502.635 C 675.143 507.593, 677.160 507.802, 668 502.919 C 664.700 501.160, 662 499.348, 662 498.892 C 662 498.436, 662.753 498.352, 663.674 498.705 C 664.929 499.187, 665.191 498.940, 664.721 497.717 C 663.968 495.752, 664.375 495.893, 678.278 502.390 C 689.428 507.602, 694.253 509.104, 709 511.958 C 722.716 514.613, 739.845 516.043, 750.208 515.399 C 780.940 513.491, 802.617 506.775, 829.039 490.976 C 842.299 483.048, 847.055 481.080, 855.500 480.024 L 861.500 479.274 856 479.161 C 848.462 479.007, 844.026 480.174, 827.634 486.622 C 819.860 489.679, 810.684 493.281, 807.242 494.625 C 795.941 499.040, 766 503.860, 766 501.265 C 766 500.719, 768.136 499.979, 770.746 499.621 C 778.363 498.577, 791.015 494.266, 797.500 490.505 L 803.500 487.025 796.493 487.013 C 792.224 487.005, 786.079 486.063, 780.766 484.601 C 763.050 479.727, 753.610 480.435, 734.788 488.053 C 721.259 493.528, 717.249 494.726, 706.500 496.504 C 690.129 499.211, 679.156 498.173, 658.108 491.925 C 651.503 489.965, 647.488 489.211, 647.088 489.857 C 646.260 491.198, 642.688 490.723, 636.256 488.416 C 632.331 487.008, 631.141 486.132, 631.522 484.931 C 632.089 483.143, 627.748 481.475, 619.629 480.363 C 616.061 479.874, 614.984 480.046, 614.930 481.114 C 614.890 481.891, 614.482 481.621, 614 480.500 C 613.527 479.400, 613.109 479.063, 613.070 479.750 C 613.032 480.438, 612.052 481, 610.893 481 C 609.516 481, 608.969 480.524, 609.314 479.625 C 609.696 478.630, 608.583 478.078, 605.281 477.625 C 600.618 476.986, 588.275 477.023, 582 477.695" />
</svg>