<svg xmlns="http://www.w3.org/2000/svg" width="1367" height="768" viewBox="0 0 1367 768" version="1.1">
	<path fill="black" d="M 783.330 127.750 C 782.735 129.813, 781.108 134.536, 779.714 138.247 C 778.321 141.958, 777.508 145.196, 777.908 145.443 C 778.308 145.691, 780.180 141.397, 782.068 135.902 C 783.956 130.407, 785.657 126.668, 785.850 127.592 C 786.523 130.829, 767.721 206.591, 758.424 238.105 C 743.891 287.363, 721.008 346.764, 698.477 393.717 L 691.175 408.935 700.337 408.449 C 714.419 407.701, 758.216 406, 763.380 406 C 767.596 406, 767.961 406.195, 767.783 408.353 L 767.588 410.705 743.544 411.368 C 730.320 411.733, 711.891 412.320, 702.592 412.675 C 683.931 413.385, 685.276 413.845, 687.462 407.500 L 688.151 405.500 686.911 407.500 C 686.229 408.600, 685.182 409.825, 684.585 410.222 C 682.646 411.511, 685.457 414.500, 688.609 414.500 C 690.199 414.500, 706.161 414.129, 724.080 413.676 L 756.661 412.851 762.292 416.676 L 767.924 420.500 767.961 426.500 L 767.998 432.500 748.749 432.569 C 731.838 432.630, 728.832 432.890, 724 434.706 C 706.028 441.460, 703.473 442.164, 694.893 442.720 L 686 443.296 686 440.270 C 686 437.062, 683.900 434.533, 681.814 435.229 C 681.124 435.459, 680.075 437.639, 679.482 440.073 L 678.405 444.500 672.610 445.226 C 669.423 445.625, 665.320 446.875, 663.494 448.004 L 660.172 450.057 657.586 444.407 C 656.164 441.300, 655 438.367, 655 437.890 C 655 437.412, 656.181 434.072, 657.624 430.467 C 659.067 426.863, 660.039 423.705, 659.784 423.451 C 659.529 423.196, 658.084 426.140, 656.572 429.994 L 653.823 437 649.162 437.015 C 642.071 437.039, 641.688 437.563, 643.399 444.899 C 644.767 450.761, 644.741 451.259, 642.985 453.015 C 640.484 455.516, 638.767 461.587, 639.171 466.500 C 639.469 470.126, 639.904 470.687, 643.826 472.500 L 648.152 474.500 631.826 475.572 L 615.500 476.645 608 473.186 C 591.638 465.641, 580.589 463.374, 564.688 464.298 C 540.552 465.701, 517.277 473.860, 481.695 493.390 C 471.772 498.836, 470.485 500.803, 479.981 496.010 C 489.505 491.202, 489.473 493.039, 479.942 498.202 C 463.292 507.221, 430.932 523.145, 428.273 523.627 C 426.782 523.897, 424.975 524.606, 424.257 525.202 C 423.539 525.798, 422.691 526.025, 422.373 525.707 C 422.055 525.389, 425.089 523.469, 429.115 521.442 C 438.990 516.469, 454.266 508.016, 455.500 506.843 C 456.853 505.555, 452.587 507.505, 439.500 514.156 C 377.072 545.883, 332.352 552.334, 293.493 535.220 C 276.625 527.791, 259.551 516.344, 253.494 508.403 C 247.208 500.162, 245.275 488.395, 248.897 480.419 C 251.664 474.327, 257.249 469.524, 268.266 463.763 C 289.026 452.906, 299 438.417, 299 419.115 C 299 413.778, 299.402 414.234, 275.217 392.169 L 264.989 382.839 249.745 396.794 C 241.360 404.469, 233.600 411.752, 232.500 412.979 C 228.433 417.514, 229.438 462.654, 234.035 481.901 C 235.138 486.517, 235.888 490.446, 235.702 490.632 C 235.516 490.818, 233.326 488.164, 230.836 484.735 C 215.470 463.577, 199.747 424.728, 198.363 404.500 L 197.816 396.500 203.867 392.666 C 211.149 388.053, 216.476 382.366, 219.363 376.122 C 221.170 372.213, 221.500 369.649, 221.500 359.500 C 221.500 348.234, 221.310 347.072, 218.386 340.500 C 210.331 322.395, 207.974 316.597, 209.138 317.750 C 211.099 319.692, 215 319.326, 215 317.200 C 215 316.210, 214.460 314.860, 213.800 314.200 C 212.867 313.267, 212.875 312.725, 213.837 311.763 C 216.337 309.263, 225.331 315.445, 235.813 326.868 C 252.504 345.059, 265.241 356.944, 272.903 361.477 C 275.014 362.726, 273.748 347.925, 271.167 341.168 C 269.348 336.406, 269.310 335.913, 270.815 336.562 C 271.742 336.961, 278.074 337.504, 284.886 337.769 C 295.214 338.170, 297.139 338.022, 296.466 336.875 C 293.732 332.214, 288.997 325.871, 285.249 321.851 L 280.914 317.201 287.609 315.038 C 295.385 312.526, 306 307.366, 306 306.098 C 306 305.618, 303.075 303.982, 299.500 302.462 C 295.162 300.619, 293 299.139, 293 298.014 C 293 295.220, 278.880 292.497, 264.500 292.517 C 251.408 292.535, 243.974 293.892, 225.758 299.586 C 212.204 303.823, 210.035 303.245, 213.491 296.318 C 216.152 290.984, 228.809 286.720, 251.500 283.514 C 271.598 280.674, 291.481 275.267, 293.433 272.109 C 294.077 271.066, 281.934 265.765, 274.779 263.965 L 270.057 262.777 272.897 258.639 C 275.500 254.845, 283 240.691, 283 239.572 C 283 238.183, 262.831 241.545, 258.823 243.602 L 256.147 244.976 257.073 241.744 C 258.563 236.551, 258.268 219, 256.691 219 C 254.285 219, 242.564 231.423, 236.868 240.010 C 230.472 249.653, 211.794 283.881, 212.224 285.171 C 212.545 286.135, 221.726 270.990, 231.020 254.161 C 238.008 241.509, 243.612 233.676, 250.423 227.042 L 255 222.584 255.097 227.042 C 255.304 236.584, 254.771 239.726, 251.887 245.972 C 249.343 251.479, 246.522 254.763, 232.949 268.020 C 224.177 276.587, 217 283.937, 217 284.355 C 217 284.772, 218.912 283.930, 221.250 282.485 C 228.601 277.938, 249.979 267.645, 250.659 268.325 C 251.016 268.683, 249.102 269.943, 246.405 271.125 C 240.882 273.545, 227.879 281.665, 226.782 283.379 C 226.387 283.995, 226.517 284.656, 227.071 284.846 C 227.625 285.037, 224.605 286.938, 220.360 289.070 C 215.153 291.686, 211.886 292.758, 210.321 292.366 C 207.554 291.671, 207.546 291.623, 209.654 288.405 C 211.140 286.138, 211.152 285.724, 209.778 284.349 C 208.403 282.975, 208.030 283.051, 206.124 285.098 C 204.956 286.351, 204 287.742, 204 288.189 C 204 288.635, 203.550 289, 203 289 C 202.450 289, 202 287.961, 202 286.691 C 202 285.421, 201.368 283.518, 200.596 282.463 C 198.851 280.075, 200.414 276.716, 209.422 263.500 C 216.201 253.554, 222.957 240.360, 226.496 230.155 C 228.940 223.109, 231.674 208.340, 230.712 207.378 C 229.765 206.431, 218.224 213.050, 213.366 217.327 C 209.736 220.522, 208.640 221.043, 207.926 219.914 C 207.433 219.136, 207.024 217.896, 207.015 217.159 C 206.995 215.343, 197.987 198, 197.065 198 C 196.160 198, 188.343 214.458, 187.430 218.284 L 186.766 221.069 181.575 216.159 C 176.292 211.163, 171.849 208.391, 166.808 206.945 C 163.236 205.920, 163.213 206.687, 166.420 220.258 C 169.360 232.700, 171.600 238.903, 178.784 254.500 C 181.824 261.100, 185.094 269.068, 186.051 272.208 C 187.743 277.758, 187.735 278.027, 185.780 281.980 L 183.769 286.045 182.134 282.865 C 180.211 279.122, 178.928 278.885, 177.349 281.980 C 176.247 284.139, 176.104 284.027, 174 279.368 C 172.792 276.691, 171 272.250, 170.018 269.500 C 166.307 259.108, 159.852 243.661, 156.110 236.220 C 152.195 228.434, 143.526 216, 142.013 216 C 140.394 216, 138.796 222.673, 138.274 231.608 L 137.742 240.715 133.471 238.328 C 128.798 235.716, 111.923 229.744, 111.215 230.451 C 110.100 231.567, 113.563 241.537, 117.414 248.293 L 121.670 255.762 114.085 256.239 C 108.810 256.570, 104.693 257.528, 100.565 259.384 C 93.690 262.477, 93.270 261.835, 107.026 269.259 C 118.330 275.360, 123.862 277.343, 142.678 282.038 C 158.748 286.048, 171 291.007, 171 293.500 C 171 294.512, 170.078 294.725, 167.500 294.306 C 162.193 293.445, 162.969 296.231, 169.250 300.591 C 172.137 302.595, 173.600 303.888, 172.500 303.464 C 148.247 294.113, 132.421 290.509, 119.037 291.288 C 108.924 291.877, 92 296.366, 92 298.459 C 92 299.077, 89.525 300.797, 86.500 302.281 C 83.475 303.764, 81 305.367, 81 305.841 C 81 306.873, 92.382 312.115, 99.750 314.477 C 102.638 315.403, 105 316.396, 105 316.683 C 105 316.971, 103.002 319.428, 100.561 322.143 C 98.119 324.859, 94.741 329.325, 93.053 332.069 C 90.421 336.346, 90.212 337.144, 91.590 337.673 C 93.464 338.392, 113.392 337.375, 116.863 336.383 C 119.084 335.748, 119.151 335.850, 117.969 338.058 C 115.848 342.021, 114.024 350.223, 114.012 355.857 C 113.998 362.168, 113.989 362.169, 123.912 355.533 C 132.164 350.014, 142.563 339.541, 151 328.250 C 161.480 314.225, 169.178 309.807, 176.800 313.442 C 178.902 314.444, 179.921 315.431, 179.269 315.833 C 178.660 316.210, 177.237 318.863, 176.107 321.728 C 174.978 324.593, 172.228 330.568, 169.996 335.007 C 164.337 346.262, 162.642 353.546, 163.240 364.046 C 164 377.411, 168.622 386.073, 178.490 392.625 L 183.806 396.154 187.054 409.327 C 191.568 427.630, 198.432 447.866, 203.678 458.334 C 207.828 466.617, 207.961 467.125, 205.802 466.484 C 199.303 464.553, 185.693 451.443, 177.270 439 C 174.478 434.875, 169.874 428.924, 167.039 425.775 C 161.045 419.117, 147.906 409.032, 139.983 405.008 C 133.567 401.750, 119.488 397.316, 113 396.510 L 108.500 395.951 114 397.873 C 117.025 398.930, 118.911 399.841, 118.191 399.897 C 117.471 399.954, 117.183 400.487, 117.551 401.083 C 117.919 401.678, 116.779 401.420, 115.017 400.509 C 108.821 397.305, 111.063 399.766, 120.058 406.041 C 126.230 410.346, 133.487 416.964, 142.660 426.651 C 150.091 434.499, 159.620 443.505, 163.836 446.666 C 173.812 454.146, 174.285 454.613, 169.401 452.167 C 167.146 451.037, 163.205 448.513, 160.642 446.557 C 155.182 442.388, 153.755 442.082, 155.328 445.415 C 155.954 446.743, 156.770 447.642, 157.140 447.413 C 157.511 447.184, 157.575 447.908, 157.284 449.022 C 156.783 450.938, 156.682 450.951, 155.409 449.273 C 154.669 448.298, 154.049 448.007, 154.032 448.628 C 154.014 449.248, 154.644 450.289, 155.430 450.942 C 156.575 451.892, 157.083 451.714, 157.972 450.052 C 158.921 448.279, 159.404 448.146, 161.271 449.145 L 163.459 450.316 161.229 451.311 C 158.806 452.392, 158.128 456.522, 160.250 457.280 C 160.938 457.525, 161.206 458.044, 160.847 458.433 C 160.488 458.822, 158.238 458.146, 155.847 456.931 C 141.964 449.877, 126.703 434.948, 120.616 422.465 C 116.361 413.740, 109.542 403.018, 105.576 398.817 L 103.043 396.133 105.271 395.703 C 107.156 395.339, 107.076 395.251, 104.750 395.136 C 103.237 395.061, 102 395.274, 102 395.608 C 102 395.943, 104.177 398.980, 106.839 402.358 C 109.500 405.736, 114.498 413.900, 117.946 420.500 C 121.393 427.100, 125.749 434.597, 127.626 437.160 C 139.218 452.991, 160.529 464.884, 181.392 467.163 C 194.957 468.645, 203.039 470.692, 207.428 473.757 C 209.589 475.266, 215.664 481.964, 220.928 488.643 C 232.183 502.920, 244.047 515.899, 250.962 521.500 C 253.678 523.700, 255.923 525.793, 255.950 526.150 C 256.015 526.998, 243.970 523.827, 237.270 521.233 C 234.394 520.119, 227.390 516.490, 221.707 513.168 C 205.140 503.484, 192.735 499.229, 174.500 496.975 C 152.639 494.273, 138.051 490.349, 130 485.005 C 127.525 483.362, 125.360 482.433, 125.190 482.940 C 124.538 484.875, 136.783 507.529, 142.862 515.637 C 161.015 539.846, 189.698 549.503, 219.864 541.562 C 223.363 540.640, 231.369 537.876, 237.655 535.418 C 254.806 528.712, 255.206 528.718, 269.564 535.867 C 284.939 543.521, 294.339 547.225, 305 549.829 C 334.958 557.147, 362.651 554.130, 400 539.481 C 412.995 534.384, 421.610 530.316, 459 511.620 C 506.396 487.921, 529.149 478.427, 549.500 473.856 C 569.635 469.334, 586.917 469.637, 603.573 474.804 L 612.493 477.572 598.774 477.171 C 563.284 476.134, 531.135 488.695, 507.054 513.007 C 500.189 519.938, 489.960 533.334, 488.372 537.474 C 487.989 538.472, 490.874 537.078, 495.618 533.974 C 519.332 518.455, 544.581 511.210, 571 512.344 C 592.050 513.247, 605.408 517.175, 637 531.754 C 677.551 550.468, 697.950 556.387, 731 559.027 C 767.158 561.916, 804.049 555.247, 842 538.961 C 893.646 516.799, 925.787 510.393, 964.980 514.453 C 979.367 515.943, 988.714 517.380, 1015.500 522.219 C 1024.147 523.781, 1049.301 523.730, 1056.500 522.135 C 1071.232 518.872, 1084.839 511.262, 1094.394 500.941 C 1100.822 493.998, 1104.290 488.605, 1099.380 493.187 C 1095.176 497.110, 1082.551 502.780, 1073.965 504.602 C 1068.355 505.792, 1063.021 506.063, 1052.500 505.693 C 1034.965 505.076, 1026.283 502.971, 996.248 492.051 C 970.493 482.688, 962.167 480.527, 944.409 478.598 C 933.199 477.381, 930.284 476.660, 922.260 473.124 C 917.178 470.884, 909.601 468.176, 905.423 467.106 C 901.245 466.036, 897.670 465.003, 897.478 464.811 C 897.286 464.619, 900.925 458.651, 905.564 451.549 C 910.204 444.446, 914 438.218, 914 437.708 C 914 437.198, 912.425 436.965, 910.500 437.190 C 908.575 437.415, 907.005 437.351, 907.011 437.049 C 907.016 436.747, 908.812 434.250, 911 431.500 C 916.706 424.329, 916.416 423, 909.140 423 L 903.280 423 901.063 411.750 C 892.737 369.505, 876.443 316.004, 859.986 276.866 C 845.567 242.576, 821.254 197.494, 796.150 158.500 C 790.693 150.022, 789.407 149.633, 793.403 157.668 C 796.463 163.823, 805.395 189.109, 811.358 208.500 C 828.028 262.708, 829.922 307.942, 817.890 364.500 C 815.646 375.048, 807.713 404.545, 806.877 405.450 C 806.395 405.972, 806 407.240, 806 408.266 C 806 409.292, 805.479 411.104, 804.843 412.293 C 803.712 414.406, 803.668 414.411, 802.913 412.478 C 802.279 410.855, 802.128 411.050, 802.070 413.563 C 802.024 415.592, 800.999 417.585, 799.034 419.467 L 796.068 422.309 795.748 410.904 L 795.428 399.500 795.214 411.715 C 795.024 422.548, 794.786 424.044, 793.108 424.942 C 791.293 425.914, 791.190 425.206, 790.598 407.728 C 789.594 378.053, 789.462 327.716, 790.381 324.750 C 791.171 322.199, 791.025 321.995, 788.367 321.930 C 786.790 321.891, 784.600 321.452, 783.500 320.953 C 782.074 320.307, 782.577 320.216, 785.250 320.635 L 789 321.223 789 309.273 C 789 302.701, 789.192 287.013, 789.426 274.412 C 789.661 261.810, 789.507 253.750, 789.084 256.500 C 788.547 259.987, 788.312 256.657, 788.307 245.500 C 788.303 235.818, 788.577 231.277, 789 234 L 789.700 238.500 789.845 233.500 C 789.986 228.637, 789.887 228.454, 786.245 226.835 L 782.500 225.170 785.878 225.735 L 789.256 226.301 788.652 196.901 C 788.320 180.730, 788.010 157.713, 787.963 145.750 C 787.884 125.822, 787.732 124, 786.145 124 C 785.003 124, 784.044 125.277, 783.330 127.750" />
</svg>