<svg xmlns="http://www.w3.org/2000/svg" width="1367" height="768" viewBox="0 0 1367 768" version="1.1">
	<path fill="black" d="M 792.541 155 C 799.047 167.865, 815.277 218.065, 819.375 238 C 824.410 262.489, 825.400 272.086, 825.410 296.500 C 825.420 321.188, 824.103 334.648, 819.394 357.958 C 816.568 371.945, 810.855 394.482, 807.921 403.218 C 806.864 406.364, 806 409.632, 806 410.482 C 806 411.333, 802.193 415.939, 797.539 420.720 C 792.886 425.501, 789.239 429.573, 789.435 429.769 C 789.631 429.965, 793.456 426.417, 797.934 421.884 L 806.075 413.644 820.288 416.327 C 837.988 419.669, 872.317 424.956, 877 425.062 C 884.131 425.222, 884.310 425.826, 879.401 433.167 C 874.262 440.853, 874.200 440.875, 857 441.263 C 851.225 441.393, 846.275 441.770, 846 442.100 C 845.725 442.430, 840.016 442.969, 833.313 443.297 C 822.389 443.833, 821.080 443.719, 820.679 442.198 C 820.270 440.645, 820.222 440.650, 820.116 442.250 C 820.052 443.212, 819.438 444.001, 818.750 444.002 C 816.696 444.004, 785.031 445.927, 777.750 446.491 C 772.171 446.923, 771 446.752, 771 445.507 C 771 444.482, 772.040 443.987, 774.250 443.958 L 777.500 443.916 774 442.053 C 772.076 441.029, 770.163 440.399, 769.750 440.654 C 769.338 440.909, 768.948 440.079, 768.884 438.809 C 768.791 436.959, 768.673 436.868, 768.291 438.351 C 767.852 440.057, 767.041 440.147, 757.997 439.500 C 748.767 438.839, 748.114 438.919, 747.089 440.833 C 744.840 445.035, 745.392 445.237, 758 444.819 C 766.543 444.536, 770 444.749, 770 445.560 C 770 446.829, 759.470 447.620, 730.500 448.529 C 720.600 448.840, 711.292 449.281, 709.815 449.509 C 707.671 449.840, 707.043 449.478, 706.701 447.712 C 706.290 445.590, 706.267 445.585, 706.136 447.603 C 706.004 449.646, 705.396 449.725, 684.736 450.412 C 673.041 450.800, 662.635 450.797, 661.613 450.405 C 659.752 449.691, 655.070 440.466, 654.921 437.221 C 654.873 436.178, 654.643 435.992, 654.338 436.750 C 654.014 437.552, 651.714 438, 647.917 438 C 644.663 438, 642 438.189, 642 438.419 C 642 438.650, 642.696 441.554, 643.546 444.873 C 645.027 450.656, 645.009 450.991, 643.111 452.889 C 640.786 455.214, 639.013 460.972, 639.006 466.227 C 639.001 468.996, 639.578 470.329, 641.250 471.414 C 647.711 475.609, 683.545 482.479, 695 481.720 C 702.486 481.223, 721.006 477.214, 720.994 476.092 C 720.990 475.767, 706.763 475.396, 689.379 475.268 C 656.732 475.028, 648.203 474.130, 642.128 470.292 C 640.038 468.972, 639.828 468.275, 640.356 464.417 C 640.686 462.010, 641.580 458.547, 642.343 456.721 L 643.730 453.401 692.734 451.652 C 739.380 449.986, 773.892 448.337, 811.500 445.977 C 834.181 444.554, 896.757 440.120, 905.335 439.328 L 912.171 438.697 902.445 453.598 C 897.096 461.794, 892.247 469.250, 891.671 470.167 C 890.938 471.332, 888.492 472.052, 883.561 472.555 L 876.500 473.274 882.956 475.701 C 891.481 478.904, 899.531 479.720, 910.500 478.492 L 919.500 477.485 910.452 475.242 C 901.400 472.999, 892.281 472.187, 896.500 474 C 898.438 474.833, 898.440 474.862, 896.559 474.930 C 894.672 474.998, 894.670 475.038, 896.488 476.367 C 898.139 477.575, 897.782 477.679, 893.429 477.257 C 890.718 476.994, 888.414 476.705, 888.310 476.616 C 888.205 476.526, 889.582 474.712, 891.368 472.584 L 894.617 468.714 902.559 470.463 C 906.926 471.426, 914.510 473.537, 919.411 475.155 C 924.312 476.773, 929.256 477.963, 930.398 477.798 C 933.241 477.390, 911.182 468.525, 903.250 466.889 C 899.813 466.180, 897 465.227, 897 464.770 C 897 464.314, 900.621 458.536, 905.047 451.930 C 915.479 436.358, 915.401 436.588, 910.002 437.500 L 905.703 438.226 908.101 435.072 C 917.117 423.219, 917.176 422.525, 909.119 423.255 L 903.238 423.789 901.043 412.644 C 894.590 379.880, 882.565 337.337, 870.474 304.500 C 855.677 264.314, 842.229 236.298, 817.233 193.578 C 801.794 167.192, 787.087 144.214, 792.541 155" />
</svg>