<svg xmlns="http://www.w3.org/2000/svg" width="1367" height="768" viewBox="0 0 1367 768" version="1.1">
	<path fill="black" d="M 1366.272 5 C 1366.272 7.475, 1366.467 8.488, 1366.706 7.250 C 1366.944 6.012, 1366.944 3.988, 1366.706 2.750 C 1366.467 1.512, 1366.272 2.525, 1366.272 5 M 788.829 160 C 789.030 179.525, 789.559 202.700, 790.004 211.500 C 790.552 222.315, 790.645 215.509, 790.290 190.500 C 790.001 170.150, 790.028 153.748, 790.350 154.051 C 790.672 154.354, 793.224 171.454, 796.022 192.051 C 799.641 218.693, 801.384 235.416, 802.061 250 C 802.585 261.275, 803.686 283.996, 804.507 300.491 C 805.328 316.986, 806.002 341.061, 806.004 353.991 C 806.006 366.921, 806.310 383.350, 806.680 390.500 C 807.441 405.237, 806.719 406.159, 812.941 382.500 C 820.856 352.407, 823.982 331.931, 824.698 305.500 C 825.827 263.860, 820.142 233.644, 800.806 178.500 C 796.949 167.500, 793.052 157.150, 792.146 155.500 C 791.031 153.467, 790.172 147.987, 789.482 138.500 C 788.608 126.495, 788.515 129.558, 788.829 160 M 781.336 139.202 C 779.614 144.316, 772.745 163.800, 766.072 182.500 C 749.160 229.890, 747.441 234.796, 726.661 295 C 698.358 376.997, 687.298 409.470, 687.556 409.813 C 687.917 410.291, 722.673 410.037, 727.898 409.518 C 730.429 409.266, 740.487 408.774, 750.250 408.423 C 760.013 408.072, 768 407.383, 768 406.893 C 768 406.402, 767.438 406.012, 766.750 406.026 C 766.063 406.041, 751.100 406.706, 733.500 407.504 C 715.900 408.302, 698.638 408.965, 695.139 408.978 C 688.987 408.999, 688.844 408.943, 690.779 407.250 C 694.111 404.335, 715.460 356.368, 730.502 318 C 738.034 298.788, 749.025 267.442, 753.994 251 C 755.573 245.775, 758.044 237.675, 759.486 233 C 764.657 216.232, 785.376 132.629, 784.794 130.882 C 784.615 130.344, 783.059 134.088, 781.336 139.202 M 1366.252 161.500 C 1366.263 163.700, 1366.468 164.482, 1366.707 163.238 C 1366.946 161.994, 1366.937 160.194, 1366.687 159.238 C 1366.437 158.282, 1366.241 159.300, 1366.252 161.500 M 791.681 188.247 C 791.875 195.536, 792.294 207.380, 792.610 214.566 L 793.185 227.631 796.093 228.729 C 798.578 229.667, 798.999 229.585, 798.992 228.163 C 798.974 224.442, 792.196 175.862, 791.613 175.280 C 791.456 175.122, 791.486 180.957, 791.681 188.247 M 1366.343 199.500 C 1366.346 203.900, 1366.522 205.576, 1366.733 203.224 C 1366.945 200.872, 1366.942 197.272, 1366.727 195.224 C 1366.512 193.176, 1366.339 195.100, 1366.343 199.500 M 196.500 208 C 196.160 208.550, 196.359 209, 196.941 209 C 197.523 209, 198 208.550, 198 208 C 198 207.450, 197.802 207, 197.559 207 C 197.316 207, 196.840 207.450, 196.500 208 M 1366.468 267.500 C 1366.468 299.400, 1366.595 312.595, 1366.749 296.821 C 1366.904 281.048, 1366.904 254.948, 1366.750 238.821 C 1366.595 222.695, 1366.468 235.600, 1366.468 267.500 M 790.489 274 C 790.910 300.960, 791.595 319.907, 792.169 320.500 C 792.794 321.145, 792.931 313.522, 792.557 299 C 792.237 286.625, 791.765 265.971, 791.507 253.103 C 791.249 240.234, 790.755 229.434, 790.408 229.103 C 790.061 228.771, 790.098 248.975, 790.489 274 M 793.317 238.227 C 793.885 244.936, 800.006 288.618, 802.043 300.500 C 802.774 304.758, 802.838 304.312, 802.480 297.500 C 802.248 293.100, 801.535 276.900, 800.895 261.500 C 800.254 246.100, 799.454 233.221, 799.115 232.879 C 798.777 232.538, 797.194 231.949, 795.598 231.572 L 792.697 230.886 793.317 238.227 M 793.531 269.909 C 793.789 278.384, 794 293.325, 794 303.112 L 794 320.906 797.750 321.947 C 803.261 323.478, 803.292 323.452, 802.735 317.750 C 802.103 311.279, 794.169 258.072, 793.527 256 C 793.272 255.175, 793.273 261.434, 793.531 269.909 M 792.552 360.414 C 792.798 381.266, 793 404.194, 793 411.364 C 793 418.677, 793.376 423.983, 793.857 423.450 C 794.697 422.519, 793.465 328.456, 792.561 324.500 C 792.310 323.400, 792.306 339.561, 792.552 360.414 M 795.321 335.750 C 795.666 341.663, 797.268 358.200, 798.882 372.500 C 800.496 386.800, 802.125 402.035, 802.503 406.355 C 802.992 411.944, 803.500 413.900, 804.262 413.138 C 805.434 411.966, 805.436 411.303, 804.427 359.750 L 803.747 325 799.221 325 L 794.694 325 795.321 335.750 M 332.770 376.533 C 332.458 428.018, 330.909 422.284, 345 421.795 L 353.500 421.500 353.763 386.250 L 354.026 351 373 351 L 391.974 351 392.237 386.250 L 392.500 421.500 403 421.500 L 413.500 421.500 413.500 377 L 413.500 332.500 373.270 332.239 L 333.041 331.977 332.770 376.533 M 456.141 333.750 C 455.044 335.817, 438.707 375.828, 435.420 384.500 C 434.169 387.800, 430.412 397.023, 427.073 404.995 C 423.733 412.968, 421 420.055, 421 420.745 C 421 421.668, 423.642 422, 430.977 422 C 442.506 422, 441.885 422.467, 446.584 410.250 L 449.373 403 467.114 403 L 484.855 403 487.784 410.750 C 489.395 415.012, 490.988 419.288, 491.325 420.250 C 491.859 421.775, 493.368 422, 503.085 422 C 513.241 422, 514.185 421.844, 513.694 420.250 C 511.830 414.203, 478.310 335.361, 476.705 333.250 C 476.065 332.407, 472.713 332, 466.413 332 C 458.536 332, 456.925 332.275, 456.141 333.750 M 522 377 L 522 422 531.901 422 L 541.803 422 542.521 410.510 C 542.915 404.191, 543.013 398.158, 542.737 397.103 C 542.265 395.296, 543.012 395.166, 555.868 394.834 C 568.021 394.520, 570.097 394.201, 575 391.897 C 581.666 388.763, 587.987 382.620, 591.111 376.236 C 592.892 372.597, 593.437 369.763, 593.464 364 C 593.538 348.434, 585.060 337.497, 569.764 333.425 C 566.043 332.435, 558.269 332.020, 543.250 332.012 L 522 332 522 377 M 990.388 333.431 C 990.080 334.235, 989.979 354.357, 990.164 378.147 L 990.500 421.401 993.250 421.300 C 994.763 421.245, 1008.396 421.155, 1023.546 421.100 L 1051.091 421 1050.796 414.250 L 1050.500 407.500 1028.750 407.230 L 1007 406.961 1007 394.980 L 1007 383 1026 383 L 1045 383 1045 376 L 1045 369 1026 369 L 1007 369 1007 357.520 L 1007 346.039 1028.750 345.770 L 1050.500 345.500 1050.500 339 L 1050.500 332.500 1020.724 332.235 C 995.361 332.009, 990.866 332.187, 990.388 333.431 M 1066 376.500 L 1066 421 1098.500 421.208 C 1116.375 421.323, 1133.120 421.435, 1135.712 421.458 L 1140.424 421.500 1144.622 411.500 L 1148.821 401.500 1168.531 401.500 L 1188.241 401.500 1192.361 411.274 L 1196.482 421.047 1212.409 420.774 L 1228.336 420.500 1238.940 403.917 L 1249.544 387.333 1252.973 392.917 C 1264.501 411.684, 1271.247 421.001, 1273.334 421.038 C 1274.525 421.060, 1278.538 421.172, 1282.251 421.288 C 1285.963 421.405, 1289.001 421.133, 1289.001 420.685 C 1289 420.237, 1282.300 409.790, 1274.111 397.469 L 1259.221 375.067 1267.361 363.567 C 1284.450 339.422, 1288 334.182, 1288 333.108 C 1288 332.381, 1284.972 332, 1279.198 332 L 1270.396 332 1264.469 341.250 C 1261.209 346.337, 1256.576 353.326, 1254.173 356.779 L 1249.805 363.058 1246.596 357.779 C 1244.832 354.876, 1240.333 347.887, 1236.598 342.250 L 1229.808 332 1220.345 332 C 1213.995 332, 1211.095 332.345, 1211.530 333.049 C 1213.048 335.505, 1234.562 366.893, 1237.574 371.046 L 1240.871 375.592 1231.850 388.546 C 1226.888 395.671, 1220.541 405.039, 1217.745 409.364 L 1212.661 417.229 1210.671 413.364 C 1209.576 411.239, 1204.094 398.700, 1198.487 385.500 C 1192.881 372.300, 1185.456 354.863, 1181.986 346.750 L 1175.678 332 1168.589 332.006 L 1161.500 332.011 1156.771 343.256 C 1135.953 392.754, 1127.092 413.243, 1124.698 417.412 C 1123.645 419.247, 1123.440 418.774, 1123 413.500 L 1122.500 407.500 1102.250 407.229 L 1082 406.959 1082 369.479 L 1082 332 1074 332 L 1066 332 1066 376.500 M 457.207 336 C 456.913 336.825, 455.117 341.325, 453.215 346 C 451.314 350.675, 448.879 356.750, 447.805 359.500 C 442.545 372.969, 438.072 384.023, 431.353 400.157 C 427.309 409.868, 424 418.080, 424 418.407 C 424 418.733, 427.768 419, 432.374 419 L 440.749 419 444.236 410.250 L 447.723 401.500 466.965 401.500 L 486.207 401.500 489.708 410.250 L 493.209 419 502.080 419 C 512.218 419, 511.741 420.125, 506.527 408.500 C 505.047 405.200, 502.040 398, 499.844 392.500 C 497.649 387, 491.310 371.843, 485.759 358.817 L 475.666 335.133 466.703 334.817 C 459.440 334.560, 457.639 334.785, 457.207 336 M 524 376.750 L 524 419 532 419 L 540 419 540 406 L 540 393 552.318 393 C 567.074 393, 573.322 391.444, 580.659 385.942 C 594.716 375.400, 595.244 352.544, 581.682 341.669 C 573.531 335.132, 571.012 334.627, 546.250 334.560 L 524.001 334.500 524 376.750 M 613.250 334.743 L 606 335.088 606 377.294 L 606 419.500 614 419.500 L 622 419.500 622 402.250 L 622 385 628.312 385 L 634.624 385 641.615 394.750 C 645.460 400.113, 651.057 407.968, 654.053 412.206 L 659.500 419.911 668.750 419.956 C 673.837 419.980, 678 419.711, 678 419.357 C 678 419.003, 674.019 413.266, 669.152 406.607 C 651.892 382.987, 647 376.004, 647 374.981 C 647 374.412, 649.630 370.471, 652.845 366.223 C 663.184 352.560, 676 334.998, 676 334.492 C 676 334.221, 672.178 334, 667.506 334 L 659.013 334 656.256 337.753 C 654.740 339.818, 648.395 348.104, 642.156 356.168 C 630.774 370.879, 628.378 372.890, 623.915 371.473 C 622.120 370.903, 622 369.714, 622 352.433 C 622 342.295, 621.663 334.089, 621.250 334.199 C 620.837 334.308, 617.237 334.553, 613.250 334.743 M 183.559 338.082 C 178.848 342.219, 178.012 345.931, 178.006 362.750 L 178 377 192.500 377 L 207 377 207 361.460 C 207 347.868, 206.748 345.426, 204.990 341.981 C 202.504 337.108, 198.607 335, 192.084 335 C 187.909 335, 186.482 335.516, 183.559 338.082 M 335 377 L 335 419 343.500 419 L 352 419 352 384 L 352 349 373.525 349 L 395.050 349 394.775 384 L 394.500 419.001 402.750 419 L 411 419 411 377 L 411 335 373 335 L 335 335 335 377 M 187.241 337.995 C 182.955 340.608, 180.008 345.597, 180.004 350.250 L 180 354 186 354 L 192 354 192 345 C 192 340.050, 191.662 336.002, 191.250 336.004 C 190.838 336.006, 189.033 336.902, 187.241 337.995 M 194 345.052 L 194 354 200.114 354 L 206.227 354 205.525 349.250 C 204.687 343.576, 201.202 338.615, 197.032 337.161 L 194 336.104 194 345.052 M 924 362.348 L 924 379.247 935.750 378.806 C 949.061 378.307, 952.242 377.171, 956.698 371.329 C 959.079 368.208, 959.500 366.713, 959.500 361.383 C 959.500 355.579, 959.241 354.844, 956.028 351.529 C 951.694 347.057, 948.263 346.125, 934.750 345.749 L 924 345.449 924 362.348 M 540.223 363.750 L 540.500 378.500 551.500 378.477 C 560.144 378.459, 563.307 378.058, 566.270 376.604 C 577.041 371.317, 577.735 357.035, 567.500 351.282 C 563.988 349.307, 562.063 349.031, 551.723 349.016 L 539.947 349 540.223 363.750 M 542.212 363.510 L 541.925 376 547.712 376.089 C 563.885 376.337, 567.618 375.315, 571.040 369.701 C 573.368 365.884, 573.496 363.124, 571.560 358.490 C 569.102 352.606, 565.132 351.007, 553 351.014 L 542.500 351.020 542.212 363.510 M 1168.079 351.884 C 1168.036 352.645, 1165.020 360.295, 1161.379 368.884 C 1157.737 377.473, 1154.539 385.063, 1154.272 385.750 C 1153.897 386.715, 1157.136 387, 1168.500 387 C 1179.870 387, 1183.101 386.716, 1182.715 385.750 C 1182.441 385.063, 1179.311 377.525, 1175.760 369 C 1172.208 360.475, 1169.045 352.825, 1168.730 352 C 1168.289 350.843, 1168.140 350.817, 1168.079 351.884 M 465.582 353.187 C 465.360 353.909, 464.947 355.400, 464.666 356.500 C 464.384 357.600, 461.707 364.913, 458.716 372.750 L 453.278 387 467.139 387 C 480.318 387, 482.125 386.646, 480.142 384.450 C 479.112 383.310, 468 355.553, 468 354.121 C 468 352.510, 466.025 351.747, 465.582 353.187 M 180 365.500 L 180 375 186 375 L 192 375 192 365.500 L 192 356 186 356 L 180 356 180 365.500 M 193.009 360.250 C 193.013 362.587, 193.301 366.863, 193.648 369.750 L 194.279 375 200.139 375 L 206 375 206 365.500 L 206 356 199.500 356 L 193 356 193.009 360.250 M 465.972 358.083 C 465.957 358.863, 463.776 365.238, 461.125 372.250 L 456.306 385 467.166 385 L 478.027 385 476.382 381.250 C 475.478 379.188, 472.945 373, 470.754 367.500 C 466.502 356.826, 466.016 355.868, 465.972 358.083 M 795.766 389.500 C 796.046 406.550, 796.432 420.681, 796.624 420.903 C 796.815 421.124, 797.969 420.038, 799.187 418.490 C 801.769 415.207, 801.775 415.759, 798.867 387 C 795.688 355.557, 795.215 355.938, 795.766 389.500 M 299.440 366.398 C 296.303 368.584, 281.174 376.810, 279.048 377.485 C 277.597 377.945, 275.518 376.654, 270.943 372.447 L 264.789 366.790 260.145 371.137 C 257.590 373.528, 252.912 377.949, 249.750 380.961 L 244 386.437 244 381.671 L 244 376.905 237.750 377.202 L 231.500 377.500 231.339 387.762 L 231.178 398.023 223.521 405.174 L 215.863 412.325 218.875 415.337 L 221.887 418.348 230.193 410.766 C 234.762 406.596, 244.350 397.800, 251.500 391.220 C 262.914 380.717, 264.717 379.408, 266.279 380.493 C 267.745 381.511, 298.644 409.914, 305.305 416.365 C 307.189 418.190, 307.299 418.163, 310.351 415.111 L 313.471 411.990 306.986 405.566 C 302.043 400.670, 300.335 398.233, 299.808 395.321 C 298.600 388.656, 298.947 375.494, 300.463 370.456 C 301.268 367.781, 301.804 365.470, 301.653 365.320 C 301.502 365.169, 300.506 365.654, 299.440 366.398 M 1366.158 396 C 1366.158 397.375, 1366.385 397.938, 1366.662 397.250 C 1366.940 396.563, 1366.940 395.438, 1366.662 394.750 C 1366.385 394.063, 1366.158 394.625, 1366.158 396 M 1366.328 405.500 C 1366.333 409.350, 1366.513 410.802, 1366.730 408.728 C 1366.946 406.653, 1366.943 403.503, 1366.722 401.728 C 1366.501 399.952, 1366.324 401.650, 1366.328 405.500 M 769 407 C 769 407.550, 770.098 408, 771.441 408 C 772.784 408, 774.160 407.550, 774.500 407 C 774.861 406.417, 773.844 406, 772.059 406 C 770.377 406, 769 406.450, 769 407 M 778.750 406.723 C 780.538 406.945, 783.462 406.945, 785.250 406.723 C 787.038 406.502, 785.575 406.320, 782 406.320 C 778.425 406.320, 776.962 406.502, 778.750 406.723 M 769 414.878 C 769 418.766, 771.518 420.931, 772.364 417.771 C 773.474 413.629, 773.089 412, 771 412 C 769.463 412, 769 412.667, 769 414.878 M 774.519 416.719 C 774.130 419.314, 774.192 421.565, 774.656 421.722 C 775.120 421.879, 778.169 423.781, 781.432 425.950 C 784.694 428.119, 787.731 429.666, 788.182 429.388 C 788.632 429.110, 789 425.084, 789 420.441 L 789 412 782.114 412 L 775.227 412 774.519 416.719 M 250 418.500 L 250 424 255.500 424 L 261 424 261 418.500 L 261 413 255.500 413 L 250 413 250 418.500 M 268 418.500 L 268 424 273.500 424 L 279 424 279 418.500 L 279 413 273.500 413 L 268 413 268 418.500 M 763.559 414.468 C 766.036 416.342, 766.653 416.347, 767.362 414.500 C 767.798 413.362, 767.175 413, 764.777 413 C 761.784 413, 761.720 413.077, 763.559 414.468 M 1366.232 417 C 1366.232 418.925, 1366.438 419.712, 1366.689 418.750 C 1366.941 417.788, 1366.941 416.212, 1366.689 415.250 C 1366.438 414.288, 1366.232 415.075, 1366.232 417 M 807 422.912 C 807 427.360, 807.337 430.993, 807.750 430.984 C 808.163 430.976, 819.300 430.299, 832.500 429.480 C 845.700 428.661, 862.800 427.678, 870.500 427.295 L 884.500 426.598 873.500 425.406 C 862.012 424.161, 842.537 421.146, 825.500 417.975 C 820 416.951, 813.587 415.824, 811.250 415.469 L 807 414.824 807 422.912 M 804.115 421 C 804.246 429.521, 805.781 432.991, 805.885 425 C 805.931 421.425, 805.533 417.825, 805 417 C 804.314 415.939, 804.055 417.108, 804.115 421 M 798.724 421.767 C 796.920 423.649, 796 425.689, 796 427.805 C 796 430.790, 796.230 431, 799.500 431 C 802.962 431, 802.999 430.954, 802.930 426.750 C 802.891 424.413, 802.542 421.695, 802.153 420.712 C 801.519 419.105, 801.171 419.212, 798.724 421.767 M 1366.409 437.500 C 1366.408 446.850, 1366.558 450.810, 1366.743 446.299 C 1366.928 441.789, 1366.929 434.139, 1366.745 429.299 C 1366.562 424.460, 1366.410 428.150, 1366.409 437.500 M 769 427.500 C 769 430.991, 769.379 432.884, 770 432.500 C 770.550 432.160, 771 429.910, 771 427.500 C 771 425.090, 770.550 422.840, 770 422.500 C 769.379 422.116, 769 424.009, 769 427.500 M 772.425 428.547 C 772.059 430.497, 771.926 432.243, 772.130 432.427 C 772.962 433.177, 785 433.568, 785 432.845 C 785 432.136, 774.562 425, 773.526 425 C 773.286 425, 772.791 426.596, 772.425 428.547 M 904.393 426.582 C 904.727 427.452, 905 428.577, 905 429.082 C 905 430.719, 909.642 430.053, 911.345 428.171 C 913.828 425.428, 913.429 425, 908.393 425 C 904.603 425, 903.894 425.280, 904.393 426.582 M 142.500 428 C 143.495 429.100, 144.535 430, 144.810 430 C 145.085 430, 144.495 429.100, 143.500 428 C 142.505 426.900, 141.465 426, 141.190 426 C 140.915 426, 141.505 426.900, 142.500 428 M 793.926 426.250 C 793.196 428.704, 793.235 431.027, 794.014 431.509 C 794.580 431.858, 795 430.815, 795 429.059 C 795 427.377, 794.775 426, 794.500 426 C 794.225 426, 793.967 426.113, 793.926 426.250 M 883.055 429.923 L 880.801 433.088 883.151 432.593 C 884.443 432.321, 889.438 431.811, 894.250 431.459 C 900.811 430.980, 903 430.468, 903 429.410 C 903 428.449, 901.806 427.997, 899.250 427.991 C 897.188 427.987, 893.207 427.707, 890.404 427.370 C 885.531 426.785, 885.210 426.896, 883.055 429.923 M 855 429.556 C 845.375 430.242, 836.263 430.848, 834.750 430.902 C 832.517 430.982, 832 431.465, 832 433.475 C 832 435.616, 832.372 435.890, 834.750 435.507 C 836.263 435.264, 846.725 434.547, 858 433.913 C 869.275 433.280, 878.835 432.565, 879.245 432.325 C 879.654 432.085, 880.457 431.014, 881.030 429.944 C 882.270 427.627, 882.075 427.624, 855 429.556 M 250 436.500 L 250 442 255.500 442 L 261 442 261 436.500 L 261 431 255.500 431 L 250 431 250 436.500 M 268 436.500 L 268 442 273.500 442 L 279 442 279 436.500 L 279 431 273.500 431 L 268 431 268 436.500 M 821 433.481 C 821 436.163, 823.755 437.455, 828.148 436.833 C 829.935 436.580, 830.524 435.839, 830.601 433.750 C 830.698 431.114, 830.501 431, 825.851 431 C 821.353 431, 821 431.181, 821 433.481 M 798.733 432.726 C 794.904 433.294, 796.336 435, 800.642 435 C 802.918 435, 804.026 434.579, 803.771 433.813 C 803.295 432.385, 802.374 432.186, 798.733 432.726 M 805.079 433.583 C 805.127 434.748, 805.364 434.985, 805.683 434.188 C 805.972 433.466, 805.936 432.603, 805.604 432.271 C 805.272 431.939, 805.036 432.529, 805.079 433.583 M 807 433.364 C 807 434.229, 808.698 434.961, 811.640 435.364 C 818.450 436.298, 819 436.196, 819 434 C 819 432.222, 818.333 432, 813 432 C 808.599 432, 807 432.364, 807 433.364 M 905.583 433.643 C 904.631 436.126, 905.681 436.465, 906.954 434.086 C 907.568 432.938, 907.653 432, 907.142 432 C 906.632 432, 905.930 432.739, 905.583 433.643 M 888 433.907 C 881.050 434.541, 879.531 435.139, 878.104 437.806 C 877.261 439.381, 878.120 439.430, 890.349 438.500 C 902.875 437.547, 903.515 437.393, 903.820 435.250 C 904.116 433.166, 903.783 433.012, 899.320 433.157 C 896.669 433.244, 891.575 433.581, 888 433.907 M 734.762 434.707 C 736.006 434.946, 737.806 434.937, 738.762 434.687 C 739.718 434.437, 738.700 434.241, 736.500 434.252 C 734.300 434.263, 733.518 434.468, 734.762 434.707 M 752.728 434.722 C 754.503 434.943, 757.653 434.946, 759.728 434.730 C 761.802 434.513, 760.350 434.333, 756.500 434.328 C 752.650 434.324, 750.952 434.501, 752.728 434.722 M 855.174 435.566 C 829.713 437.298, 829.848 437.259, 842.149 439.329 C 850.383 440.714, 855.286 440.963, 863.763 440.426 C 874.463 439.749, 874.767 439.664, 876.420 436.866 C 878.029 434.143, 878.023 434.006, 876.307 434.125 C 875.313 434.194, 865.803 434.842, 855.174 435.566 M 764.750 435.662 C 765.438 435.940, 766.563 435.940, 767.250 435.662 C 767.938 435.385, 767.375 435.158, 766 435.158 C 764.625 435.158, 764.063 435.385, 764.750 435.662 M 769.195 437.500 C 769.215 439.150, 769.439 439.704, 769.693 438.731 C 769.947 437.758, 769.930 436.408, 769.656 435.731 C 769.382 435.054, 769.175 435.850, 769.195 437.500 M 772 437.883 C 772 440.267, 772.598 441.024, 775.250 442 L 778.500 443.196 775 444.522 C 771.888 445.701, 771.777 445.858, 774 445.936 C 775.375 445.984, 786.063 445.479, 797.750 444.813 C 818.461 443.633, 819 443.548, 819 441.450 C 819 439.469, 818.340 439.249, 810.750 438.690 C 792.367 437.338, 776.373 435.920, 774.250 435.455 C 772.318 435.031, 772 435.374, 772 437.883 M 730 437.110 C 726.975 437.583, 723.345 438.133, 721.933 438.333 C 720.520 438.532, 716.583 439.774, 713.183 441.092 C 707.682 443.225, 707 443.794, 707 446.245 C 707 448.908, 707.175 448.998, 712.250 448.951 C 725.182 448.831, 767.049 446.282, 767.737 445.573 C 768.157 445.140, 763.325 444.947, 757 445.143 C 745.968 445.485, 745.512 445.419, 745.798 443.500 C 746.488 438.860, 746.498 438.856, 757.495 439.186 C 764.723 439.402, 768.004 439.153, 768.002 438.389 C 767.998 436.091, 742.088 435.219, 730 437.110 M 707 438.992 C 707 440.928, 707.119 440.938, 711.250 439.329 C 717 437.091, 717.016 437, 711.667 437 C 707.673 437, 707 437.287, 707 438.992 M 665.750 438.746 C 660.388 438.925, 656 439.252, 656 439.471 C 656 439.690, 656.439 441.024, 656.975 442.435 C 657.922 444.924, 658.214 445, 666.893 445 C 677.835 445, 679 444.605, 679 440.893 C 679 438.725, 678.562 438.052, 677.250 438.209 C 676.288 438.324, 671.112 438.566, 665.750 438.746 M 644.370 441.250 C 644.701 442.488, 644.979 443.837, 644.986 444.250 C 645.016 445.886, 649.982 444.903, 650.965 443.066 C 652.729 439.770, 652.145 439, 647.883 439 C 644.102 439, 643.816 439.183, 644.370 441.250 M 726.430 439.965 C 724.379 440.795, 720.463 445.796, 721.248 446.581 C 721.472 446.806, 726.346 446.654, 732.078 446.244 L 742.500 445.500 742.813 442.250 L 743.127 439 735.813 439.063 C 731.791 439.098, 727.568 439.504, 726.430 439.965 M 821 440.921 C 821 442.827, 821.562 442.995, 827.750 442.942 C 831.462 442.911, 836.300 442.545, 838.500 442.129 C 842.202 441.429, 841.904 441.319, 834.500 440.643 C 830.100 440.242, 825.263 439.672, 823.750 439.377 C 821.460 438.931, 821 439.189, 821 440.921 M 889 441.111 C 877.175 442.063, 859.625 443.346, 850 443.961 C 840.375 444.577, 822.600 445.720, 810.500 446.501 C 774.828 448.806, 731.349 450.905, 686.500 452.487 C 663.400 453.302, 644.388 453.976, 644.250 453.985 C 644.112 453.993, 644 454.450, 644 455 C 644 455.550, 644.337 455.947, 644.750 455.882 C 645.163 455.816, 646.850 455.861, 648.500 455.981 C 651.469 456.197, 651.474 456.208, 649 457 C 645.128 458.240, 655.500 458.148, 706.500 456.489 C 767.537 454.504, 840.895 450.990, 876 448.369 C 880.675 448.020, 884.236 448.021, 883.913 448.371 C 882.731 449.652, 866.585 451.073, 826 453.465 C 777.490 456.325, 693.900 459.631, 658 460.108 L 649.500 460.221 655 461.610 C 658.025 462.373, 661.288 462.816, 662.251 462.592 C 663.215 462.369, 663.786 462.538, 663.520 462.967 C 662.506 464.608, 695.395 470.409, 702.505 469.843 C 704.872 469.654, 706.641 469.773, 706.435 470.106 C 705.994 470.818, 718.824 472, 726.994 472 C 730.131 472, 735.339 471.083, 738.593 469.958 C 747.333 466.937, 758.059 466.385, 766 468.549 C 769.575 469.522, 775.200 470.237, 778.500 470.137 C 793.311 469.685, 831.030 465.745, 843 463.399 C 844.925 463.021, 846.204 463.036, 845.842 463.431 C 845.480 463.827, 844.580 464.273, 843.842 464.424 C 843.104 464.575, 841.734 465.031, 840.798 465.438 C 839.862 465.844, 838.512 465.846, 837.798 465.442 C 836.833 464.895, 836.782 465.014, 837.602 465.905 C 838.456 466.834, 839.764 466.836, 843.418 465.916 C 849.271 464.442, 859.434 465.910, 868.504 469.538 C 873.131 471.390, 876.520 472, 882.171 472 L 889.685 472 900.411 455.902 C 906.311 447.048, 910.994 439.708, 910.819 439.592 C 910.643 439.475, 900.825 440.158, 889 441.111 M 653 443 C 653 444.111, 653.667 445, 654.500 445 C 656.183 445, 656.251 444.817, 655.393 442.582 C 654.536 440.347, 653 440.616, 653 443 M 691 445.001 C 677.048 446.342, 666.132 448.183, 664.333 449.498 C 662.829 450.598, 664.298 450.739, 673.521 450.377 C 691.518 449.670, 705.619 448.679, 703.750 448.253 C 702.788 448.033, 702 447.598, 702 447.287 C 702 446.975, 702.788 446.123, 703.750 445.392 C 705.306 444.211, 705.113 444.076, 702 444.172 C 700.075 444.231, 695.125 444.604, 691 445.001 M 651 447.062 C 651 447.488, 650.727 448.548, 650.393 449.418 C 649.894 450.719, 650.601 451, 654.372 451 C 658.765 451, 658.914 450.906, 657.929 448.750 C 657.224 447.205, 655.977 446.467, 653.951 446.394 C 652.328 446.335, 651 446.636, 651 447.062 M 659.015 446.844 C 659.024 447.205, 659.401 448.084, 659.854 448.797 C 660.518 449.846, 660.904 449.821, 661.859 448.669 C 662.808 447.526, 662.643 447.140, 661.021 446.716 C 659.909 446.425, 659.007 446.483, 659.015 446.844 M 646 449 C 646 451.384, 647.536 451.653, 648.393 449.418 C 649.251 447.183, 649.183 447, 647.500 447 C 646.667 447, 646 447.889, 646 449 M 297.171 458.521 C 286.808 463.709, 280.360 469.470, 276.325 477.144 C 273.800 481.948, 273.513 483.479, 273.545 492 C 273.586 502.963, 275.393 508.109, 281.623 515.004 C 286.469 520.368, 294 525.641, 294 523.670 C 294 522.886, 293.290 521.656, 292.422 520.935 C 288.314 517.526, 283.987 504.543, 284.012 495.701 C 284.051 481.749, 293.010 465.694, 305.077 457.951 C 307.784 456.213, 310 454.613, 310 454.396 C 310 453, 304.969 454.618, 297.171 458.521 M 671 454.796 C 671 455.573, 683.090 455.206, 683.917 454.404 C 684.146 454.182, 681.333 454, 677.667 454 C 674 454, 671 454.358, 671 454.796 M 326.317 458.988 C 313.750 461.646, 300.370 472.423, 294.246 484.819 C 290.833 491.729, 290.504 493.117, 290.549 500.451 C 290.610 510.429, 292.826 515.821, 299.972 523.377 C 305.632 529.361, 313.393 533.401, 322.445 535.075 C 328.933 536.274, 337.786 535.949, 334.500 534.632 C 326.447 531.404, 324.103 529.997, 319.793 525.798 C 316.877 522.958, 313.677 518.397, 311.829 514.447 C 309.100 508.616, 308.798 507.102, 309.249 501.486 C 310.169 490.026, 316.801 480.254, 327.179 475.068 C 340.722 468.301, 355.264 472.811, 360.528 485.412 C 362.712 490.639, 361.771 495.370, 357.993 498.163 C 354.800 500.524, 354.828 502.119, 358.049 501.277 C 361.103 500.478, 364.802 495.021, 366.071 489.440 C 367.063 485.080, 366.932 483.802, 364.954 478.559 C 359.610 464.391, 342.277 455.611, 326.317 458.988 M 666 462 C 664.793 462.780, 664.951 462.972, 666.809 462.985 C 668.097 462.993, 668.845 462.558, 668.500 462 C 667.757 460.798, 667.861 460.798, 666 462 M 708 469 C 708 469.550, 708.702 470, 709.559 470 C 710.416 470, 710.840 469.550, 710.500 469 C 710.160 468.450, 709.459 468, 708.941 468 C 708.423 468, 708 468.450, 708 469 M 838 472.326 C 829.380 474.657, 816.778 479.795, 816.165 481.228 C 815.980 481.660, 815.348 481.715, 814.760 481.352 C 814.172 480.988, 813.972 481.146, 814.316 481.703 C 814.701 482.326, 819.666 480.956, 827.221 478.142 C 839.478 473.578, 839.523 473.570, 852.500 473.566 C 864.559 473.562, 866.165 473.794, 874.680 476.768 C 880.385 478.760, 886.631 480.161, 891.180 480.468 L 898.500 480.964 893 479.621 C 889.975 478.883, 885.064 477.293, 882.086 476.089 C 877.414 474.200, 876.866 474.138, 878.086 475.637 C 879.358 477.200, 879.300 477.295, 877.500 476.583 C 876.400 476.148, 874.349 475.445, 872.942 475.021 C 871.534 474.596, 868.849 473.456, 866.975 472.487 C 861.422 469.616, 848.294 469.543, 838 472.326 M 744.500 473.018 C 742.300 473.457, 736.782 475.452, 732.238 477.452 C 727.694 479.452, 719.144 482.384, 713.238 483.969 C 703.509 486.579, 702.041 488.219, 711.372 486.054 C 713.502 485.560, 714.852 485.544, 714.372 486.018 C 713.893 486.492, 712.207 487.112, 710.627 487.396 C 707.129 488.024, 705.927 489, 708.652 489 C 712.312 489, 721.399 485.826, 734.500 479.973 C 741.650 476.778, 749.075 473.718, 751 473.172 C 754.485 472.185, 754.487 472.180, 751.500 472.200 C 749.850 472.210, 746.700 472.578, 744.500 473.018 M 800.296 473.744 C 804.583 473.932, 811.333 473.931, 815.296 473.742 C 819.258 473.552, 815.750 473.399, 807.500 473.400 C 799.250 473.401, 796.008 473.556, 800.296 473.744 M 723 482.500 C 718.952 483.960, 717.443 484.850, 719 484.861 C 720.375 484.870, 723.750 483.817, 726.500 482.522 C 732.896 479.509, 731.322 479.499, 723 482.500 M 1366.286 484.500 C 1366.294 487.250, 1366.488 488.256, 1366.718 486.736 C 1366.947 485.216, 1366.941 482.966, 1366.704 481.736 C 1366.467 480.506, 1366.279 481.750, 1366.286 484.500 M 336.500 483.956 C 327.575 488.221, 322.990 494.662, 323.022 502.890 C 323.050 510.109, 325.495 515.396, 331.250 520.679 C 345.060 533.358, 363.826 535.561, 388 527.338 C 398.052 523.919, 413.358 516.741, 417.427 513.538 C 421.004 510.722, 418.338 510.945, 410.976 514.078 C 394.553 521.067, 384.213 523.374, 369 523.446 C 358.645 523.495, 356.952 523.242, 352 520.910 C 344.354 517.309, 340.110 513.432, 337.367 507.541 C 333.241 498.680, 334.664 491.573, 341.827 485.265 C 345.387 482.129, 345.423 482.030, 343 482.037 C 341.625 482.041, 338.700 482.904, 336.500 483.956 M 915.874 485.037 C 907.068 486.065, 880.412 493.663, 884.685 493.927 C 885.337 493.967, 887.123 493.523, 888.656 492.941 C 890.188 492.358, 894.155 491.647, 897.471 491.360 L 903.500 490.839 900.500 492.913 C 896.830 495.450, 896.539 495.448, 907.949 492.958 C 913.094 491.835, 920.498 490.544, 924.402 490.088 L 931.500 489.259 925.191 489.130 C 921.269 489.049, 919.116 488.622, 919.500 488 C 919.840 487.450, 919.641 487, 919.059 487 C 918.477 487, 918 487.450, 918 488 C 918 488.550, 917.550 489, 917 489 C 915.178 489, 915.964 487.146, 918.069 486.478 C 919.207 486.117, 923.145 485.471, 926.819 485.042 L 933.500 484.263 928 484.263 C 924.975 484.263, 919.518 484.611, 915.874 485.037 M 934.813 484.683 C 935.534 484.972, 936.397 484.936, 936.729 484.604 C 937.061 484.272, 936.471 484.036, 935.417 484.079 C 934.252 484.127, 934.015 484.364, 934.813 484.683 M 696.250 487.689 C 697.212 487.941, 698.788 487.941, 699.750 487.689 C 700.712 487.438, 699.925 487.232, 698 487.232 C 696.075 487.232, 695.288 487.438, 696.250 487.689 M 907.517 489.611 C 906.472 490.375, 906.127 491, 906.750 491 C 907.373 491, 908.148 490.570, 908.473 490.044 C 908.798 489.518, 909.725 489.341, 910.532 489.651 C 911.339 489.960, 912 489.989, 912 489.714 C 912 488.429, 909.221 488.365, 907.517 489.611 M 702.269 489.693 C 703.242 489.947, 704.592 489.930, 705.269 489.656 C 705.946 489.382, 705.150 489.175, 703.500 489.195 C 701.850 489.215, 701.296 489.439, 702.269 489.693 M 689.768 490.725 C 691.565 490.947, 694.265 490.943, 695.768 490.715 C 697.271 490.486, 695.800 490.304, 692.500 490.310 C 689.200 490.315, 687.971 490.502, 689.768 490.725 M 498.891 498.871 C 495.926 500.450, 485.625 505.894, 476 510.969 C 450.305 524.516, 445.701 528.277, 437.878 542.111 C 432.055 552.408, 429.481 555.546, 423.873 559.179 C 421.193 560.916, 419 562.690, 419 563.121 C 419 564.285, 428.455 563.093, 437 560.851 C 456.622 555.703, 468.986 545.720, 482.026 524.500 C 489.861 511.749, 497.771 502.515, 503.504 499.428 C 505.427 498.392, 507 497.198, 507 496.773 C 507 495.303, 504.259 496.012, 498.891 498.871 M 819.441 497.468 C 818.374 498.276, 818.007 498.951, 818.628 498.968 C 819.248 498.986, 820.315 498.325, 821 497.500 C 822.581 495.595, 821.935 495.582, 819.441 497.468 M 887.813 497.683 C 888.534 497.972, 889.397 497.936, 889.729 497.604 C 890.061 497.272, 889.471 497.036, 888.417 497.079 C 887.252 497.127, 887.015 497.364, 887.813 497.683 M 810.960 501.459 C 800.931 506.685, 779.114 513.057, 763.500 515.320 C 761.850 515.559, 762.869 515.617, 765.765 515.448 C 768.832 515.269, 770.791 515.529, 770.456 516.071 C 769.735 517.238, 777.167 517.209, 782.500 516.024 C 801.813 511.730, 823.763 501.658, 818.341 499.577 C 816.228 498.766, 816.030 498.817, 810.960 501.459 M 868 500 C 867.175 500.533, 866.950 500.969, 867.500 500.969 C 868.050 500.969, 869.175 500.533, 870 500 C 870.825 499.467, 871.050 499.031, 870.500 499.031 C 869.950 499.031, 868.825 499.467, 868 500 M 469.441 502.555 C 467.577 504.049, 467.589 504.067, 469.750 503.020 C 470.988 502.420, 472 501.720, 472 501.465 C 472 500.700, 471.481 500.921, 469.441 502.555 M 722.750 515.662 C 723.438 515.940, 724.563 515.940, 725.250 515.662 C 725.938 515.385, 725.375 515.158, 724 515.158 C 722.625 515.158, 722.063 515.385, 722.750 515.662 M 740.750 516.737 C 743.638 516.939, 748.362 516.939, 751.250 516.737 C 754.138 516.535, 751.775 516.370, 746 516.370 C 740.225 516.370, 737.862 516.535, 740.750 516.737 M 553.002 520.068 C 532.621 522.589, 512.449 530.991, 493.157 544.995 C 490.768 546.729, 489.005 548.338, 489.237 548.571 C 489.470 548.804, 493.275 547.428, 497.692 545.514 C 508.995 540.616, 527.747 535.419, 539.388 533.959 C 550.966 532.506, 569.284 533.154, 579.500 535.377 C 591.217 537.927, 604.392 543.173, 612.500 548.517 C 616.611 551.226, 616.094 551.169, 607.500 547.962 C 593.055 542.571, 574.351 539.008, 560.500 539.008 C 548.087 539.008, 529.872 542.094, 519 546.039 C 517.625 546.538, 515.200 547.421, 513.611 548.001 C 508.341 549.925, 511.652 550.130, 520.637 548.435 C 532.658 546.167, 559.449 546.947, 572.500 549.945 C 590.489 554.077, 600.466 557.882, 629 571.491 C 651.834 582.381, 663.812 586.991, 679.837 591.057 C 696.553 595.299, 712.105 597.106, 729.079 596.779 L 743.500 596.500 734 594.619 C 707.775 589.426, 679.845 575.603, 648 552.057 C 633.725 541.502, 626.673 536.865, 619.045 533.019 C 609.550 528.231, 595.950 523.171, 588.255 521.562 C 579.129 519.655, 562.157 518.935, 553.002 520.068 M 920 522.434 C 899.866 526.051, 887.817 529.960, 862 541.248 C 811.770 563.212, 795.341 567.460, 756 568.660 C 740.956 569.118, 733.419 568.875, 723.014 567.593 C 709.151 565.886, 688.944 561.590, 678.707 558.173 C 675.520 557.110, 673.067 556.700, 673.254 557.262 C 673.768 558.804, 694.887 570.297, 706.899 575.571 C 756.823 597.490, 808.574 598.830, 857.525 579.469 C 863.894 576.950, 880.669 569.157, 894.803 562.151 C 931.705 543.859, 949.558 538.119, 979.500 534.920 C 989.976 533.801, 1023.069 534.322, 1026.559 535.661 C 1027.351 535.965, 1028 535.817, 1028 535.333 C 1028 534.163, 1001.075 527.525, 983.500 524.360 C 966.136 521.234, 932.377 520.210, 920 522.434 M 837 524 C 836.175 524.533, 835.950 524.969, 836.500 524.969 C 837.050 524.969, 838.175 524.533, 839 524 C 839.825 523.467, 840.050 523.031, 839.500 523.031 C 838.950 523.031, 837.825 523.467, 837 524 M 829.500 527.072 C 827.300 528.130, 826.625 528.715, 828 528.373 C 830.831 527.668, 836.030 525.062, 834.500 525.114 C 833.950 525.133, 831.700 526.014, 829.500 527.072 M 821.750 529.689 C 820.788 529.941, 820 530.579, 820 531.109 C 820 531.662, 820.954 531.574, 822.250 530.900 C 826 528.949, 825.862 528.615, 821.750 529.689 M 808.733 535.124 C 809.412 535.808, 810.219 536.115, 810.526 535.807 C 810.834 535.499, 810.279 534.940, 809.293 534.564 C 807.868 534.022, 807.753 534.136, 808.733 535.124 M 801.214 536.128 C 799.407 536.649, 798.196 537.509, 798.523 538.038 C 798.850 538.567, 798.566 539, 797.892 539 C 797.218 539, 796.890 539.224, 797.163 539.497 C 797.437 539.770, 800.011 539.195, 802.885 538.218 C 805.758 537.241, 807.784 536.118, 807.388 535.721 C 806.505 534.839, 805.442 534.909, 801.214 536.128 M 782.813 540.683 C 783.534 540.972, 784.397 540.936, 784.729 540.604 C 785.061 540.272, 784.471 540.036, 783.417 540.079 C 782.252 540.127, 782.015 540.364, 782.813 540.683 M 777.269 541.693 C 778.242 541.947, 779.592 541.930, 780.269 541.656 C 780.946 541.382, 780.150 541.175, 778.500 541.195 C 776.850 541.215, 776.296 541.439, 777.269 541.693 M 789.813 541.683 C 790.534 541.972, 791.397 541.936, 791.729 541.604 C 792.061 541.272, 791.471 541.036, 790.417 541.079 C 789.252 541.127, 789.015 541.364, 789.813 541.683 M 770.813 542.683 C 771.534 542.972, 772.397 542.936, 772.729 542.604 C 773.061 542.272, 772.471 542.036, 771.417 542.079 C 770.252 542.127, 770.015 542.364, 770.813 542.683 M 785.813 542.683 C 786.534 542.972, 787.397 542.936, 787.729 542.604 C 788.061 542.272, 787.471 542.036, 786.417 542.079 C 785.252 542.127, 785.015 542.364, 785.813 542.683 M 761.250 543.689 C 762.212 543.941, 763.788 543.941, 764.750 543.689 C 765.712 543.438, 764.925 543.232, 763 543.232 C 761.075 543.232, 760.288 543.438, 761.250 543.689 M 780.269 543.693 C 781.242 543.947, 782.592 543.930, 783.269 543.656 C 783.946 543.382, 783.150 543.175, 781.500 543.195 C 779.850 543.215, 779.296 543.439, 780.269 543.693 M 744.250 544.735 C 746.862 544.941, 751.138 544.941, 753.750 544.735 C 756.362 544.529, 754.225 544.360, 749 544.360 C 743.775 544.360, 741.638 544.529, 744.250 544.735 M 769.750 545.662 C 770.438 545.940, 771.563 545.940, 772.250 545.662 C 772.938 545.385, 772.375 545.158, 771 545.158 C 769.625 545.158, 769.063 545.385, 769.750 545.662 M 759.750 546.706 C 760.987 546.944, 763.013 546.944, 764.250 546.706 C 765.487 546.467, 764.475 546.272, 762 546.272 C 759.525 546.272, 758.513 546.467, 759.750 546.706 M 730.264 547.718 C 731.784 547.947, 734.034 547.941, 735.264 547.704 C 736.494 547.467, 735.250 547.279, 732.500 547.286 C 729.750 547.294, 728.744 547.488, 730.264 547.718 M 739.250 547.689 C 740.212 547.941, 741.788 547.941, 742.750 547.689 C 743.712 547.438, 742.925 547.232, 741 547.232 C 739.075 547.232, 738.288 547.438, 739.250 547.689 M 747.750 547.723 C 749.538 547.945, 752.462 547.945, 754.250 547.723 C 756.038 547.502, 754.575 547.320, 751 547.320 C 747.425 547.320, 745.962 547.502, 747.750 547.723" />
</svg>