<svg xmlns="http://www.w3.org/2000/svg" width="1367" height="768" viewBox="0 0 1367 768" version="1.1">
	<path fill="black" d="M 776.564 147.293 C 776.940 148.279, 777.499 148.834, 777.807 148.526 C 778.115 148.219, 777.808 147.412, 777.124 146.733 C 776.136 145.753, 776.022 145.868, 776.564 147.293 M 773.616 151.559 C 773.251 152.509, 773.189 153.522, 773.476 153.810 C 773.764 154.098, 774.007 153.696, 774.015 152.917 C 774.028 151.750, 774.202 151.765, 775 153 C 775.533 153.825, 775.969 154.050, 775.969 153.500 C 775.969 152.950, 775.589 151.900, 775.124 151.166 C 774.454 150.109, 774.141 150.190, 773.616 151.559 M 771.162 157.543 C 769.487 161.220, 769.807 162.005, 771.618 158.662 C 772.464 157.100, 772.969 155.636, 772.741 155.407 C 772.512 155.179, 771.802 156.140, 771.162 157.543 M 771.111 164.111 C 770.495 165.878, 770.166 167.499, 770.380 167.713 C 770.594 167.927, 771.273 166.656, 771.889 164.889 C 772.505 163.122, 772.834 161.501, 772.620 161.287 C 772.406 161.073, 771.727 162.344, 771.111 164.111 M 766.667 168.167 C 765.762 170.470, 765.185 172.519, 765.386 172.719 C 765.586 172.919, 766.500 171.208, 767.417 168.917 C 768.334 166.625, 768.910 164.577, 768.698 164.364 C 768.485 164.152, 767.572 165.863, 766.667 168.167 M 792.195 172.500 C 792.215 174.150, 792.439 174.704, 792.693 173.731 C 792.947 172.758, 792.930 171.408, 792.656 170.731 C 792.382 170.054, 792.175 170.850, 792.195 172.500 M 756.654 192.154 C 752.441 202.149, 749.154 210.487, 749.349 210.682 C 749.545 210.878, 753.152 202.860, 757.365 192.865 C 761.579 182.871, 764.866 174.533, 764.670 174.337 C 764.474 174.141, 760.867 182.158, 756.654 192.154 M 765.615 179.615 C 764.730 182.213, 764.179 184.512, 764.390 184.724 C 764.602 184.935, 765.499 182.983, 766.385 180.385 C 767.270 177.787, 767.821 175.488, 767.610 175.276 C 767.398 175.065, 766.501 177.017, 765.615 179.615 M 793.252 179.500 C 793.263 181.700, 793.468 182.482, 793.707 181.238 C 793.946 179.994, 793.937 178.194, 793.687 177.238 C 793.437 176.282, 793.241 177.300, 793.252 179.500 M 794.195 187.500 C 794.215 189.150, 794.439 189.704, 794.693 188.731 C 794.947 187.758, 794.930 186.408, 794.656 185.731 C 794.382 185.054, 794.175 185.850, 794.195 187.500 M 762.111 189.111 C 761.495 190.878, 761.166 192.499, 761.380 192.713 C 761.594 192.927, 762.273 191.656, 762.889 189.889 C 763.505 188.122, 763.834 186.501, 763.620 186.287 C 763.406 186.073, 762.727 187.344, 762.111 189.111 M 795.158 195 C 795.158 196.375, 795.385 196.938, 795.662 196.250 C 795.940 195.563, 795.940 194.438, 795.662 193.750 C 795.385 193.063, 795.158 193.625, 795.158 195 M 756.120 206.120 C 754.416 211.200, 753.193 215.527, 753.402 215.736 C 753.611 215.945, 755.176 211.960, 756.880 206.880 C 758.584 201.800, 759.807 197.473, 759.598 197.264 C 759.389 197.055, 757.824 201.040, 756.120 206.120 M 796.195 201.500 C 796.215 203.150, 796.439 203.704, 796.693 202.731 C 796.947 201.758, 796.930 200.408, 796.656 199.731 C 796.382 199.054, 796.175 199.850, 796.195 201.500 M 193.295 213.314 C 189.276 222.440, 187.938 231.766, 189.743 238.083 C 190.463 240.603, 191.459 246.903, 191.956 252.083 L 192.860 261.500 192.615 249.735 C 192.367 237.840, 193.003 236.413, 195.418 243.439 L 196.686 247.128 200.967 238.566 C 204.768 230.964, 205.199 229.408, 204.808 224.693 C 204.377 219.501, 198.943 205.980, 197.303 206.019 C 196.861 206.030, 195.058 209.312, 193.295 213.314 M 797.232 209 C 797.232 210.925, 797.438 211.713, 797.689 210.750 C 797.941 209.787, 797.941 208.213, 797.689 207.250 C 797.438 206.287, 797.232 207.075, 797.232 209 M 740.615 230.115 C 736.389 240.097, 733.092 248.425, 733.289 248.622 C 733.485 248.819, 737.102 240.811, 741.327 230.827 C 745.551 220.843, 748.848 212.515, 748.654 212.320 C 748.459 212.126, 744.842 220.133, 740.615 230.115 M 798.252 216.500 C 798.263 218.700, 798.468 219.482, 798.707 218.238 C 798.946 216.994, 798.937 215.194, 798.687 214.238 C 798.437 213.282, 798.241 214.300, 798.252 216.500 M 169.070 218.750 C 169.109 220.813, 169.527 223.400, 170 224.500 C 170.650 226.012, 170.905 225.279, 171.046 221.500 C 171.148 218.750, 171.438 217.287, 171.689 218.250 C 171.941 219.213, 172.590 220, 173.132 220 C 173.674 220, 173.812 219.505, 173.438 218.900 C 173.003 218.196, 173.611 218.247, 175.129 219.042 C 180.357 221.780, 183.296 224.464, 184.672 227.757 C 186.393 231.876, 187.540 231.550, 185.958 227.391 C 184.489 223.526, 182.369 221.254, 177.054 217.849 C 170.794 213.838, 168.982 214.042, 169.070 218.750 M 220 216.752 C 213.967 219.694, 207.653 226.892, 204.757 234.129 C 201.253 242.888, 195.335 274, 197.173 274 C 197.628 274, 198 273.550, 198 273 C 198 272.450, 198.498 272, 199.107 272 C 199.716 272, 199.955 272.675, 199.638 273.500 C 198.498 276.473, 199.888 274.899, 202.953 269.750 C 204.671 266.863, 205.200 265.512, 204.128 266.750 C 203.056 267.988, 201.703 269, 201.121 269 C 200.539 269, 200.324 269.680, 200.643 270.511 C 201.034 271.531, 200.762 271.846, 199.806 271.479 C 198.674 271.045, 198.535 269.573, 199.112 264.168 C 199.780 257.915, 203.391 243.888, 205.849 238 C 206.812 235.692, 206.863 235.769, 206.514 239 C 206.305 240.925, 206.047 242.500, 205.940 242.500 C 205.833 242.500, 205.638 243.527, 205.507 244.782 C 205.377 246.037, 205.457 246.877, 205.685 246.648 C 205.913 246.420, 207.653 246.583, 209.550 247.011 C 211.805 247.520, 213 247.422, 213 246.728 C 213 246.144, 213.256 245.923, 213.569 246.236 C 213.882 246.549, 213.661 247.637, 213.077 248.653 C 211.749 250.962, 209.088 259, 209.650 259 C 210.649 259, 218.993 240.424, 218.533 239.226 C 218.253 238.495, 218.402 238.130, 218.865 238.417 C 219.752 238.965, 222.397 234.064, 221.629 233.295 C 221.383 233.050, 220.893 233.760, 220.540 234.874 C 220.128 236.172, 219.348 236.687, 218.365 236.310 C 217.123 235.833, 217.085 235.561, 218.166 234.876 C 219.162 234.245, 218.993 233.997, 217.500 233.897 C 216.400 233.823, 215.050 233.823, 214.500 233.896 C 213.950 233.969, 214.493 233.178, 215.707 232.139 C 216.922 231.099, 217.597 229.895, 217.207 229.464 C 216.818 229.032, 217.061 229.002, 217.746 229.396 C 218.529 229.846, 219.424 229.163, 220.156 227.556 C 221.887 223.757, 223.309 224.440, 222.641 228.750 L 222.059 232.500 223.454 229 C 224.931 225.292, 225.518 214.984, 224.250 215.023 C 223.838 215.035, 221.925 215.813, 220 216.752 M 752.079 217.668 C 752.036 218.311, 751.741 219.661, 751.424 220.668 C 750.877 222.409, 750.906 222.412, 751.995 220.712 C 752.626 219.729, 752.920 218.379, 752.650 217.712 C 752.295 216.837, 752.136 216.825, 752.079 217.668 M 140.965 228.352 C 138.626 244.070, 140.700 248.155, 164.859 275.423 C 170.557 281.854, 175.411 286.922, 175.648 286.686 C 175.884 286.450, 174.721 284.061, 173.063 281.378 C 171.406 278.695, 168.953 273.125, 167.613 269 C 163.896 257.563, 154.784 237.869, 148.849 228.446 C 145.924 223.801, 143.232 220, 142.869 220 C 142.505 220, 141.648 223.758, 140.965 228.352 M 799.419 225.209 C 799.615 228.041, 799.298 230.104, 798.623 230.383 C 797.813 230.718, 797.833 231.085, 798.693 231.698 C 799.350 232.165, 800.052 235.237, 800.254 238.524 C 800.602 244.171, 800.628 244.087, 800.737 237 C 800.800 232.875, 800.456 227.475, 799.973 225 L 799.093 220.500 799.419 225.209 M 747.118 232.118 C 745.961 235.544, 745.186 238.519, 745.396 238.730 C 745.607 238.940, 746.725 236.309, 747.882 232.882 C 749.039 229.456, 749.814 226.481, 749.604 226.270 C 749.393 226.060, 748.275 228.691, 747.118 232.118 M 791.542 228.932 C 791.179 229.519, 791.021 230.033, 791.191 230.074 C 794.272 230.815, 796.014 230.786, 796.509 229.986 C 796.844 229.444, 796.678 229, 796.141 229 C 795.603 229, 794.497 228.744, 793.683 228.432 C 792.869 228.119, 791.905 228.344, 791.542 228.932 M 792.189 239.500 C 792.167 241.150, 792.509 244.525, 792.949 247 C 793.696 251.196, 793.754 251.263, 793.817 248 C 793.854 246.075, 793.512 242.700, 793.057 240.500 C 792.344 237.050, 792.224 236.912, 792.189 239.500 M 269 243.582 C 255.333 246.181, 252.051 248.762, 235.761 269.711 C 235.244 270.377, 237.673 269.802, 241.160 268.433 C 244.647 267.064, 250.474 265.056, 254.110 263.971 C 258.596 262.633, 262.174 260.719, 265.246 258.015 C 269.862 253.951, 276.456 244.728, 275.840 243.195 C 275.653 242.728, 272.575 242.903, 269 243.582 M 738.622 256.622 C 736.095 264.179, 734.199 270.532, 734.407 270.740 C 734.615 270.948, 736.852 264.936, 739.378 257.378 C 741.905 249.821, 743.801 243.468, 743.593 243.260 C 743.385 243.052, 741.148 249.064, 738.622 256.622 M 801.365 257.500 C 801.368 263, 801.536 265.122, 801.738 262.216 C 801.941 259.311, 801.939 254.811, 801.734 252.216 C 801.528 249.622, 801.363 252, 801.365 257.500 M 728.640 258.640 C 726.623 263.406, 725.134 267.467, 725.332 267.665 C 725.530 267.863, 727.343 264.126, 729.360 259.360 C 731.377 254.594, 732.866 250.533, 732.668 250.335 C 732.470 250.137, 730.657 253.874, 728.640 258.640 M 794.195 255.500 C 794.215 257.150, 794.439 257.704, 794.693 256.731 C 794.947 255.758, 794.930 254.408, 794.656 253.731 C 794.382 253.054, 794.175 253.850, 794.195 255.500 M 114.566 260.740 C 111.852 261.708, 109.461 263.037, 109.252 263.693 C 108.717 265.370, 117.481 271.583, 123.752 273.973 C 133.133 277.547, 144.296 280.087, 154.113 280.882 C 162.360 281.549, 164.491 282.115, 169.113 284.865 C 173.960 287.749, 174.199 287.807, 171.500 285.440 C 166.118 280.721, 145.694 267.770, 137.192 263.686 C 127.388 258.977, 121.617 258.225, 114.566 260.740 M 795.232 262 C 795.232 263.925, 795.438 264.712, 795.689 263.750 C 795.941 262.788, 795.941 261.212, 795.689 260.250 C 795.438 259.288, 795.232 260.075, 795.232 262 M 788.079 263.583 C 788.127 264.748, 788.364 264.985, 788.683 264.188 C 788.972 263.466, 788.936 262.603, 788.604 262.271 C 788.272 261.939, 788.036 262.529, 788.079 263.583 M 796.232 269 C 796.232 270.925, 796.438 271.712, 796.689 270.750 C 796.941 269.788, 796.941 268.212, 796.689 267.250 C 796.438 266.288, 796.232 267.075, 796.232 269 M 722.133 274.133 C 720.949 276.983, 720.145 279.479, 720.347 279.680 C 720.549 279.882, 721.683 277.716, 722.867 274.867 C 724.051 272.017, 724.855 269.521, 724.653 269.320 C 724.451 269.118, 723.317 271.284, 722.133 274.133 M 802.343 277.500 C 802.346 281.900, 802.522 283.576, 802.733 281.224 C 802.945 278.872, 802.942 275.272, 802.727 273.224 C 802.512 271.176, 802.339 273.100, 802.343 277.500 M 792.079 273.583 C 792.127 274.748, 792.364 274.985, 792.683 274.188 C 792.972 273.466, 792.936 272.603, 792.604 272.271 C 792.272 271.939, 792.036 272.529, 792.079 273.583 M 797.195 276.500 C 797.215 278.150, 797.439 278.704, 797.693 277.731 C 797.947 276.758, 797.930 275.408, 797.656 274.731 C 797.382 274.054, 797.175 274.850, 797.195 276.500 M 196.106 281.806 C 195.083 284.231, 195.007 285.407, 195.823 286.223 C 197.272 287.672, 198.271 285.233, 197.825 281.334 L 197.500 278.500 196.106 281.806 M 798.195 282.500 C 798.215 284.150, 798.439 284.704, 798.693 283.731 C 798.947 282.758, 798.930 281.408, 798.656 280.731 C 798.382 280.054, 798.175 280.850, 798.195 282.500 M 713.119 295.619 C 709.724 303.683, 707.117 310.450, 707.325 310.658 C 707.533 310.867, 710.473 304.431, 713.857 296.357 C 717.242 288.283, 719.849 281.516, 719.651 281.318 C 719.453 281.120, 716.514 287.555, 713.119 295.619 M 728.118 287.118 C 726.961 290.544, 726.186 293.519, 726.396 293.730 C 726.607 293.940, 727.725 291.309, 728.882 287.882 C 730.039 284.456, 730.814 281.481, 730.604 281.270 C 730.393 281.060, 729.275 283.691, 728.118 287.118 M 192.082 286.250 C 192.763 287.762, 193.699 289, 194.161 289 C 195.499 289, 195.151 288.077, 192.921 285.708 L 190.843 283.500 192.082 286.250 M 177.122 287.904 C 176.364 288.384, 176.053 289.277, 176.431 289.888 C 177.542 291.685, 178.888 291.164, 178.725 289 C 178.642 287.900, 178.558 287.007, 178.537 287.015 C 178.517 287.024, 177.880 287.423, 177.122 287.904 M 799.158 290 C 799.158 291.375, 799.385 291.938, 799.662 291.250 C 799.940 290.563, 799.940 289.438, 799.662 288.750 C 799.385 288.063, 799.158 288.625, 799.158 290 M 803.328 296.500 C 803.333 300.350, 803.513 301.802, 803.730 299.728 C 803.946 297.653, 803.943 294.503, 803.722 292.728 C 803.501 290.952, 803.324 292.650, 803.328 296.500 M 113 294.661 C 108.524 295.559, 98.925 300.274, 99.278 301.401 C 99.967 303.597, 109.093 308.854, 114.071 309.922 C 118.254 310.819, 121.640 310.638, 132.837 308.921 C 140.352 307.768, 150.325 306.239, 155 305.522 C 159.675 304.805, 162.375 304.138, 161 304.039 C 158.716 303.875, 158.673 303.791, 160.500 303.070 C 162.040 302.462, 159.856 301.408, 151 298.487 C 140.645 295.072, 138.305 294.667, 127.500 294.427 C 120.900 294.280, 114.375 294.385, 113 294.661 M 800.195 296.500 C 800.215 298.150, 800.439 298.704, 800.693 297.731 C 800.947 296.758, 800.930 295.408, 800.656 294.731 C 800.382 294.054, 800.175 294.850, 800.195 296.500 M 245 297.023 C 230.957 300.133, 212.689 305.433, 212.331 306.500 C 212.117 307.137, 215.700 307.384, 222.197 307.179 C 228.403 306.984, 237.511 307.572, 245.450 308.679 C 265.392 311.462, 271.013 311.148, 279.558 306.778 C 283.439 304.793, 287.201 302.463, 287.916 301.601 C 289.343 299.882, 288.259 299.241, 279.091 296.377 C 272.754 294.398, 255.366 294.727, 245 297.023 M 722.118 304.118 C 720.961 307.544, 720.186 310.519, 720.396 310.730 C 720.607 310.940, 721.725 308.309, 722.882 304.882 C 724.039 301.456, 724.814 298.481, 724.604 298.270 C 724.393 298.060, 723.275 300.691, 722.118 304.118 M 793.382 310.500 C 793.384 317.100, 793.546 319.670, 793.741 316.211 C 793.937 312.752, 793.936 307.352, 793.738 304.211 C 793.540 301.070, 793.380 303.900, 793.382 310.500 M 801.252 303.500 C 801.263 305.700, 801.468 306.482, 801.707 305.238 C 801.946 303.994, 801.937 302.194, 801.687 301.238 C 801.437 300.282, 801.241 301.300, 801.252 303.500 M 155 302.031 C 155 302.564, 155.675 303, 156.500 303 C 157.325 303, 158 302.823, 158 302.607 C 158 302.391, 157.325 301.955, 156.500 301.638 C 155.675 301.322, 155 301.499, 155 302.031 M 790.328 314.500 C 790.333 318.350, 790.513 319.802, 790.730 317.728 C 790.946 315.653, 790.943 312.503, 790.722 310.728 C 790.501 308.952, 790.324 310.650, 790.328 314.500 M 802.158 310 C 802.158 311.375, 802.385 311.938, 802.662 311.250 C 802.940 310.563, 802.940 309.438, 802.662 308.750 C 802.385 308.063, 802.158 308.625, 802.158 310 M 155.500 310.388 C 139.587 314.263, 125.909 327.619, 123.068 342.059 C 122.370 345.607, 122.225 348.625, 122.727 349.127 C 123.230 349.630, 125.076 348.481, 127.052 346.437 L 130.500 342.870 127.669 343.941 L 124.838 345.012 127.169 342.138 C 128.451 340.557, 129.670 339.411, 129.877 339.592 C 130.084 339.772, 131.659 339.209, 133.377 338.339 L 136.500 336.758 133.500 339.992 L 130.500 343.226 135.754 340.025 C 138.734 338.209, 140.723 336.362, 140.350 335.757 C 139.987 335.170, 140.158 334.980, 140.732 335.334 C 141.305 335.688, 142.300 335.343, 142.944 334.568 C 143.895 333.421, 143.751 333.252, 142.170 333.666 C 141.101 333.945, 139.850 333.573, 139.392 332.837 C 136.846 328.755, 138.890 325.011, 143.679 324.985 C 147.146 324.966, 149.488 323.598, 148.576 322.123 C 148.161 321.451, 148.453 321.237, 149.328 321.572 C 150.186 321.902, 151.793 320.801, 153.338 318.827 C 155.683 315.831, 155.762 315.447, 154.216 314.581 C 152.806 313.792, 153.369 313.243, 157.507 311.376 C 163.137 308.835, 162.719 308.630, 155.500 310.388 M 698.009 331.751 C 680.666 372.890, 669.069 401.402, 669.503 401.836 C 669.750 402.084, 670.265 401.434, 670.647 400.393 C 671.029 399.352, 679.365 379.188, 689.172 355.584 C 698.978 331.981, 706.852 312.519, 706.669 312.335 C 706.485 312.152, 702.589 320.889, 698.009 331.751 M 717.714 317.214 C 716.804 320.062, 716.225 322.558, 716.427 322.761 C 716.630 322.964, 717.563 320.821, 718.500 318 C 719.437 315.179, 720.016 312.683, 719.787 312.454 C 719.558 312.224, 718.625 314.367, 717.714 317.214 M 803.467 318.828 L 804.089 324.155 798.295 323.650 L 792.500 323.146 798.211 324.229 L 803.921 325.312 804.259 332.906 C 804.507 338.467, 804.647 337.287, 804.783 328.500 C 804.895 321.327, 804.542 315.897, 803.907 315 C 803.130 313.903, 803.012 314.931, 803.467 318.828 M 153.377 321.250 C 150.424 324.619, 148.699 327, 149.210 327 C 149.460 327, 151.112 325.200, 152.880 323 C 156.312 318.729, 156.660 317.503, 153.377 321.250 M 280.125 325.766 C 278.818 328.208, 280.409 332, 282.741 332 C 283.433 332, 283.887 332.510, 283.750 333.134 C 283.611 333.766, 284.910 334.350, 286.690 334.455 C 290.427 334.675, 290.184 333.814, 284.735 327.539 C 281.353 323.644, 281.277 323.614, 280.125 325.766 M 711.619 334.619 C 710.189 338.872, 709.190 342.524, 709.400 342.733 C 709.609 342.943, 710.951 339.634, 712.381 335.381 C 713.811 331.128, 714.810 327.476, 714.600 327.267 C 714.391 327.057, 713.049 330.366, 711.619 334.619 M 908 375.399 C 908 399.380, 907.888 419.337, 907.750 419.750 C 907.612 420.163, 910.987 420.631, 915.250 420.792 L 923 421.084 923 406.042 L 923 391 931.911 391 C 942.463 391, 941.352 390.080, 953.507 408.883 L 961.339 421 970.792 421 C 979.917 421, 980.196 420.934, 978.872 419.084 C 978.117 418.030, 973.450 411.474, 968.500 404.515 C 963.550 397.555, 958.898 391.015, 958.161 389.981 C 956.954 388.284, 957.156 387.962, 960.234 386.675 C 965.054 384.662, 970.744 379.395, 973.287 374.595 C 975.015 371.333, 975.461 368.767, 975.478 361.979 C 975.505 351.356, 972.829 345.349, 965.648 339.919 C 957.466 333.731, 952.272 332.644, 928.750 332.194 L 908 331.798 908 375.399 M 991 376.462 L 991 421 1021 421 L 1051 421 1051 414.500 L 1051 408 1029.093 408 L 1007.185 408 1006.843 402.682 C 1006.654 399.757, 1006.649 394.132, 1006.832 390.182 L 1007.164 383 1026.082 383 L 1045 383 1045 376 L 1045 369 1026.142 369 L 1007.283 369 1006.745 357.750 C 1006.448 351.563, 1006.411 346.163, 1006.662 345.750 C 1006.913 345.337, 1016.766 345, 1028.559 345 L 1050 345 1050 338.583 L 1050 332.166 1020.500 332.045 L 991 331.924 991 376.462 M 1066 376.500 L 1066 421 1103.250 420.988 L 1140.500 420.977 1144.653 410.738 L 1148.807 400.500 1168.288 400.229 L 1187.769 399.958 1192.264 410.229 L 1196.759 420.500 1212.129 420.730 L 1227.500 420.960 1230.023 417.230 C 1231.411 415.179, 1236.347 407.510, 1240.992 400.189 C 1247.799 389.462, 1249.638 387.180, 1250.469 388.432 C 1251.036 389.287, 1255.982 396.964, 1261.459 405.493 L 1271.419 421 1280.222 421 L 1289.025 421 1286.360 416.750 C 1284.895 414.413, 1278.109 404.093, 1271.281 393.817 L 1258.867 375.133 1265.433 365.817 C 1283.800 339.754, 1288 333.657, 1288 333.054 C 1288 332.692, 1284.201 332.277, 1279.557 332.131 L 1271.114 331.867 1260.807 347.416 C 1255.138 355.967, 1250.275 362.954, 1250 362.942 C 1249.725 362.929, 1245.710 356.975, 1241.077 349.710 C 1229.184 331.059, 1230.287 332, 1220.326 332 C 1215.747 332, 1212 332.269, 1212 332.598 C 1212 333.141, 1234.699 366.871, 1239.287 373.145 L 1241.221 375.791 1238.044 380.145 C 1236.296 382.540, 1229.773 392.043, 1223.548 401.263 L 1212.230 418.026 1204.547 400.263 C 1200.321 390.493, 1192.056 371.250, 1186.182 357.500 L 1175.500 332.500 1168.678 332.500 L 1161.855 332.500 1148.888 363 C 1133.106 400.123, 1125.111 418.188, 1123.907 419.450 C 1123.360 420.023, 1123 417.948, 1123 414.220 L 1123 408.041 1102.250 407.770 L 1081.500 407.500 1081.889 373 C 1082.103 354.025, 1081.955 337.038, 1081.560 335.250 L 1080.841 332 1073.421 332 L 1066 332 1066 376.500 M 333 377 L 333 421 343.500 421 L 354 421 354 386 L 354 351 373.500 351 L 393 351 393 386 L 393 421 403 421 L 413 421 413 377 L 413 333 373 333 L 333 333 333 377 M 456.521 333.966 C 456.192 334.498, 448.259 353.735, 438.891 376.716 C 429.523 399.697, 421.617 419.063, 421.322 419.750 C 420.912 420.705, 423.288 421, 431.393 421 C 437.227 421, 442.007 420.887, 442.015 420.750 C 442.023 420.613, 443.557 416.675, 445.423 412 L 448.817 403.500 466.806 403.228 L 484.795 402.956 487.758 410.228 C 489.387 414.228, 490.994 418.288, 491.329 419.250 C 491.858 420.773, 493.357 421, 502.894 421 L 513.850 421 509.831 411.750 C 507.621 406.663, 502.903 395.300, 499.347 386.500 C 495.791 377.700, 489.210 362.063, 484.723 351.750 L 476.563 333 466.841 333 C 461.493 333, 456.849 333.435, 456.521 333.966 M 522 377 L 522 421 532 421 L 542 421 542 408.142 L 542 395.284 555.328 394.775 C 567.105 394.326, 569.374 393.944, 574.826 391.498 C 586.603 386.213, 593.442 375.829, 593.303 363.445 C 593.196 353.926, 590.331 347.417, 583.501 341.175 C 575.321 333.699, 572.019 333, 544.885 333 L 522 333 522 377 M 604.138 377 L 604.024 421 614.012 421 L 624 421 624 404 L 624 387 628.994 387 C 633.637 387, 634.181 387.269, 636.744 390.831 C 638.260 392.938, 643.775 400.587, 649 407.827 L 658.500 420.992 669.809 420.996 C 678.594 420.999, 680.949 420.721, 680.361 419.750 C 679.326 418.040, 672.426 408.393, 659.200 390.162 L 648.073 374.825 652.787 369.086 C 655.379 365.930, 658.909 361.357, 660.630 358.924 C 662.352 356.491, 666.965 350.058, 670.880 344.629 C 674.796 339.200, 678 334.363, 678 333.879 C 678 333.396, 673.388 333.012, 667.750 333.026 L 657.500 333.052 646 348.217 C 630.695 368.399, 629.255 370, 626.396 370 L 624 370 624 351.500 L 624 333 614.126 333 L 604.252 333 604.138 377 M 186.218 335.607 C 184.413 336.528, 181.938 338.680, 180.718 340.390 C 178.698 343.222, 178.455 344.999, 178 360.252 L 177.500 377.004 193.309 377.002 C 203.736 377.001, 208.905 376.655, 208.491 375.986 C 208.147 375.429, 207.764 368.318, 207.640 360.185 C 207.396 344.073, 206.489 340.937, 200.864 336.745 C 197.237 334.041, 190.341 333.505, 186.218 335.607 M 334.809 334.750 C 334.639 335.163, 334.500 354.400, 334.500 377.500 L 334.500 419.500 343.250 419.789 L 352 420.078 352 384.539 L 352 349 373 349 L 394 349 394 384.539 L 394 420.078 402.750 419.789 L 411.500 419.500 411.761 376.750 L 412.021 334 373.570 334 C 352.421 334, 334.979 334.337, 334.809 334.750 M 457.562 334.899 C 457.257 335.394, 452.996 345.856, 448.095 358.149 C 443.193 370.442, 435.724 388.825, 431.496 399 C 427.268 409.175, 423.579 418.063, 423.298 418.750 C 422.911 419.695, 424.970 420, 431.736 420 L 440.687 420 444.526 410.500 L 448.365 401 467.105 401 L 485.845 401 489.526 410.500 L 493.207 420 502.529 420 L 511.850 420 507.806 410.750 C 503.834 401.667, 502.139 397.593, 491.477 371.500 C 484.456 354.320, 479.666 343.226, 477.075 338.148 L 474.959 334 466.539 334 C 461.907 334, 457.868 334.405, 457.562 334.899 M 523.795 372.418 C 523.683 393.638, 523.570 412.913, 523.545 415.250 L 523.500 419.500 532 419.500 L 540.500 419.500 540.778 406.341 L 541.057 393.182 555.778 392.841 C 569.922 392.513, 570.710 392.384, 575.855 389.534 C 589.220 382.131, 595.136 367.559, 590.408 353.684 C 588.229 347.288, 581.272 339.817, 574.779 336.900 C 569.816 334.669, 568.139 334.507, 546.750 334.182 L 524 333.836 523.795 372.418 M 606 377 L 606 420 614.500 420 L 623 420 623 402.500 L 623 385 628.750 385.021 C 634.371 385.042, 634.566 385.138, 637.445 389.271 C 639.065 391.597, 644.690 399.459, 649.945 406.741 L 659.500 419.982 669.309 419.991 L 679.118 420 674.809 414.063 C 652.303 383.052, 647.605 376.299, 647.630 375 C 647.646 374.175, 652.375 367.200, 658.138 359.500 C 663.902 351.800, 670.518 342.913, 672.840 339.750 L 677.063 334 667.782 334.049 L 658.500 334.099 644.500 352.534 C 630.736 370.657, 630.437 370.969, 626.750 370.984 L 623 371 623 352.500 L 623 334 614.500 334 L 606 334 606 377 M 794.338 359 L 794.332 383.500 795.018 365.298 C 795.396 355.288, 795.398 344.263, 795.024 340.798 C 794.630 337.147, 794.341 344.798, 794.338 359 M 186.365 338.919 C 183.058 340.935, 179.511 348.220, 180.169 351.641 C 180.466 353.184, 181.461 353.500, 186.014 353.500 C 190.604 353.500, 191.486 353.214, 191.417 351.750 C 191.371 350.788, 191.258 347.075, 191.167 343.500 C 191.075 339.925, 190.662 337.002, 190.250 337.004 C 189.838 337.006, 188.089 337.868, 186.365 338.919 M 194 345.500 L 194 354 199.627 354 L 205.254 354 204.756 348.812 C 204.336 344.446, 203.685 343.099, 200.643 340.312 C 194.825 334.980, 194 335.625, 194 345.500 M 188.446 339.087 C 188.077 339.685, 188.275 340.675, 188.887 341.287 C 189.704 342.104, 190 341.815, 190 340.200 C 190 337.785, 189.481 337.413, 188.446 339.087 M 125.459 340.067 C 125.096 340.653, 125.014 341.348, 125.276 341.610 C 125.538 341.872, 126.019 341.392, 126.345 340.543 C 127.021 338.781, 126.445 338.471, 125.459 340.067 M 923 362 L 923 379 934.684 379 C 948.241 379, 953.451 377.243, 957.022 371.465 C 961.955 363.483, 961.429 356.027, 955.542 350.475 C 951.061 346.248, 946.065 345, 933.634 345 L 923 345 923 362 M 805.428 370 C 805.428 382.375, 805.571 387.438, 805.747 381.250 C 805.922 375.063, 805.922 364.938, 805.747 358.750 C 805.571 352.563, 805.428 357.625, 805.428 370 M 541 363.500 L 541 378 552.114 378 C 561.542 378, 563.793 377.682, 566.954 375.906 C 577.176 370.160, 576.990 356.078, 566.624 351.060 C 563.141 349.374, 560.429 349, 551.684 349 L 541 349 541 363.500 M 542.417 350.917 C 542.187 351.146, 542 357.108, 542 364.167 L 542 377 551.532 377 C 562.435 377, 566.338 375.764, 570.297 371.059 C 573.415 367.353, 573.837 362.567, 571.484 357.607 C 568.917 352.198, 565.221 350.779, 553.310 350.631 C 547.548 350.559, 542.646 350.688, 542.417 350.917 M 700.122 368.122 C 696.773 378.156, 694.202 386.535, 694.409 386.743 C 694.617 386.950, 697.528 378.911, 700.878 368.878 C 704.227 358.844, 706.798 350.465, 706.591 350.257 C 706.383 350.050, 703.472 358.089, 700.122 368.122 M 1167.458 353.175 C 1167.060 354.454, 1164.081 361.693, 1160.837 369.263 C 1157.594 376.833, 1154.515 384.145, 1153.995 385.513 L 1153.050 388 1168.025 388 C 1178.812 388, 1183 387.672, 1183 386.827 C 1183 385.784, 1169.240 351.983, 1168.486 351.175 C 1168.319 350.996, 1167.857 351.896, 1167.458 353.175 M 466 352.932 C 466 353.627, 463.485 360.790, 460.411 368.848 C 457.338 376.907, 454.585 384.288, 454.295 385.250 C 453.811 386.855, 454.857 387, 466.883 387 C 474.098 387, 480 386.743, 480 386.430 C 480 385.737, 466.869 352.673, 466.360 352.083 C 466.162 351.854, 466 352.236, 466 352.932 M 796.232 358 C 796.232 359.925, 796.438 360.712, 796.689 359.750 C 796.941 358.788, 796.941 357.212, 796.689 356.250 C 796.438 355.288, 796.232 356.075, 796.232 358 M 180.444 357.286 C 180.150 358.051, 180.043 362.237, 180.205 366.588 L 180.500 374.500 186 374.500 L 191.500 374.500 191.500 365.500 L 191.500 356.500 186.239 356.197 C 182.452 355.979, 180.828 356.284, 180.444 357.286 M 194 365.500 L 194 375 199.500 375 L 205 375 205 365.500 L 205 356 199.500 356 L 194 356 194 365.500 M 463.439 365.243 C 461.938 369.784, 459.650 375.918, 458.355 378.874 C 457.060 381.830, 456 384.418, 456 384.624 C 456 384.831, 460.950 385, 467 385 C 473.050 385, 478 384.819, 478 384.598 C 478 384.377, 476.011 379.540, 473.581 373.848 C 471.150 368.157, 468.850 362.258, 468.470 360.741 C 467.253 355.884, 466.231 356.798, 463.439 365.243 M 791.420 380.500 C 791.419 391.500, 791.565 396.136, 791.745 390.803 C 791.924 385.470, 791.925 376.470, 791.746 370.803 C 791.568 365.136, 791.421 369.500, 791.420 380.500 M 797.195 366.500 C 797.215 368.150, 797.439 368.704, 797.693 367.731 C 797.947 366.758, 797.930 365.408, 797.656 364.731 C 797.382 364.054, 797.175 364.850, 797.195 366.500 M 299.378 367.022 C 298.834 367.566, 293.914 370.484, 288.445 373.506 C 282.975 376.528, 278.905 379, 279.399 379 C 279.893 379, 284.055 376.951, 288.649 374.448 C 293.242 371.944, 296.998 370.256, 296.995 370.698 C 296.993 371.139, 293.843 375.975, 289.995 381.445 C 286.148 386.915, 283 391.837, 283 392.382 C 283 392.928, 281.666 392.096, 280.036 390.534 C 278.405 388.972, 277.314 387.302, 277.610 386.822 C 277.906 386.343, 277.760 386.074, 277.286 386.225 C 276.811 386.376, 273.872 384.324, 270.754 381.665 C 267.636 379.005, 264.605 377.126, 264.018 377.489 C 263.431 377.851, 261.564 377.844, 259.868 377.471 L 256.786 376.794 261.143 372.204 C 264.782 368.370, 264.347 368.619, 258.500 373.713 C 254.650 377.067, 250.178 381.204, 248.563 382.906 C 246.948 384.608, 245.260 386, 244.813 386 C 244.366 386, 244 384.200, 244 382 L 244 378 238 378 L 232 378 232 387.936 L 232 397.872 224.500 404.664 C 220.375 408.400, 217 411.992, 217 412.645 C 217 413.299, 218.226 414.727, 219.725 415.818 L 222.451 417.804 234.342 406.652 C 250.085 391.887, 264.379 378.999, 265 379.010 C 265.275 379.015, 274.725 387.564, 286 398.009 C 297.275 408.453, 306.812 416.999, 307.194 416.999 C 307.576 417, 309.087 415.969, 310.551 414.710 L 313.213 412.420 306.631 405.960 L 300.049 399.500 299.003 390.807 C 297.959 382.122, 298.286 376.433, 300.189 370.183 C 301.274 366.621, 300.969 365.431, 299.378 367.022 M 798.252 375.500 C 798.263 377.700, 798.468 378.482, 798.707 377.238 C 798.946 375.994, 798.937 374.194, 798.687 373.238 C 798.437 372.282, 798.241 373.300, 798.252 375.500 M 253.461 380.043 C 251.942 381.721, 251.901 381.975, 253.229 381.466 C 254.118 381.125, 255.091 380.205, 255.391 379.423 C 256.138 377.476, 255.639 377.636, 253.461 380.043 M 799.228 384.500 C 799.199 386.700, 799.526 390.750, 799.954 393.500 C 800.578 397.507, 800.740 397.805, 800.767 395 C 800.787 393.075, 800.460 389.025, 800.042 386 C 799.380 381.211, 799.275 381.017, 799.228 384.500 M 253 397.568 C 246.675 403.364, 239.925 409.762, 238 411.787 L 234.500 415.469 238.542 411.734 C 240.765 409.680, 243.092 408, 243.713 408 C 245.941 408, 246.819 420.376, 244.684 421.695 C 244.190 422, 244.332 422.587, 245 423 C 245.667 423.412, 246.324 425.165, 246.460 426.895 C 246.718 430.176, 248 432.531, 248 429.724 C 248 428.558, 249.169 428.010, 252.250 427.732 L 256.500 427.349 252.250 427.175 L 248 427 247.850 420 C 247.767 416.150, 247.655 412.444, 247.600 411.764 C 247.461 410.041, 250.240 409.686, 257.644 410.479 C 263.661 411.123, 264.005 411.302, 264.100 413.830 L 264.199 416.500 264.894 414.002 C 265.367 412.303, 266.481 411.344, 268.379 411.002 C 270.459 410.628, 272.088 409.016, 274.788 404.662 L 278.407 398.824 271.954 392.956 C 268.404 389.728, 265.275 387.075, 265 387.059 C 264.725 387.044, 259.325 391.773, 253 397.568 M 801.252 403.500 C 801.263 405.700, 801.468 406.482, 801.707 405.238 C 801.946 403.994, 801.937 402.194, 801.687 401.238 C 801.437 400.282, 801.241 401.300, 801.252 403.500 M 777.186 405.745 C 769.266 406.067, 768.887 406.188, 769.186 408.291 C 769.554 410.881, 772.661 410.806, 774.675 408.159 C 775.842 406.624, 775.939 406.631, 775.968 408.250 C 775.995 409.719, 776.964 410, 782 410 C 787.733 410, 788 409.889, 788 407.500 C 788 406.058, 787.471 405.086, 786.750 405.204 C 786.063 405.315, 781.759 405.559, 777.186 405.745 M 781.355 411.738 C 776.015 412.044, 775.132 412.379, 774.619 414.295 C 773.027 420.232, 773.731 421.608, 780.558 425.888 C 784.165 428.150, 787.540 430, 788.058 430 C 788.581 430, 789 425.778, 789 420.500 C 789 415.275, 788.663 411.087, 788.250 411.193 C 787.837 411.299, 784.735 411.544, 781.355 411.738 M 760 412.401 C 760 412.839, 766.838 417, 767.557 417 C 767.801 417, 768 415.875, 768 414.500 C 768 412.250, 767.600 412, 764 412 C 761.800 412, 760 412.181, 760 412.401 M 769.190 415.742 C 769.398 418.252, 770.040 419.586, 771.140 419.794 C 772.394 420.031, 772.871 419.152, 773.166 416.052 C 773.518 412.362, 773.344 412, 771.216 412 C 769.128 412, 768.912 412.398, 769.190 415.742 M 250 418.750 L 250 424.500 255.500 424.500 L 261 424.500 261 418.750 L 261 413 255.500 413 L 250 413 250 418.750 M 268 418.500 L 268 424 273.500 424 L 279 424 279 418.500 L 279 413 273.500 413 L 268 413 268 418.500 M 239 415.167 C 239 415.625, 239.423 416, 239.941 416 C 240.459 416, 241.114 415.625, 241.397 415.167 C 241.680 414.708, 241.257 414.333, 240.456 414.333 C 239.655 414.333, 239 414.708, 239 415.167 M 800.935 419.250 C 797.445 422.975, 795.985 425.371, 795.909 427.500 C 795.803 430.428, 795.782 430.440, 795.038 428 C 794.424 425.989, 794.140 425.815, 793.585 427.109 C 792.525 429.578, 793.472 434.306, 795.073 434.535 C 795.858 434.647, 801.849 435.071, 808.387 435.477 L 820.274 436.214 819.776 433.607 C 819.502 432.173, 819.665 431, 820.139 431 C 820.612 431, 821 432.238, 821.001 433.750 L 821.001 436.500 835.751 438.822 C 850.656 441.169, 857.411 441.489, 868.708 440.383 C 873.876 439.878, 875.193 439.354, 876.564 437.262 C 877.792 435.388, 877.908 434.561, 877.021 434.013 C 876.211 433.512, 876.444 433.117, 877.750 432.776 C 878.805 432.500, 880.674 430.862, 881.903 429.137 C 883.955 426.254, 883.989 425.998, 882.318 425.980 C 876.669 425.920, 845.607 421.188, 822.886 416.928 C 814.299 415.318, 806.954 414, 806.563 414 C 806.173 414, 803.641 416.363, 800.935 419.250 M 806.150 423.250 C 806.067 428.063, 806.337 432.001, 806.750 432.002 C 807.163 432.003, 807.374 429.190, 807.220 425.752 C 806.745 415.125, 806.307 414.101, 806.150 423.250 M 243.500 418 C 243.160 418.550, 243.359 419, 243.941 419 C 244.523 419, 245 418.550, 245 418 C 245 417.450, 244.802 417, 244.559 417 C 244.316 417, 243.840 417.450, 243.500 418 M 803.232 423 C 803.232 424.925, 803.438 425.712, 803.689 424.750 C 803.941 423.788, 803.941 422.212, 803.689 421.250 C 803.438 420.288, 803.232 421.075, 803.232 423 M 769 427.118 C 769 433.618, 770.652 435.168, 771.272 429.250 L 771.664 425.500 771.832 429.111 C 771.999 432.691, 772.044 432.727, 777.250 433.352 C 780.138 433.699, 784.075 433.958, 786 433.928 C 788.843 433.883, 789.125 433.714, 787.500 433.027 C 786.400 432.561, 781.788 429.718, 777.250 426.708 L 769 421.237 769 427.118 M 907.651 424.734 C 904.255 425.086, 903.870 425.390, 904.387 427.316 C 904.709 428.517, 904.979 429.837, 904.986 430.250 C 905.023 432.278, 909.830 430.722, 911.812 428.040 C 914.325 424.641, 914.497 423.933, 912.750 424.168 C 912.063 424.261, 909.768 424.515, 907.651 424.734 M 883.161 429.523 C 881.957 431.053, 881.128 432.461, 881.319 432.652 C 881.770 433.104, 903.366 430.943, 903.933 430.389 C 905.335 429.022, 901.110 427.723, 893.770 427.265 C 885.481 426.748, 885.316 426.783, 883.161 429.523 M 790 430.500 C 788.980 431.729, 789.049 432, 790.378 432 C 791.270 432, 792 431.325, 792 430.500 C 792 429.675, 791.830 429, 791.622 429 C 791.415 429, 790.685 429.675, 790 430.500 M 250 436.500 L 250 442 255.500 442 L 261 442 261 436.500 L 261 431 255.500 431 L 250 431 250 436.500 M 268 436.500 L 268 442 273.500 442 L 279 442 279 436.500 L 279 431 273.500 431 L 268 431 268 436.500 M 803.638 432.500 C 803.955 433.325, 804.391 434, 804.607 434 C 804.823 434, 805 433.325, 805 432.500 C 805 431.675, 804.564 431, 804.031 431 C 803.499 431, 803.322 431.675, 803.638 432.500 M 905.667 432.667 C 905.300 433.033, 905 433.988, 905 434.789 C 905 435.970, 905.283 436.010, 906.500 435 C 907.325 434.315, 908 433.360, 908 432.878 C 908 431.842, 906.616 431.717, 905.667 432.667 M 885.333 433.734 C 881.124 434.031, 879.857 434.569, 878.503 436.636 C 877.588 438.032, 877.015 439.348, 877.228 439.561 C 877.441 439.775, 882.315 439.526, 888.058 439.008 C 893.801 438.491, 899.737 438.052, 901.250 438.034 C 903.508 438.006, 904 437.552, 904 435.500 C 904 433.062, 903.833 433.005, 897.250 433.185 C 893.538 433.287, 888.175 433.534, 885.333 433.734 M 729.500 434.701 C 728.400 434.971, 722.888 436.983, 717.250 439.172 C 707.328 443.024, 707 443.250, 707 446.234 L 707 449.316 724.750 448.661 C 755.620 447.523, 768 446.717, 768 445.846 C 768 445.381, 763.050 445, 757 445 C 747.185 445, 746.002 444.812, 746.015 443.250 C 746.051 439.125, 747.309 438.699, 757.947 439.212 L 768.104 439.701 767.802 437.100 L 767.500 434.500 749.500 434.355 C 739.600 434.275, 730.600 434.431, 729.500 434.701 M 862.813 434.683 C 863.534 434.972, 864.397 434.936, 864.729 434.604 C 865.061 434.272, 864.471 434.036, 863.417 434.079 C 862.252 434.127, 862.015 434.364, 862.813 434.683 M 739.789 435.741 C 743.248 435.937, 748.648 435.936, 751.789 435.738 C 754.930 435.540, 752.100 435.380, 745.500 435.382 C 738.900 435.384, 736.330 435.546, 739.789 435.741 M 769 437.500 C 769 438.875, 769.173 440, 769.383 440 C 769.594 440, 769.982 438.875, 770.245 437.500 C 770.508 436.125, 770.335 435, 769.861 435 C 769.388 435, 769 436.125, 769 437.500 M 771.722 435.611 C 771.325 436.008, 771 437.354, 771 438.602 C 771 440.292, 771.903 441.197, 774.545 442.152 L 778.090 443.434 774.295 444.698 C 771.022 445.788, 772.678 445.894, 786.327 445.465 C 795.031 445.191, 806.169 444.682, 811.077 444.334 C 819.597 443.729, 820 443.594, 820 441.350 C 820 440.058, 819.409 439, 818.687 439 C 817.531 439, 795.589 437.066, 778.472 435.456 C 775.157 435.144, 772.120 435.214, 771.722 435.611 M 644 440.418 C 644 443.473, 645.304 445, 647.914 445 C 649.909 445, 650.920 444.282, 651.785 442.250 L 652.956 439.500 652.459 442.250 C 652.051 444.506, 652.324 445, 653.981 445 C 656.407 445, 656.508 444.170, 654.443 441.223 C 653.232 439.493, 651.901 439, 648.443 439 C 645.274 439, 644 439.407, 644 440.418 M 730.772 439.738 C 726.275 440.021, 724.718 440.565, 723.522 442.272 C 722.685 443.467, 722 444.795, 722 445.223 C 722 445.650, 726.448 446, 731.883 446 L 741.767 446 742.291 443.256 C 742.977 439.667, 742.439 438.961, 739.191 439.189 C 737.711 439.293, 733.922 439.540, 730.772 439.738 M 821 441.269 C 821 443.459, 821.274 443.529, 828.750 443.246 C 833.013 443.084, 838.525 442.654, 841 442.290 C 845.251 441.664, 844.975 441.559, 836 440.399 C 821.741 438.556, 821 438.599, 821 441.269 M 884.153 441.058 C 866.589 442.529, 820.986 445.548, 771.500 448.515 C 755.201 449.492, 696.946 451.904, 672.576 452.610 C 659.418 452.991, 647.533 453.347, 646.165 453.401 C 643.137 453.521, 641.191 458.063, 641.076 465.275 C 641.007 469.590, 641.265 470.152, 643.750 471.114 C 652.133 474.358, 660.517 475.058, 692.322 475.170 L 724.500 475.282 734 471.994 C 741.644 469.347, 745.454 468.629, 753.500 468.319 C 762.866 467.957, 764.039 468.140, 772 471.197 L 780.500 474.461 801.208 474.473 C 812.597 474.480, 821.597 474.803, 821.208 475.191 C 819.628 476.767, 808.145 479, 801.623 479 C 797.797 479, 794.866 479.200, 795.110 479.444 C 795.861 480.194, 812.375 480.243, 814.500 479.501 C 815.600 479.117, 814.228 480.155, 811.451 481.807 C 808.674 483.459, 805.806 485.529, 805.077 486.407 C 803.721 488.041, 809.912 486.021, 821.179 481.153 C 833.833 475.687, 842.214 473.718, 853 473.681 C 862.209 473.649, 864.621 474.030, 872.616 476.773 C 885.786 481.292, 893.150 482.454, 901 481.251 L 907.500 480.255 902 480.103 C 893.357 479.864, 877 475.170, 877 472.928 C 877 472.418, 879.918 472, 883.484 472 L 889.968 472 900.036 456.946 C 905.574 448.666, 910.354 441.241, 910.659 440.446 C 911.323 438.715, 912.442 438.689, 884.153 441.058 M 696.500 444.104 C 692.650 444.571, 685.225 445.443, 680 446.043 C 669.265 447.275, 663.359 448.611, 662.500 450 C 661.812 451.113, 704.060 450.143, 705.305 449.017 C 706.200 448.209, 705.156 442.926, 704.142 443.128 C 703.789 443.198, 700.350 443.637, 696.500 444.104 M 645.557 448.250 C 645.937 449.488, 646.388 450.658, 646.558 450.850 C 647.206 451.584, 648.780 449.948, 649.286 448.016 C 649.709 446.396, 649.327 446, 647.339 446 C 645.235 446, 644.969 446.337, 645.557 448.250 M 650.123 448.629 C 649.464 450.075, 649.093 451.427, 649.299 451.632 C 649.505 451.838, 651.736 451.724, 654.258 451.378 C 658.652 450.776, 658.798 450.651, 657.761 448.375 C 656.208 444.967, 651.723 445.117, 650.123 448.629 M 703 447.059 C 703 447.641, 703.450 447.840, 704 447.500 C 704.550 447.160, 705 446.684, 705 446.441 C 705 446.198, 704.550 446, 704 446 C 703.450 446, 703 446.477, 703 447.059 M 853 450.102 C 825.838 451.860, 759.729 454.987, 727.500 456.039 C 668.555 457.963, 654.558 458.934, 693.500 458.396 C 745.266 457.682, 855.725 452.476, 870.500 450.053 L 875.500 449.234 870.500 449.264 C 867.750 449.280, 859.875 449.657, 853 450.102 M 301.544 456.642 C 288.752 462.140, 279.834 469.796, 275.640 478.878 C 272.428 485.834, 272.652 498.555, 276.119 506 C 277.528 509.025, 279.929 512.977, 281.455 514.781 C 284.007 517.798, 292.074 524, 293.447 524 C 293.769 524, 292.486 521.750, 290.594 519.001 C 285.509 511.608, 284.500 507.795, 284.504 496 C 284.507 487.073, 284.870 484.676, 286.931 480 C 291.168 470.385, 295.888 464.181, 302.621 459.376 C 311.455 453.072, 311.223 452.482, 301.544 456.642 M 321 460.975 C 308.823 465.447, 297.212 476.737, 292.882 488.317 C 284.853 509.786, 298.920 531.049, 323.692 534.886 C 335.211 536.670, 336.251 536.313, 329.323 532.953 C 317.529 527.232, 308.643 514.182, 308.804 502.817 C 309.119 480.638, 335.420 463.753, 352.151 474.990 C 361.654 481.372, 364.753 491.401, 359 497.154 C 355.641 500.512, 355.428 501, 357.313 501 C 359.139 501, 363.657 496.072, 364.936 492.685 C 368.962 482.029, 361.243 467.555, 348.500 461.867 C 341.303 458.654, 328.456 458.237, 321 460.975 M 321.991 463.340 C 316.226 465.376, 310 468.612, 310 469.573 C 310 469.762, 313.038 468.525, 316.750 466.824 C 320.462 465.123, 325.975 463.163, 329 462.468 C 333.007 461.548, 333.686 461.183, 331.500 461.124 C 329.850 461.079, 325.571 462.076, 321.991 463.340 M 400 470.762 C 400 471.097, 401.715 473.425, 403.810 475.936 C 405.906 478.446, 410.155 483.948, 413.253 488.162 C 422.304 500.477, 432.602 506.013, 446.407 505.986 C 452.782 505.973, 454.245 505.566, 460.859 501.961 C 468.491 497.800, 480.462 489.129, 479.669 488.335 C 479.419 488.086, 476.654 488.626, 473.523 489.536 C 466.168 491.675, 462.770 490.956, 456.014 485.833 C 446.794 478.842, 440.853 476.641, 430.500 476.380 L 421.500 476.153 429.500 476.958 C 439.600 477.973, 446.874 480.741, 454.500 486.471 C 457.800 488.950, 461.175 490.991, 462 491.005 C 463.333 491.028, 463.333 491.138, 462 492 C 459.720 493.473, 450.511 493.187, 443.739 491.432 C 436.867 489.652, 414.827 479.460, 409.821 475.748 C 405.992 472.908, 400 469.866, 400 470.762 M 893 470.871 C 893 471.492, 894.462 472.017, 896.250 472.038 C 898.038 472.059, 901.300 472.282, 903.500 472.535 C 906.692 472.901, 907.047 472.799, 905.259 472.032 C 901.452 470.399, 893 469.599, 893 470.871 M 746.421 472.028 C 744.178 472.473, 737.136 474.896, 730.773 477.413 C 711.254 485.133, 704.158 486.521, 685 486.368 C 675.925 486.295, 666.323 485.784, 663.663 485.231 C 654.654 483.359, 660.431 485.801, 671.240 488.435 C 691.490 493.368, 708.737 491.702, 729 482.855 C 745.091 475.829, 752.963 473.046, 756.809 473.021 C 758.756 473.009, 759.864 472.588, 759.500 472 C 758.785 470.843, 752.326 470.857, 746.421 472.028 M 909.500 473.934 C 910.600 474.377, 913.075 475.020, 915 475.362 L 918.500 475.982 915 474.567 C 913.075 473.789, 910.600 473.146, 909.500 473.139 L 907.500 473.127 909.500 473.934 M 787 477.986 C 787.825 478.527, 789.587 478.976, 790.917 478.985 C 794.126 479.005, 793.313 478.436, 789 477.645 C 786.538 477.193, 785.945 477.294, 787 477.986 M 660.813 478.683 C 661.534 478.972, 662.397 478.936, 662.729 478.604 C 663.061 478.272, 662.471 478.036, 661.417 478.079 C 660.252 478.127, 660.015 478.364, 660.813 478.683 M 709.500 480 C 708.239 480.542, 708.055 480.859, 709 480.859 C 709.825 480.859, 711.400 480.473, 712.500 480 C 713.761 479.458, 713.945 479.141, 713 479.141 C 712.175 479.141, 710.600 479.527, 709.500 480 M 909.762 479.707 C 911.006 479.946, 912.806 479.937, 913.762 479.687 C 914.718 479.437, 913.700 479.241, 911.500 479.252 C 909.300 479.263, 908.518 479.468, 909.762 479.707 M 753.750 480.662 C 754.438 480.940, 755.563 480.940, 756.250 480.662 C 756.938 480.385, 756.375 480.158, 755 480.158 C 753.625 480.158, 753.063 480.385, 753.750 480.662 M 703.269 481.693 C 704.242 481.947, 705.592 481.930, 706.269 481.656 C 706.946 481.382, 706.150 481.175, 704.500 481.195 C 702.850 481.215, 702.296 481.439, 703.269 481.693 M 749.813 481.683 C 750.534 481.972, 751.397 481.936, 751.729 481.604 C 752.061 481.272, 751.471 481.036, 750.417 481.079 C 749.252 481.127, 749.015 481.364, 749.813 481.683 M 336.500 484.383 C 324.326 490.139, 319.952 501.491, 325.567 512.759 C 332.991 527.656, 354.144 535.097, 375.998 530.500 C 385.414 528.520, 402.513 522.018, 410.739 517.290 C 418.690 512.721, 420.235 510.102, 412.889 513.646 C 405.414 517.252, 391.765 521.491, 382.853 522.975 C 372.270 524.736, 357.784 523.954, 351.878 521.301 C 334.887 513.671, 329.315 495.486, 340.964 485.684 C 346.214 481.266, 344.284 480.704, 336.500 484.383 M 696.813 482.683 C 697.534 482.972, 698.397 482.936, 698.729 482.604 C 699.061 482.272, 698.471 482.036, 697.417 482.079 C 696.252 482.127, 696.015 482.364, 696.813 482.683 M 841.500 484.406 C 838.750 485.665, 831.775 489.527, 826 492.988 C 808.242 503.630, 790.031 510.404, 770.500 513.633 C 756.042 516.023, 729.246 516.068, 716.500 513.724 C 701.926 511.043, 699.878 510.818, 705.500 512.513 C 713.539 514.938, 731.620 517.815, 743.516 518.563 C 757.579 519.446, 777.888 517.694, 795.998 514.035 C 809.985 511.208, 852 498.258, 852 496.773 C 852 495.284, 832.664 498.369, 821.500 501.639 C 817.941 502.681, 821.037 500.457, 835 491.943 C 842.425 487.415, 847.600 484.001, 846.500 484.357 C 844.530 484.995, 844.529 484.982, 846.441 483.502 C 849.166 481.394, 847.351 481.725, 841.500 484.406 M 586.888 483.958 C 578.548 484.812, 564 487.815, 564 488.682 C 564 488.982, 566.073 488.916, 568.607 488.536 C 572.284 487.985, 573.062 488.113, 572.460 489.173 C 572.045 489.903, 572.690 489.488, 573.892 488.250 C 575.506 486.588, 577.229 486, 580.480 486 C 582.901 486, 585.204 486.521, 585.597 487.158 C 586.094 487.961, 585.609 488.131, 584.012 487.713 C 582.328 487.273, 582.009 487.409, 582.821 488.221 C 583.633 489.033, 583.471 489.667, 582.215 490.589 C 580.804 491.624, 580.159 491.550, 578.580 490.174 C 576.775 488.600, 576.700 488.608, 577.319 490.302 C 577.681 491.293, 577.642 491.897, 577.234 491.644 C 576.825 491.392, 574.291 491.743, 571.603 492.426 C 567.112 493.566, 568.047 493.671, 583.108 493.714 C 608.547 493.788, 625.107 497.883, 657 511.988 C 683.426 523.676, 691.536 526.702, 705.097 529.937 C 720.463 533.603, 733.651 534.851, 750.494 534.232 C 767.555 533.606, 770.219 532.477, 756.435 531.714 C 740.789 530.849, 723.353 527.576, 709.500 522.905 C 702.900 520.680, 685.575 513.098, 671 506.056 C 638.659 490.432, 631.876 487.773, 617.500 485.091 C 609.703 483.636, 595.256 483.101, 586.888 483.958 M 922 484.114 C 907.167 484.980, 895.956 488.279, 863 501.476 C 847.325 507.753, 830.225 514.093, 825 515.566 C 813.969 518.676, 812.458 519.531, 819.602 518.621 C 827.869 517.567, 842.832 513.381, 870.198 504.467 C 905.512 492.963, 916.218 490.720, 936 490.676 C 952.026 490.641, 961.718 492.233, 979.863 497.880 C 986.555 499.963, 987.499 499.877, 983.250 497.572 L 980.500 496.080 985.500 496 C 990.374 495.922, 990.435 495.884, 987.910 494.512 C 983.187 491.944, 962.631 486.253, 954 485.123 C 942.612 483.633, 934.569 483.379, 922 484.114 M 133.064 497.134 C 138.596 508.064, 140.334 510.508, 148.033 518.176 C 155.006 525.120, 158.516 527.736, 165.622 531.285 C 175.073 536.004, 182.009 538.470, 188.500 539.418 L 192.500 540.002 189 538.215 C 186.884 537.134, 185.605 535.798, 185.766 534.835 C 185.921 533.909, 185.082 532.953, 183.766 532.554 C 182.520 532.175, 182.030 531.644, 182.677 531.374 C 183.543 531.012, 183.579 530.091, 182.812 527.890 C 182.238 526.244, 181.971 524.696, 182.218 524.448 C 182.466 524.201, 184.776 524.392, 187.353 524.874 C 194.523 526.213, 193.788 524.510, 186.325 522.490 C 177.725 520.162, 162.938 512.849, 151 505.019 C 139.631 497.562, 135.817 494.159, 136.476 492.057 C 136.893 490.727, 132.347 487.160, 127.652 485.134 C 127.186 484.933, 129.621 490.333, 133.064 497.134 M 587 485.893 C 587 486.384, 587.739 487.069, 588.641 487.416 C 590.014 487.943, 590.076 487.796, 589.019 486.523 C 587.579 484.788, 587 484.607, 587 485.893 M 723 491.049 C 720.525 492.062, 719.175 492.904, 720 492.919 C 720.825 492.935, 723.300 492.096, 725.500 491.055 C 730.608 488.637, 728.902 488.634, 723 491.049 M 133.564 491.293 C 133.940 492.279, 134.499 492.834, 134.807 492.526 C 135.115 492.219, 134.808 491.412, 134.124 490.733 C 133.136 489.753, 133.022 489.868, 133.564 491.293 M 744.250 492.662 C 741.913 493.490, 740 494.583, 740 495.092 C 740 495.620, 740.751 495.576, 741.750 494.990 C 742.712 494.425, 745.300 493.328, 747.500 492.552 C 749.700 491.776, 750.825 491.145, 750 491.149 C 749.175 491.154, 746.587 491.835, 744.250 492.662 M 770.500 492 C 769.181 492.567, 769.011 492.878, 770 492.914 C 770.825 492.945, 772.175 492.533, 773 492 C 774.828 490.819, 773.249 490.819, 770.500 492 M 545.054 496.519 C 541.509 498.429, 538.134 500.490, 537.554 501.098 C 536.974 501.707, 538.234 501.290, 540.353 500.173 C 542.472 499.056, 544.947 498.407, 545.853 498.730 C 546.759 499.054, 547.146 498.931, 546.714 498.456 C 546.281 497.982, 547.631 496.563, 549.714 495.302 C 555.547 491.771, 552.284 492.623, 545.054 496.519 M 715.813 493.683 C 716.534 493.972, 717.397 493.936, 717.729 493.604 C 718.061 493.272, 717.471 493.036, 716.417 493.079 C 715.252 493.127, 715.015 493.364, 715.813 493.683 M 563.813 494.683 C 564.534 494.972, 565.397 494.936, 565.729 494.604 C 566.061 494.272, 565.471 494.036, 564.417 494.079 C 563.252 494.127, 563.015 494.364, 563.813 494.683 M 858 495 C 857.175 495.533, 856.950 495.969, 857.500 495.969 C 858.050 495.969, 859.175 495.533, 860 495 C 860.825 494.467, 861.050 494.031, 860.500 494.031 C 859.950 494.031, 858.825 494.467, 858 495 M 495.863 500.807 C 490.713 503.510, 481.100 508.546, 474.500 511.997 C 460.211 519.469, 450.665 525.628, 446.327 530.175 C 444.582 532.004, 440.836 537.550, 438.002 542.500 C 432.382 552.316, 427.429 558.082, 422 561.131 L 418.500 563.097 425.881 562.529 C 434.242 561.886, 445.648 558.357, 454.500 553.674 C 462.746 549.312, 472.443 539.326, 479.433 527.999 C 489.442 511.780, 492.561 507.643, 498.120 503.212 C 501.079 500.854, 504.162 498.516, 504.971 498.016 C 505.780 497.517, 506.168 496.835, 505.834 496.500 C 505.499 496.166, 501.012 498.104, 495.863 500.807 M 687.250 496.689 C 688.212 496.941, 689.788 496.941, 690.750 496.689 C 691.712 496.438, 690.925 496.232, 689 496.232 C 687.075 496.232, 686.288 496.438, 687.250 496.689 M 743.500 501 C 742.239 501.542, 742.055 501.859, 743 501.859 C 743.825 501.859, 745.400 501.473, 746.500 501 C 747.761 500.458, 747.945 500.141, 747 500.141 C 746.175 500.141, 744.600 500.527, 743.500 501 M 466 503 C 465.099 503.582, 464.975 503.975, 465.691 503.985 C 466.346 503.993, 467.160 503.550, 467.500 503 C 468.267 501.758, 467.921 501.758, 466 503 M 733.500 503 C 730.824 503.681, 730.770 503.763, 733 503.763 C 734.375 503.763, 736.850 503.420, 738.500 503 C 741.176 502.319, 741.230 502.237, 739 502.237 C 737.625 502.237, 735.150 502.580, 733.500 503 M 721.250 504.716 C 722.763 504.945, 725.237 504.945, 726.750 504.716 C 728.263 504.487, 727.025 504.300, 724 504.300 C 720.975 504.300, 719.737 504.487, 721.250 504.716 M 1070.500 509.685 L 1067.500 511.086 1070.498 510.462 C 1073.595 509.817, 1074.638 509.262, 1073.917 508.642 C 1073.688 508.445, 1072.150 508.914, 1070.500 509.685 M 854.500 515.705 C 842.433 522.240, 810.265 533.731, 793.817 537.381 C 747.460 547.668, 712.775 545.805, 668 530.620 C 657.825 527.170, 646.013 522.705, 641.750 520.698 C 637.487 518.692, 634 517.296, 634 517.596 C 634 517.896, 641.448 521.742, 650.551 526.143 C 716.023 557.797, 774.196 556.142, 846.500 520.568 C 853.650 517.050, 859.050 514.151, 858.500 514.126 C 857.950 514.101, 856.150 514.811, 854.500 515.705 M 544 521.995 C 534.240 524.065, 523.126 527.930, 514.570 532.230 C 508.496 535.283, 489.899 547.232, 490.416 547.749 C 490.574 547.908, 493.808 546.722, 497.602 545.114 C 517.131 536.838, 535.348 533.003, 555.140 533.001 C 569.923 533, 580.383 534.549, 591.789 538.428 C 599.415 541.022, 614.942 548.776, 619 552.017 C 621.208 553.780, 620.857 553.735, 615.995 551.628 C 596.757 543.290, 570.157 538.119, 553.572 539.492 C 542.689 540.392, 528.018 543.400, 519.500 546.478 C 514.741 548.197, 513.620 548.862, 516 548.555 C 537.250 545.814, 539.553 545.709, 552.727 546.875 C 568.021 548.229, 587.638 552.882, 601.129 558.356 C 605.874 560.281, 618.831 566.191, 629.922 571.487 C 658.738 585.249, 674.502 590.576, 698.014 594.497 C 708.996 596.328, 744.071 597.612, 737.500 595.942 C 735.300 595.383, 729.675 593.974, 725 592.812 C 702.290 587.166, 673.482 571.920, 646.013 551.010 C 624.996 535.011, 604.873 525.140, 585.964 521.553 C 574.888 519.452, 555.004 519.661, 544 521.995 M 968.750 523.662 C 969.438 523.940, 970.563 523.940, 971.250 523.662 C 971.938 523.385, 971.375 523.158, 970 523.158 C 968.625 523.158, 968.063 523.385, 968.750 523.662 M 975.750 524.662 C 976.438 524.940, 977.563 524.940, 978.250 524.662 C 978.938 524.385, 978.375 524.158, 977 524.158 C 975.625 524.158, 975.063 524.385, 975.750 524.662 M 981.250 525.689 C 982.212 525.941, 983.788 525.941, 984.750 525.689 C 985.712 525.438, 984.925 525.232, 983 525.232 C 981.075 525.232, 980.288 525.438, 981.250 525.689 M 987.813 526.683 C 988.534 526.972, 989.397 526.936, 989.729 526.604 C 990.061 526.272, 989.471 526.036, 988.417 526.079 C 987.252 526.127, 987.015 526.364, 987.813 526.683 M 994.843 528.065 C 996.131 528.582, 998.593 529.252, 1000.312 529.555 C 1006.269 530.604, 1004.469 531.170, 997.500 530.438 C 984.884 529.113, 958.154 529.609, 946.500 531.384 C 921.008 535.266, 908.086 539.478, 869.537 556.474 C 848.738 565.644, 834.769 571.019, 831.824 570.985 C 830.748 570.972, 830.753 570.809, 831.853 570.112 C 832.909 569.443, 832.956 568.786, 832.068 567.127 C 831.442 565.957, 830.495 565, 829.965 565 C 829.434 565, 829 564.339, 829 563.531 C 829 562.637, 829.586 562.288, 830.500 562.638 C 831.325 562.955, 832 562.716, 832 562.107 C 832 561.498, 831.550 561, 831 561 C 830.450 561, 830.112 560.438, 830.250 559.750 C 830.404 558.978, 829.639 558.620, 828.250 558.813 C 824.486 559.336, 825.706 558.348, 831.750 555.977 C 840.705 552.466, 860.013 543.680, 859.627 543.293 C 859.436 543.102, 853.539 545.450, 846.522 548.510 C 811.179 563.924, 786.323 569.260, 749.500 569.336 C 725.347 569.386, 703.483 566.216, 681.582 559.490 C 670.134 555.975, 673.294 558.343, 694.035 568.823 C 735.560 589.806, 776.039 596.997, 816 590.490 C 840.670 586.474, 857.265 580.389, 895.676 561.275 C 940.825 538.809, 962.957 533.333, 1005.247 534.165 C 1023.448 534.523, 1024.976 534.429, 1020.955 533.193 C 1018.505 532.441, 1014.631 531.752, 1012.346 531.663 C 1010.062 531.573, 1008.619 531.236, 1009.140 530.914 C 1009.661 530.592, 1006.680 529.579, 1002.515 528.664 C 994.220 526.841, 991.199 526.605, 994.843 528.065" />
</svg>