<svg xmlns="http://www.w3.org/2000/svg" width="1367" height="768" viewBox="0 0 1367 768" version="1.1">
	<path fill="black" d="M 192.261 206.750 C 190.022 211.563, 187.907 216.765, 187.561 218.312 L 186.931 221.123 181.761 216.475 C 176.537 211.778, 168.354 207, 165.533 207 C 163.640 207, 163.596 206.170, 166.096 217.711 C 168.753 229.974, 172.743 241.277, 179.713 256.283 C 186.760 271.456, 188.454 277.514, 186.450 280.375 C 185.652 281.514, 185 283.245, 185 284.223 C 185 286.997, 183.372 286.313, 181.981 282.954 C 181.183 281.028, 180.127 280.028, 179.110 280.235 C 177.478 280.567, 177.434 281.249, 178.596 288.250 C 179.284 292.392, 178.596 292.806, 175.100 290.358 C 173.810 289.454, 172.023 288.652, 171.128 288.574 C 167.856 288.290, 157.055 283.720, 157.594 282.848 C 157.899 282.354, 157.778 282.047, 157.324 282.164 C 155.725 282.579, 141.398 279.732, 133.203 277.372 C 124.715 274.926, 115.456 270.634, 111 267.079 C 107.803 264.527, 108.999 262.236, 114.558 260.260 C 120.728 258.068, 128.499 259.063, 137.063 263.143 C 144.657 266.759, 162.303 277.769, 169.500 283.381 L 173.500 286.500 170.347 282.500 C 168.613 280.300, 162.663 273.325, 157.125 267 C 150.883 259.871, 145.657 252.758, 143.376 248.287 C 139.771 241.218, 139.710 240.908, 140.324 232.787 C 140.669 228.229, 141.328 223.164, 141.789 221.531 L 142.628 218.561 146.679 224.531 C 153.362 234.378, 163.441 255.468, 168.597 270.394 C 170.801 276.772, 175.492 286, 176.531 286 C 176.777 286, 175.872 283.637, 174.520 280.750 C 173.168 277.863, 168.899 267.497, 165.033 257.715 C 161.168 247.934, 157.041 238.034, 155.862 235.715 C 152.149 228.414, 142.463 215.203, 141.517 216.150 C 140.234 217.432, 138 229.276, 138 234.792 L 138 241.163 134.497 238.998 C 130.884 236.765, 114.958 231, 112.403 231 C 110.215 231, 111.431 235.124, 116.863 246.131 L 121.617 255.762 114.558 256.263 C 107.072 256.796, 95.696 260.589, 96.286 262.357 C 96.718 263.655, 112.676 272.434, 119.500 275.128 C 122.250 276.214, 132.198 279.065, 141.607 281.464 C 160.987 286.406, 171 290.750, 171 294.214 C 171 295.914, 170.733 296.133, 169.800 295.200 C 168.140 293.540, 164 293.680, 164 295.396 C 164 296.163, 166.250 298.235, 169 300 C 173.862 303.120, 175.295 304.900, 172.750 304.660 C 170.232 304.421, 155.083 306.216, 139 308.657 C 120.657 311.442, 114.491 311.303, 107.878 307.955 C 96.639 302.266, 96.268 300.852, 105.021 297.086 C 117.458 291.736, 132.853 292.401, 153.929 299.199 C 160.843 301.429, 167.625 303.449, 169 303.688 C 177.172 305.106, 157 297.604, 142.924 293.991 C 132.263 291.254, 122.746 290.572, 114 291.918 C 104.555 293.371, 93 297.026, 93 298.560 C 93 299.202, 90.300 300.939, 87 302.420 C 83.700 303.900, 81 305.475, 81 305.920 C 81 306.958, 90.588 311.243, 99.248 314.074 L 105.996 316.280 102.088 320.521 C 96.427 326.662, 90.678 335.669, 91.534 337.055 C 92.244 338.204, 107.458 337.766, 115.624 336.362 L 118.749 335.825 116.801 341.594 C 114.795 347.535, 113.150 361, 114.430 361 C 114.826 361, 118.370 358.917, 122.306 356.370 C 131.239 350.592, 141.627 340.639, 148.263 331.500 C 160.912 314.080, 169.017 309.169, 177.846 313.573 C 179.581 314.439, 181.013 315.226, 181.028 315.323 C 181.044 315.420, 181.855 317.906, 182.831 320.847 L 184.605 326.194 188.052 320.410 C 189.949 317.228, 191.970 314.478, 192.545 314.298 C 193.120 314.117, 195.145 316.446, 197.045 319.472 C 198.945 322.499, 200.780 324.980, 201.122 324.987 C 201.464 324.994, 202.028 323.226, 202.375 321.057 C 203.726 312.607, 205.561 314.538, 212.322 331.527 C 218.221 346.347, 219.976 353.279, 218.119 354.426 C 217.448 354.841, 217.239 354.541, 217.580 353.653 C 217.886 352.855, 217.656 351.905, 217.068 351.542 C 216.408 351.134, 215.994 351.956, 215.985 353.691 C 215.975 355.549, 215.691 356.061, 215.146 355.203 C 214.492 354.171, 214.052 354.232, 212.997 355.503 C 211.854 356.881, 212.004 357.188, 214.086 357.733 C 215.413 358.080, 216.629 358.266, 216.786 358.146 C 216.943 358.027, 217.730 358.587, 218.536 359.393 C 220.096 360.953, 220.407 364.903, 219.293 369 L 218.613 371.500 218.006 369 C 217.463 366.764, 216.959 366.532, 213.236 366.799 L 209.074 367.098 208.746 357.299 C 208.472 349.084, 208.385 349.803, 208.209 361.750 C 208.094 369.587, 208.338 376.057, 208.750 376.128 C 212.371 376.744, 214.699 376.619, 215.769 375.752 C 216.745 374.961, 216.861 375.166, 216.269 376.644 C 214.168 381.891, 212.740 382.778, 207.242 382.249 C 204.359 381.972, 202 381.304, 202 380.764 C 202 380.225, 200.988 380.014, 199.750 380.297 C 198.512 380.579, 196.600 380.434, 195.500 379.975 C 194.113 379.397, 195.399 379.119, 199.691 379.070 C 203.096 379.032, 206.160 378.550, 206.500 378 C 206.901 377.351, 201.927 377, 192.309 377.001 L 177.500 377.003 177.839 365.387 C 178.081 357.087, 177.862 353.967, 177.073 354.455 C 176.465 354.831, 176.201 355.516, 176.487 355.979 C 177.125 357.012, 176.060 360, 175.053 360 C 174.650 360, 173.715 358.168, 172.976 355.928 C 172.237 353.688, 170.590 351.036, 169.316 350.034 C 166.953 348.176, 166.061 346.301, 168.155 347.595 C 168.789 347.988, 169.046 347.883, 168.723 347.362 C 168.006 346.201, 171.911 334.044, 174.850 328.290 C 176.032 325.974, 176.979 323.499, 176.952 322.790 C 176.891 321.122, 170.685 333.352, 166.697 343 C 163.888 349.797, 163.601 351.484, 163.640 361 C 163.704 376.539, 167.879 385.317, 178.586 392.426 C 182.791 395.218, 184.116 396.756, 184.877 399.731 C 185.407 401.804, 187.035 408.225, 188.495 414 C 192.650 430.437, 198.560 447.742, 203.452 457.792 C 206.468 463.990, 207.491 467, 206.581 467 C 204.007 467, 193.011 458.833, 187.970 453.178 C 185.186 450.055, 180.465 443.866, 177.479 439.424 C 167.672 424.839, 153.870 412.476, 139.152 405.095 C 136.043 403.536, 132.375 401.937, 131 401.542 C 129.625 401.146, 132.369 402.794, 137.097 405.204 C 145.770 409.624, 155.646 416.854, 161.891 423.356 C 164.568 426.142, 164.856 426.775, 163.258 426.357 C 161.887 425.999, 160.719 426.563, 159.640 428.104 C 158.763 429.355, 157.740 430.073, 157.365 429.698 C 156.990 429.324, 156.193 429.420, 155.592 429.911 C 152.617 432.346, 150.020 431.439, 144.566 426.059 C 141.532 423.066, 138.805 420.862, 138.506 421.160 C 137.386 422.281, 160.782 444.785, 168.155 449.679 C 172.366 452.474, 181.483 457.585, 188.416 461.037 C 195.349 464.488, 200.882 467.452, 200.712 467.621 C 200.542 467.791, 197.500 466.757, 193.952 465.322 C 187.518 462.721, 183.157 462.167, 180.764 463.646 C 176.290 466.411, 159.383 460.485, 146.482 451.631 C 143.172 449.359, 139.572 447.009, 138.482 446.410 C 134.604 444.278, 124.730 431.365, 120.389 422.750 C 117.964 417.937, 115.740 414, 115.446 414 C 114.138 414, 125.420 434.122, 129.751 439.515 C 138.040 449.833, 153.920 460.187, 168 464.452 C 171.025 465.368, 179.118 466.756, 185.985 467.537 C 205.043 469.704, 207.722 471.320, 221.239 488.809 C 227.277 496.620, 237.271 507.843, 244.067 514.441 C 250.715 520.897, 255.999 526.334, 255.809 526.524 C 255.231 527.102, 240.908 523.014, 235.545 520.740 C 232.770 519.563, 227.713 516.911, 224.308 514.846 C 209.856 506.085, 199.578 501.942, 185.310 499.127 C 174.586 497.011, 160.619 495.499, 165.220 496.952 C 166.716 497.424, 170.689 498.081, 174.050 498.412 C 182.075 499.201, 193.377 501.804, 198.722 504.095 C 202.032 505.514, 203 506.463, 203 508.288 C 203 510.355, 202.041 510.949, 195.264 513.074 C 190.364 514.611, 185.121 515.500, 180.959 515.500 C 174.396 515.500, 172.391 514.746, 153.750 505.263 C 153.338 505.054, 153 505.110, 153 505.390 C 153 506.614, 170.166 516.304, 176.991 518.932 C 189.993 523.939, 198.646 525.290, 217.237 525.216 C 226.443 525.180, 234.183 525.487, 234.438 525.899 C 234.692 526.311, 234.135 526.623, 233.200 526.592 C 232.265 526.560, 228.436 526.920, 224.690 527.390 C 219.414 528.053, 218.004 528.568, 218.429 529.675 C 218.730 530.461, 218.579 530.858, 218.093 530.558 C 217.607 530.257, 216.937 530.721, 216.605 531.588 C 215.789 533.714, 215.786 533.704, 217.552 534.382 C 218.442 534.723, 218.843 534.555, 218.493 533.989 C 217.560 532.480, 218.954 532.811, 220.643 534.500 C 221.634 535.491, 221.738 536, 220.949 536 C 220.045 536, 220.034 536.336, 220.905 537.386 C 221.850 538.525, 220.799 539.079, 214.992 540.502 C 208.826 542.013, 206.551 542.088, 197.080 541.097 C 183.342 539.658, 177.998 538.081, 165.141 531.667 C 156.133 527.174, 153.725 525.391, 146.679 518 C 140.343 511.352, 139.331 510.560, 142.039 514.366 C 146.818 521.085, 156.752 530.173, 163.894 534.358 C 174.843 540.775, 183.080 543.130, 196.500 543.678 C 207.025 544.108, 209.668 543.865, 218 541.698 C 223.225 540.339, 232.225 537.345, 238 535.046 C 253.707 528.792, 255.371 528.790, 268 535.020 C 295.715 548.693, 307.463 551.964, 331.500 552.704 C 344.825 553.114, 350.446 552.869, 357.500 551.568 C 383.973 546.686, 404.413 538.711, 454 513.912 C 494.499 493.658, 520.689 481.989, 536.500 477.153 C 563.328 468.948, 582.057 468.199, 603.683 474.469 C 614.607 477.636, 615.829 477.600, 609.500 474.299 C 588.519 463.358, 566.356 461.540, 539.500 468.559 C 527.652 471.656, 509.283 478.721, 499.500 483.945 C 487.719 490.236, 479 495.165, 479 495.536 C 479 495.729, 481.073 494.971, 483.606 493.850 C 486.226 492.691, 488.588 492.188, 489.084 492.684 C 490.282 493.882, 409.496 534.404, 407.465 533.625 C 406.478 533.246, 406.147 533.429, 406.573 534.119 C 407.031 534.859, 406.521 534.983, 405 534.500 C 403.573 534.047, 402.979 534.157, 403.376 534.800 C 403.762 535.423, 403.161 535.593, 401.814 535.241 C 399.992 534.765, 400.620 534.209, 405.563 531.922 C 421.660 524.474, 448.728 511.041, 450.500 509.622 C 451.600 508.740, 444.175 512.018, 434 516.906 C 402.959 531.817, 387.681 537.447, 367 541.597 C 338.135 547.388, 316.481 545.452, 292.712 534.954 C 262.740 521.716, 246.984 506.422, 247.010 490.590 C 247.030 478.113, 252.006 472.048, 270.094 462.458 C 286.652 453.679, 295.487 442.432, 297.948 427 C 299.922 414.621, 300.483 415.753, 285.750 402.364 C 262.645 381.367, 264.574 382.851, 263.215 385.028 C 262.253 386.567, 262.291 386.826, 263.413 386.395 C 264.175 386.103, 265.099 386.352, 265.468 386.948 C 265.837 387.545, 266.521 387.796, 266.989 387.507 C 267.457 387.218, 268.728 388.110, 269.814 389.490 C 270.900 390.871, 272.220 392, 272.748 392 C 273.276 392, 276.364 394.813, 279.611 398.250 C 282.858 401.688, 288.152 406.709, 291.374 409.409 L 297.234 414.317 296.800 422.597 C 296.431 429.626, 295.806 432.009, 292.664 438.366 C 288.726 446.334, 282.328 453.745, 277.015 456.492 C 275.236 457.412, 274.022 457.773, 274.318 457.294 C 274.614 456.815, 273.314 454.915, 271.428 453.071 C 269.543 451.228, 268 449.332, 268 448.860 C 268 448.387, 267.325 448, 266.500 448 C 265.675 448, 265 447.530, 265 446.956 C 265 446.382, 264.438 445.985, 263.750 446.075 C 263.063 446.164, 261.686 446.184, 260.691 446.118 C 258.444 445.971, 259.484 444, 261.809 443.999 C 263.255 443.999, 263.487 442.911, 263.408 436.491 C 263.358 432.362, 263.133 428.836, 262.908 428.655 C 262.684 428.474, 259.238 428.529, 255.250 428.776 L 248 429.226 248 436.613 C 248 442.496, 248.304 444, 249.492 444 C 250.640 444, 250.292 445.326, 247.983 449.750 C 244.954 455.550, 242.049 466.751, 242.017 472.750 C 241.990 477.797, 240.532 476.566, 240.234 471.245 C 240.061 468.157, 239.363 466.039, 238.234 465.179 C 237.280 464.453, 236.613 463.441, 236.750 462.929 C 236.888 462.418, 236.438 461.986, 235.750 461.970 C 235.063 461.953, 235.297 461.475, 236.271 460.908 C 238.263 459.749, 237.695 458, 235.327 458 C 234.164 458, 233.885 458.766, 234.220 461.044 C 234.465 462.718, 234.292 464.320, 233.833 464.603 C 233.375 464.886, 233 461.915, 233 458 C 233 453.509, 233.369 451.110, 234 451.500 C 235.113 452.188, 235.291 449.686, 234.373 446.261 C 234.043 445.030, 233.330 444.296, 232.790 444.630 C 232.158 445.021, 231.931 439.996, 232.154 430.536 L 232.500 415.834 240.500 408.530 C 244.900 404.512, 248.513 400.837, 248.530 400.362 C 248.546 399.888, 251.471 396.630, 255.030 393.122 C 258.588 389.614, 254.705 392.848, 246.400 400.309 L 231.301 413.875 230.658 420.688 C 228.992 438.325, 230.583 465.908, 234.155 481.318 C 235.279 486.167, 235.967 490.366, 235.685 490.648 C 234.581 491.752, 223.747 474.798, 217.057 461.500 C 206.760 441.032, 201.206 425.153, 198.470 408.357 C 197.651 403.329, 197.247 398.520, 197.573 397.671 C 197.899 396.822, 201.061 394.240, 204.601 391.934 C 215.959 384.534, 220.908 376.014, 221.758 362.403 C 222.407 351.992, 221.381 347.913, 213.926 331.265 C 210.667 323.985, 208 317.782, 208 317.480 C 208 317.177, 208.870 317.395, 209.934 317.965 C 210.998 318.534, 212.573 319, 213.434 319 C 215.414 319, 215.522 315.137, 213.563 314.386 C 211.450 313.575, 212.855 311, 215.411 311 C 219.146 311, 227.158 316.882, 234.994 325.376 C 247.941 339.411, 264.305 355.364, 269.412 358.928 L 274.324 362.357 273.679 354.735 C 273.325 350.544, 272.138 344.753, 271.041 341.867 C 269.945 338.981, 269.149 336.528, 269.274 336.418 C 269.398 336.307, 271.750 336.591, 274.500 337.048 C 281.826 338.268, 296 338.208, 296 336.957 C 296 335.619, 288.660 325.610, 284.140 320.784 C 281.629 318.102, 281.055 316.949, 282.080 316.642 C 292.807 313.423, 306.004 307.680, 305.996 306.233 C 305.994 305.830, 302.902 304.201, 299.126 302.613 C 293.943 300.435, 292.365 299.320, 292.693 298.067 C 293.050 296.702, 291.477 296.063, 283.813 294.463 C 266.061 290.758, 250.993 292.097, 226.334 299.571 C 217.517 302.244, 214.478 302.791, 212.962 301.980 C 210.610 300.721, 210.495 299.647, 212.500 297.643 C 213.325 296.818, 214 295.670, 214 295.092 C 214 293.803, 220.508 290.413, 227.952 287.824 C 231.003 286.763, 241.358 284.790, 250.962 283.440 C 269.415 280.846, 279.961 278.319, 288.987 274.327 L 294.484 271.896 289.992 269.845 C 283.113 266.705, 274.947 264, 272.343 264 C 269.319 264, 269.389 263.414, 273.059 258 C 276.751 252.555, 282 242.504, 282 240.882 C 282 239.190, 268.443 240.489, 261.449 242.850 C 256.518 244.515, 255.970 244.544, 256.590 243.113 C 257.747 240.443, 258.240 223.681, 257.239 221.048 C 256.309 218.604, 256.291 218.612, 250.504 224.048 C 241.907 232.125, 235.514 241.392, 224.324 262 C 218.799 272.175, 213.741 281.625, 213.084 283 C 211.956 285.361, 211.977 285.392, 213.449 283.553 C 215.437 281.071, 220.623 272.290, 230.945 253.926 C 238.670 240.183, 249.877 225.327, 254.450 222.768 C 256.196 221.791, 256.265 222.216, 255.769 230.911 C 255.343 238.397, 254.703 241.183, 252.294 246.043 C 249.446 251.787, 249.345 253.699, 252.061 250.427 C 254.285 247.747, 260.681 245.022, 268.583 243.387 C 272.748 242.526, 276.363 242.030, 276.618 242.285 C 277.232 242.899, 273.341 249.551, 269.593 254.293 C 265.513 259.457, 261.761 261.585, 248.681 266.155 C 232.200 271.914, 233.030 271.795, 236.583 267.889 C 247.369 256.031, 245.194 256.643, 232.683 268.987 C 224.607 276.955, 218 283.630, 218 283.820 C 218 284.010, 220.363 282.750, 223.250 281.020 C 232.482 275.488, 250.990 266.850, 252.775 267.239 C 253.857 267.476, 251.704 269.039, 247 271.433 C 242.875 273.533, 238.283 276.111, 236.795 277.161 C 232.874 279.931, 234.149 281.981, 239.857 282.082 C 244.428 282.162, 244.391 282.186, 237.500 283.660 C 230.263 285.207, 216.430 290.496, 215.443 292.093 C 215.134 292.592, 213.334 293, 211.441 293 C 207.616 293, 207.110 291.716, 209.558 288.221 C 210.415 286.997, 210.838 285.547, 210.499 284.998 C 209.424 283.260, 207.286 283.914, 205.592 286.500 C 203.382 289.874, 202.522 289.652, 201.426 285.426 C 200.410 281.503, 198.711 280.546, 198.129 283.567 C 197.926 284.625, 196.955 286.514, 195.972 287.763 L 194.185 290.035 192.092 286.649 C 190.942 284.787, 190 282.398, 190 281.339 C 190 277.452, 184.749 261.455, 181.053 254.084 C 173.492 239.003, 167.273 220.034, 168.407 215.514 L 169.041 212.987 173.811 215.404 C 179.434 218.254, 187 226.074, 187 229.037 C 187 230.181, 187.450 230.840, 188 230.500 C 188.550 230.160, 189 228.292, 189 226.348 C 189 223.009, 195.825 205.008, 197.092 205.002 C 197.418 205.001, 199.331 208.507, 201.342 212.794 C 204.097 218.665, 205.015 221.935, 205.059 226.044 C 205.109 230.694, 205.294 231.214, 206.309 229.566 C 209.089 225.051, 215.266 219.173, 219.853 216.676 C 224.118 214.355, 224.865 214.207, 225.392 215.578 C 227.891 222.090, 219.075 244.859, 206.069 265.481 C 202.607 270.971, 199.387 276.596, 198.912 277.981 C 198.155 280.192, 198.200 280.270, 199.275 278.618 C 199.949 277.584, 203.739 271.882, 207.698 265.949 C 220.019 247.484, 226.890 232.086, 229.479 217.134 C 230.372 211.983, 230.888 207.554, 230.626 207.293 C 229.793 206.460, 217.406 213.890, 212.651 218.076 L 208.066 222.112 207.456 219.306 C 206.757 216.088, 197.814 198, 196.923 198 C 196.598 198, 194.500 201.938, 192.261 206.750" />
</svg>