<svg xmlns="http://www.w3.org/2000/svg" width="1367" height="768" viewBox="0 0 1367 768" version="1.1">
	<path fill="black" d="M 783.037 144.250 C 782.364 147.688, 778.012 165.701, 773.366 184.280 C 762.275 228.631, 755.164 252.322, 739.535 297 C 732.067 318.345, 711.565 367.126, 698.660 394.250 L 692.119 408 698.355 408 C 701.786 408, 713.796 407.568, 725.046 407.040 C 755.399 405.615, 770.485 405.066, 780.250 405.031 L 789 405 789 364.140 L 789 323.280 779.447 320.458 C 774.193 318.907, 769.666 317.269, 769.388 316.819 C 768.591 315.530, 770.984 315.858, 778 318 C 789.137 321.401, 788.002 325.975, 787.989 277.750 C 787.983 254.512, 787.709 233.876, 787.381 231.891 C 786.834 228.586, 786.192 227.997, 779.748 224.891 C 774.809 222.510, 773.327 221.408, 774.774 221.191 C 775.907 221.021, 779.190 222.076, 782.069 223.535 L 787.303 226.187 786.529 183.344 C 786.103 159.780, 785.735 139.938, 785.711 139.250 C 785.593 135.926, 784.131 138.661, 783.037 144.250 M 783.667 149.667 C 783.300 150.033, 783 150.798, 783 151.367 C 783 151.993, 783.466 151.934, 784.183 151.217 C 784.834 150.566, 785.134 149.801, 784.850 149.517 C 784.566 149.232, 784.033 149.300, 783.667 149.667 M 795.077 160.500 C 798.710 168.503, 812.571 209.813, 816.383 224 C 829.440 272.590, 828.927 325.239, 814.871 379 C 806.150 412.358, 806.283 412.043, 796.688 421.979 C 792.185 426.643, 790.019 429.118, 791.876 427.479 C 793.732 425.841, 797.510 422.137, 800.271 419.250 C 806.052 413.203, 806.173 413.183, 819.843 415.967 C 833.671 418.783, 866.188 423.845, 875 424.553 C 879.125 424.885, 883.400 425.558, 884.500 426.048 C 887.132 427.222, 903.972 427.751, 903.280 426.638 C 902.985 426.164, 903.202 425.489, 903.761 425.138 C 904.408 424.732, 904.273 424.031, 903.389 423.211 C 902.233 422.138, 901.985 422.306, 901.911 424.211 C 901.860 425.502, 901.215 424.320, 900.430 421.500 C 899.665 418.750, 899.074 415.600, 899.117 414.500 C 899.161 413.400, 899.783 414.525, 900.500 417 C 901.217 419.475, 901.848 420.762, 901.902 419.860 C 902.215 414.621, 889.500 363.004, 881.983 339 C 862.984 278.336, 839.610 228.695, 801.271 167.586 C 791.869 152.600, 791.082 151.700, 795.077 160.500 M 782.232 162 C 782.232 163.925, 782.438 164.713, 782.689 163.750 C 782.941 162.787, 782.941 161.213, 782.689 160.250 C 782.438 159.287, 782.232 160.075, 782.232 162 M 811.382 190.250 C 812.156 192.037, 814.605 197.325, 816.823 202 C 819.042 206.675, 821.954 213.425, 823.295 217 C 824.636 220.575, 827.977 229.125, 830.719 236 C 833.461 242.875, 838.516 256.375, 841.954 266 C 851.162 291.784, 859.287 313.460, 874.002 351.500 C 881.236 370.200, 889.200 391.032, 891.700 397.794 C 894.200 404.555, 896.423 409.911, 896.639 409.695 C 896.855 409.479, 894.761 399.917, 891.987 388.447 C 889.213 376.976, 887.176 366.985, 887.460 366.244 C 887.744 365.503, 887.610 365.123, 887.161 365.400 C 886.713 365.678, 885.290 362.214, 883.999 357.702 C 873.153 319.789, 855.670 275.284, 836.883 237.767 C 829.036 222.095, 827.672 218.862, 830.468 222.559 C 832.849 225.707, 832.147 222.840, 829.474 218.500 C 826.973 214.440, 826.130 214.330, 828.055 218.316 C 829.095 220.468, 829.086 220.471, 827.465 218.500 C 826.559 217.400, 822.597 209.873, 818.659 201.774 C 814.722 193.675, 811.156 187.038, 810.737 187.024 C 810.317 187.011, 810.607 188.463, 811.382 190.250 M 192.267 207.750 C 187.801 217.363, 186.759 220.733, 188.016 221.510 C 188.935 222.078, 194 211.659, 194 209.200 C 194 207.019, 196.260 201, 197.080 201 C 198.062 201, 200.523 207.258, 200.168 208.850 C 199.980 209.691, 200.327 209.916, 201.088 209.446 C 201.795 209.009, 202.052 209.107, 201.698 209.679 C 201.363 210.222, 202.182 213.329, 203.520 216.583 C 204.858 219.838, 205.971 224.075, 205.993 226 L 206.034 229.500 208.001 226.430 C 209.083 224.742, 211.883 221.821, 214.224 219.940 C 216.565 218.059, 219.159 215.941, 219.990 215.233 C 220.820 214.525, 222.850 212.811, 224.500 211.424 L 227.500 208.901 223.321 210.935 C 221.023 212.053, 216.503 215.164, 213.278 217.848 C 207.454 222.695, 207.412 222.711, 207.208 220.114 C 206.961 216.966, 198.453 199, 197.209 199 C 196.726 199, 194.502 202.938, 192.267 207.750 M 164.525 208.659 C 169.341 231.655, 170.686 235.825, 179.491 255.068 C 182.484 261.610, 185.653 269.440, 186.533 272.467 C 187.987 277.468, 187.990 278.176, 186.567 280.208 C 185.705 281.438, 185 283.245, 185 284.223 C 185 286.862, 183.718 286.371, 181.797 282.994 C 180.860 281.347, 179.670 280, 179.153 280 C 177.351 280, 177.026 283.149, 178.528 286.055 C 179.830 288.572, 179.722 294, 178.369 294 C 178.142 294, 174.478 292.259, 170.228 290.132 C 165.978 288.004, 161.375 285.948, 160 285.563 C 158.625 285.178, 160.762 286.526, 164.750 288.559 C 169.853 291.160, 172 292.810, 172 294.128 C 172 296.331, 171.876 296.356, 168.520 294.827 C 166.523 293.917, 165.671 293.931, 164.723 294.889 C 163.758 295.864, 163.817 296.305, 165 296.980 C 170.295 300.001, 175.154 304.287, 174.054 304.967 C 173.169 305.514, 173.315 305.907, 174.583 306.394 C 176.833 307.257, 175.242 309.013, 170.706 310.674 L 167.500 311.848 171.500 311.928 C 177.614 312.050, 181.658 315.033, 183.289 320.627 L 184.661 325.335 187.904 319.668 C 189.688 316.550, 191.807 314, 192.615 314 C 193.422 314, 195.481 316.250, 197.191 319 C 198.900 321.750, 200.624 324, 201.022 324 C 201.419 324, 202.032 322.200, 202.384 320 C 203.118 315.412, 205.165 314.803, 210.086 317.710 C 212.318 319.029, 213.252 319.148, 214.167 318.233 C 215.081 317.319, 214.986 316.641, 213.747 315.273 C 212.525 313.923, 212.394 313.048, 213.198 311.610 C 214.019 310.144, 213.891 309.519, 212.627 308.811 C 210.149 307.424, 210.665 306.049, 214.250 304.491 C 216.037 303.714, 216.799 303.061, 215.941 303.039 C 215.084 303.018, 213.534 302.380, 212.497 301.621 C 210.674 300.288, 210.671 300.151, 212.411 297.495 C 214.340 294.551, 213.467 293.048, 209.809 293.015 C 207.364 292.993, 206.851 291.576, 208.500 289.397 C 209.290 288.354, 209.951 286.712, 209.968 285.750 C 210.019 282.975, 207.282 283.715, 205.341 287 C 203.221 290.589, 202 290.841, 202 287.691 C 202 284.952, 199.084 280.447, 199.032 283.104 C 199.005 284.453, 194.777 290, 193.775 290 C 192.771 290, 189.853 282.382, 188.082 275.134 C 186.958 270.533, 184.403 263.108, 182.405 258.634 C 175.368 242.878, 169.845 227.635, 167.935 218.697 C 166.873 213.728, 166.214 209.453, 166.470 209.196 C 167.678 207.989, 173.980 211.982, 179.143 217.226 C 182.454 220.589, 185.136 222.589, 185.514 221.977 C 186.877 219.771, 172.982 208.993, 166.820 207.478 C 164.574 206.925, 164.202 207.116, 164.525 208.659 M 228.960 207.250 C 228.938 207.387, 228.770 209.956, 228.587 212.958 C 228.403 215.960, 227.746 218.585, 227.126 218.791 C 226.507 218.998, 226 220.252, 226 221.579 C 226 227.627, 216.606 249.316, 208.168 262.750 C 205.318 267.288, 203.180 271, 203.416 271 C 204.254 271, 212.647 258.386, 216.724 250.999 C 219 246.874, 222.271 239.981, 223.993 235.679 C 226.706 228.903, 227.749 224.713, 230.453 209.750 C 230.726 208.238, 230.511 207, 229.975 207 C 229.439 207, 228.982 207.113, 228.960 207.250 M 139.520 223.554 C 137.003 234.242, 137.913 243.560, 142.064 249.592 C 145.925 255.205, 146.845 255.300, 143.599 249.750 C 139.591 242.897, 138.841 237.577, 140.468 227.527 C 141.246 222.718, 142.079 218.588, 142.318 218.349 C 142.918 217.749, 152.076 232.187, 155.736 239.500 C 159.602 247.228, 168.986 269.603, 169.047 271.242 C 169.100 272.639, 174.878 283.925, 174.953 282.777 C 174.979 282.379, 174.124 280.129, 173.054 277.777 C 171.984 275.425, 168.544 266.975, 165.409 259 C 156.661 236.745, 149.878 223.991, 143.705 218.193 L 141.312 215.944 139.520 223.554 M 250.803 223.897 C 242.621 231.375, 236.010 240.792, 226.351 258.725 C 221.678 267.401, 216.744 276.413, 215.386 278.750 C 214.027 281.087, 213.129 283, 213.391 283 C 214.001 283, 222.431 268.839, 227.975 258.500 C 230.335 254.100, 234.599 246.900, 237.450 242.500 C 242.777 234.281, 253.426 222, 255.227 222 C 255.866 222, 256.088 225.437, 255.830 231.331 C 255.506 238.751, 254.904 241.709, 252.889 245.780 C 251.496 248.595, 250.839 250.603, 251.428 250.242 C 252.018 249.881, 253.977 248.587, 255.782 247.366 C 259.333 244.964, 270.734 242, 276.423 242 C 279.790 242, 279.906 242.116, 278.982 244.548 C 278.449 245.950, 275.978 250.007, 273.492 253.565 C 268.064 261.330, 267.490 263.972, 271 265.041 C 287.467 270.054, 291.047 271.347, 290.334 272.022 C 287.719 274.500, 268.904 279.392, 253.500 281.598 C 244.150 282.937, 235.375 284.478, 234 285.023 L 231.500 286.012 234 285.553 C 235.375 285.301, 243.475 284.169, 252 283.038 C 270.759 280.549, 290.522 275.200, 292.443 272.092 C 293.136 270.972, 278.086 264.978, 272.750 264.249 C 270.688 263.967, 269 263.572, 269 263.371 C 269 263.169, 270.523 260.866, 272.384 258.252 C 275.585 253.757, 282 241.837, 282 240.384 C 282 238.746, 264.045 241.794, 257.589 244.528 C 255.924 245.233, 255.772 245.027, 256.404 242.919 C 257.648 238.767, 258.146 227.700, 257.294 223.104 L 256.480 218.708 250.803 223.897 M 112.640 236.250 C 114.210 241.629, 120.275 253.434, 122.024 254.515 C 123.973 255.719, 122.934 256.942, 120.250 256.604 C 118.737 256.414, 118.128 256.471, 118.895 256.730 C 120.089 257.134, 120.089 257.341, 118.895 258.162 C 117.926 258.828, 118.416 258.946, 120.500 258.547 C 122.150 258.232, 125.045 258.422, 126.934 258.969 C 131.343 260.249, 132.338 259.362, 128.137 257.898 C 126.276 257.249, 123.764 255.063, 122.102 252.643 C 118.451 247.331, 112.777 234.023, 113.433 232.313 C 113.711 231.591, 113.301 231, 112.523 231 C 111.318 231, 111.335 231.779, 112.640 236.250 M 115 232.342 C 115 232.530, 118.263 233.956, 122.250 235.510 C 126.237 237.064, 131.230 239.418, 133.344 240.740 C 137.847 243.556, 139.289 243.159, 135.469 240.155 C 131.739 237.221, 115 230.832, 115 232.342 M 199.631 242.365 C 198.734 244.256, 198 246.717, 198 247.836 C 198 248.955, 197.454 251.137, 196.788 252.685 C 195.621 255.394, 195.552 255.275, 194.956 249.500 C 194.357 243.701, 194.331 243.793, 194.168 252.250 C 194.075 257.076, 194.416 261, 194.927 261 C 195.436 261, 196.029 261.788, 196.244 262.750 C 196.458 263.712, 196.986 262.475, 197.417 260 C 197.847 257.525, 199.022 251.905, 200.028 247.512 C 201.034 243.118, 201.723 239.389, 201.559 239.226 C 201.396 239.062, 200.528 240.475, 199.631 242.365 M 269.187 255.009 C 266.816 257.763, 263.216 260.893, 261.187 261.964 C 256.688 264.340, 257.553 264.563, 262.928 262.412 C 266.677 260.912, 270.197 257.318, 272.879 252.250 C 274.621 248.960, 273.991 249.431, 269.187 255.009 M 102.583 259.013 C 99.879 260.069, 97.285 261.315, 96.818 261.782 C 95.752 262.848, 112.382 272.104, 121.595 275.573 C 128.737 278.261, 156.119 285.215, 156.817 284.517 C 157.232 284.101, 150.294 282.032, 133.229 277.483 C 127.399 275.929, 120.572 273.307, 117.437 271.420 C 114.400 269.591, 111.372 268.297, 110.708 268.543 C 108.859 269.230, 98.594 263.006, 99.719 261.881 C 100.240 261.360, 102.879 260.069, 105.583 259.013 C 108.288 257.957, 109.825 257.094, 109 257.094 C 108.175 257.094, 105.288 257.957, 102.583 259.013 M 232.591 269.072 C 226.040 275.640, 220.865 281.147, 221.091 281.309 C 221.316 281.471, 228.250 278.066, 236.500 273.743 C 250.368 266.475, 252.600 263.904, 240.129 269.563 C 237.175 270.903, 234.318 272, 233.780 272 C 233.242 272, 234.995 269.413, 237.675 266.250 C 248.424 253.568, 247.591 254.030, 232.591 269.072 M 150.892 261.750 C 152.007 263.262, 155.394 267.181, 158.419 270.458 C 161.443 273.735, 163.753 276.581, 163.551 276.782 C 163.350 276.983, 160.197 275.261, 156.545 272.955 C 152.894 270.648, 149.753 268.927, 149.566 269.131 C 149.379 269.334, 153.922 272.532, 159.661 276.237 C 171.208 283.692, 171.142 283.301, 158.431 268.922 C 149.711 259.058, 147.016 256.494, 150.892 261.750 M 200.452 275.093 C 199.572 276.794, 199.030 278.363, 199.247 278.580 C 199.464 278.797, 200.390 277.406, 201.305 275.487 C 203.361 271.175, 202.649 270.845, 200.452 275.093 M 225.500 287.464 C 221.638 289.232, 223.434 289.258, 228 287.500 C 229.925 286.759, 230.825 286.138, 230 286.121 C 229.175 286.104, 227.150 286.708, 225.500 287.464 M 118.500 291.774 C 115.750 291.924, 111.025 292.545, 108 293.153 C 103.754 294.006, 102.958 294.429, 104.510 295.008 C 105.616 295.420, 109.666 295.094, 113.510 294.283 C 126.232 291.599, 135.381 292.930, 162.382 301.394 C 173.879 304.998, 170.329 302.831, 158 298.720 C 141.481 293.212, 129.790 291.156, 118.500 291.774 M 256 293.097 C 248.076 293.970, 238.370 296.150, 226.743 299.669 C 212.703 303.918, 217.370 303.462, 234.630 298.897 C 249.165 295.053, 251.593 294.692, 263.500 294.600 C 273.808 294.521, 277.639 294.890, 282 296.382 C 289.641 298.998, 290.481 299.793, 288.275 302.325 L 286.500 304.363 289.180 302.431 C 292.053 300.361, 293.401 297.366, 291.882 296.427 C 291.370 296.111, 289.612 296.146, 287.976 296.505 C 286.210 296.893, 285 296.749, 285 296.150 C 285 293.863, 266.619 291.928, 256 293.097 M 95.250 296.706 C 94.013 296.944, 93 297.558, 93 298.070 C 93 299.338, 94.045 299.189, 97 297.500 C 99.538 296.049, 99.276 295.930, 95.250 296.706 M 197.650 299 C 196.827 300.650, 196.557 302, 197.051 302 C 197.545 302, 198.647 300.650, 199.500 299 C 200.353 297.350, 200.623 296, 200.099 296 C 199.575 296, 198.473 297.350, 197.650 299 M 288.813 297.683 C 289.534 297.972, 290.397 297.936, 290.729 297.604 C 291.061 297.272, 290.471 297.036, 289.417 297.079 C 288.252 297.127, 288.015 297.364, 288.813 297.683 M 97.300 300.660 C 96.016 304.008, 109.447 312.068, 116 311.881 L 119.500 311.781 115.326 310.956 C 107.851 309.478, 97.415 302.967, 98.401 300.398 C 98.696 299.629, 98.712 299, 98.437 299 C 98.162 299, 97.651 299.747, 97.300 300.660 M 296.500 303.027 C 298.700 304.052, 301.400 305.148, 302.500 305.462 L 304.500 306.032 302.500 307.214 C 301.400 307.864, 296.225 310.126, 291 312.241 C 285.775 314.355, 283.075 315.796, 285 315.443 C 286.925 315.090, 292.550 312.876, 297.500 310.523 L 306.500 306.245 300.721 303.622 C 297.543 302.180, 294.393 301.036, 293.721 301.081 C 293.050 301.125, 294.300 302.001, 296.500 303.027 M 84.051 303.920 L 80.603 305.757 84.985 307.992 C 90.380 310.745, 101.609 315.017, 103.273 314.951 C 103.948 314.924, 101.773 313.852, 98.440 312.568 C 89.446 309.104, 83.853 306.047, 84.524 304.962 C 84.851 304.433, 85.740 304, 86.500 304 C 87.260 304, 88.160 303.550, 88.500 303 C 89.402 301.540, 87.960 301.839, 84.051 303.920 M 280.343 307.100 C 277.507 308.743, 272.332 310.744, 268.843 311.545 L 262.500 313.003 268 312.453 C 273.275 311.924, 281.885 308.345, 284.964 305.400 C 287.061 303.395, 286.177 303.721, 280.343 307.100 M 232.264 308.718 C 233.784 308.947, 236.034 308.941, 237.264 308.704 C 238.494 308.467, 237.250 308.279, 234.500 308.286 C 231.750 308.294, 230.744 308.488, 232.264 308.718 M 242.750 309.662 C 243.438 309.940, 244.563 309.940, 245.250 309.662 C 245.938 309.385, 245.375 309.158, 244 309.158 C 242.625 309.158, 242.063 309.385, 242.750 309.662 M 219.779 312.477 C 225.301 315.048, 231.140 320.525, 248.090 339.032 C 253.365 344.791, 261.385 352.369, 265.913 355.871 L 274.145 362.240 273.454 354.870 C 273.074 350.816, 271.922 345.057, 270.894 342.071 C 269.866 339.085, 269.132 336.561, 269.263 336.462 C 269.393 336.363, 275.242 336.740, 282.259 337.299 C 289.277 337.857, 295.315 338.018, 295.678 337.656 C 296.040 337.293, 294.834 334.860, 292.997 332.248 C 288.372 325.674, 280.852 316.815, 280.335 317.332 C 279.465 318.201, 284.107 325.711, 287.579 329.051 C 295.009 336.199, 294.817 336.404, 281.371 335.688 C 268.076 334.980, 266.115 335.478, 268.041 339.077 C 269.927 342.600, 271.975 351.025, 271.988 355.312 L 272 359.124 267.750 356.037 C 261.964 351.835, 251.659 341.795, 238.522 327.561 C 227.562 315.686, 220.434 309.991, 216.554 310.010 C 215.344 310.016, 216.668 311.029, 219.779 312.477 M 123.750 311.662 C 124.438 311.940, 125.563 311.940, 126.250 311.662 C 126.938 311.385, 126.375 311.158, 125 311.158 C 123.625 311.158, 123.063 311.385, 123.750 311.662 M 159.500 316.588 L 156.500 319.165 159.750 317.015 C 161.537 315.832, 163 314.669, 163 314.432 C 163 313.683, 162.577 313.944, 159.500 316.588 M 105.417 315.866 C 105.712 316.343, 105.010 317.580, 103.858 318.616 C 101.580 320.664, 94.012 331.064, 92.043 334.853 L 90.820 337.205 103.861 336.853 C 111.761 336.639, 117.347 336.054, 118.031 335.370 C 118.871 334.529, 118.050 334.454, 114.830 335.076 C 112.449 335.536, 106.537 335.932, 101.693 335.956 L 92.887 336 94.693 332.934 C 95.687 331.248, 99.095 326.943, 102.267 323.367 C 107.526 317.439, 108.579 315, 105.882 315 C 105.332 315, 105.123 315.390, 105.417 315.866 M 131.240 323.356 C 129.032 325.751, 126.699 328.789, 126.057 330.106 C 125.174 331.917, 125.451 331.769, 127.193 329.500 C 128.460 327.850, 131.013 324.813, 132.865 322.750 C 134.717 320.688, 136.013 319, 135.744 319 C 135.475 319, 133.448 320.960, 131.240 323.356 M 153.872 322.750 C 152.629 324.336, 152.664 324.371, 154.250 323.128 C 155.916 321.821, 156.445 321, 155.622 321 C 155.415 321, 154.627 321.788, 153.872 322.750 M 211.499 328.500 C 217.384 342.470, 218.974 347.406, 219.987 354.850 C 221.872 368.705, 218.298 378.968, 208.527 387.757 C 205.762 390.244, 204.893 391.335, 206.596 390.181 C 210.471 387.555, 216.430 381.014, 218.322 377.310 C 220.221 373.592, 222 364.976, 222 359.500 C 222 352.484, 220.083 345.170, 215.708 335.500 C 211.619 326.458, 208.349 321.021, 211.499 328.500 M 139.500 339.736 C 131.730 348.019, 119.033 358, 116.266 358 C 114.950 358, 116.600 345.107, 118.487 340.642 C 119.383 338.520, 119.922 336.589, 119.684 336.350 C 118.190 334.856, 113.453 354.284, 114.166 358.979 C 114.481 361.053, 114.928 360.896, 122.140 356.180 C 129.333 351.476, 142.835 338.840, 147.176 332.750 C 148.254 331.238, 148.993 330.032, 148.818 330.071 C 148.643 330.110, 144.450 334.459, 139.500 339.736 M 372.739 333.750 L 411.978 334.023 412.250 375.762 L 412.523 417.500 412.761 375.250 L 413 333 373.250 333.238 L 333.500 333.476 372.739 333.750 M 466.143 333.744 L 475.786 334.070 477.028 337.067 C 477.711 338.715, 478.467 339.867, 478.708 339.625 C 478.950 339.383, 478.428 337.794, 477.548 336.093 L 475.949 333 466.224 333.209 L 456.500 333.419 466.143 333.744 M 533.750 333.747 C 539.938 333.922, 550.063 333.922, 556.250 333.747 C 562.438 333.571, 557.375 333.428, 545 333.428 C 532.625 333.428, 527.563 333.571, 533.750 333.747 M 613.750 333.745 L 623 334.075 623 352.538 L 623 371 626.345 371 C 628.583 371, 630.321 370.255, 631.595 368.750 C 633.498 366.502, 633.498 366.502, 631.421 368.250 C 630.278 369.212, 628.140 370, 626.671 370 L 624 370 624 351.500 L 624 333 614.250 333.208 L 604.500 333.415 613.750 333.745 M 653.809 338.600 C 651.439 341.679, 647.022 347.417, 643.994 351.350 C 636.171 361.508, 632.444 366.743, 634.274 365 C 635.141 364.175, 640.848 356.975, 646.957 349 L 658.065 334.500 668.282 333.946 L 678.500 333.391 668.309 333.196 L 658.117 333 653.809 338.600 M 908.231 357.250 L 908.462 381.500 908.749 357.795 L 909.036 334.091 915.768 333.741 L 922.500 333.392 915.250 333.196 L 908 333 908.231 357.250 M 923.813 333.683 C 924.534 333.972, 925.397 333.936, 925.729 333.604 C 926.061 333.272, 925.471 333.036, 924.417 333.079 C 923.252 333.127, 923.015 333.364, 923.813 333.683 M 935.813 333.683 C 936.534 333.972, 937.397 333.936, 937.729 333.604 C 938.061 333.272, 937.471 333.036, 936.417 333.079 C 935.252 333.127, 935.015 333.364, 935.813 333.683 M 941.264 333.718 C 942.784 333.947, 945.034 333.941, 946.264 333.704 C 947.494 333.467, 946.250 333.279, 943.500 333.286 C 940.750 333.294, 939.744 333.488, 941.264 333.718 M 991 377 C 991 401.200, 991.337 421, 991.750 421 C 992.163 421, 992.500 401.200, 992.500 377 C 992.500 352.800, 992.163 333, 991.750 333 C 991.337 333, 991 352.800, 991 377 M 1003.269 333.693 C 1004.242 333.947, 1005.592 333.930, 1006.269 333.656 C 1006.946 333.382, 1006.150 333.175, 1004.500 333.195 C 1002.850 333.215, 1002.296 333.439, 1003.269 333.693 M 1009.269 333.693 C 1010.242 333.947, 1011.592 333.930, 1012.269 333.656 C 1012.946 333.382, 1012.150 333.175, 1010.500 333.195 C 1008.850 333.215, 1008.296 333.439, 1009.269 333.693 M 1025.762 333.707 C 1027.006 333.946, 1028.806 333.937, 1029.762 333.687 C 1030.718 333.437, 1029.700 333.241, 1027.500 333.252 C 1025.300 333.263, 1024.518 333.468, 1025.762 333.707 M 1049 338.480 L 1049 343.960 1027.750 344.251 L 1006.500 344.542 1028.250 344.771 L 1050 345 1050 339 C 1050 335.700, 1049.775 333, 1049.500 333 C 1049.225 333, 1049 335.466, 1049 338.480 M 1080.481 370.500 L 1080.500 408.500 1100.701 408.771 L 1120.901 409.041 1121.262 414.771 L 1121.622 420.500 1121.811 414.250 L 1122 408 1101.512 408 L 1081.024 408 1080.744 370.250 L 1080.463 332.500 1080.481 370.500 M 1225.250 333.689 C 1226.213 333.941, 1227.787 333.941, 1228.750 333.689 C 1229.713 333.438, 1228.925 333.232, 1227 333.232 C 1225.075 333.232, 1224.287 333.438, 1225.250 333.689 M 1268.610 336.250 L 1266.788 339.500 1269.144 336.850 C 1270.440 335.392, 1272.175 333.965, 1273 333.679 C 1274.037 333.319, 1273.872 333.134, 1272.466 333.079 C 1271.164 333.028, 1269.775 334.170, 1268.610 336.250 M 1282.141 339.766 C 1279.743 343.334, 1278.183 346.005, 1278.672 345.703 C 1279.947 344.915, 1287.357 334.013, 1286.890 333.613 C 1286.676 333.429, 1284.538 336.198, 1282.141 339.766 M 950.813 334.683 C 951.534 334.972, 952.397 334.936, 952.729 334.604 C 953.061 334.272, 952.471 334.036, 951.417 334.079 C 950.252 334.127, 950.015 334.364, 950.813 334.683 M 167.640 341.045 C 164.982 347.173, 162.499 359.461, 163.256 362.739 C 163.479 363.708, 163.986 361.800, 164.382 358.500 C 164.779 355.200, 166.422 348.705, 168.035 344.067 C 169.648 339.428, 170.813 335.480, 170.625 335.292 C 170.437 335.104, 169.094 337.693, 167.640 341.045 M 1230.808 336.500 C 1231.432 337.600, 1232.893 339.625, 1234.055 341 L 1236.167 343.500 1234.333 340.173 C 1233.325 338.343, 1231.864 336.318, 1231.086 335.673 C 1229.898 334.687, 1229.853 334.819, 1230.808 336.500 M 579.327 339.093 C 584.464 342.496, 587.028 345.640, 589.994 352.177 C 591.073 354.555, 591.966 355.805, 591.978 354.956 C 592.044 350.316, 579.788 336, 575.751 336 C 575.149 336, 576.758 337.392, 579.327 339.093 M 454.624 338.539 C 453.659 341.053, 453.943 341.702, 455.122 339.675 C 455.706 338.671, 455.973 337.639, 455.715 337.382 C 455.458 337.124, 454.966 337.645, 454.624 338.539 M 673.872 338.750 C 672.629 340.336, 672.664 340.371, 674.250 339.128 C 675.916 337.821, 676.445 337, 675.622 337 C 675.415 337, 674.627 337.788, 673.872 338.750 M 963.898 340.041 C 966.207 341.714, 969.425 345.177, 971.048 347.737 C 972.672 350.297, 974 351.921, 974 351.346 C 974 348.441, 963.238 337, 960.506 337 C 960.062 337, 961.589 338.369, 963.898 340.041 M 1220.982 345.750 C 1224.320 350.837, 1227.255 355, 1227.504 355 C 1228.139 355, 1220.432 343.183, 1217.412 339.526 C 1216.038 337.862, 1217.644 340.663, 1220.982 345.750 M 665.437 350.250 C 661.700 355.337, 655.968 363.049, 652.698 367.386 C 649.428 371.723, 647.249 374.964, 647.856 374.589 C 649.587 373.519, 673.623 341, 672.683 341 C 672.434 341, 669.173 345.163, 665.437 350.250 M 1260.592 348.750 C 1258.562 351.913, 1257.947 353.269, 1259.226 351.765 C 1261.750 348.796, 1265.368 343, 1264.698 343 C 1264.470 343, 1262.622 345.587, 1260.592 348.750 M 930.784 344.738 C 933.689 344.941, 938.189 344.939, 940.784 344.734 C 943.378 344.528, 941 344.363, 935.500 344.365 C 930 344.368, 927.878 344.536, 930.784 344.738 M 481.031 345.500 C 481.031 346.050, 481.467 347.175, 482 348 C 482.533 348.825, 482.969 349.050, 482.969 348.500 C 482.969 347.950, 482.533 346.825, 482 346 C 481.467 345.175, 481.031 344.950, 481.031 345.500 M 922.411 362 C 922.411 371.625, 922.561 375.563, 922.745 370.750 C 922.928 365.938, 922.928 358.063, 922.745 353.250 C 922.561 348.438, 922.411 352.375, 922.411 362 M 1155.624 347.539 C 1154.659 350.053, 1154.943 350.702, 1156.122 348.675 C 1156.706 347.671, 1156.973 346.639, 1156.715 346.382 C 1156.458 346.124, 1155.966 346.645, 1155.624 347.539 M 450.624 348.539 C 449.659 351.053, 449.943 351.702, 451.122 349.675 C 451.706 348.671, 451.973 347.639, 451.715 347.382 C 451.458 347.124, 450.966 347.645, 450.624 348.539 M 956.118 350.456 C 957.558 352.130, 959.232 354.400, 959.838 355.500 C 960.444 356.600, 960.953 356.920, 960.970 356.211 C 960.986 355.502, 959.313 353.233, 957.250 351.167 C 955.161 349.076, 954.660 348.760, 956.118 350.456 M 1238.651 348.019 C 1240.266 350.908, 1245.267 358, 1245.689 358 C 1246.369 358, 1243.063 352.765, 1240.321 349.500 C 1238.935 347.850, 1238.184 347.184, 1238.651 348.019 M 1274.832 350.250 C 1271.426 354.850, 1268.869 359, 1269.440 359 C 1269.707 359, 1271.759 356.300, 1274 353 C 1278.320 346.639, 1278.882 344.778, 1274.832 350.250 M 393.237 385.250 L 393 421 403 421 C 411.887 421, 412.991 420.805, 412.921 419.250 C 412.874 418.205, 412.639 418.003, 412.338 418.750 C 411.987 419.619, 409.117 420, 402.929 420 L 394.026 420 393.750 384.750 L 393.474 349.500 393.237 385.250 M 483.031 350.500 C 483.031 351.050, 483.467 352.175, 484 353 C 484.533 353.825, 484.969 354.050, 484.969 353.500 C 484.969 352.950, 484.533 351.825, 484 351 C 483.467 350.175, 483.031 349.950, 483.031 350.500 M 541.389 362.500 C 541.390 369.650, 541.550 372.444, 541.742 368.708 C 541.935 364.973, 541.934 359.123, 541.739 355.708 C 541.545 352.294, 541.387 355.350, 541.389 362.500 M 448.624 353.539 C 447.659 356.053, 447.943 356.702, 449.122 354.675 C 449.706 353.671, 449.973 352.639, 449.715 352.382 C 449.458 352.124, 448.966 352.645, 448.624 353.539 M 569.345 353.701 C 570.360 354.893, 571.803 357.585, 572.551 359.684 C 573.300 361.783, 573.932 362.690, 573.956 361.700 C 574.015 359.305, 571.572 354.696, 569.316 352.944 C 567.608 351.619, 567.610 351.664, 569.345 353.701 M 1183.031 352.500 C 1183.031 353.050, 1183.467 354.175, 1184 355 C 1184.533 355.825, 1184.969 356.050, 1184.969 355.500 C 1184.969 354.950, 1184.533 353.825, 1184 353 C 1183.467 352.175, 1183.031 351.950, 1183.031 352.500 M 466 354.500 C 466 355.325, 466.436 356, 466.969 356 C 467.501 356, 467.678 355.325, 467.362 354.500 C 467.045 353.675, 466.609 353, 466.393 353 C 466.177 353, 466 353.675, 466 354.500 M 974.079 354.583 C 974.127 355.748, 974.364 355.985, 974.683 355.188 C 974.972 354.466, 974.936 353.603, 974.604 353.271 C 974.272 352.939, 974.036 353.529, 974.079 354.583 M 1170.071 353.500 C 1170.071 354.050, 1170.714 355.625, 1171.500 357 C 1172.286 358.375, 1172.929 359.050, 1172.929 358.500 C 1172.929 357.950, 1172.286 356.375, 1171.500 355 C 1170.714 353.625, 1170.071 352.950, 1170.071 353.500 M 1234.174 365.017 C 1237.751 370.251, 1240.940 375.201, 1241.260 376.017 C 1241.770 377.317, 1241.851 377.315, 1241.913 376 C 1241.951 375.175, 1239.252 370.675, 1235.915 366 C 1227.467 354.168, 1226.314 353.517, 1234.174 365.017 M 591.916 364.500 C 591.229 373.896, 588.968 378.983, 582.747 385.124 C 578.898 388.924, 578.816 389.100, 581.869 387.006 C 585.827 384.290, 590.625 377.107, 592.073 371.727 C 592.637 369.636, 592.963 365.354, 592.799 362.212 C 592.511 356.704, 592.479 356.786, 591.916 364.500 M 605.272 361 C 605.272 363.475, 605.467 364.488, 605.706 363.250 C 605.944 362.012, 605.944 359.988, 605.706 358.750 C 605.467 357.512, 605.272 358.525, 605.272 361 M 975.286 361.500 C 975.294 364.250, 975.488 365.256, 975.718 363.736 C 975.947 362.216, 975.941 359.966, 975.704 358.736 C 975.467 357.506, 975.279 358.750, 975.286 361.500 M 1185.031 357.500 C 1185.031 358.050, 1185.467 359.175, 1186 360 C 1186.533 360.825, 1186.969 361.050, 1186.969 360.500 C 1186.969 359.950, 1186.533 358.825, 1186 358 C 1185.467 357.175, 1185.031 356.950, 1185.031 357.500 M 1150.624 359.539 C 1149.659 362.053, 1149.943 362.702, 1151.122 360.675 C 1151.706 359.671, 1151.973 358.639, 1151.715 358.382 C 1151.458 358.124, 1150.966 358.645, 1150.624 359.539 M 487.031 359.500 C 487.031 360.050, 487.467 361.175, 488 362 C 488.533 362.825, 488.969 363.050, 488.969 362.500 C 488.969 361.950, 488.533 360.825, 488 360 C 487.467 359.175, 487.031 358.950, 487.031 359.500 M 961.116 361.790 C 960.959 366.253, 957.748 372.247, 953.778 375.487 C 951.975 376.958, 951.477 377.679, 952.672 377.088 C 958.081 374.412, 962.989 365.321, 961.709 360.350 C 961.435 359.290, 961.182 359.904, 961.116 361.790 M 1005.195 364.500 C 1005.215 366.150, 1005.439 366.704, 1005.693 365.731 C 1005.947 364.758, 1005.930 363.408, 1005.656 362.731 C 1005.382 362.054, 1005.175 362.850, 1005.195 364.500 M 1187.084 362.500 C 1187.084 363.050, 1187.946 365.075, 1189 367 C 1190.054 368.925, 1190.916 370.050, 1190.916 369.500 C 1190.916 368.950, 1190.054 366.925, 1189 365 C 1187.946 363.075, 1187.084 361.950, 1187.084 362.500 M 470.075 364 C 470.071 365.441, 472.892 371.166, 472.965 369.865 C 472.984 369.515, 472.343 367.715, 471.539 365.865 C 470.736 364.014, 470.077 363.175, 470.075 364 M 1147.679 366.546 C 1145.330 371.473, 1145.661 372.311, 1148.116 367.656 C 1149.232 365.541, 1149.968 363.634, 1149.752 363.418 C 1149.535 363.202, 1148.603 364.610, 1147.679 366.546 M 1161.162 365.543 C 1159.487 369.220, 1159.807 370.005, 1161.618 366.662 C 1162.464 365.100, 1162.969 363.636, 1162.741 363.407 C 1162.512 363.179, 1161.802 364.140, 1161.162 365.543 M 1262.744 367.750 C 1259.018 372.915, 1257.065 376.159, 1258.680 374.500 C 1260.458 372.673, 1267.179 363, 1266.670 363 C 1266.395 363, 1264.629 365.137, 1262.744 367.750 M 443.624 365.539 C 442.659 368.053, 442.943 368.702, 444.122 366.675 C 444.706 365.671, 444.973 364.639, 444.715 364.382 C 444.458 364.124, 443.966 364.645, 443.624 365.539 M 489.031 364.500 C 489.031 365.050, 489.467 366.175, 490 367 C 490.533 367.825, 490.969 368.050, 490.969 367.500 C 490.969 366.950, 490.533 365.825, 490 365 C 489.467 364.175, 489.031 363.950, 489.031 364.500 M 461.624 366.539 C 460.659 369.053, 460.943 369.702, 462.122 367.675 C 462.706 366.671, 462.973 365.639, 462.715 365.382 C 462.458 365.124, 461.966 365.645, 461.624 366.539 M 573.079 366.583 C 573.127 367.748, 573.364 367.985, 573.683 367.188 C 573.972 366.466, 573.936 365.603, 573.604 365.271 C 573.272 364.939, 573.036 365.529, 573.079 366.583 M 164.508 370.842 C 165.440 378.261, 170.726 386.632, 177.329 391.142 C 179.323 392.505, 178.597 391.489, 175.372 388.404 C 169.707 382.986, 167.708 379.630, 165.466 371.770 C 163.979 366.557, 163.968 366.547, 164.508 370.842 M 974.116 368.290 C 973.814 372.944, 967.095 381.757, 961.500 384.838 C 960.400 385.444, 960.028 385.953, 960.673 385.970 C 961.876 386.001, 967.497 381.699, 969.773 379.006 C 972.302 376.012, 975.108 369.813, 974.675 368.175 C 974.286 366.704, 974.218 366.718, 974.116 368.290 M 491 369.941 C 491 370.459, 491.445 371.157, 491.989 371.493 C 492.555 371.843, 492.723 371.442, 492.382 370.552 C 491.717 368.820, 491 368.503, 491 369.941 M 1013 370.684 C 1029 371.405, 1044.004 371.437, 1044.002 370.750 C 1044.001 370.337, 1035.563 370.088, 1025.250 370.196 C 1014.938 370.304, 1009.425 370.523, 1013 370.684 M 473.031 371.500 C 473.031 372.050, 473.467 373.175, 474 374 C 474.533 374.825, 474.969 375.050, 474.969 374.500 C 474.969 373.950, 474.533 372.825, 474 372 C 473.467 371.175, 473.031 370.950, 473.031 371.500 M 568.500 373.625 C 566.702 375.155, 566.334 375.763, 567.582 375.143 C 569.415 374.233, 572.853 370.941, 571.872 371.036 C 571.668 371.056, 570.150 372.221, 568.500 373.625 M 1191.071 371.500 C 1191.071 372.050, 1191.714 373.625, 1192.500 375 C 1193.286 376.375, 1193.929 377.050, 1193.929 376.500 C 1193.929 375.950, 1193.286 374.375, 1192.500 373 C 1191.714 371.625, 1191.071 370.950, 1191.071 371.500 M 1157.624 373.539 C 1156.659 376.053, 1156.943 376.702, 1158.122 374.675 C 1158.706 373.671, 1158.973 372.639, 1158.715 372.382 C 1158.458 372.124, 1157.966 372.645, 1157.624 373.539 M 439.624 375.539 C 438.659 378.053, 438.943 378.702, 440.122 376.675 C 440.706 375.671, 440.973 374.639, 440.715 374.382 C 440.458 374.124, 439.966 374.645, 439.624 375.539 M 1143.624 375.539 C 1142.659 378.053, 1142.943 378.702, 1144.122 376.675 C 1144.706 375.671, 1144.973 374.639, 1144.715 374.382 C 1144.458 374.124, 1143.966 374.645, 1143.624 375.539 M 494.031 376.500 C 494.031 377.050, 494.467 378.175, 495 379 C 495.533 379.825, 495.969 380.050, 495.969 379.500 C 495.969 378.950, 495.533 377.825, 495 377 C 494.467 376.175, 494.031 375.950, 494.031 376.500 M 541.001 377.250 C 541 378.218, 562.130 378.204, 563.657 377.235 C 564.294 376.831, 559.457 376.500, 552.909 376.500 C 546.360 376.500, 541.002 376.837, 541.001 377.250 M 648.970 377.944 C 649.543 379.014, 650.505 380.194, 651.109 380.567 C 651.713 380.941, 651.434 380.066, 650.489 378.623 C 648.487 375.568, 647.451 375.105, 648.970 377.944 M 1259.652 378.756 C 1270.240 394.544, 1282.062 412.424, 1284.437 416.240 C 1286.052 418.836, 1287.567 420.766, 1287.803 420.530 C 1288.305 420.029, 1259.196 376, 1258.364 376 C 1258.056 376, 1258.635 377.240, 1259.652 378.756 M 180.728 378.722 C 182.503 378.943, 185.653 378.946, 187.728 378.730 C 189.802 378.513, 188.350 378.333, 184.500 378.328 C 180.650 378.324, 178.952 378.501, 180.728 378.722 M 1194.031 378.500 C 1194.031 379.050, 1194.467 380.175, 1195 381 C 1195.533 381.825, 1195.969 382.050, 1195.969 381.500 C 1195.969 380.950, 1195.533 379.825, 1195 379 C 1194.467 378.175, 1194.031 377.950, 1194.031 378.500 M 1237.711 381.250 C 1234.731 385.303, 1220.704 405.968, 1219.555 408 C 1218.973 409.029, 1219.034 409.186, 1219.748 408.500 C 1221.163 407.140, 1240.983 378, 1240.492 378 C 1240.278 378, 1239.026 379.462, 1237.711 381.250 M 437.624 380.539 C 436.659 383.053, 436.943 383.702, 438.122 381.675 C 438.706 380.671, 438.973 379.639, 438.715 379.382 C 438.458 379.124, 437.966 379.645, 437.624 380.539 M 1141.624 380.539 C 1140.659 383.053, 1140.943 383.702, 1142.122 381.675 C 1142.706 380.671, 1142.973 379.639, 1142.715 379.382 C 1142.458 379.124, 1141.966 379.645, 1141.624 380.539 M 1154.162 381.543 C 1153.523 382.946, 1153.018 384.635, 1153.039 385.297 C 1153.061 385.959, 1153.743 384.969, 1154.554 383.099 C 1156.263 379.161, 1155.902 377.726, 1154.162 381.543 M 652 382.378 C 652 382.585, 652.788 383.373, 653.750 384.128 C 655.336 385.371, 655.371 385.336, 654.128 383.750 C 652.821 382.084, 652 381.555, 652 382.378 M 454.697 384.393 C 454.288 385.434, 454.189 386.522, 454.476 386.810 C 455.389 387.722, 456.191 386.227, 455.809 384.328 C 455.459 382.588, 455.405 382.591, 454.697 384.393 M 1196.245 384 C 1198.571 390.188, 1204.311 403.022, 1204.616 402.717 C 1205.054 402.279, 1197.344 383.974, 1196.350 383.093 C 1195.982 382.767, 1195.935 383.175, 1196.245 384 M 435.624 385.539 C 434.659 388.053, 434.943 388.702, 436.122 386.675 C 436.706 385.671, 436.973 384.639, 436.715 384.382 C 436.458 384.124, 435.966 384.645, 435.624 385.539 M 498.168 387.051 C 498.753 388.729, 499.417 389.917, 499.644 389.690 C 500.139 389.195, 498.252 384, 497.577 384 C 497.317 384, 497.583 385.373, 498.168 387.051 M 1139.624 385.539 C 1138.659 388.053, 1138.943 388.702, 1140.122 386.675 C 1140.706 385.671, 1140.973 384.639, 1140.715 384.382 C 1140.458 384.124, 1139.966 384.645, 1139.624 385.539 M 633 385.378 C 633 385.585, 633.788 386.373, 634.750 387.128 C 636.336 388.371, 636.371 388.336, 635.128 386.750 C 633.821 385.084, 633 384.555, 633 385.378 M 623 402.962 L 623 419.925 613.750 420.255 L 604.500 420.585 614.250 420.792 L 624 421 624 403.500 C 624 393.875, 623.775 386, 623.500 386 C 623.225 386, 623 393.633, 623 402.962 M 657 389 C 658.175 390.650, 659.361 392, 659.636 392 C 659.911 392, 659.175 390.650, 658 389 C 656.825 387.350, 655.639 386, 655.364 386 C 655.089 386, 655.825 387.350, 657 389 M 1157.250 388.728 C 1159.313 388.944, 1162.688 388.944, 1164.750 388.728 C 1166.813 388.513, 1165.125 388.336, 1161 388.336 C 1156.875 388.336, 1155.188 388.513, 1157.250 388.728 M 1176.250 388.716 C 1177.763 388.945, 1180.237 388.945, 1181.750 388.716 C 1183.263 388.487, 1182.025 388.300, 1179 388.300 C 1175.975 388.300, 1174.737 388.487, 1176.250 388.716 M 1246 390 C 1245.411 391.100, 1245.155 392, 1245.430 392 C 1245.705 392, 1246.411 391.100, 1247 390 C 1247.589 388.900, 1247.845 388, 1247.570 388 C 1247.295 388, 1246.589 388.900, 1246 390 M 433.624 390.539 C 432.659 393.053, 432.943 393.702, 434.122 391.675 C 434.706 390.671, 434.973 389.639, 434.715 389.382 C 434.458 389.124, 433.966 389.645, 433.624 390.539 M 639 393.500 C 640.703 395.975, 642.321 398, 642.596 398 C 642.871 398, 641.703 395.975, 640 393.500 C 638.297 391.025, 636.679 389, 636.404 389 C 636.129 389, 637.297 391.025, 639 393.500 M 962.152 397.675 C 965.565 402.529, 970.301 409.263, 972.678 412.639 C 975.055 416.016, 977 419.054, 977 419.389 C 977 419.725, 973.682 420, 969.626 420 L 962.252 420 956.979 411.968 C 954.079 407.551, 951.272 403.668, 950.741 403.340 C 950.210 403.012, 952.538 406.851, 955.914 411.872 L 962.052 421 970.526 421 C 975.187 421, 979 420.762, 979 420.471 C 979 419.639, 957.954 390.089, 956.896 389.435 C 956.374 389.113, 958.740 392.821, 962.152 397.675 M 928.280 390.736 C 930.909 390.943, 934.959 390.940, 937.280 390.731 C 939.601 390.521, 937.450 390.352, 932.500 390.355 C 927.550 390.358, 925.651 390.530, 928.280 390.736 M 922.402 406 C 922.402 414.525, 922.556 418.012, 922.743 413.750 C 922.931 409.488, 922.931 402.512, 922.743 398.250 C 922.556 393.988, 922.402 397.475, 922.402 406 M 1136.624 392.539 C 1135.659 395.053, 1135.943 395.702, 1137.122 393.675 C 1137.706 392.671, 1137.973 391.639, 1137.715 391.382 C 1137.458 391.124, 1136.966 391.645, 1136.624 392.539 M 199.973 393.692 C 196.484 396.080, 196.030 396.980, 196.037 401.500 C 196.062 417.089, 212.519 460.654, 225.502 479.500 C 231.048 487.550, 237.108 495, 238.112 495 C 238.491 495, 237.954 491.738, 236.920 487.750 C 233.228 473.521, 231.955 460.781, 231.957 438.103 C 231.959 426.093, 232.271 415.458, 232.650 414.470 C 233.090 413.323, 232.957 412.908, 232.283 413.325 C 230.523 414.413, 229.741 440.184, 230.973 456.500 C 231.954 469.482, 234.269 483.745, 236.493 490.500 C 237.684 494.117, 229.371 483.984, 224.705 476.130 C 210.728 452.605, 199.362 422.326, 197.376 403.323 C 196.759 397.425, 196.798 397.302, 200.125 394.681 C 203.892 391.713, 203.794 391.077, 199.973 393.692 M 908.220 406.250 L 908 421 910.750 420.864 C 913.067 420.749, 913.150 420.660, 911.277 420.298 C 909.122 419.881, 909.045 419.433, 908.747 405.684 L 908.441 391.500 908.220 406.250 M 298.158 395 C 298.158 396.375, 298.385 396.938, 298.662 396.250 C 298.940 395.563, 298.940 394.438, 298.662 393.750 C 298.385 393.063, 298.158 393.625, 298.158 395 M 564.750 393.662 C 565.438 393.940, 566.563 393.940, 567.250 393.662 C 567.938 393.385, 567.375 393.158, 566 393.158 C 564.625 393.158, 564.063 393.385, 564.750 393.662 M 662 396 C 663.175 397.650, 664.361 399, 664.636 399 C 664.911 399, 664.175 397.650, 663 396 C 661.825 394.350, 660.639 393, 660.364 393 C 660.089 393, 660.825 394.350, 662 396 M 1243 395 C 1242.411 396.100, 1242.155 397, 1242.430 397 C 1242.705 397, 1243.411 396.100, 1244 395 C 1244.589 393.900, 1244.845 393, 1244.570 393 C 1244.295 393, 1243.589 393.900, 1243 395 M 431.624 395.539 C 430.659 398.053, 430.943 398.702, 432.122 396.675 C 432.706 395.671, 432.973 394.639, 432.715 394.382 C 432.458 394.124, 431.966 394.645, 431.624 395.539 M 541.382 405.500 C 541.384 412.100, 541.546 414.670, 541.741 411.211 C 541.937 407.752, 541.936 402.352, 541.738 399.211 C 541.540 396.070, 541.380 398.900, 541.382 405.500 M 502.075 396 C 502.071 397.441, 504.892 403.166, 504.965 401.865 C 504.984 401.515, 504.343 399.715, 503.539 397.865 C 502.736 396.014, 502.077 395.175, 502.075 396 M 288.500 400 C 290.648 402.200, 292.631 404, 292.906 404 C 293.181 404, 291.648 402.200, 289.500 400 C 287.352 397.800, 285.369 396, 285.094 396 C 284.819 396, 286.352 397.800, 288.500 400 M 1134.162 398.543 C 1132.487 402.220, 1132.807 403.005, 1134.618 399.662 C 1135.464 398.100, 1135.969 396.636, 1135.741 396.407 C 1135.512 396.179, 1134.802 397.140, 1134.162 398.543 M 228.946 401.750 L 225.500 405.500 229.250 402.054 C 232.740 398.846, 233.460 398, 232.696 398 C 232.529 398, 230.842 399.688, 228.946 401.750 M 185.330 400.500 C 185.649 401.600, 187.264 407.900, 188.921 414.500 C 191.934 426.508, 196.785 441.546, 196.926 439.315 C 196.967 438.663, 196.510 436.863, 195.910 435.315 C 195.311 433.767, 192.843 425.119, 190.426 416.099 C 188.009 407.078, 185.743 399.428, 185.391 399.099 C 185.039 398.769, 185.012 399.400, 185.330 400.500 M 231.240 407.646 C 223.503 414.816, 221.734 416.024, 220.490 414.991 C 218.321 413.192, 218.621 412.009, 222.249 408.048 C 225.195 404.830, 225.101 404.869, 221.236 408.465 L 216.975 412.430 219.422 414.876 L 221.868 417.323 228.684 411.256 C 235.578 405.119, 241.739 398.973, 240.937 399.032 C 240.697 399.050, 236.333 402.927, 231.240 407.646 M 643.736 400.250 C 644.276 400.938, 647.935 405.887, 651.867 411.250 L 659.016 421 670.008 421 C 676.054 421, 681 420.830, 681 420.622 C 681 420.415, 680.239 419.627, 679.308 418.872 C 678.158 417.940, 677.857 417.901, 678.367 418.750 C 678.948 419.717, 676.858 420, 669.147 420 L 659.175 420 651.523 409.500 C 647.315 403.725, 643.620 399, 643.313 399 C 643.006 399, 643.197 399.563, 643.736 400.250 M 1168.321 399.738 L 1188.143 400.043 1191.100 406.271 C 1192.726 409.697, 1193.770 411.375, 1193.420 410 C 1193.070 408.625, 1191.811 405.700, 1190.623 403.500 L 1188.463 399.500 1168.481 399.467 L 1148.500 399.433 1168.321 399.738 M 1233.178 410 C 1229.280 416.050, 1226.281 421, 1226.515 421 C 1226.968 421, 1235.129 408.968, 1238.893 402.750 C 1240.142 400.688, 1240.961 399, 1240.714 399 C 1240.467 399, 1237.076 403.950, 1233.178 410 M 667.437 403.329 C 668.977 405.348, 670.440 407, 670.687 407 C 671.381 407, 667.052 401.150, 665.772 400.359 C 665.148 399.973, 665.897 401.310, 667.437 403.329 M 1005.232 403 C 1005.232 404.925, 1005.438 405.712, 1005.689 404.750 C 1005.941 403.788, 1005.941 402.212, 1005.689 401.250 C 1005.438 400.288, 1005.232 401.075, 1005.232 403 M 428.624 402.539 C 427.659 405.053, 427.943 405.702, 429.122 403.675 C 429.706 402.671, 429.973 401.639, 429.715 401.382 C 429.458 401.124, 428.966 401.645, 428.624 402.539 M 484.429 402.571 C 485.293 403.436, 486 404.636, 486 405.238 C 486 405.840, 486.261 406.072, 486.581 405.752 C 487.390 404.944, 485.159 401, 483.893 401 C 483.323 401, 483.564 401.707, 484.429 402.571 M 1146.624 402.539 C 1145.659 405.053, 1145.943 405.702, 1147.122 403.675 C 1147.706 402.671, 1147.973 401.639, 1147.715 401.382 C 1147.458 401.124, 1146.966 401.645, 1146.624 402.539 M 287 404.378 C 287 404.585, 287.788 405.373, 288.750 406.128 C 290.336 407.371, 290.371 407.336, 289.128 405.750 C 287.821 404.084, 287 403.555, 287 404.378 M 1205.084 404.500 C 1205.084 405.050, 1205.946 407.075, 1207 409 C 1208.054 410.925, 1208.916 412.050, 1208.916 411.500 C 1208.916 410.950, 1208.054 408.925, 1207 407 C 1205.946 405.075, 1205.084 403.950, 1205.084 404.500 M 506.071 405.500 C 506.071 406.050, 506.714 407.625, 507.500 409 C 508.286 410.375, 508.929 411.050, 508.929 410.500 C 508.929 409.950, 508.286 408.375, 507.500 407 C 506.714 405.625, 506.071 404.950, 506.071 405.500 M 1128.039 412.227 C 1126.252 416.227, 1124.275 419.831, 1123.645 420.235 C 1123.015 420.639, 1124.075 420.924, 1126 420.869 C 1127.925 420.813, 1128.713 420.562, 1127.750 420.311 C 1125.531 419.731, 1125.468 420.129, 1129.009 412.320 C 1130.664 408.670, 1131.854 405.520, 1131.653 405.320 C 1131.452 405.119, 1129.826 408.227, 1128.039 412.227 M 1144.162 408.543 C 1142.487 412.220, 1142.807 413.005, 1144.618 409.662 C 1145.464 408.100, 1145.969 406.636, 1145.741 406.407 C 1145.512 406.179, 1144.802 407.140, 1144.162 408.543 M 297 407.313 C 297 407.485, 298.462 408.948, 300.250 410.563 L 303.500 413.500 300.563 410.250 C 297.825 407.221, 297 406.540, 297 407.313 M 426.459 408.067 C 426.096 408.653, 426.014 409.348, 426.276 409.610 C 426.538 409.872, 427.019 409.392, 427.345 408.543 C 428.021 406.781, 427.445 406.471, 426.459 408.067 M 1027.701 408.749 L 1048.901 409.039 1049.262 414.770 L 1049.622 420.500 1049.811 414.250 L 1050 408 1028.250 408.229 L 1006.500 408.458 1027.701 408.749 M 488.031 409.500 C 488.031 410.050, 488.467 411.175, 489 412 C 489.533 412.825, 489.969 413.050, 489.969 412.500 C 489.969 411.950, 489.533 410.825, 489 410 C 488.467 409.175, 488.031 408.950, 488.031 409.500 M 310.564 411.293 C 310.940 412.279, 311.499 412.834, 311.807 412.526 C 312.115 412.219, 311.808 411.412, 311.124 410.733 C 310.136 409.753, 310.022 409.868, 310.564 411.293 M 1215.463 414.250 C 1213.921 416.587, 1213.299 417.972, 1214.080 417.327 C 1215.582 416.086, 1219.411 410, 1218.689 410 C 1218.456 410, 1217.004 411.913, 1215.463 414.250 M 149 411.378 C 149 411.585, 149.787 412.373, 150.750 413.128 C 152.336 414.371, 152.371 414.336, 151.128 412.750 C 149.821 411.084, 149 410.555, 149 411.378 M 248.063 413.706 C 248.124 416.377, 248.167 416.401, 249.031 414.250 C 249.829 412.265, 250.647 412, 255.968 412 L 262 412 262 418.448 L 262 424.895 257.250 425.276 L 252.500 425.656 257.500 425.578 L 262.500 425.500 262.500 418.500 L 262.500 411.500 255.250 411.206 L 248 410.912 248.063 413.706 M 273.750 411.727 L 280 412.091 280 418.546 L 280 425 273.548 425 L 267.095 425 266.713 418.750 L 266.331 412.500 266.416 419 L 266.500 425.500 273.795 425.795 L 281.089 426.089 280.795 418.795 L 280.500 411.500 274 411.432 L 267.500 411.363 273.750 411.727 M 424.162 413.543 C 422.487 417.220, 422.807 418.005, 424.618 414.662 C 425.464 413.100, 425.969 411.636, 425.741 411.407 C 425.512 411.179, 424.802 412.140, 424.162 413.543 M 673 411.378 C 673 411.585, 673.788 412.373, 674.750 413.128 C 676.336 414.371, 676.371 414.336, 675.128 412.750 C 673.821 411.084, 673 410.555, 673 411.378 M 684.638 412.500 C 684.955 413.325, 685.671 414, 686.229 414 C 686.815 414, 686.718 413.365, 686 412.500 C 685.315 411.675, 684.599 411, 684.409 411 C 684.219 411, 684.322 411.675, 684.638 412.500 M 732.750 412.723 C 734.538 412.945, 737.462 412.945, 739.250 412.723 C 741.038 412.502, 739.575 412.320, 736 412.320 C 732.425 412.320, 730.962 412.502, 732.750 412.723 M 305.500 415 C 306.495 416.100, 307.535 417, 307.810 417 C 308.085 417, 307.495 416.100, 306.500 415 C 305.505 413.900, 304.465 413, 304.190 413 C 303.915 413, 304.505 413.900, 305.500 415 M 693.250 413.716 C 694.763 413.945, 697.237 413.945, 698.750 413.716 C 700.263 413.487, 699.025 413.300, 696 413.300 C 692.975 413.300, 691.737 413.487, 693.250 413.716 M 758.083 413.375 C 760.220 415.300, 783.620 430.283, 785.738 431.083 C 787.332 431.685, 788.077 431.718, 787.500 431.161 C 785.608 429.336, 759.678 413, 758.673 413 C 758.119 413, 757.854 413.169, 758.083 413.375 M 161.063 422.096 C 171.416 432.524, 186.559 453.571, 184.326 454.428 C 182.272 455.217, 181.792 455.145, 182.411 454.144 C 182.702 453.674, 181.829 453.501, 180.472 453.761 C 179.037 454.035, 176.852 453.462, 175.252 452.391 C 170.400 449.144, 165.340 446.645, 167 448.316 C 169.412 450.744, 188.516 461.084, 191.120 461.372 C 192.429 461.516, 195.300 462.766, 197.500 464.150 C 201.256 466.512, 208 469.330, 208 468.537 C 208 468.340, 205.999 467.210, 203.553 466.026 C 196.777 462.745, 185.959 452.087, 178.935 441.771 C 172.638 432.523, 161.129 419.684, 155.563 415.700 C 153.948 414.544, 156.423 417.422, 161.063 422.096 M 1140.162 417.543 C 1138.487 421.220, 1138.807 422.005, 1140.618 418.662 C 1141.464 417.100, 1141.969 415.636, 1141.741 415.407 C 1141.512 415.179, 1140.802 416.140, 1140.162 417.543 M 491.365 418.332 C 491.714 419.339, 492 420.352, 492 420.582 C 492 420.812, 496.725 421, 502.500 421 C 508.275 421, 513.001 420.663, 513.002 420.250 C 513.003 419.837, 508.634 419.646, 503.293 419.824 C 494.846 420.105, 493.395 419.909, 492.156 418.324 C 490.778 416.560, 490.752 416.561, 491.365 418.332 M 421.671 419.416 C 421.141 420.796, 422.342 421, 430.972 421 C 436.423 421, 441.092 420.663, 441.349 420.250 C 441.605 419.837, 437.742 419.646, 432.763 419.825 C 426.662 420.044, 423.477 419.772, 422.994 418.991 C 422.494 418.181, 422.095 418.309, 421.671 419.416 M 1270.872 419.250 C 1271.629 420.215, 1273.424 420.939, 1274.872 420.864 L 1277.500 420.728 1275 420.268 C 1273.625 420.015, 1271.825 419.289, 1271 418.654 C 1269.695 417.650, 1269.678 417.727, 1270.872 419.250 M 338.784 420.738 C 341.689 420.941, 346.189 420.939, 348.784 420.734 C 351.378 420.528, 349 420.363, 343.500 420.365 C 338 420.368, 335.878 420.536, 338.784 420.738 M 527.784 420.738 C 530.689 420.941, 535.189 420.939, 537.784 420.734 C 540.378 420.528, 538 420.363, 532.500 420.365 C 527 420.368, 524.878 420.536, 527.784 420.738 M 1134.269 420.693 C 1135.242 420.947, 1136.592 420.930, 1137.269 420.656 C 1137.946 420.382, 1137.150 420.175, 1135.500 420.195 C 1133.850 420.215, 1133.296 420.439, 1134.269 420.693 M 912.250 423.689 C 914.561 424.293, 914.458 425.277, 911.726 428.673 C 910.476 430.228, 908.788 432.400, 907.976 433.500 C 906.636 435.316, 906.650 435.383, 908.130 434.227 C 910.882 432.078, 915.229 425.179, 914.536 424.059 C 914.176 423.476, 913.121 423.052, 912.191 423.116 C 910.666 423.221, 910.672 423.277, 912.250 423.689 M 297.158 427 C 297.158 428.375, 297.385 428.938, 297.662 428.250 C 297.940 427.563, 297.940 426.438, 297.662 425.750 C 297.385 425.063, 297.158 425.625, 297.158 427 M 255.750 429.740 L 262 430.095 262 436.502 L 262 442.909 255.250 443.284 L 248.500 443.660 255.500 443.580 L 262.500 443.500 262.794 436.250 L 263.088 429 256.294 429.193 L 249.500 429.385 255.750 429.740 M 266.574 430.667 C 266.222 431.584, 266.399 432.799, 266.967 433.367 C 267.678 434.078, 268 433.713, 268 432.200 C 268 430.178, 268.485 430, 274 430 L 280 430 280 436.452 L 280 442.905 273.750 443.260 L 267.500 443.615 274.250 443.807 L 281 444 281 436.500 L 281 429 274.107 429 C 268.595 429, 267.086 429.334, 266.574 430.667 M 902.189 431.677 C 903.117 431.923, 904.077 432.883, 904.323 433.811 C 904.736 435.378, 904.776 435.379, 904.884 433.823 C 904.948 432.901, 905.788 431.941, 906.750 431.689 C 907.712 431.438, 906.700 431.232, 904.500 431.232 C 902.300 431.232, 901.260 431.432, 902.189 431.677 M 150.500 433.964 C 152.760 436.655, 158.541 442.064, 162.412 445.109 C 167.497 449.109, 164.864 446.260, 156.750 438.982 C 152.213 434.912, 149.400 432.654, 150.500 433.964 M 745.280 432.736 C 747.909 432.943, 751.959 432.940, 754.280 432.731 C 756.601 432.521, 754.450 432.352, 749.500 432.355 C 744.550 432.358, 742.651 432.530, 745.280 432.736 M 879.278 433.417 C 878.930 434.013, 877.985 435.625, 877.180 437 C 875.770 439.405, 875.806 439.397, 878.107 436.799 C 879.465 435.267, 881.797 433.959, 883.500 433.776 L 886.500 433.452 883.206 432.893 C 881.306 432.570, 879.644 432.792, 879.278 433.417 M 892.762 432.707 C 894.006 432.946, 895.806 432.937, 896.762 432.687 C 897.718 432.437, 896.700 432.241, 894.500 432.252 C 892.300 432.263, 891.518 432.468, 892.762 432.707 M 732.750 433.706 C 733.987 433.944, 736.013 433.944, 737.250 433.706 C 738.487 433.467, 737.475 433.272, 735 433.272 C 732.525 433.272, 731.513 433.467, 732.750 433.706 M 776 434.540 C 785.625 435.326, 799.125 436.425, 806 436.982 C 812.875 437.539, 819.850 438.174, 821.500 438.394 C 827.032 439.132, 839.511 439.979, 838.500 439.548 C 836.217 438.577, 811.238 435.929, 795.939 435.037 C 765.847 433.282, 758.308 433.094, 776 434.540 M 292.120 440.561 C 287.866 448.767, 280.599 455.433, 269.846 460.993 C 258.213 467.009, 253.350 470.513, 250.352 475.044 C 248.265 478.198, 247.433 478.767, 246.016 478.009 C 245.052 477.493, 243.979 477.355, 243.631 477.702 C 242.683 478.651, 242.872 483.803, 243.879 484.425 C 244.362 484.724, 244.948 487.563, 245.182 490.734 C 246.082 502.958, 253.677 513.336, 269.500 523.963 C 278.236 529.830, 299.316 540.395, 301.100 539.800 C 301.713 539.596, 298.229 537.705, 293.357 535.597 C 271.250 526.036, 253.809 512.605, 248.802 501.286 C 245.920 494.770, 245.950 485.801, 248.874 479.761 C 251.922 473.465, 257.039 469.107, 268.081 463.404 C 279.508 457.502, 289.745 448.265, 293.607 440.371 C 297.380 432.659, 296.135 432.818, 292.120 440.561 M 721.308 435.941 C 718.453 436.969, 715.533 438.171, 714.819 438.612 C 714.106 439.053, 710.817 440.188, 707.511 441.136 C 704.205 442.083, 702.483 442.890, 703.684 442.929 C 704.884 442.968, 711.184 440.991, 717.684 438.536 C 724.183 436.081, 728.825 434.072, 728 434.072 C 727.175 434.072, 724.164 434.913, 721.308 435.941 M 681.040 436.452 C 680.377 437.251, 680.045 438.713, 680.301 439.702 C 680.677 441.149, 680.791 441.073, 680.884 439.309 C 681.147 434.336, 684.806 435.796, 685.121 441 C 685.259 443.286, 685.309 443.312, 685.699 441.302 C 686.151 438.973, 684.504 435, 683.087 435 C 682.624 435, 681.703 435.653, 681.040 436.452 M 904.532 437.802 C 903.976 438.357, 869.387 440.937, 858.691 441.220 C 852.324 441.389, 848.480 441.863, 849.023 442.413 C 849.568 442.964, 862.073 442.421, 880.514 441.048 C 897.338 439.795, 911.277 438.944, 911.491 439.158 C 911.811 439.478, 891.960 470.373, 890.489 471.844 C 890.238 472.096, 887.212 472.571, 883.766 472.901 L 877.500 473.500 882.267 475.339 L 887.035 477.179 889.048 474.839 C 891.614 471.858, 907.800 447.936, 911.268 442 L 913.897 437.500 909.365 437.500 C 906.873 437.500, 904.698 437.636, 904.532 437.802 M 642 438.776 C 642 439.203, 643.800 439.381, 646 439.171 C 648.200 438.962, 650 438.612, 650 438.395 C 650 438.178, 648.200 438, 646 438 C 643.800 438, 642 438.349, 642 438.776 M 653 439 C 653 439.550, 653.450 440, 654 440 C 654.550 440, 655 439.550, 655 439 C 655 438.450, 654.550 438, 654 438 C 653.450 438, 653 438.450, 653 439 M 724.059 442.653 C 722.911 444.112, 722.173 445.506, 722.418 445.751 C 722.663 445.996, 727.169 445.874, 732.432 445.480 C 741.643 444.789, 742 444.673, 742 442.381 C 742 440.073, 741.756 440, 734.073 440 C 726.686 440, 726.003 440.181, 724.059 442.653 M 747 440.918 C 747 441.423, 746.727 442.548, 746.393 443.418 C 745.891 444.727, 746.623 444.999, 750.643 444.993 C 758.840 444.981, 768.972 443.764, 768.412 442.858 C 768.121 442.386, 768.359 442, 768.941 442 C 769.523 442, 770.036 443.012, 770.079 444.250 C 770.122 445.488, 770.385 445.938, 770.662 445.250 C 770.940 444.563, 772.367 443.964, 773.833 443.919 C 776.294 443.844, 776.191 443.692, 772.500 441.945 C 769.363 440.461, 766.182 440.047, 757.750 440.026 C 751.837 440.012, 747 440.413, 747 440.918 M 840.750 440.662 C 841.438 440.940, 842.563 440.940, 843.250 440.662 C 843.938 440.385, 843.375 440.158, 842 440.158 C 840.625 440.158, 840.063 440.385, 840.750 440.662 M 197.615 443 C 198.578 446.846, 202.537 456, 205.399 461 C 210.152 469.301, 208.455 465.084, 198.155 443 L 196.989 440.500 197.615 443 M 643.458 443 C 643.741 444.375, 643.986 446.175, 644.002 447 C 644.025 448.214, 644.193 448.243, 644.883 447.155 C 645.489 446.199, 647.512 445.909, 651.870 446.155 C 655.243 446.345, 658.003 446.163, 658.002 445.750 C 658 444.979, 653.989 444.661, 648.246 444.976 C 645.706 445.115, 644.768 444.644, 643.968 442.827 C 642.944 440.501, 642.944 440.501, 643.458 443 M 133.924 444.330 C 136.472 447.136, 137.020 447.481, 136.969 446.250 C 136.951 445.837, 135.714 444.636, 134.219 443.580 L 131.500 441.661 133.924 444.330 M 678.999 444.250 C 678.999 444.663, 677.800 445, 676.333 445 C 674.867 445, 673.878 445.212, 674.137 445.470 C 674.395 445.729, 678.183 445.588, 682.553 445.157 L 690.500 444.374 684.749 443.937 C 681.585 443.697, 678.998 443.837, 678.999 444.250 M 693.250 443.716 C 694.763 443.945, 697.237 443.945, 698.750 443.716 C 700.263 443.487, 699.025 443.300, 696 443.300 C 692.975 443.300, 691.737 443.487, 693.250 443.716 M 811 444.588 C 783.390 446.362, 735.557 448.815, 713.500 449.587 C 685.101 450.581, 664.899 451.675, 672 451.834 C 679.973 452.013, 726.212 450.405, 754 448.983 C 786.477 447.321, 842.354 443.968, 844 443.583 C 847.239 442.825, 830.486 443.335, 811 444.588 M 250.087 447.617 C 248.955 449.056, 247.263 452.662, 246.328 455.630 C 244.913 460.117, 244.851 461.235, 245.960 462.263 C 246.815 463.056, 247.061 463.086, 246.646 462.345 C 246.193 461.536, 247.139 461.300, 249.804 461.556 C 253.538 461.916, 253.605 461.862, 253.368 458.711 C 253.235 456.945, 252.988 453.137, 252.819 450.250 C 252.650 447.363, 252.429 445, 252.328 445 C 252.228 445, 251.219 446.177, 250.087 447.617 M 666 446.728 C 665.175 447.041, 663.228 448.356, 661.673 449.649 C 659.352 451.580, 657.698 452, 652.423 452 C 648.503 452, 646 451.580, 646 450.923 C 646 450.331, 644.857 451.205, 643.459 452.866 C 640.253 456.676, 638.153 465.847, 639.706 469.255 C 640.952 471.988, 648.644 474.573, 665.500 477.922 C 688.718 482.535, 697.483 482.554, 714 478.031 L 720.500 476.251 688 475.788 C 657.614 475.355, 655.045 475.177, 648.500 473.050 C 644.650 471.799, 641.141 470.263, 640.702 469.638 C 639.543 467.984, 640.634 459.608, 642.472 456.054 C 644.034 453.034, 644.140 453, 652.074 453 C 659.404 453, 660.286 452.782, 662.298 450.475 C 663.667 448.905, 666.202 447.623, 669 447.085 C 672.371 446.436, 672.747 446.211, 670.500 446.189 C 668.850 446.172, 666.825 446.414, 666 446.728 M 141 450.003 C 150.928 458.915, 167.889 465.403, 186.755 467.503 C 205.097 469.545, 207.949 471.222, 219.935 487.018 C 225.144 493.883, 235.600 505.688, 243.170 513.250 C 250.741 520.813, 256.491 527, 255.949 527 C 253.865 527, 240.162 522.998, 235.708 521.089 C 233.138 519.988, 226.723 516.549, 221.453 513.447 C 212.887 508.406, 201.337 502.974, 199.270 503.015 C 198.846 503.024, 203.225 505.451, 209 508.410 C 214.775 511.368, 222.650 515.647, 226.500 517.918 C 232.863 521.672, 246.974 527, 250.552 527 C 252.837 527, 252.239 528.711, 249.750 529.291 C 248.512 529.580, 243.675 531.241, 239 532.984 C 213.943 542.323, 213.566 542.412, 199.500 542.314 C 190.551 542.251, 184.942 541.724, 181.500 540.622 C 175.417 538.675, 173.356 538.580, 177.642 540.445 C 181.660 542.194, 193.266 544, 200.484 544 C 207.542 544, 219.427 541.578, 228.500 538.290 C 232.350 536.895, 239.849 534.221, 245.164 532.348 L 254.829 528.943 259.914 530.875 C 266.028 533.198, 266.493 532.802, 260.965 529.982 C 258.745 528.850, 257.175 527.526, 257.476 527.039 C 257.776 526.553, 254.406 522.875, 249.986 518.865 C 240.682 510.422, 228.599 496.756, 217.834 482.500 C 210.545 472.847, 210.044 472.409, 203.392 469.868 C 199.258 468.289, 192.298 466.752, 186 466.027 C 180.225 465.361, 172.800 464.153, 169.500 463.343 C 162.069 461.517, 149.145 455.378, 142.500 450.518 C 138.141 447.329, 137.948 447.263, 141 450.003 M 855.750 450.706 C 856.987 450.944, 859.013 450.944, 860.250 450.706 C 861.487 450.467, 860.475 450.272, 858 450.272 C 855.525 450.272, 854.513 450.467, 855.750 450.706 M 838.728 451.722 C 840.503 451.943, 843.653 451.946, 845.728 451.730 C 847.802 451.513, 846.350 451.333, 842.500 451.328 C 838.650 451.324, 836.952 451.501, 838.728 451.722 M 821.250 452.728 C 823.313 452.944, 826.688 452.944, 828.750 452.728 C 830.813 452.513, 829.125 452.336, 825 452.336 C 820.875 452.336, 819.188 452.513, 821.250 452.728 M 797.917 453.401 C 797.688 453.621, 781.750 454.409, 762.500 455.151 C 743.250 455.893, 729.075 456.659, 731 456.854 C 734.688 457.228, 785.417 455.302, 805 454.045 L 816.500 453.307 807.417 453.154 C 802.421 453.069, 798.146 453.180, 797.917 453.401 M 303.750 456.162 C 302.238 456.715, 301 457.606, 301 458.142 C 301 458.679, 300.539 458.833, 299.975 458.485 C 299.412 458.136, 299.044 458.222, 299.159 458.676 C 299.273 459.129, 297.316 461.586, 294.810 464.135 C 287.538 471.533, 282.052 485.641, 282.015 497.040 C 281.997 502.526, 284.384 512.130, 286.609 515.526 C 289.288 519.614, 286.391 518.313, 282.650 513.749 C 279.276 509.631, 275.678 502, 274.733 496.959 C 274.310 494.701, 274.261 494.681, 274.136 496.712 C 273.808 502.050, 278.170 510.427, 284.572 516.750 C 291.366 523.461, 294.700 525.095, 290.582 519.696 C 287.029 515.039, 285.211 510.241, 283.973 502.261 C 281.460 486.070, 290.296 466.484, 304 457.867 C 308.633 454.954, 308.553 454.408, 303.750 456.162 M 189.500 459 C 190.495 460.100, 191.775 461, 192.344 461 C 192.912 461, 192.411 460.100, 191.230 459 C 190.050 457.900, 188.770 457, 188.387 457 C 188.004 457, 188.505 457.900, 189.500 459 M 703.296 457.744 C 707.583 457.932, 714.333 457.931, 718.296 457.742 C 722.258 457.552, 718.750 457.399, 710.500 457.400 C 702.250 457.401, 699.008 457.556, 703.296 457.744 M 674.784 458.738 C 677.689 458.941, 682.189 458.939, 684.784 458.734 C 687.378 458.528, 685 458.363, 679.500 458.365 C 674 458.368, 671.878 458.536, 674.784 458.738 M 290.287 463.048 C 282.510 468.130, 274.935 477.635, 275.026 482.200 C 275.040 482.915, 276.198 481.250, 277.600 478.500 C 280.866 472.093, 285.020 467.707, 292.405 462.869 C 295.653 460.741, 297.899 459, 297.397 459 C 296.894 459, 293.695 460.822, 290.287 463.048 M 324.083 460.588 C 315.928 462.781, 308.761 467.363, 302.075 474.660 C 292.290 485.339, 288.865 498.143, 292.473 510.557 C 295.573 521.218, 311.544 534.183, 321.288 533.946 C 322.504 533.917, 321.025 533.094, 318 532.118 C 307.040 528.581, 299.466 522.760, 295.258 514.638 C 293.005 510.289, 292.589 508.194, 292.548 501 C 292.508 493.844, 292.913 491.630, 295.112 487 C 302.297 471.873, 315.627 462.262, 332.500 460.043 C 338.100 459.306, 338.200 459.250, 334 459.193 C 331.525 459.159, 327.062 459.787, 324.083 460.588 M 340.813 460.683 C 341.534 460.972, 342.397 460.936, 342.729 460.604 C 343.061 460.272, 342.471 460.036, 341.417 460.079 C 340.252 460.127, 340.015 460.364, 340.813 460.683 M 349.500 463.685 C 353.861 466.018, 358.229 469.827, 360.375 473.166 C 361.406 474.771, 362.464 475.870, 362.726 475.608 C 364.400 473.934, 350.955 461.911, 347.554 462.040 C 346.974 462.062, 347.850 462.802, 349.500 463.685 M 557.250 465.689 C 558.212 465.941, 559.788 465.941, 560.750 465.689 C 561.712 465.438, 560.925 465.232, 559 465.232 C 557.075 465.232, 556.288 465.438, 557.250 465.689 M 577.762 465.707 C 579.006 465.946, 580.806 465.937, 581.762 465.687 C 582.718 465.437, 581.700 465.241, 579.500 465.252 C 577.300 465.263, 576.518 465.468, 577.762 465.707 M 543 467.733 C 539.425 468.590, 536.978 469.459, 537.562 469.666 C 538.146 469.872, 542.196 469.178, 546.562 468.123 C 550.928 467.069, 553.375 466.199, 552 466.191 C 550.625 466.183, 546.575 466.877, 543 467.733 M 585.813 466.683 C 586.534 466.972, 587.397 466.936, 587.729 466.604 C 588.061 466.272, 587.471 466.036, 586.417 466.079 C 585.252 466.127, 585.015 466.364, 585.813 466.683 M 571.250 469.735 C 573.862 469.941, 578.138 469.941, 580.750 469.735 C 583.362 469.529, 581.225 469.360, 576 469.360 C 570.775 469.360, 568.638 469.529, 571.250 469.735 M 337.250 470.716 C 338.762 470.945, 341.238 470.945, 342.750 470.716 C 344.262 470.487, 343.025 470.300, 340 470.300 C 336.975 470.300, 335.738 470.487, 337.250 470.716 M 556 470.711 C 554.625 470.952, 549.095 472.253, 543.710 473.602 C 535.168 475.742, 527.333 478.717, 492.500 493.042 C 488.650 494.626, 474.925 501.358, 462 508.003 C 416.010 531.648, 394.547 541.094, 374.560 546.485 C 361.338 550.051, 353.305 551.210, 336.500 551.975 L 321.500 552.659 334.619 552.829 C 348.832 553.014, 359.352 551.595, 375 547.381 C 395.677 541.813, 413.490 534.221, 453.500 513.927 C 508.318 486.121, 533.092 476.135, 558.500 471.606 C 563.787 470.663, 565.143 470.195, 562.500 470.226 C 560.300 470.251, 557.375 470.470, 556 470.711 M 587.269 470.693 C 588.242 470.947, 589.592 470.930, 590.269 470.656 C 590.946 470.382, 590.150 470.175, 588.500 470.195 C 586.850 470.215, 586.296 470.439, 587.269 470.693 M 600 471 C 600.825 471.533, 601.950 471.969, 602.500 471.969 C 603.050 471.969, 602.825 471.533, 602 471 C 601.175 470.467, 600.050 470.031, 599.500 470.031 C 598.950 470.031, 599.175 470.467, 600 471 M 331.813 471.683 C 332.534 471.972, 333.397 471.936, 333.729 471.604 C 334.061 471.272, 333.471 471.036, 332.417 471.079 C 331.252 471.127, 331.015 471.364, 331.813 471.683 M 349.770 473.115 C 355.050 475.729, 360.701 482.176, 362.027 487.099 C 363.267 491.705, 361.981 495.638, 358.218 498.745 C 356.723 499.980, 356.097 500.992, 356.827 500.995 C 359.127 501.004, 363.767 495.501, 364.900 491.421 C 366.340 486.234, 366.221 483.134, 364.440 479.500 C 363.631 477.850, 363.223 477.380, 363.532 478.455 C 364.541 481.964, 365.287 489, 364.649 489 C 364.307 489, 363.324 487.319, 362.466 485.264 C 361.607 483.209, 359.914 480.448, 358.702 479.128 C 355.419 475.552, 348.921 471, 347.100 471.001 C 346.220 471.001, 347.421 471.953, 349.770 473.115 M 402 473 C 402.589 474.100, 403.295 475, 403.570 475 C 403.845 475, 403.589 474.100, 403 473 C 402.411 471.900, 401.705 471, 401.430 471 C 401.155 471, 401.411 471.900, 402 473 M 522.500 474.075 C 513.916 477.252, 489.797 488.892, 486.500 491.449 L 484.500 493.001 486.500 492.250 C 487.600 491.838, 492.332 489.384, 497.015 486.797 C 506.707 481.444, 509.574 480.155, 523.500 474.892 C 529 472.813, 532.825 471.113, 532 471.113 C 531.175 471.114, 526.900 472.447, 522.500 474.075 M 325.507 473.989 C 325.157 474.555, 325.558 474.723, 326.448 474.382 C 328.180 473.717, 328.497 473, 327.059 473 C 326.541 473, 325.843 473.445, 325.507 473.989 M 605.399 474.250 C 605.003 474.938, 605.034 475.180, 605.467 474.790 C 605.900 474.399, 607.772 474.713, 609.627 475.489 C 613.784 477.226, 614.059 476.599, 610.050 474.526 C 606.482 472.681, 606.308 472.671, 605.399 474.250 M 318.133 479.472 C 311.847 485.353, 307.747 493.670, 307.200 501.651 C 306.692 509.084, 307.938 513.181, 313.020 520.793 C 316.559 526.092, 325.445 533.889, 326.613 532.720 C 326.884 532.449, 325.455 531.208, 323.439 529.962 C 318.679 527.020, 311.619 517.379, 309.456 510.868 C 306.147 500.905, 309.934 488.786, 319.103 479.994 C 321.968 477.247, 323.998 475, 323.613 475 C 323.229 475, 320.763 477.013, 318.133 479.472 M 788.500 476.659 C 793.697 478.632, 808.859 478.634, 815.500 476.663 C 820.363 475.219, 820.008 475.178, 802.500 475.160 C 785.324 475.142, 784.683 475.210, 788.500 476.659 M 341 483 C 339.625 483.440, 338.884 483.845, 339.354 483.900 C 339.823 483.955, 338.833 485.565, 337.153 487.479 C 326.024 500.154, 339.679 522.965, 359.328 524.523 L 364.500 524.933 360 524.062 C 346.499 521.451, 336.053 512.208, 334.439 501.445 C 333.558 495.568, 335.426 490.555, 340.235 485.888 C 342.438 483.749, 344.074 482.045, 343.871 482.100 C 343.667 482.155, 342.375 482.560, 341 483 M 422 483.522 C 422 484.045, 428.973 487.659, 432.763 489.100 C 434.245 489.664, 435.170 489.836, 434.818 489.484 C 433.866 488.533, 422 483.013, 422 483.522 M 274.158 486 C 274.158 487.375, 274.385 487.938, 274.662 487.250 C 274.940 486.563, 274.940 485.438, 274.662 484.750 C 274.385 484.063, 274.158 484.625, 274.158 486 M 332.818 486.900 C 326.671 490.799, 322.433 499.050, 323.416 505.203 C 324.926 514.640, 330.609 521.453, 341.212 526.535 C 354.948 533.117, 368.401 533.216, 387.467 526.875 C 397.797 523.439, 411.855 517.046, 415.659 514.054 C 419.144 511.313, 418.492 511.447, 410.388 515.137 C 406.600 516.862, 400.800 519.117, 397.500 520.148 C 393.915 521.268, 392.909 521.817, 395 521.513 C 400.075 520.773, 397.084 522.448, 388 525.432 C 376.550 529.193, 368.923 530.321, 358.584 529.780 C 347.248 529.187, 338.540 525.619, 332.013 518.894 C 327.176 513.910, 325.538 510.995, 324.568 505.644 C 323.572 500.146, 327.639 492.102, 333.567 487.845 C 337.556 484.980, 338.608 484, 337.696 484 C 337.528 484, 335.333 485.305, 332.818 486.900 M 412.042 486 C 412.750 487.375, 416.067 491.239, 419.414 494.588 C 427.342 502.517, 434.199 505.372, 445.500 505.447 C 453.072 505.497, 453.928 505.269, 461.508 501.186 C 465.913 498.814, 471.763 494.883, 474.508 492.451 L 479.500 488.029 475.124 489.515 C 472.718 490.332, 469.455 491, 467.874 491 C 466.293 491, 465 491.459, 465 492.019 C 465 492.962, 466.975 492.766, 472.500 491.274 C 474.485 490.738, 474.485 490.751, 472.552 492.915 C 469.685 496.124, 451.375 505.003, 447.659 504.985 C 442.093 504.959, 431.794 502.029, 426.378 498.930 C 423.487 497.276, 419.210 493.578, 416.874 490.711 C 411.126 483.658, 410.545 483.091, 412.042 486 M 273.079 491.583 C 273.127 492.748, 273.364 492.985, 273.683 492.188 C 273.972 491.466, 273.936 490.603, 273.604 490.271 C 273.272 489.939, 273.036 490.529, 273.079 491.583 M 446.813 493.683 C 447.534 493.972, 448.397 493.936, 448.729 493.604 C 449.061 493.272, 448.471 493.036, 447.417 493.079 C 446.252 493.127, 446.015 493.364, 446.813 493.683 M 819.750 495.068 C 817.688 496.157, 816 497.271, 816 497.544 C 816 497.817, 817.800 497.122, 820 496 C 822.200 494.878, 824 493.743, 824 493.480 C 824 492.826, 823.993 492.828, 819.750 495.068 M 453.269 494.693 C 454.242 494.947, 455.592 494.930, 456.269 494.656 C 456.946 494.382, 456.150 494.175, 454.500 494.195 C 452.850 494.215, 452.296 494.439, 453.269 494.693 M 826.500 498 C 824.046 499.625, 823.864 499.975, 825.500 499.923 C 827.859 499.848, 832.101 498.173, 830.191 498.070 C 829.471 498.032, 829.160 497.550, 829.500 497 C 830.373 495.588, 829.908 495.743, 826.500 498 M 482.661 508.039 C 451.282 524.560, 446.148 528.452, 439.289 540.916 C 433.671 551.125, 429.034 557.015, 424.060 560.260 C 421.087 562.201, 420.370 562.992, 422 562.535 C 423.375 562.150, 426.075 561.815, 428 561.791 C 430.993 561.754, 431.096 561.684, 428.714 561.304 L 425.927 560.860 430.891 555.429 C 433.621 552.442, 437.265 547.533, 438.988 544.520 C 442.894 537.695, 443.667 537.206, 444.507 541.033 L 445.177 544.084 447.942 542.292 C 454.182 538.248, 460.356 531.882, 456.664 533.299 C 455.704 533.667, 455 533.449, 455 532.782 C 455 532.146, 453.738 532.835, 452.195 534.313 C 448.792 537.573, 448.394 537.614, 447.650 534.770 C 446.953 532.105, 450.200 528.364, 456.989 524.007 C 463.704 519.698, 468.737 517.765, 469.601 519.163 C 470.022 519.844, 469.868 520.037, 469.224 519.638 C 468.627 519.269, 467.885 519.378, 467.575 519.879 C 467.265 520.380, 467.730 521.066, 468.609 521.403 C 470.663 522.192, 477.030 517.046, 476.603 514.942 C 476.387 513.873, 479.215 511.788, 485.626 508.292 L 494.964 503.199 490.097 508.850 C 487.420 511.957, 482.911 518.643, 480.076 523.706 C 471.900 538.311, 466.629 544.036, 452.380 553.787 C 451.346 554.495, 452.525 554.046, 455 552.790 C 462.712 548.876, 473.672 536.848, 482.239 522.897 C 489.455 511.146, 494.790 504.923, 502.500 499.265 C 508.423 494.919, 503.164 497.244, 482.661 508.039 M 832.750 497.662 C 833.438 497.940, 834.563 497.940, 835.250 497.662 C 835.938 497.385, 835.375 497.158, 834 497.158 C 832.625 497.158, 832.063 497.385, 832.750 497.662 M 563.250 500.689 C 564.212 500.941, 565.788 500.941, 566.750 500.689 C 567.712 500.438, 566.925 500.232, 565 500.232 C 563.075 500.232, 562.288 500.438, 563.250 500.689 M 799.741 504.217 C 795.473 505.921, 792.154 507.487, 792.364 507.698 C 792.735 508.069, 808.080 502.243, 808.917 501.413 C 809.907 500.431, 806.986 501.324, 799.741 504.217 M 516.872 504.750 C 515.629 506.336, 515.664 506.371, 517.250 505.128 C 518.916 503.821, 519.445 503, 518.622 503 C 518.415 503, 517.627 503.788, 516.872 504.750 M 1087.924 505.750 L 1085.500 508.500 1088.250 506.076 C 1090.820 503.810, 1091.459 503, 1090.674 503 C 1090.495 503, 1089.258 504.238, 1087.924 505.750 M 697.405 506.155 C 696.930 506.923, 697.134 507.035, 698.015 506.490 C 698.963 505.905, 699.167 506.122, 698.733 507.253 C 698.376 508.185, 698.750 509.074, 699.645 509.417 C 702.311 510.440, 704.768 510.046, 705.362 508.500 C 705.678 507.675, 706.739 506.947, 707.719 506.882 C 710.027 506.728, 704.323 505.273, 700.809 505.118 C 699.329 505.053, 697.797 505.520, 697.405 506.155 M 525.977 510.578 C 521.870 512.547, 518.316 514.351, 518.078 514.589 C 517.840 514.826, 518.449 515.608, 519.430 516.325 C 521.110 517.554, 521.077 517.717, 518.857 519.125 C 512.590 523.099, 506.357 525.182, 506.780 523.161 C 507.141 521.433, 501.950 524.957, 496.112 530.405 L 491.723 534.500 495.899 528.250 C 498.195 524.813, 499.846 522, 499.568 522 C 499.013 522, 489 536.600, 489 537.408 C 489 537.682, 491.587 536.191, 494.750 534.095 C 516.450 519.713, 541.586 511.628, 566.974 510.864 C 569.774 510.780, 570.547 510.550, 569 510.261 C 567.625 510.004, 560.885 510.322, 554.023 510.967 C 545.204 511.796, 541.442 511.826, 541.190 511.070 C 540.994 510.481, 540.169 510, 539.358 510 C 538.546 510, 538.141 509.581, 538.457 509.069 C 538.774 508.557, 538.575 507.856, 538.016 507.510 C 537.457 507.165, 537 507.449, 537 508.141 C 537 509.120, 536.733 509.133, 535.800 508.200 C 534.184 506.584, 534.441 506.522, 525.977 510.578 M 701 508.213 C 701 509.319, 703.760 509.197, 704.463 508.061 C 704.782 507.544, 704.134 507.190, 703.022 507.273 C 701.910 507.357, 701 507.780, 701 508.213 M 510.872 509.750 C 509.629 511.336, 509.664 511.371, 511.250 510.128 C 512.916 508.821, 513.445 508, 512.622 508 C 512.415 508, 511.627 508.788, 510.872 509.750 M 783.917 509.396 C 782.593 510.654, 761.091 513.310, 746.500 514.017 L 729.500 514.841 747.500 514.485 C 758.089 514.276, 769.106 513.471, 774.258 512.530 C 783.126 510.910, 788.929 509.184, 785.917 509.063 C 785.046 509.029, 784.146 509.178, 783.917 509.396 M 583 512.471 C 592.977 514.156, 604.582 517.395, 613.892 521.095 C 623.949 525.091, 624.863 525.385, 622.500 523.864 C 621.400 523.156, 616.983 521.171, 612.685 519.452 C 608.386 517.734, 604.933 515.928, 605.010 515.439 C 605.087 514.950, 604.554 514.392, 603.825 514.199 C 602.947 513.966, 603.007 514.206, 604 514.909 C 604.923 515.561, 605.042 515.975, 604.309 515.985 C 603.654 515.993, 602.883 515.619, 602.595 515.153 C 602.307 514.687, 600.818 514.263, 599.286 514.210 C 597.754 514.157, 593.208 513.413, 589.185 512.557 C 585.161 511.701, 580.436 511.046, 578.685 511.103 C 576.933 511.159, 578.875 511.775, 583 512.471 M 165 512.666 C 165 513.616, 179.868 520.034, 185.500 521.514 C 192.572 523.373, 206.277 524.613, 204 523.188 C 203.175 522.671, 199.800 521.756, 196.500 521.154 C 184.248 518.919, 176.967 517.066, 171.064 514.682 C 167.729 513.335, 165 512.427, 165 512.666 M 923.500 512.473 C 922.950 512.646, 919.209 513.331, 915.186 513.996 C 911.163 514.661, 908.084 515.418, 908.345 515.678 C 908.605 515.939, 913.472 515.450, 919.159 514.591 C 924.847 513.733, 931.300 512.875, 933.500 512.684 C 935.838 512.481, 934.799 512.299, 931 512.247 C 927.425 512.198, 924.050 512.300, 923.500 512.473 M 950.264 512.718 C 951.784 512.947, 954.034 512.941, 955.264 512.704 C 956.494 512.467, 955.250 512.279, 952.500 512.286 C 949.750 512.294, 948.744 512.488, 950.264 512.718 M 505.872 514.750 C 504.629 516.336, 504.664 516.371, 506.250 515.128 C 507.916 513.821, 508.445 513, 507.622 513 C 507.415 513, 506.627 513.788, 505.872 514.750 M 975.500 515.023 C 992.086 517.236, 992.872 517.256, 987 515.313 C 984.525 514.495, 977.775 513.674, 972 513.489 L 961.500 513.154 975.500 515.023 M 436.500 516.205 C 426.896 521.286, 402.451 531.579, 390.500 535.574 C 383.350 537.964, 370.975 541.120, 363 542.587 C 350.052 544.969, 347.002 545.189, 334.500 544.640 C 326.800 544.303, 319.150 543.797, 317.500 543.517 L 314.500 543.008 317.500 544.097 C 319.150 544.695, 326.800 545.415, 334.500 545.697 C 357.651 546.544, 380.417 541.529, 411.649 528.701 C 423.245 523.938, 441 515.341, 441 514.490 C 441 513.821, 441.018 513.814, 436.500 516.205 M 474 515 C 474 515.550, 474.450 516, 475 516 C 475.550 516, 476 515.550, 476 515 C 476 514.450, 475.550 514, 475 514 C 474.450 514, 474 514.450, 474 515 M 901 517 C 899.020 517.634, 898.916 517.801, 900.500 517.801 C 901.600 517.801, 903.625 517.440, 905 517 C 906.980 516.366, 907.084 516.199, 905.500 516.199 C 904.400 516.199, 902.375 516.560, 901 517 M 993.813 517.683 C 994.534 517.972, 995.397 517.936, 995.729 517.604 C 996.061 517.272, 995.471 517.036, 994.417 517.079 C 993.252 517.127, 993.015 517.364, 993.813 517.683 M 884.500 521.477 C 872.296 525.198, 857.436 530.578, 855.049 532.138 C 853.005 533.475, 853.330 533.374, 869.548 527.634 C 876.671 525.112, 886.100 521.951, 890.500 520.608 C 894.900 519.265, 897.825 518.156, 897 518.144 C 896.175 518.132, 890.550 519.632, 884.500 521.477 M 385.500 523 C 382.732 523.704, 382.694 523.771, 385 523.866 C 386.375 523.923, 388.175 523.533, 389 523 C 390.702 521.900, 389.822 521.900, 385.500 523 M 644.322 524.375 C 646.084 525.778, 646.084 525.841, 644.322 526.297 C 642.578 526.748, 642.577 526.773, 644.309 526.884 C 645.304 526.948, 645.852 527.430, 645.527 527.956 C 645.202 528.482, 644.321 528.677, 643.569 528.388 C 641.704 527.672, 640.410 530.017, 642.095 531.059 C 642.908 531.561, 643.751 531.417, 644.208 530.697 C 644.779 529.800, 644.973 529.828, 644.985 530.809 C 644.993 531.529, 645.360 531.896, 645.800 531.624 C 646.240 531.352, 647.136 531.988, 647.791 533.036 C 649.197 535.288, 649.490 535.377, 635.055 529.139 C 619.924 522.601, 623.546 525.038, 640.736 532.963 C 658.708 541.248, 660.793 542.059, 656.250 538.995 C 652.769 536.648, 652.069 535.706, 654.500 536.638 C 655.450 537.003, 656 536.625, 656 535.607 C 656 533.708, 652.410 533.414, 651.647 535.250 C 651.361 535.938, 651.237 535.499, 651.371 534.276 C 651.618 532.029, 653 529.815, 653 531.667 C 653 532.217, 653.668 532.667, 654.484 532.667 C 655.608 532.667, 655.699 532.343, 654.862 531.333 C 653.314 529.468, 654.521 529.664, 656.447 531.590 C 657.322 532.465, 659.041 533.294, 660.269 533.434 C 661.496 533.573, 663.625 533.985, 665 534.349 L 667.500 535.011 665 533.813 C 663.625 533.155, 658 530.435, 652.500 527.770 C 647 525.105, 643.320 523.577, 644.322 524.375 M 370 525 L 364.500 525.674 370.500 525.719 C 373.800 525.743, 377.850 525.420, 379.500 525 L 382.500 524.237 379 524.281 C 377.075 524.306, 373.025 524.629, 370 525 M 828 529.714 C 826.075 530.568, 820 533.031, 814.500 535.189 C 809 537.348, 805.815 538.835, 807.423 538.494 C 810.563 537.829, 828.981 530.696, 831.796 529.054 C 834.392 527.541, 831.944 527.966, 828 529.714 M 161.500 532.531 C 164.218 534.744, 173.092 539.242, 173.646 538.687 C 173.892 538.441, 170.810 536.589, 166.797 534.571 C 162.784 532.553, 160.400 531.635, 161.500 532.531 M 553.768 531.725 C 555.565 531.947, 558.265 531.943, 559.768 531.715 C 561.271 531.486, 559.800 531.304, 556.500 531.310 C 553.200 531.315, 551.971 531.502, 553.768 531.725 M 568.750 532.662 C 569.438 532.940, 570.563 532.940, 571.250 532.662 C 571.938 532.385, 571.375 532.158, 570 532.158 C 568.625 532.158, 568.063 532.385, 568.750 532.662 M 266 533.393 C 266 533.609, 266.698 534.054, 267.552 534.382 C 268.442 534.723, 268.843 534.555, 268.493 533.989 C 267.906 533.038, 266 532.583, 266 533.393 M 325.500 534 C 323.992 534.648, 324.606 534.859, 328 534.859 C 331.394 534.859, 332.008 534.648, 330.500 534 C 329.400 533.527, 328.275 533.141, 328 533.141 C 327.725 533.141, 326.600 533.527, 325.500 534 M 849 534.500 C 847.625 535.286, 846.950 535.929, 847.500 535.929 C 848.050 535.929, 849.625 535.286, 851 534.500 C 852.375 533.714, 853.050 533.071, 852.500 533.071 C 851.950 533.071, 850.375 533.714, 849 534.500 M 271.441 536.445 C 272.509 537.300, 273.821 538, 274.358 538 C 275.628 538, 275.061 537.538, 272 536.080 C 269.643 534.958, 269.611 534.978, 271.441 536.445 M 840.387 537.972 C 818.464 547.727, 779 558.114, 779 554.129 C 779 553.508, 778.502 553, 777.893 553 C 777.284 553, 777.025 553.622, 777.316 554.381 C 778.051 556.296, 771.696 557.102, 748.500 558.035 L 729.500 558.800 750.500 558.470 C 776.031 558.069, 786.914 556.553, 809.500 550.253 C 818.797 547.659, 838.786 540.262, 843.705 537.596 C 847.569 535.500, 845.385 535.748, 840.387 537.972 M 281.272 540.976 C 286.258 543.744, 304.322 549.672, 310 550.404 C 313.051 550.797, 311.762 550.206, 306 548.570 C 301.325 547.242, 293.900 544.837, 289.500 543.227 C 285.100 541.616, 280.600 539.980, 279.500 539.590 C 278.400 539.201, 279.197 539.825, 281.272 540.976 M 304.096 540.994 C 304.974 541.507, 307.674 542.166, 310.096 542.458 L 314.500 542.990 309.500 541.514 C 303.795 539.831, 301.773 539.636, 304.096 540.994 M 682 540.311 C 682 541.376, 694.829 545.001, 706 547.092 C 714.830 548.745, 722.144 549.307, 737.500 549.512 L 757.500 549.779 738 548.991 C 727.275 548.557, 714.450 547.494, 709.500 546.628 C 701.134 545.164, 687.446 541.876, 683.645 540.417 C 682.740 540.070, 682 540.022, 682 540.311 M 661 542 C 661.825 542.533, 662.950 542.969, 663.500 542.969 C 664.050 542.969, 663.825 542.533, 663 542 C 662.175 541.467, 661.050 541.031, 660.500 541.031 C 659.950 541.031, 660.175 541.467, 661 542 M 787 543.678 C 783.975 544.501, 776.100 545.995, 769.500 546.999 C 761.168 548.265, 758.934 548.850, 762.191 548.911 C 764.771 548.960, 767.160 549.450, 767.500 550 C 767.840 550.550, 769.104 550.993, 770.309 550.985 C 772.090 550.972, 772.219 550.788, 771 550 C 770.175 549.467, 769.950 548.989, 770.500 548.939 C 771.050 548.888, 772.400 548.616, 773.500 548.334 C 774.600 548.052, 776.400 547.695, 777.500 547.542 C 778.600 547.388, 780.625 546.817, 782 546.272 C 783.375 545.727, 786.862 544.723, 789.750 544.041 C 792.638 543.359, 795 542.620, 795 542.400 C 795 541.746, 792.824 542.094, 787 543.678 M 495.441 544.450 C 493.568 545.849, 493.580 545.880, 495.766 545.330 C 497.012 545.016, 498.276 544.363, 498.575 543.879 C 499.420 542.511, 497.591 542.844, 495.441 544.450 M 665 543.417 C 665 543.647, 670.513 545.670, 677.250 547.915 C 690.069 552.184, 711.364 557.053, 716.500 556.888 C 718.150 556.835, 713.875 555.678, 707 554.318 C 698.554 552.646, 694.014 551.268, 693 550.067 C 692.175 549.090, 690.712 548.014, 689.750 547.676 C 688.788 547.339, 688 546.374, 688 545.531 C 688 543.543, 684.917 543.567, 682.441 545.574 C 681.374 546.440, 681.031 546.883, 681.681 546.558 C 682.330 546.233, 683.144 546.425, 683.490 546.984 C 684.457 548.549, 682.201 548.217, 673.500 545.515 C 664.566 542.740, 665 542.847, 665 543.417 M 522.500 546 C 520.728 546.762, 520.813 546.867, 523.250 546.930 C 524.763 546.968, 526 546.550, 526 546 C 526 544.826, 525.231 544.826, 522.500 546 M 545.750 545.706 C 546.987 545.944, 549.013 545.944, 550.250 545.706 C 551.487 545.467, 550.475 545.272, 548 545.272 C 545.525 545.272, 544.513 545.467, 545.750 545.706 M 690 550 C 690 550.550, 690.477 551, 691.059 551 C 691.641 551, 691.840 550.550, 691.500 550 C 691.160 549.450, 690.684 549, 690.441 549 C 690.198 549, 690 549.450, 690 550 M 316.250 551.689 C 317.212 551.941, 318.788 551.941, 319.750 551.689 C 320.712 551.438, 319.925 551.232, 318 551.232 C 316.075 551.232, 315.288 551.438, 316.250 551.689 M 774 554 C 774 554.550, 774.477 555, 775.059 555 C 775.641 555, 775.840 554.550, 775.500 554 C 775.160 553.450, 774.684 553, 774.441 553 C 774.198 553, 774 553.450, 774 554 M 722.264 557.718 C 723.784 557.947, 726.034 557.941, 727.264 557.704 C 728.494 557.467, 727.250 557.279, 724.500 557.286 C 721.750 557.294, 720.744 557.488, 722.264 557.718 M 433.813 560.683 C 434.534 560.972, 435.397 560.936, 435.729 560.604 C 436.061 560.272, 435.471 560.036, 434.417 560.079 C 433.252 560.127, 433.015 560.364, 433.813 560.683" />
</svg>