<svg xmlns="http://www.w3.org/2000/svg" width="1367" height="768" viewBox="0 0 1367 768" version="1.1">
	<path fill="black" d="M 785.789 127.317 C 786.423 132.745, 767.286 209.951, 756.619 245 C 742.155 292.529, 719.892 349.537, 697.584 396.175 C 694.513 402.596, 691.999 407.996, 691.999 408.175 C 691.998 408.354, 694.360 408.402, 697.249 408.282 C 718.174 407.414, 756.449 405.924, 771.250 405.403 L 789 404.777 789 407.300 C 789 409.686, 788.662 409.844, 782.750 410.213 C 778.067 410.506, 776.187 410.229, 775.250 409.111 C 774.154 407.802, 774 407.826, 774 409.309 C 774 411.647, 769.302 411.595, 768.689 409.250 C 768.318 407.830, 768.210 407.801, 768.116 409.094 C 767.987 410.861, 760.648 411.319, 711.250 412.642 C 688.126 413.261, 686 413.178, 686 411.659 C 686 410.746, 685.502 410, 684.893 410 C 684.284 410, 684.059 410.712, 684.393 411.582 C 684.727 412.452, 685 413.352, 685 413.582 C 685 414.241, 713.515 413.963, 735.891 413.086 L 756.281 412.286 764.891 418.199 C 780.990 429.256, 787.314 433.086, 788.908 432.746 C 789.896 432.536, 788.098 430.906, 784.174 428.454 C 780.694 426.279, 773.552 421.688, 768.302 418.250 L 758.756 412 763.308 412 C 767.234 412, 767.921 412.310, 768.294 414.250 L 768.728 416.500 768.864 414.219 C 768.978 412.299, 769.515 411.966, 772.250 412.116 C 774.038 412.214, 778.500 411.955, 782.166 411.540 C 788.643 410.806, 788.845 410.852, 789.271 413.142 C 789.512 414.439, 789.662 394.727, 789.605 369.337 L 789.500 323.174 779.172 319.998 C 773.492 318.251, 769.021 316.645, 769.237 316.430 C 769.452 316.214, 773.808 317.183, 778.917 318.583 C 784.025 319.983, 788.323 320.987, 788.467 320.814 C 788.611 320.641, 788.504 299.745, 788.229 274.378 L 787.728 228.255 780.795 224.901 C 776.981 223.056, 774.307 221.398, 774.851 221.216 C 775.396 221.035, 778.112 222.037, 780.888 223.443 C 783.663 224.849, 786.324 226, 786.801 226 C 787.278 226, 787.603 223.863, 787.523 221.250 C 787.443 218.637, 787.292 195.688, 787.189 170.250 C 787.085 144.813, 786.640 124, 786.201 124 C 785.761 124, 785.576 125.493, 785.789 127.317 M 781.615 133.615 C 780.730 136.213, 780.179 138.512, 780.390 138.724 C 780.602 138.935, 781.499 136.983, 782.385 134.385 C 783.270 131.787, 783.821 129.488, 783.610 129.276 C 783.398 129.065, 782.501 131.017, 781.615 133.615 M 792.541 155 C 799.047 167.865, 815.277 218.065, 819.375 238 C 824.410 262.489, 825.400 272.086, 825.410 296.500 C 825.420 321.188, 824.103 334.648, 819.394 357.958 C 816.568 371.945, 810.855 394.482, 807.921 403.218 C 806.864 406.364, 806 409.632, 806 410.482 C 806 411.333, 802.193 415.939, 797.539 420.720 C 792.886 425.501, 789.239 429.573, 789.435 429.769 C 789.631 429.965, 793.456 426.417, 797.934 421.884 L 806.075 413.644 820.288 416.327 C 837.988 419.669, 872.317 424.956, 877 425.062 C 884.131 425.222, 884.310 425.826, 879.401 433.167 C 874.262 440.853, 874.200 440.875, 857 441.263 C 851.225 441.393, 846.275 441.770, 846 442.100 C 845.725 442.430, 840.016 442.969, 833.313 443.297 C 822.389 443.833, 821.080 443.719, 820.679 442.198 C 820.270 440.645, 820.222 440.650, 820.116 442.250 C 820.052 443.212, 819.438 444.001, 818.750 444.002 C 816.696 444.004, 785.031 445.927, 777.750 446.491 C 772.171 446.923, 771 446.752, 771 445.507 C 771 444.482, 772.040 443.987, 774.250 443.958 L 777.500 443.916 774 442.053 C 772.076 441.029, 770.163 440.399, 769.750 440.654 C 769.338 440.909, 768.948 440.079, 768.884 438.809 C 768.791 436.959, 768.673 436.868, 768.291 438.351 C 767.852 440.057, 767.041 440.147, 757.997 439.500 C 748.767 438.839, 748.114 438.919, 747.089 440.833 C 744.840 445.035, 745.392 445.237, 758 444.819 C 766.543 444.536, 770 444.749, 770 445.560 C 770 446.829, 759.470 447.620, 730.500 448.529 C 720.600 448.840, 711.292 449.281, 709.815 449.509 C 707.671 449.840, 707.043 449.478, 706.701 447.712 C 706.290 445.590, 706.267 445.585, 706.136 447.603 C 706.004 449.646, 705.396 449.725, 684.736 450.412 C 673.041 450.800, 662.635 450.797, 661.613 450.405 C 659.752 449.691, 655.070 440.466, 654.921 437.221 C 654.873 436.178, 654.643 435.992, 654.338 436.750 C 654.014 437.552, 651.714 438, 647.917 438 C 644.663 438, 642 438.189, 642 438.419 C 642 438.650, 642.696 441.554, 643.546 444.873 C 645.027 450.656, 645.009 450.991, 643.111 452.889 C 640.786 455.214, 639.013 460.972, 639.006 466.227 C 639.001 468.996, 639.578 470.329, 641.250 471.414 C 647.711 475.609, 683.545 482.479, 695 481.720 C 702.486 481.223, 721.006 477.214, 720.994 476.092 C 720.990 475.767, 706.763 475.396, 689.379 475.268 C 656.732 475.028, 648.203 474.130, 642.128 470.292 C 640.038 468.972, 639.828 468.275, 640.356 464.417 C 640.686 462.010, 641.580 458.547, 642.343 456.721 L 643.730 453.401 692.734 451.652 C 739.380 449.986, 773.892 448.337, 811.500 445.977 C 834.181 444.554, 896.757 440.120, 905.335 439.328 L 912.171 438.697 902.445 453.598 C 897.096 461.794, 892.247 469.250, 891.671 470.167 C 890.938 471.332, 888.492 472.052, 883.561 472.555 L 876.500 473.274 882.956 475.701 C 891.481 478.904, 899.531 479.720, 910.500 478.492 L 919.500 477.485 910.452 475.242 C 901.400 472.999, 892.281 472.187, 896.500 474 C 898.438 474.833, 898.440 474.862, 896.559 474.930 C 894.672 474.998, 894.670 475.038, 896.488 476.367 C 898.139 477.575, 897.782 477.679, 893.429 477.257 C 890.718 476.994, 888.414 476.705, 888.310 476.616 C 888.205 476.526, 889.582 474.712, 891.368 472.584 L 894.617 468.714 902.559 470.463 C 906.926 471.426, 914.510 473.537, 919.411 475.155 C 924.312 476.773, 929.256 477.963, 930.398 477.798 C 933.241 477.390, 911.182 468.525, 903.250 466.889 C 899.813 466.180, 897 465.227, 897 464.770 C 897 464.314, 900.621 458.536, 905.047 451.930 C 915.479 436.358, 915.401 436.588, 910.002 437.500 L 905.703 438.226 908.101 435.072 C 917.117 423.219, 917.176 422.525, 909.119 423.255 L 903.238 423.789 901.043 412.644 C 894.590 379.880, 882.565 337.337, 870.474 304.500 C 855.677 264.314, 842.229 236.298, 817.233 193.578 C 801.794 167.192, 787.087 144.214, 792.541 155 M 192.261 206.750 C 190.022 211.563, 187.907 216.765, 187.561 218.312 L 186.931 221.123 181.761 216.475 C 176.537 211.778, 168.354 207, 165.533 207 C 163.640 207, 163.596 206.170, 166.096 217.711 C 168.753 229.974, 172.743 241.277, 179.713 256.283 C 186.760 271.456, 188.454 277.514, 186.450 280.375 C 185.652 281.514, 185 283.245, 185 284.223 C 185 286.997, 183.372 286.313, 181.981 282.954 C 181.183 281.028, 180.127 280.028, 179.110 280.235 C 177.478 280.567, 177.434 281.249, 178.596 288.250 C 179.284 292.392, 178.596 292.806, 175.100 290.358 C 173.810 289.454, 172.023 288.652, 171.128 288.574 C 167.856 288.290, 157.055 283.720, 157.594 282.848 C 157.899 282.354, 157.778 282.047, 157.324 282.164 C 155.725 282.579, 141.398 279.732, 133.203 277.372 C 124.715 274.926, 115.456 270.634, 111 267.079 C 107.803 264.527, 108.999 262.236, 114.558 260.260 C 120.728 258.068, 128.499 259.063, 137.063 263.143 C 144.657 266.759, 162.303 277.769, 169.500 283.381 L 173.500 286.500 170.347 282.500 C 168.613 280.300, 162.663 273.325, 157.125 267 C 150.883 259.871, 145.657 252.758, 143.376 248.287 C 139.771 241.218, 139.710 240.908, 140.324 232.787 C 140.669 228.229, 141.328 223.164, 141.789 221.531 L 142.628 218.561 146.679 224.531 C 153.362 234.378, 163.441 255.468, 168.597 270.394 C 170.801 276.772, 175.492 286, 176.531 286 C 176.777 286, 175.872 283.637, 174.520 280.750 C 173.168 277.863, 168.899 267.497, 165.033 257.715 C 161.168 247.934, 157.041 238.034, 155.862 235.715 C 152.149 228.414, 142.463 215.203, 141.517 216.150 C 140.234 217.432, 138 229.276, 138 234.792 L 138 241.163 134.497 238.998 C 130.884 236.765, 114.958 231, 112.403 231 C 110.215 231, 111.431 235.124, 116.863 246.131 L 121.617 255.762 114.558 256.263 C 107.072 256.796, 95.696 260.589, 96.286 262.357 C 96.718 263.655, 112.676 272.434, 119.500 275.128 C 122.250 276.214, 132.198 279.065, 141.607 281.464 C 160.987 286.406, 171 290.750, 171 294.214 C 171 295.914, 170.733 296.133, 169.800 295.200 C 168.140 293.540, 164 293.680, 164 295.396 C 164 296.163, 166.250 298.235, 169 300 C 173.862 303.120, 175.295 304.900, 172.750 304.660 C 170.232 304.421, 155.083 306.216, 139 308.657 C 120.657 311.442, 114.491 311.303, 107.878 307.955 C 96.639 302.266, 96.268 300.852, 105.021 297.086 C 117.458 291.736, 132.853 292.401, 153.929 299.199 C 160.843 301.429, 167.625 303.449, 169 303.688 C 177.172 305.106, 157 297.604, 142.924 293.991 C 132.263 291.254, 122.746 290.572, 114 291.918 C 104.555 293.371, 93 297.026, 93 298.560 C 93 299.202, 90.300 300.939, 87 302.420 C 83.700 303.900, 81 305.475, 81 305.920 C 81 306.958, 90.588 311.243, 99.248 314.074 L 105.996 316.280 102.088 320.521 C 96.427 326.662, 90.678 335.669, 91.534 337.055 C 92.244 338.204, 107.458 337.766, 115.624 336.362 L 118.749 335.825 116.801 341.594 C 114.795 347.535, 113.150 361, 114.430 361 C 114.826 361, 118.370 358.917, 122.306 356.370 C 131.239 350.592, 141.627 340.639, 148.263 331.500 C 160.912 314.080, 169.017 309.169, 177.846 313.573 C 179.581 314.439, 181.013 315.226, 181.028 315.323 C 181.044 315.420, 181.855 317.906, 182.831 320.847 L 184.605 326.194 188.052 320.410 C 189.949 317.228, 191.970 314.478, 192.545 314.298 C 193.120 314.117, 195.145 316.446, 197.045 319.472 C 198.945 322.499, 200.780 324.980, 201.122 324.987 C 201.464 324.994, 202.028 323.226, 202.375 321.057 C 203.726 312.607, 205.561 314.538, 212.322 331.527 C 218.221 346.347, 219.976 353.279, 218.119 354.426 C 217.448 354.841, 217.239 354.541, 217.580 353.653 C 217.886 352.855, 217.656 351.905, 217.068 351.542 C 216.408 351.134, 215.994 351.956, 215.985 353.691 C 215.975 355.549, 215.691 356.061, 215.146 355.203 C 214.492 354.171, 214.052 354.232, 212.997 355.503 C 211.854 356.881, 212.004 357.188, 214.086 357.733 C 215.413 358.080, 216.629 358.266, 216.786 358.146 C 216.943 358.027, 217.730 358.587, 218.536 359.393 C 220.096 360.953, 220.407 364.903, 219.293 369 L 218.613 371.500 218.006 369 C 217.463 366.764, 216.959 366.532, 213.236 366.799 L 209.074 367.098 208.746 357.299 C 208.472 349.084, 208.385 349.803, 208.209 361.750 C 208.094 369.587, 208.338 376.057, 208.750 376.128 C 212.371 376.744, 214.699 376.619, 215.769 375.752 C 216.745 374.961, 216.861 375.166, 216.269 376.644 C 214.168 381.891, 212.740 382.778, 207.242 382.249 C 204.359 381.972, 202 381.304, 202 380.764 C 202 380.225, 200.988 380.014, 199.750 380.297 C 198.512 380.579, 196.600 380.434, 195.500 379.975 C 194.113 379.397, 195.399 379.119, 199.691 379.070 C 203.096 379.032, 206.160 378.550, 206.500 378 C 206.901 377.351, 201.927 377, 192.309 377.001 L 177.500 377.003 177.839 365.387 C 178.081 357.087, 177.862 353.967, 177.073 354.455 C 176.465 354.831, 176.201 355.516, 176.487 355.979 C 177.125 357.012, 176.060 360, 175.053 360 C 174.650 360, 173.715 358.168, 172.976 355.928 C 172.237 353.688, 170.590 351.036, 169.316 350.034 C 166.953 348.176, 166.061 346.301, 168.155 347.595 C 168.789 347.988, 169.046 347.883, 168.723 347.362 C 168.006 346.201, 171.911 334.044, 174.850 328.290 C 176.032 325.974, 176.979 323.499, 176.952 322.790 C 176.891 321.122, 170.685 333.352, 166.697 343 C 163.888 349.797, 163.601 351.484, 163.640 361 C 163.704 376.539, 167.879 385.317, 178.586 392.426 C 182.791 395.218, 184.116 396.756, 184.877 399.731 C 185.407 401.804, 187.035 408.225, 188.495 414 C 192.650 430.437, 198.560 447.742, 203.452 457.792 C 206.468 463.990, 207.491 467, 206.581 467 C 204.007 467, 193.011 458.833, 187.970 453.178 C 185.186 450.055, 180.465 443.866, 177.479 439.424 C 167.672 424.839, 153.870 412.476, 139.152 405.095 C 136.043 403.536, 132.375 401.937, 131 401.542 C 129.625 401.146, 132.369 402.794, 137.097 405.204 C 145.770 409.624, 155.646 416.854, 161.891 423.356 C 164.568 426.142, 164.856 426.775, 163.258 426.357 C 161.887 425.999, 160.719 426.563, 159.640 428.104 C 158.763 429.355, 157.740 430.073, 157.365 429.698 C 156.990 429.324, 156.193 429.420, 155.592 429.911 C 152.617 432.346, 150.020 431.439, 144.566 426.059 C 141.532 423.066, 138.805 420.862, 138.506 421.160 C 137.386 422.281, 160.782 444.785, 168.155 449.679 C 172.366 452.474, 181.483 457.585, 188.416 461.037 C 195.349 464.488, 200.882 467.452, 200.712 467.621 C 200.542 467.791, 197.500 466.757, 193.952 465.322 C 187.518 462.721, 183.157 462.167, 180.764 463.646 C 176.290 466.411, 159.383 460.485, 146.482 451.631 C 143.172 449.359, 139.572 447.009, 138.482 446.410 C 134.604 444.278, 124.730 431.365, 120.389 422.750 C 117.964 417.937, 115.740 414, 115.446 414 C 114.138 414, 125.420 434.122, 129.751 439.515 C 138.040 449.833, 153.920 460.187, 168 464.452 C 171.025 465.368, 179.118 466.756, 185.985 467.537 C 205.043 469.704, 207.722 471.320, 221.239 488.809 C 227.277 496.620, 237.271 507.843, 244.067 514.441 C 250.715 520.897, 255.999 526.334, 255.809 526.524 C 255.231 527.102, 240.908 523.014, 235.545 520.740 C 232.770 519.563, 227.713 516.911, 224.308 514.846 C 209.856 506.085, 199.578 501.942, 185.310 499.127 C 174.586 497.011, 160.619 495.499, 165.220 496.952 C 166.716 497.424, 170.689 498.081, 174.050 498.412 C 182.075 499.201, 193.377 501.804, 198.722 504.095 C 202.032 505.514, 203 506.463, 203 508.288 C 203 510.355, 202.041 510.949, 195.264 513.074 C 190.364 514.611, 185.121 515.500, 180.959 515.500 C 174.396 515.500, 172.391 514.746, 153.750 505.263 C 153.338 505.054, 153 505.110, 153 505.390 C 153 506.614, 170.166 516.304, 176.991 518.932 C 189.993 523.939, 198.646 525.290, 217.237 525.216 C 226.443 525.180, 234.183 525.487, 234.438 525.899 C 234.692 526.311, 234.135 526.623, 233.200 526.592 C 232.265 526.560, 228.436 526.920, 224.690 527.390 C 219.414 528.053, 218.004 528.568, 218.429 529.675 C 218.730 530.461, 218.579 530.858, 218.093 530.558 C 217.607 530.257, 216.937 530.721, 216.605 531.588 C 215.789 533.714, 215.786 533.704, 217.552 534.382 C 218.442 534.723, 218.843 534.555, 218.493 533.989 C 217.560 532.480, 218.954 532.811, 220.643 534.500 C 221.634 535.491, 221.738 536, 220.949 536 C 220.045 536, 220.034 536.336, 220.905 537.386 C 221.850 538.525, 220.799 539.079, 214.992 540.502 C 208.826 542.013, 206.551 542.088, 197.080 541.097 C 183.342 539.658, 177.998 538.081, 165.141 531.667 C 156.133 527.174, 153.725 525.391, 146.679 518 C 140.343 511.352, 139.331 510.560, 142.039 514.366 C 146.818 521.085, 156.752 530.173, 163.894 534.358 C 174.843 540.775, 183.080 543.130, 196.500 543.678 C 207.025 544.108, 209.668 543.865, 218 541.698 C 223.225 540.339, 232.225 537.345, 238 535.046 C 253.707 528.792, 255.371 528.790, 268 535.020 C 295.715 548.693, 307.463 551.964, 331.500 552.704 C 344.825 553.114, 350.446 552.869, 357.500 551.568 C 383.973 546.686, 404.413 538.711, 454 513.912 C 494.499 493.658, 520.689 481.989, 536.500 477.153 C 563.328 468.948, 582.057 468.199, 603.683 474.469 C 614.607 477.636, 615.829 477.600, 609.500 474.299 C 588.519 463.358, 566.356 461.540, 539.500 468.559 C 527.652 471.656, 509.283 478.721, 499.500 483.945 C 487.719 490.236, 479 495.165, 479 495.536 C 479 495.729, 481.073 494.971, 483.606 493.850 C 486.226 492.691, 488.588 492.188, 489.084 492.684 C 490.282 493.882, 409.496 534.404, 407.465 533.625 C 406.478 533.246, 406.147 533.429, 406.573 534.119 C 407.031 534.859, 406.521 534.983, 405 534.500 C 403.573 534.047, 402.979 534.157, 403.376 534.800 C 403.762 535.423, 403.161 535.593, 401.814 535.241 C 399.992 534.765, 400.620 534.209, 405.563 531.922 C 421.660 524.474, 448.728 511.041, 450.500 509.622 C 451.600 508.740, 444.175 512.018, 434 516.906 C 402.959 531.817, 387.681 537.447, 367 541.597 C 338.135 547.388, 316.481 545.452, 292.712 534.954 C 262.740 521.716, 246.984 506.422, 247.010 490.590 C 247.030 478.113, 252.006 472.048, 270.094 462.458 C 286.652 453.679, 295.487 442.432, 297.948 427 C 299.922 414.621, 300.483 415.753, 285.750 402.364 C 262.645 381.367, 264.574 382.851, 263.215 385.028 C 262.253 386.567, 262.291 386.826, 263.413 386.395 C 264.175 386.103, 265.099 386.352, 265.468 386.948 C 265.837 387.545, 266.521 387.796, 266.989 387.507 C 267.457 387.218, 268.728 388.110, 269.814 389.490 C 270.900 390.871, 272.220 392, 272.748 392 C 273.276 392, 276.364 394.813, 279.611 398.250 C 282.858 401.688, 288.152 406.709, 291.374 409.409 L 297.234 414.317 296.800 422.597 C 296.431 429.626, 295.806 432.009, 292.664 438.366 C 288.726 446.334, 282.328 453.745, 277.015 456.492 C 275.236 457.412, 274.022 457.773, 274.318 457.294 C 274.614 456.815, 273.314 454.915, 271.428 453.071 C 269.543 451.228, 268 449.332, 268 448.860 C 268 448.387, 267.325 448, 266.500 448 C 265.675 448, 265 447.530, 265 446.956 C 265 446.382, 264.438 445.985, 263.750 446.075 C 263.063 446.164, 261.686 446.184, 260.691 446.118 C 258.444 445.971, 259.484 444, 261.809 443.999 C 263.255 443.999, 263.487 442.911, 263.408 436.491 C 263.358 432.362, 263.133 428.836, 262.908 428.655 C 262.684 428.474, 259.238 428.529, 255.250 428.776 L 248 429.226 248 436.613 C 248 442.496, 248.304 444, 249.492 444 C 250.640 444, 250.292 445.326, 247.983 449.750 C 244.954 455.550, 242.049 466.751, 242.017 472.750 C 241.990 477.797, 240.532 476.566, 240.234 471.245 C 240.061 468.157, 239.363 466.039, 238.234 465.179 C 237.280 464.453, 236.613 463.441, 236.750 462.929 C 236.888 462.418, 236.438 461.986, 235.750 461.970 C 235.063 461.953, 235.297 461.475, 236.271 460.908 C 238.263 459.749, 237.695 458, 235.327 458 C 234.164 458, 233.885 458.766, 234.220 461.044 C 234.465 462.718, 234.292 464.320, 233.833 464.603 C 233.375 464.886, 233 461.915, 233 458 C 233 453.509, 233.369 451.110, 234 451.500 C 235.113 452.188, 235.291 449.686, 234.373 446.261 C 234.043 445.030, 233.330 444.296, 232.790 444.630 C 232.158 445.021, 231.931 439.996, 232.154 430.536 L 232.500 415.834 240.500 408.530 C 244.900 404.512, 248.513 400.837, 248.530 400.362 C 248.546 399.888, 251.471 396.630, 255.030 393.122 C 258.588 389.614, 254.705 392.848, 246.400 400.309 L 231.301 413.875 230.658 420.688 C 228.992 438.325, 230.583 465.908, 234.155 481.318 C 235.279 486.167, 235.967 490.366, 235.685 490.648 C 234.581 491.752, 223.747 474.798, 217.057 461.500 C 206.760 441.032, 201.206 425.153, 198.470 408.357 C 197.651 403.329, 197.247 398.520, 197.573 397.671 C 197.899 396.822, 201.061 394.240, 204.601 391.934 C 215.959 384.534, 220.908 376.014, 221.758 362.403 C 222.407 351.992, 221.381 347.913, 213.926 331.265 C 210.667 323.985, 208 317.782, 208 317.480 C 208 317.177, 208.870 317.395, 209.934 317.965 C 210.998 318.534, 212.573 319, 213.434 319 C 215.414 319, 215.522 315.137, 213.563 314.386 C 211.450 313.575, 212.855 311, 215.411 311 C 219.146 311, 227.158 316.882, 234.994 325.376 C 247.941 339.411, 264.305 355.364, 269.412 358.928 L 274.324 362.357 273.679 354.735 C 273.325 350.544, 272.138 344.753, 271.041 341.867 C 269.945 338.981, 269.149 336.528, 269.274 336.418 C 269.398 336.307, 271.750 336.591, 274.500 337.048 C 281.826 338.268, 296 338.208, 296 336.957 C 296 335.619, 288.660 325.610, 284.140 320.784 C 281.629 318.102, 281.055 316.949, 282.080 316.642 C 292.807 313.423, 306.004 307.680, 305.996 306.233 C 305.994 305.830, 302.902 304.201, 299.126 302.613 C 293.943 300.435, 292.365 299.320, 292.693 298.067 C 293.050 296.702, 291.477 296.063, 283.813 294.463 C 266.061 290.758, 250.993 292.097, 226.334 299.571 C 217.517 302.244, 214.478 302.791, 212.962 301.980 C 210.610 300.721, 210.495 299.647, 212.500 297.643 C 213.325 296.818, 214 295.670, 214 295.092 C 214 293.803, 220.508 290.413, 227.952 287.824 C 231.003 286.763, 241.358 284.790, 250.962 283.440 C 269.415 280.846, 279.961 278.319, 288.987 274.327 L 294.484 271.896 289.992 269.845 C 283.113 266.705, 274.947 264, 272.343 264 C 269.319 264, 269.389 263.414, 273.059 258 C 276.751 252.555, 282 242.504, 282 240.882 C 282 239.190, 268.443 240.489, 261.449 242.850 C 256.518 244.515, 255.970 244.544, 256.590 243.113 C 257.747 240.443, 258.240 223.681, 257.239 221.048 C 256.309 218.604, 256.291 218.612, 250.504 224.048 C 241.907 232.125, 235.514 241.392, 224.324 262 C 218.799 272.175, 213.741 281.625, 213.084 283 C 211.956 285.361, 211.977 285.392, 213.449 283.553 C 215.437 281.071, 220.623 272.290, 230.945 253.926 C 238.670 240.183, 249.877 225.327, 254.450 222.768 C 256.196 221.791, 256.265 222.216, 255.769 230.911 C 255.343 238.397, 254.703 241.183, 252.294 246.043 C 249.446 251.787, 249.345 253.699, 252.061 250.427 C 254.285 247.747, 260.681 245.022, 268.583 243.387 C 272.748 242.526, 276.363 242.030, 276.618 242.285 C 277.232 242.899, 273.341 249.551, 269.593 254.293 C 265.513 259.457, 261.761 261.585, 248.681 266.155 C 232.200 271.914, 233.030 271.795, 236.583 267.889 C 247.369 256.031, 245.194 256.643, 232.683 268.987 C 224.607 276.955, 218 283.630, 218 283.820 C 218 284.010, 220.363 282.750, 223.250 281.020 C 232.482 275.488, 250.990 266.850, 252.775 267.239 C 253.857 267.476, 251.704 269.039, 247 271.433 C 242.875 273.533, 238.283 276.111, 236.795 277.161 C 232.874 279.931, 234.149 281.981, 239.857 282.082 C 244.428 282.162, 244.391 282.186, 237.500 283.660 C 230.263 285.207, 216.430 290.496, 215.443 292.093 C 215.134 292.592, 213.334 293, 211.441 293 C 207.616 293, 207.110 291.716, 209.558 288.221 C 210.415 286.997, 210.838 285.547, 210.499 284.998 C 209.424 283.260, 207.286 283.914, 205.592 286.500 C 203.382 289.874, 202.522 289.652, 201.426 285.426 C 200.410 281.503, 198.711 280.546, 198.129 283.567 C 197.926 284.625, 196.955 286.514, 195.972 287.763 L 194.185 290.035 192.092 286.649 C 190.942 284.787, 190 282.398, 190 281.339 C 190 277.452, 184.749 261.455, 181.053 254.084 C 173.492 239.003, 167.273 220.034, 168.407 215.514 L 169.041 212.987 173.811 215.404 C 179.434 218.254, 187 226.074, 187 229.037 C 187 230.181, 187.450 230.840, 188 230.500 C 188.550 230.160, 189 228.292, 189 226.348 C 189 223.009, 195.825 205.008, 197.092 205.002 C 197.418 205.001, 199.331 208.507, 201.342 212.794 C 204.097 218.665, 205.015 221.935, 205.059 226.044 C 205.109 230.694, 205.294 231.214, 206.309 229.566 C 209.089 225.051, 215.266 219.173, 219.853 216.676 C 224.118 214.355, 224.865 214.207, 225.392 215.578 C 227.891 222.090, 219.075 244.859, 206.069 265.481 C 202.607 270.971, 199.387 276.596, 198.912 277.981 C 198.155 280.192, 198.200 280.270, 199.275 278.618 C 199.949 277.584, 203.739 271.882, 207.698 265.949 C 220.019 247.484, 226.890 232.086, 229.479 217.134 C 230.372 211.983, 230.888 207.554, 230.626 207.293 C 229.793 206.460, 217.406 213.890, 212.651 218.076 L 208.066 222.112 207.456 219.306 C 206.757 216.088, 197.814 198, 196.923 198 C 196.598 198, 194.500 201.938, 192.261 206.750 M 824.055 216 C 824.069 216.825, 825.153 219.975, 826.464 223 C 828.184 226.968, 829.028 228.039, 829.494 226.847 C 830.066 225.383, 827.982 220.292, 825.054 216 C 824.144 214.667, 824.033 214.667, 824.055 216 M 113 232.491 C 113 232.656, 114.406 236.100, 116.124 240.145 C 119.847 248.910, 124.519 255.723, 127.407 256.602 C 129.288 257.174, 135.094 259.645, 140.500 262.175 C 142.351 263.041, 142.370 263.005, 140.750 261.695 C 138.444 259.830, 138.539 259, 141.059 259 C 142.191 259, 142.840 258.550, 142.500 258 C 141.911 257.047, 143.350 256.545, 145.500 256.953 C 146.050 257.057, 145.975 256.609, 145.334 255.956 C 144.436 255.041, 143.646 255.134, 141.891 256.364 C 139.798 257.830, 139.463 257.824, 137.763 256.286 C 136.143 254.820, 135.990 254.810, 136.525 256.205 C 137.502 258.751, 135.416 259.170, 132.854 256.942 L 130.500 254.894 132.744 255.513 C 134.502 255.997, 134.857 255.792, 134.387 254.565 C 134.056 253.704, 134.284 253, 134.893 253 C 135.502 253, 136 252.523, 136 251.941 C 136 251.359, 135.550 251.160, 135 251.500 C 134.450 251.840, 134 251.641, 134 251.059 C 134 250.477, 134.408 250, 134.906 250 C 135.405 250, 135.577 249.100, 135.290 248 C 134.926 246.609, 135.259 246, 136.383 246 C 141.582 246, 133.150 240.102, 121.302 235.450 C 116.736 233.657, 113 232.326, 113 232.491 M 200.142 241.129 C 199.069 243.533, 197.729 246.625, 197.164 248 L 196.135 250.500 196.023 248 C 195.961 246.625, 195.319 244.150, 194.597 242.500 C 193.444 239.865, 193.269 241.620, 193.163 256.928 C 193.082 268.726, 192.676 274.582, 191.908 275.057 C 191.104 275.554, 191.171 275.916, 192.137 276.300 C 193.105 276.685, 193.138 276.865, 192.250 276.921 C 191.563 276.964, 191 277.477, 191 278.059 C 191 278.641, 191.450 278.840, 192 278.500 C 192.550 278.160, 193 278.782, 193 279.882 C 193 284.068, 194.898 282.824, 195.459 278.269 C 197.011 265.662, 199.338 251.791, 201.032 245.036 C 202.063 240.931, 202.722 237.389, 202.498 237.165 C 202.275 236.941, 201.214 238.725, 200.142 241.129 M 839.698 247.750 C 840.505 249.976, 843 253.695, 843 252.673 C 843 251.620, 840.057 246, 839.506 246 C 839.262 246, 839.348 246.787, 839.698 247.750 M 266.813 278.683 C 267.534 278.972, 268.397 278.936, 268.729 278.604 C 269.061 278.272, 268.471 278.036, 267.417 278.079 C 266.252 278.127, 266.015 278.364, 266.813 278.683 M 260.750 279.662 C 261.438 279.940, 262.563 279.940, 263.250 279.662 C 263.938 279.385, 263.375 279.158, 262 279.158 C 260.625 279.158, 260.063 279.385, 260.750 279.662 M 245.750 281.662 C 246.438 281.940, 247.563 281.940, 248.250 281.662 C 248.938 281.385, 248.375 281.158, 247 281.158 C 245.625 281.158, 245.063 281.385, 245.750 281.662 M 251.500 295.445 C 241.823 297.036, 212.882 304.718, 211.552 306.048 C 209.486 308.114, 212.588 309.188, 217.106 307.971 C 221.986 306.657, 234.411 307.259, 250.243 309.575 C 266.823 312, 270.637 311.640, 280.182 306.750 C 284.745 304.412, 288.619 301.757, 288.793 300.850 C 289.029 299.612, 287.532 298.692, 282.804 297.173 C 274.509 294.508, 261.550 293.792, 251.500 295.445 M 158.769 309.076 C 145.459 312.297, 136.852 317.764, 129.267 327.818 C 122.951 336.189, 120.206 347.056, 123.359 351.205 C 124.552 352.776, 124.943 352.672, 128.327 349.882 C 131.831 346.994, 133.392 344.179, 130.750 345.513 C 130.063 345.861, 130.850 344.987, 132.500 343.571 C 134.150 342.156, 136.057 341.207, 136.738 341.463 C 137.419 341.719, 137.869 341.583, 137.738 341.162 C 137.607 340.741, 139.234 338.870, 141.352 337.005 C 143.471 335.139, 147.806 330.213, 150.984 326.057 C 158.563 316.148, 160.237 314.699, 168.250 311.108 C 171.963 309.445, 175 307.840, 175 307.542 C 175 306.437, 166.261 307.263, 158.769 309.076 M 107.385 319.250 C 101.871 325.063, 96.998 333.002, 102.036 327.964 C 103.157 326.843, 104.576 326.238, 105.191 326.618 C 105.922 327.070, 106.026 326.850, 105.490 325.985 C 104.891 325.015, 105.132 324.836, 106.388 325.319 C 107.414 325.712, 107.856 325.577, 107.489 324.981 C 107.150 324.434, 107.590 323.711, 108.466 323.375 C 109.473 322.988, 109.845 322.086, 109.476 320.924 C 109.092 319.715, 109.596 318.644, 110.946 317.802 C 112.076 317.096, 113 316.177, 113 315.759 C 113 314.097, 111.229 315.198, 107.385 319.250 M 278.989 326.026 C 278.300 327.690, 276.440 329.975, 274.856 331.102 C 273.272 332.230, 272.233 333.569, 272.547 334.076 C 272.861 334.584, 277.345 335, 282.511 335 L 291.905 335 289.332 332.250 C 287.918 330.738, 285.636 328.038, 284.261 326.250 C 282.887 324.462, 281.421 323, 281.003 323 C 280.585 323, 279.679 324.362, 278.989 326.026 M 97.125 333.626 C 95.999 336.097, 96.063 336.216, 98.214 335.640 C 99.471 335.303, 102.525 334.969, 105 334.899 L 109.500 334.770 105.699 334.034 C 103.609 333.629, 101.381 332.781, 100.749 332.149 C 99.062 330.462, 98.453 330.710, 97.125 333.626 M 113.426 332.793 C 111.995 333.543, 111.001 334.334, 111.218 334.551 C 111.785 335.118, 118.839 333.069, 119.390 332.177 C 120.161 330.930, 116.202 331.338, 113.426 332.793 M 1212 332.357 C 1212 333.069, 1237.669 370.831, 1239.844 373.318 C 1241.663 375.399, 1241.928 374.826, 1233.432 387.149 C 1230.644 391.192, 1224.672 400.012, 1220.160 406.750 L 1211.956 419 1204.565 419 L 1197.175 419 1194.447 411.750 C 1192.946 407.762, 1191.010 403.262, 1190.144 401.750 L 1188.569 399 1168.507 399 C 1150.523 399, 1148.292 399.184, 1146.972 400.772 C 1146.163 401.747, 1145.367 403.326, 1145.204 404.281 C 1144.732 407.052, 1139.379 419.140, 1138.656 419.067 C 1138.295 419.030, 1135.495 419, 1132.433 419 C 1125.899 419, 1125.909 419.632, 1132.235 406 C 1134.405 401.325, 1136.763 395.925, 1137.475 394 C 1139.085 389.651, 1143.506 379.093, 1154.224 354 L 1162.553 334.500 1168.569 334.208 L 1174.585 333.915 1180.409 347.708 C 1183.613 355.293, 1188.366 366.450, 1190.971 372.500 C 1193.576 378.550, 1197.316 387.325, 1199.282 392 C 1204.698 404.881, 1210.842 418, 1211.457 418 C 1211.759 418, 1211.442 416.684, 1210.753 415.075 C 1210.064 413.467, 1201.850 394.329, 1192.500 372.547 L 1175.500 332.944 1168.572 333.222 L 1161.645 333.500 1149.952 361 C 1143.520 376.125, 1137.217 390.975, 1135.944 394 C 1129.836 408.511, 1123.971 420.100, 1123.029 419.518 C 1122.463 419.168, 1122 416.434, 1122 413.441 L 1122 408 1101.500 408 L 1081 408 1081 370.500 L 1081 333 1073.622 333 L 1066.244 333 1066.680 376.750 L 1067.116 420.500 1103.711 420.500 L 1140.307 420.500 1144.476 410.500 L 1148.644 400.500 1168.484 400.500 L 1188.325 400.500 1192.622 410.500 L 1196.919 420.500 1211.574 420.777 C 1221.104 420.958, 1226.690 420.673, 1227.546 419.962 C 1228.271 419.360, 1233.430 411.698, 1239.011 402.934 C 1244.592 394.170, 1249.270 387, 1249.407 387 C 1249.544 387, 1254.571 394.634, 1260.578 403.965 L 1271.500 420.930 1279.750 420.965 C 1284.287 420.984, 1288 420.612, 1288 420.138 C 1288 419.664, 1281.475 409.469, 1273.500 397.483 C 1265.525 385.497, 1259 375.503, 1259 375.275 C 1259 374.929, 1264.501 366.942, 1286.221 335.750 L 1288.136 333 1279.318 333.005 L 1270.500 333.010 1260.201 348.615 L 1249.902 364.220 1246.630 358.860 C 1244.830 355.912, 1240.344 348.887, 1236.660 343.250 L 1229.962 333 1222.563 333 C 1218.493 333, 1214.452 332.727, 1213.582 332.393 C 1212.712 332.059, 1212 332.043, 1212 332.357 M 333 377 L 333 421 343.500 421 L 354 421 354 385.478 L 354 349.957 373.250 350.228 L 392.500 350.500 392.763 385.750 L 393.026 421 403.013 421 L 413 421 413 377 L 413 333 373 333 L 333 333 333 377 M 456.665 333.750 C 456.233 334.465, 443.716 365.294, 430.782 397.500 C 427.469 405.750, 423.913 414.170, 422.879 416.210 C 421.846 418.251, 421 420.163, 421 420.460 C 421 420.757, 425.649 421, 431.331 421 L 441.662 421 445.422 411.500 L 449.182 402 467.003 402 L 484.823 402 487.572 409.006 C 489.084 412.860, 490.497 415.836, 490.713 415.621 C 490.928 415.405, 489.859 412.028, 488.336 408.115 L 485.568 401 466.784 401 C 456.319 401, 448 401.399, 448 401.900 C 448 402.395, 446.380 406.670, 444.400 411.400 L 440.800 420 431.900 420 C 427.005 420, 423 419.773, 423 419.496 C 423 419.218, 427.275 408.692, 432.500 396.103 C 437.725 383.515, 442 372.913, 442 372.543 C 442 372.174, 443.042 369.538, 444.315 366.686 C 445.588 363.834, 449.075 355.313, 452.065 347.750 L 457.500 334.001 466.661 334 L 475.822 334 484.830 355.250 C 489.785 366.938, 495.853 381.450, 498.314 387.500 C 506.291 407.111, 510.231 416.103, 510.659 415.675 C 511.261 415.073, 482.656 346.252, 477.854 336.750 L 475.959 333 466.539 333 C 461.357 333, 456.914 333.337, 456.665 333.750 M 546 333.957 C 571.110 334.610, 573.338 335.011, 580.478 340.171 C 594.771 350.500, 596.046 372.200, 583.072 384.336 C 577.497 389.550, 572.820 391.777, 565 392.939 C 559.652 393.734, 559.616 393.759, 563.712 393.878 C 573.542 394.163, 585.808 386.202, 590.487 376.500 C 593.185 370.906, 593.692 359.599, 591.535 353.105 C 589.301 346.380, 582.463 338.906, 575.779 335.886 C 570.705 333.593, 569.567 333.497, 546.500 333.423 L 522.500 333.346 546 333.957 M 605 377 L 605 421 614.476 421 L 623.953 421 624.226 403.750 L 624.500 386.500 629 386.213 L 633.500 385.925 646 403.436 L 658.500 420.947 669.824 420.974 L 681.148 421 675.824 413.540 C 672.896 409.437, 665.423 399.054, 659.219 390.466 L 647.937 374.853 651.791 370.176 C 657.110 363.721, 676.923 336.364, 677.649 334.471 C 678.164 333.130, 676.886 332.965, 667.906 333.214 L 657.570 333.500 651.754 341 C 648.555 345.125, 642.732 352.775, 638.814 358 C 630.662 368.873, 629.487 370, 626.309 370 L 624 370 624 351.500 L 624 333 614.500 333 L 605 333 605 377 M 908 376.918 L 908 421 915.500 421 L 923 421 923 406 L 923 391 932.404 391 L 941.807 391 951.654 405.984 L 961.500 420.968 970.833 420.984 L 980.167 421 978.069 418.250 C 976.916 416.738, 972.192 410.075, 967.572 403.444 C 962.952 396.813, 958.372 390.738, 957.394 389.944 C 955.833 388.676, 955.726 388.683, 956.516 390 C 957.620 391.842, 968.458 407.380, 971.512 411.500 C 972.735 413.150, 974.449 415.625, 975.322 417 L 976.909 419.500 969.448 419.171 L 961.987 418.842 958.912 414.372 C 956.434 410.771, 956.070 409.620, 957.041 408.451 C 957.987 407.311, 957.969 407, 956.956 407 C 956.247 407, 955.963 406.704, 956.325 406.342 C 957.160 405.507, 955.124 402.995, 953.628 403.015 C 952.802 403.027, 952.799 403.227, 953.615 403.765 C 954.229 404.169, 955.055 405.625, 955.451 407 C 956.202 409.607, 951.887 404.150, 945.742 394.722 C 944.029 392.095, 941.697 389.711, 940.560 389.426 C 939.423 389.140, 934.895 389.040, 930.497 389.203 L 922.500 389.500 922.224 404.797 L 921.947 420.094 915.724 419.797 L 909.500 419.500 909.212 376.750 L 908.924 334 926.212 334.008 C 951.847 334.019, 959.311 335.691, 966.830 343.109 C 972.234 348.440, 974.308 353.511, 974.351 361.500 C 974.407 372.032, 969.355 380.529, 960.617 384.598 C 957.558 386.022, 956.326 386.984, 957.554 386.990 C 960.774 387.006, 968.647 381.494, 971.392 377.303 C 976.533 369.455, 977.301 357.384, 973.170 349.378 C 970.421 344.049, 964.473 338.546, 958.500 335.803 C 953.836 333.661, 951.970 333.484, 930.750 333.171 L 908 332.836 908 376.918 M 991 377 L 991 421 1020.333 421 C 1036.467 421, 1049.854 420.814, 1050.083 420.587 C 1050.313 420.359, 1050.348 417.434, 1050.161 414.087 L 1049.822 408 1027.881 408 L 1005.940 408 1006.220 395.414 L 1006.500 382.828 1025.163 382.952 L 1043.826 383.077 1044.163 376.557 L 1044.500 370.037 1025.500 369.769 L 1006.500 369.500 1006.219 357.250 L 1005.938 345 1027.969 345 L 1050 345 1050 339 L 1050 333 1020.500 333 L 991 333 991 377 M 334 377.038 L 334 420.075 343.250 419.788 L 352.500 419.500 352.687 384.500 L 352.875 349.500 373.437 349.230 L 394 348.959 394 384.480 L 394 420 403 420 L 412 420 412 377 L 412 334 373 334 L 334 334 334 377.038 M 606 377 L 606 420 614.476 420 L 622.953 420 623.226 402.750 L 623.500 385.500 628.907 385.500 L 634.314 385.500 645.191 400.500 C 651.173 408.750, 656.840 416.538, 657.784 417.807 C 659.404 419.984, 660.051 420.096, 669.300 419.807 L 679.099 419.500 670.262 407.500 C 665.402 400.900, 658.145 390.899, 654.136 385.275 L 646.847 375.050 655.601 363.275 C 660.416 356.799, 666.834 348.125, 669.862 344 C 672.891 339.875, 675.791 335.938, 676.307 335.250 C 677.041 334.272, 675.206 334.003, 667.872 334.013 L 658.500 334.027 644.500 352.476 C 630.759 370.584, 630.431 370.926, 626.750 370.963 L 623 371 623 352.500 L 623 334 614.500 334 L 606 334 606 377 M 992.746 334.750 C 992.541 335.163, 992.410 354.033, 992.454 376.683 C 992.524 412.866, 993.069 422.872, 994.720 418.250 C 994.992 417.488, 996.792 417.055, 999.333 417.142 L 1003.500 417.284 999.500 418 C 997.300 418.394, 1007.538 418.780, 1022.250 418.858 L 1049 419 1049.001 414.250 L 1049.001 409.500 1027.251 409.500 L 1005.500 409.500 1005.219 396.639 C 1005.028 387.863, 1005.313 383.328, 1006.116 382.360 C 1007.071 381.209, 1010.671 380.999, 1025.147 381.250 L 1043 381.559 1043 376.279 L 1043 371 1024 371 L 1005 371 1005 357.500 L 1005 344 1008.250 343.928 C 1010.038 343.888, 1019.825 343.775, 1030 343.678 L 1048.500 343.500 1048.805 338.750 L 1049.110 334 1021.114 334 C 1005.716 334, 992.951 334.337, 992.746 334.750 M 1067.999 376.750 L 1067.999 419.500 1094.499 419.218 L 1121 418.936 1121 414.489 L 1121 410.041 1100.750 409.771 L 1080.500 409.500 1080.238 371.750 L 1079.976 334 1073.988 334 L 1068 334 1067.999 376.750 M 1217.011 338.250 C 1218.702 340.587, 1224.237 348.575, 1229.311 356 C 1234.385 363.425, 1239.623 370.959, 1240.950 372.742 L 1243.364 375.984 1241.316 378.242 C 1239.617 380.115, 1216.922 413.670, 1214.595 417.750 C 1214.056 418.695, 1215.476 419, 1220.421 419 L 1226.959 419 1234.323 407.750 C 1238.372 401.563, 1243.326 393.913, 1245.331 390.750 C 1247.335 387.587, 1249.119 385, 1249.295 385 C 1249.471 385, 1254.539 392.626, 1260.557 401.947 L 1271.500 418.895 1278.250 418.947 C 1281.963 418.976, 1285 418.808, 1285 418.573 C 1285 417.635, 1274.309 400.795, 1266.396 389.271 C 1261.778 382.545, 1258 376.315, 1258 375.427 C 1258 374.538, 1260.756 369.916, 1264.124 365.156 C 1267.492 360.395, 1271.077 355.301, 1272.091 353.834 C 1273.105 352.368, 1276.638 347.306, 1279.941 342.584 L 1285.947 334 1278.673 334 L 1271.399 334 1262.306 347.750 C 1257.305 355.313, 1252.371 362.261, 1251.342 363.192 C 1249.546 364.816, 1249.062 364.269, 1239.186 349.442 L 1228.900 334 1221.418 334 L 1213.937 334 1217.011 338.250 M 264.524 337.264 C 264.732 339.165, 264.428 339.718, 263.392 339.320 C 262.612 339.021, 261.219 339.389, 260.295 340.138 C 258.851 341.310, 258.740 341.290, 259.500 340 C 260.270 338.694, 260.159 338.682, 258.646 339.910 C 257.623 340.741, 257.173 341.974, 257.551 342.910 C 257.904 343.785, 258.289 345.067, 258.407 345.760 C 258.524 346.453, 259.246 347.578, 260.012 348.260 C 261.192 349.312, 261.202 349.234, 260.079 347.750 C 258.958 346.268, 258.991 346, 260.294 346 C 261.141 346, 262.022 345.663, 262.253 345.250 C 262.483 344.837, 262.547 345.033, 262.393 345.684 C 262.239 346.335, 262.957 346.804, 263.988 346.726 C 265.018 346.648, 265.839 346.341, 265.812 346.042 C 265.785 345.744, 265.823 344.825, 265.897 344 C 266.014 342.686, 266.146 342.683, 266.961 343.971 C 267.473 344.780, 268.195 345.139, 268.566 344.768 C 269.544 343.789, 268.301 339.878, 266.122 337.082 L 264.238 334.664 264.524 337.264 M 522.239 377.750 L 522 421 531.946 421 L 541.892 421 542.196 407.498 C 542.363 400.072, 542.163 393.997, 541.750 393.998 C 541.337 393.999, 541 399.850, 541 407 L 541 420 532.011 420 L 523.021 420 522.750 377.250 L 522.478 334.500 522.239 377.750 M 180.872 338.750 C 179.629 340.336, 179.664 340.371, 181.250 339.128 C 182.916 337.821, 183.445 337, 182.622 337 C 182.415 337, 181.627 337.788, 180.872 338.750 M 794.286 341.500 C 794.294 344.250, 794.488 345.256, 794.718 343.736 C 794.947 342.216, 794.941 339.966, 794.704 338.736 C 794.467 337.506, 794.279 338.750, 794.286 341.500 M 1218 337.800 C 1218 338.839, 1220.167 341, 1221.208 341 C 1221.653 341, 1221.455 340.100, 1220.768 339 C 1219.506 336.980, 1218 336.327, 1218 337.800 M 205.810 341.500 C 206.316 342.600, 206.980 344.175, 207.286 345 C 207.766 346.296, 207.853 346.288, 207.921 344.941 C 207.964 344.084, 207.300 342.509, 206.445 341.441 C 204.915 339.531, 204.904 339.532, 205.810 341.500 M 178.459 342.067 C 178.096 342.653, 178.014 343.348, 178.276 343.610 C 178.538 343.872, 179.019 343.392, 179.345 342.543 C 180.021 340.781, 179.445 340.471, 178.459 342.067 M 254 343.378 C 254 343.585, 254.787 344.373, 255.750 345.128 C 257.336 346.371, 257.371 346.336, 256.128 344.750 C 254.821 343.084, 254 342.555, 254 343.378 M 923.728 343.694 C 922.100 344.117, 921.978 345.642, 922.228 362.328 L 922.500 380.500 934.500 380.480 C 948.984 380.456, 954.041 378.688, 958.931 371.937 C 964.496 364.255, 962.303 352.876, 954.228 347.532 C 948.994 344.069, 930.988 341.803, 923.728 343.694 M 177.158 347 C 177.158 348.375, 177.385 348.938, 177.662 348.250 C 177.940 347.563, 177.940 346.438, 177.662 345.750 C 177.385 345.063, 177.158 345.625, 177.158 347 M 923 362.650 L 923 380.300 935.250 379.621 C 946.179 379.015, 947.977 378.649, 951.922 376.221 C 960.919 370.686, 963.386 360.128, 957.490 352.398 C 953.027 346.546, 948.405 345.047, 934.750 345.022 L 923 345 923 362.650 M 181.079 347.583 C 181.127 348.748, 181.364 348.985, 181.683 348.188 C 181.972 347.466, 181.936 346.603, 181.604 346.271 C 181.272 345.939, 181.036 346.529, 181.079 347.583 M 190.252 350.500 C 190.263 352.700, 190.468 353.482, 190.707 352.238 C 190.946 350.994, 190.937 349.194, 190.687 348.238 C 190.437 347.282, 190.241 348.300, 190.252 350.500 M 203.711 350.999 C 203.423 352.098, 203.596 353.250, 204.094 353.558 C 204.592 353.866, 205 352.966, 205 351.559 C 205 348.495, 204.430 348.247, 203.711 350.999 M 541 363.500 L 541 378 551.532 378 C 563.063 378, 566.971 376.915, 570.937 372.615 C 574.543 368.705, 575.072 359.612, 571.926 355.624 C 568.051 350.713, 562.833 349.047, 551.250 349.022 L 541 349 541 363.500 M 194.079 351.583 C 194.127 352.748, 194.364 352.985, 194.683 352.188 C 194.972 351.466, 194.936 350.603, 194.604 350.271 C 194.272 349.939, 194.036 350.529, 194.079 351.583 M 542 363.500 L 542 377 552.040 377 C 560.123 377, 562.848 376.608, 566.019 374.990 C 575.619 370.093, 575.419 356.363, 565.684 351.943 C 562.505 350.500, 559.157 350.039, 551.750 350.022 L 542 350 542 363.500 M 1166.629 351.791 C 1166.360 352.227, 1165.016 355.489, 1163.643 359.041 C 1162.270 362.594, 1159.089 370.170, 1156.573 375.878 C 1151.903 386.478, 1151.329 388.122, 1152.883 386.450 C 1154.706 384.489, 1168.562 351, 1167.550 351 C 1167.313 351, 1166.898 351.356, 1166.629 351.791 M 1169 351.191 C 1169 351.516, 1172.375 359.770, 1176.500 369.533 C 1180.625 379.296, 1184 387.433, 1184 387.616 C 1184 387.799, 1176.912 388.085, 1168.250 388.252 L 1152.500 388.555 1168.750 388.777 C 1178.072 388.905, 1185 388.610, 1185 388.085 C 1185 387.582, 1183.155 382.744, 1180.899 377.335 C 1178.643 371.926, 1175.465 364.125, 1173.835 360 C 1171.250 353.455, 1169 349.357, 1169 351.191 M 460.500 369.211 C 457.200 378.125, 454.350 385.775, 454.167 386.210 C 453.983 386.644, 459.721 387, 466.917 387 C 474.113 387, 480.001 386.663, 480.002 386.250 C 480.003 385.837, 474.603 385.639, 468.002 385.809 C 461.401 385.979, 455.999 385.754, 455.998 385.309 C 455.992 383.211, 466.529 356.138, 467.103 356.774 C 467.464 357.173, 468.318 359.300, 469.003 361.500 C 470.604 366.646, 477.234 382.099, 477.659 381.674 C 477.944 381.389, 470.954 363.191, 467.702 355.751 C 466.560 353.138, 466.203 353.805, 460.500 369.211 M 194 365.250 L 194 374 199.500 374 L 205 374 205 365.250 L 205 356.500 199.500 356.500 L 194 356.500 194 365.250 M 181.175 365.250 L 181 374 186 374 L 191 374 191 365.500 L 191 357 187.750 357.150 C 184.725 357.289, 184.690 357.329, 187.250 357.716 C 189.966 358.128, 190 358.225, 190 365.566 C 190 369.855, 189.577 373, 189 373 C 188.450 373, 188 372.535, 188 371.966 C 188 371.398, 186.678 369.640, 185.062 368.061 C 182.917 365.964, 182.020 364.016, 181.737 360.844 C 181.524 358.455, 181.271 360.438, 181.175 365.250 M 195.969 358.750 C 195.952 359.163, 195.730 362.538, 195.474 366.250 L 195.010 373 198.898 373 C 203.516 373, 204 372.138, 204 363.918 L 204 358 200 358 C 197.800 358, 195.986 358.337, 195.969 358.750 M 165.100 362.500 C 165.019 366.950, 165.878 371, 166.903 371 C 167.829 371, 167.375 365.132, 166.169 361.500 L 165.172 358.500 165.100 362.500 M 296.951 372.235 C 295.179 375.114, 294.436 376.883, 295.299 376.167 C 296.706 374.999, 296.901 375.972, 297.184 385.525 C 297.440 394.147, 297.213 396.374, 296 397.168 C 294.762 397.979, 294.806 398.056, 296.250 397.607 C 297.262 397.292, 298 397.581, 298 398.292 C 298 398.967, 299.227 400.843, 300.726 402.460 C 302.225 404.077, 303.493 406.345, 303.543 407.500 C 303.594 408.656, 303.969 410.141, 304.377 410.800 C 305.883 413.238, 303.360 411.798, 298.500 407.446 C 294.079 403.487, 293.703 402.848, 295.250 401.934 C 296.212 401.366, 297 400.418, 297 399.828 C 297 399.141, 296.461 399.203, 295.500 400 C 294.464 400.860, 294 400.898, 294 400.122 C 294 399.505, 293.502 399, 292.893 399 C 292.264 399, 292.066 399.731, 292.436 400.694 C 293.011 402.192, 292.853 402.177, 291.067 400.560 C 289.956 399.555, 289.334 398.230, 289.684 397.616 C 290.034 397.002, 289.951 396.835, 289.498 397.245 C 289.046 397.655, 287.062 396.784, 285.088 395.310 C 281.936 392.956, 281.743 392.910, 283.500 394.929 C 284.600 396.193, 290.365 401.751, 296.310 407.281 L 307.120 417.334 309.784 414.670 L 312.448 412.006 306.205 405.707 C 300.492 399.943, 299.879 398.901, 298.987 393.454 C 297.614 385.069, 297.766 377.097, 299.402 371.659 C 300.173 369.097, 300.662 367, 300.488 367 C 300.314 367, 298.722 369.356, 296.951 372.235 M 167 373.243 C 167 374.075, 167.661 375.303, 168.468 375.973 C 169.275 376.644, 169.838 377.711, 169.718 378.346 C 169.598 378.981, 170.020 379.402, 170.655 379.282 C 171.290 379.162, 172.055 379.701, 172.354 380.481 C 172.738 381.480, 172.397 381.714, 171.199 381.275 C 170.265 380.932, 171.413 382.530, 173.751 384.826 C 177.870 388.870, 179.834 390.158, 178.438 387.900 C 177.961 387.127, 178.389 387.138, 179.879 387.935 C 181.046 388.560, 182 389.531, 182 390.094 C 182 390.657, 181.438 390.814, 180.750 390.442 C 180.063 390.069, 180.707 390.857, 182.183 392.191 C 183.659 393.526, 185.169 395.825, 185.540 397.302 C 185.910 398.778, 186.646 399.719, 187.175 399.392 C 187.704 399.065, 187.886 398.145, 187.580 397.347 C 187.269 396.537, 187.459 396.166, 188.011 396.507 C 188.555 396.843, 189 396.634, 189 396.043 C 189 395.452, 184.949 390.883, 179.997 385.889 C 175.046 380.894, 170.096 375.666, 168.997 374.269 C 167.667 372.578, 167 372.235, 167 373.243 M 254.500 386.250 C 250.100 390.234, 245.164 394.713, 243.532 396.204 C 240.902 398.605, 240.379 398.748, 238.953 397.457 C 238.067 396.656, 236.599 396, 235.690 396 C 233.769 396, 233.136 393.781, 232.696 385.500 C 232.457 380.992, 232.331 381.732, 232.189 388.478 L 232 397.456 224.472 405.028 L 216.945 412.600 219.462 414.964 C 221.954 417.306, 222.001 417.310, 224.225 415.414 C 228.991 411.352, 263 379.752, 263 379.386 C 263 378.616, 262.371 379.123, 254.500 386.250 M 275.500 388 C 278.209 390.750, 280.650 393, 280.925 393 C 281.200 393, 279.209 390.750, 276.500 388 C 273.791 385.250, 271.350 383, 271.075 383 C 270.800 383, 272.791 385.250, 275.500 388 M 245.872 401.750 C 244.629 403.336, 244.664 403.371, 246.250 402.128 C 247.213 401.373, 248 400.585, 248 400.378 C 248 399.555, 247.179 400.084, 245.872 401.750 M 957.564 404.293 C 957.940 405.279, 958.499 405.834, 958.807 405.526 C 959.115 405.219, 958.808 404.412, 958.124 403.733 C 957.136 402.753, 957.022 402.868, 957.564 404.293 M 189.106 408.510 C 189.047 409.065, 190.545 415.156, 192.433 422.044 C 196.124 435.512, 200.817 448.602, 200.930 445.750 C 200.977 444.578, 201.810 444, 203.450 444 C 204.798 444, 206.407 444.788, 207.026 445.750 C 208.333 447.783, 208.715 449.003, 202.917 432.616 C 200.799 426.630, 198.754 421.455, 198.374 421.116 C 197.993 420.777, 197.983 421.338, 198.352 422.361 C 198.855 423.757, 198.644 424.078, 197.511 423.643 C 196.543 423.271, 196 423.650, 196 424.698 C 196 426.190, 194.616 425.726, 194.414 424.167 C 194.366 423.800, 194.063 422.825, 193.741 422 C 193.419 421.175, 192.268 417.575, 191.183 414 C 190.098 410.425, 189.164 407.954, 189.106 408.510 M 196.070 411.083 C 196.109 412.413, 196.548 414.400, 197.047 415.500 C 197.678 416.894, 197.768 416.288, 197.344 413.500 C 196.637 408.857, 195.969 407.589, 196.070 411.083 M 248 418.500 L 248 426 255.500 426 L 263 426 263 418.500 L 263 411 255.500 411 L 248 411 248 418.500 M 266 418.389 L 266 425.777 269.250 426.375 C 272.127 426.904, 280.993 426.341, 281.753 425.580 C 281.911 425.422, 281.742 422.076, 281.377 418.146 L 280.713 411 273.356 411 L 266 411 266 418.389 M 1046.416 413.250 C 1046.498 414.556, 1045.707 416.010, 1044.529 416.715 C 1042.601 417.868, 1042.636 417.931, 1045.220 417.965 C 1047.692 417.997, 1047.927 417.682, 1047.808 414.500 C 1047.735 412.575, 1047.360 411, 1046.975 411 C 1046.589 411, 1046.337 412.012, 1046.416 413.250 M 268 418.500 L 268 425.100 273.750 424.800 L 279.500 424.500 279.500 418.500 L 279.500 412.500 273.750 412.200 L 268 411.900 268 418.500 M 250 419.050 L 250 425.100 255.750 424.800 L 261.500 424.500 261.800 418.750 L 262.100 413 256.050 413 L 250 413 250 419.050 M 306.510 414.016 C 306.856 414.575, 307.557 414.774, 308.069 414.457 C 309.456 413.600, 309.198 413, 307.441 413 C 306.584 413, 306.165 413.457, 306.510 414.016 M 773.195 417.500 C 773.215 419.150, 773.439 419.704, 773.693 418.731 C 773.947 417.758, 773.930 416.408, 773.656 415.731 C 773.382 415.054, 773.175 415.850, 773.195 417.500 M 1216.603 416.833 C 1216.320 417.292, 1216.723 417.667, 1217.500 417.667 C 1218.277 417.667, 1218.680 417.292, 1218.397 416.833 C 1218.114 416.375, 1217.710 416, 1217.500 416 C 1217.290 416, 1216.886 416.375, 1216.603 416.833 M 491.365 418.332 C 491.714 419.339, 492 420.352, 492 420.582 C 492 420.812, 496.725 421, 502.500 421 C 508.275 421, 513.001 420.663, 513.002 420.250 C 513.003 419.837, 508.634 419.646, 503.293 419.824 C 494.846 420.105, 493.395 419.909, 492.156 418.324 C 490.778 416.560, 490.752 416.561, 491.365 418.332 M 906.250 424.706 C 905.013 424.944, 904 425.720, 904 426.430 C 904 427.426, 901.883 427.614, 894.750 427.251 C 885.790 426.796, 885.424 426.863, 883.079 429.387 C 881.748 430.820, 880.923 432.256, 881.245 432.579 C 881.568 432.901, 886.707 432.634, 892.666 431.985 C 898.625 431.336, 904.924 430.860, 906.664 430.928 C 909.098 431.023, 910.308 430.376, 911.914 428.121 C 913.061 426.510, 914 424.923, 914 424.596 C 914 423.950, 909.866 424.009, 906.250 424.706 M 266.706 428.627 C 266.318 429.015, 266 432.633, 266 436.667 L 266 444 274.042 444 L 282.084 444 281.792 436.250 L 281.500 428.500 274.456 428.210 C 270.582 428.051, 267.095 428.239, 266.706 428.627 M 250 436.500 L 250 443.100 255.750 442.800 L 261.500 442.500 261.500 436.500 L 261.500 430.500 255.750 430.200 L 250 429.900 250 436.500 M 268 436.500 L 268 443.100 273.750 442.800 L 279.500 442.500 279.500 436.500 L 279.500 430.500 273.750 430.200 L 268 429.900 268 436.500 M 655.624 432.539 C 654.659 435.053, 654.943 435.702, 656.122 433.675 C 656.706 432.671, 656.973 431.639, 656.715 431.382 C 656.458 431.124, 655.966 431.645, 655.624 432.539 M 732.912 433.033 C 729.289 433.457, 722.764 435.247, 718.412 437.012 C 708.446 441.054, 701.263 442.778, 693.027 443.108 L 686.555 443.366 685.937 440.346 C 685.137 436.435, 684.211 435, 682.488 435 C 681.258 435, 679.021 440.547, 679.006 443.634 C 679.002 444.289, 676.266 445.060, 672.514 445.462 C 668.391 445.903, 665.204 446.854, 663.764 448.073 L 661.500 449.989 665 448.602 C 668.437 447.240, 676.205 446.105, 696.924 443.936 C 705.075 443.083, 709.544 441.968, 717.424 438.819 C 731.292 433.278, 742.367 432.315, 767.927 434.432 C 778.142 435.278, 793.406 436.427, 801.848 436.986 C 810.289 437.545, 817.568 438.233, 818.025 438.515 C 818.481 438.797, 822.375 439.208, 826.677 439.427 C 830.980 439.647, 836.975 440.152, 840 440.549 C 843.025 440.946, 845.272 441.020, 844.994 440.713 C 844.521 440.191, 828.459 437.596, 819.500 436.594 C 813.214 435.891, 802.424 435.082, 791 434.456 C 785.225 434.140, 774.650 433.459, 767.500 432.943 C 752.802 431.882, 742.526 431.909, 732.912 433.033 M 891 433.158 C 881.286 433.972, 880.332 434.243, 878.261 436.769 C 877.030 438.271, 876.456 439.646, 876.986 439.825 C 877.516 440.004, 883.698 439.659, 890.722 439.059 C 902.907 438.017, 903.632 437.830, 906.478 434.984 C 909.282 432.179, 909.332 432, 907.300 432 C 905.854 432, 904.996 432.744, 904.706 434.250 L 904.272 436.500 904.136 434.250 C 904.061 433.012, 903.438 432.062, 902.750 432.139 C 902.063 432.215, 896.775 432.674, 891 433.158 M 643.902 441.750 C 644.905 445.530, 650.077 446.215, 651.830 442.800 L 653.011 440.500 652.438 442.750 C 651.982 444.542, 652.286 445, 653.933 445 C 656.384 445, 656.633 442.776, 654.429 440.571 C 653.433 439.576, 651.084 439, 648.015 439 C 643.223 439, 643.180 439.028, 643.902 441.750 M 723.481 443.037 L 721.911 446.074 731.705 445.787 L 741.500 445.500 741.816 442.750 L 742.133 440 733.592 440 C 725.091 440, 725.044 440.014, 723.481 443.037 M 645.391 448.331 C 645.711 449.524, 645.979 450.837, 645.986 451.250 C 646.015 452.813, 647.741 451.910, 648.852 449.750 L 650.011 447.500 649.438 449.750 C 648.907 451.835, 649.195 452, 653.374 452 C 658.401 452, 659.600 450.990, 658.039 448.073 C 657.165 446.440, 655.947 446.109, 650.897 446.134 C 645.145 446.161, 644.841 446.282, 645.391 448.331 M 208.031 448.500 C 208.031 449.050, 208.467 450.175, 209 451 C 209.533 451.825, 209.969 452.050, 209.969 451.500 C 209.969 450.950, 209.533 449.825, 209 449 C 208.467 448.175, 208.031 447.950, 208.031 448.500 M 838 451.097 C 813.591 452.667, 765.034 454.942, 732.500 456.041 C 680.892 457.784, 662.547 458.672, 674.500 458.849 C 700.931 459.240, 855.993 452.479, 864 450.587 C 866.655 449.959, 850.881 450.269, 838 451.097 M 302.842 456.375 C 289.092 462.030, 281.454 468.301, 276.799 477.756 C 274.099 483.242, 273.576 485.444, 273.561 491.399 C 273.535 501.490, 275.974 507.778, 282.757 515.104 C 285.818 518.410, 289.612 521.782, 291.188 522.597 L 294.053 524.079 290.628 519.289 C 286.162 513.044, 284 505.452, 284 496.013 C 284 479.625, 291.568 466.409, 307.026 455.802 C 310.366 453.511, 309.525 453.626, 302.842 456.375 M 211.279 456.829 C 211.710 458.575, 211.497 459.021, 210.427 458.610 C 209.590 458.289, 209 458.670, 209 459.531 C 209 460.339, 208.538 461, 207.974 461 C 207.352 461, 207.479 462.081, 208.298 463.750 C 209.040 465.262, 209.476 467.246, 209.268 468.157 C 208.820 470.114, 210.780 471.620, 212.081 470.319 C 212.580 469.820, 213.086 468.229, 213.206 466.784 C 213.389 464.566, 213.710 464.310, 215.259 465.139 C 216.821 465.975, 216.697 465.329, 214.427 460.811 C 211.334 454.653, 210.474 453.565, 211.279 456.829 M 322.487 460.739 C 310.253 465.116, 300.131 473.923, 294.742 484.879 C 291.770 490.920, 291.501 492.263, 291.513 500.985 C 291.528 512.043, 293.203 516.256, 300.481 523.534 C 307.719 530.772, 315.521 533.920, 330 535.444 L 335.500 536.022 329.145 532.904 C 321.536 529.171, 316.414 524.137, 312.251 516.301 C 308.283 508.833, 307.494 504.327, 309.006 497.777 C 312.340 483.334, 324.600 472.316, 338.481 471.286 C 346.677 470.678, 354.063 474.350, 358.750 481.363 C 363.253 488.101, 363.304 493.980, 358.894 498.099 C 357.034 499.836, 356.363 501, 357.220 501 C 359.234 501, 362.626 497.139, 364.452 492.768 C 369.017 481.843, 362.088 468.461, 348.762 462.467 C 340.630 458.810, 329.860 458.101, 322.487 460.739 M 291.016 464.148 C 280.507 471.165, 274.870 481.028, 275.136 491.928 C 275.211 494.993, 275.474 496.375, 275.721 495 C 276.262 491.986, 277.878 490.018, 277.657 492.643 C 277.553 493.867, 278.070 494.406, 279.172 494.224 C 280.093 494.072, 281.051 494.746, 281.306 495.724 C 281.560 496.701, 281.820 495.907, 281.884 493.960 C 281.982 490.969, 282.834 486.946, 285.265 478 C 285.489 477.175, 285.483 476.837, 285.253 477.250 C 284.662 478.306, 281.233 478.185, 280.552 477.085 C 280.029 476.238, 284.157 470.448, 286.484 468.765 C 288.254 467.486, 289.237 467.939, 288.554 469.720 C 288.191 470.665, 288.061 471.228, 288.265 470.970 C 288.470 470.711, 290.805 468.137, 293.455 465.250 C 296.105 462.363, 298.038 460, 297.751 460 C 297.463 460, 294.433 461.867, 291.016 464.148 M 326.500 461.446 C 317.154 463.830, 311.850 466.887, 305.052 473.808 C 301.412 477.513, 297.446 482.648, 296.238 485.218 C 293.926 490.137, 291.990 499.713, 293.843 497.064 C 294.682 495.865, 295.111 495.847, 296.447 496.956 C 297.829 498.103, 297.952 498.038, 297.353 496.477 C 296.896 495.287, 297.035 494.904, 297.761 495.352 C 298.366 495.726, 299.145 495.574, 299.492 495.014 C 299.874 494.395, 300.785 494.335, 301.811 494.862 C 302.740 495.339, 304.063 495.528, 304.750 495.282 C 305.517 495.006, 306.009 495.734, 306.024 497.167 C 306.039 498.679, 306.881 497.472, 308.418 493.736 C 309.721 490.566, 311.499 486.888, 312.368 485.561 C 313.555 483.750, 313.643 483.026, 312.724 482.654 C 311.828 482.291, 311.856 482.137, 312.832 482.079 C 313.564 482.036, 316.039 480.479, 318.332 478.621 C 332.599 467.054, 346.582 466.487, 357.142 477.047 C 360.951 480.856, 362.207 481.624, 362.667 480.424 C 363.974 477.020, 358.225 469.388, 351.292 465.325 C 346.873 462.736, 337.435 459.964, 333.500 460.101 C 332.400 460.139, 329.250 460.744, 326.500 461.446 M 564.244 467.250 C 564.469 467.938, 566.194 468.563, 568.077 468.641 C 571.348 468.775, 571.367 468.757, 568.500 468.226 L 565.500 467.671 568.500 466.954 C 571.425 466.255, 571.404 466.234, 567.667 466.118 C 565.010 466.036, 563.959 466.384, 564.244 467.250 M 204 469.500 C 205.375 470.286, 206.950 470.929, 207.500 470.929 C 208.050 470.929, 207.375 470.286, 206 469.500 C 204.625 468.714, 203.050 468.071, 202.500 468.071 C 201.950 468.071, 202.625 468.714, 204 469.500 M 594 470.499 C 597.025 471.230, 599.635 471.694, 599.801 471.530 C 600.418 470.918, 593.605 469.003, 591.101 469.085 C 589.539 469.136, 590.696 469.701, 594 470.499 M 401 471.972 C 401 472.473, 401.420 473.141, 401.933 473.458 C 402.446 473.775, 406.133 478.415, 410.126 483.767 C 414.119 489.120, 418.733 494.771, 420.378 496.324 C 426.518 502.119, 437.002 505.972, 446.677 505.989 C 453.783 506.002, 461.259 502.641, 472.527 494.367 C 478.659 489.865, 481.068 486.894, 477.250 488.541 C 476.288 488.957, 473.250 489.735, 470.500 490.270 C 467.750 490.805, 464.600 491.604, 463.500 492.044 C 456.218 494.959, 444.147 493.063, 431.362 486.996 C 426.488 484.683, 420.925 482.143, 419 481.352 L 415.500 479.914 417.872 481.803 C 420.097 483.575, 420.128 483.737, 418.372 484.411 C 417.342 484.806, 416.325 485.062, 416.112 484.979 C 415.898 484.897, 415.406 485.342, 415.019 485.970 C 414.583 486.674, 412.172 484.458, 408.708 480.171 C 405.624 476.355, 403.323 473.010, 403.594 472.740 C 403.865 472.469, 403.392 471.981, 402.543 471.655 C 401.694 471.329, 401 471.472, 401 471.972 M 543.500 472 C 543.840 472.550, 544.316 473, 544.559 473 C 544.802 473, 545 472.550, 545 472 C 545 471.450, 544.523 471, 543.941 471 C 543.359 471, 543.160 471.450, 543.500 472 M 801.500 474.965 C 784.307 475.476, 783.702 475.562, 788 476.876 C 795.504 479.169, 804.056 479.411, 812.360 477.563 C 816.540 476.633, 820.221 475.451, 820.539 474.936 C 820.858 474.421, 820.754 474.097, 820.309 474.215 C 819.864 474.333, 811.400 474.671, 801.500 474.965 M 839.813 475.683 C 840.534 475.972, 841.397 475.936, 841.729 475.604 C 842.061 475.272, 841.471 475.036, 840.417 475.079 C 839.252 475.127, 839.015 475.364, 839.813 475.683 M 302.655 477.829 C 300.840 479.834, 300.540 481, 301.839 481 C 302.301 481, 303.192 479.875, 303.818 478.500 C 305.173 475.527, 304.887 475.362, 302.655 477.829 M 835.813 476.683 C 836.534 476.972, 837.397 476.936, 837.729 476.604 C 838.061 476.272, 837.471 476.036, 836.417 476.079 C 835.252 476.127, 835.015 476.364, 835.813 476.683 M 582 477.695 C 568.159 479.177, 550.658 484.136, 539.500 489.736 C 519.977 499.536, 499.467 518.370, 490.026 535.167 L 487.851 539.037 494.342 534.499 C 516.781 518.814, 550.849 509.510, 576.374 512.097 C 595.103 513.996, 606.775 517.773, 638.500 532.203 C 684.217 552.998, 708.439 559, 746.635 559 C 781.825 559, 808.775 553.043, 846 537.037 C 873.746 525.106, 902.606 516.706, 925.411 513.922 C 943.795 511.678, 974.872 514.095, 1004.845 520.099 C 1019.693 523.073, 1045.607 523.848, 1056.297 521.637 C 1071.704 518.451, 1087.323 509.665, 1095.341 499.674 C 1100.434 493.327, 1100.733 491.902, 1095.844 497.275 C 1093.244 500.134, 1088.490 503.636, 1084 505.999 C 1079.875 508.171, 1077.175 509.974, 1078 510.005 C 1079.158 510.050, 1079.062 510.395, 1077.582 511.515 C 1076.140 512.606, 1075.327 512.687, 1074.308 511.841 C 1073.562 511.221, 1072.663 511.004, 1072.309 511.357 C 1071.956 511.711, 1072.192 512, 1072.833 512 C 1073.475 512, 1074 512.477, 1074 513.059 C 1074 513.641, 1073.552 513.841, 1073.004 513.502 C 1072.456 513.164, 1071.115 512.715, 1070.024 512.505 C 1067.738 512.064, 1067.720 514.103, 1070 515.264 C 1070.827 515.685, 1070.153 515.777, 1068.500 515.468 C 1066.850 515.161, 1057.400 514.514, 1047.500 514.031 C 1037.600 513.547, 1027.925 512.866, 1026 512.516 C 1022.510 511.881, 1022.507 511.883, 1025 513.404 C 1027.492 514.924, 1027.492 514.930, 1025.250 515.090 C 1024.013 515.178, 1022.438 515.336, 1021.750 515.441 C 1021.063 515.546, 1019.600 515.240, 1018.500 514.761 C 1016.625 513.944, 1016.612 513.980, 1018.279 515.327 C 1019.867 516.608, 1019.887 516.829, 1018.466 517.375 C 1017.590 517.711, 1017.096 518.346, 1017.367 518.786 C 1018.340 520.358, 1011.859 519.995, 1001.764 517.910 C 996.119 516.744, 991.136 515.569, 990.690 515.299 C 990.245 515.029, 990.695 514.164, 991.690 513.377 C 993.427 512.003, 993.423 511.957, 991.604 512.223 C 989.236 512.569, 988.347 510.465, 990.510 509.635 C 991.433 509.280, 991.847 509.439, 991.493 510.011 C 991.157 510.555, 991.809 511, 992.941 511 C 995.188 511, 995.584 512.016, 993.967 513.633 C 993.256 514.344, 993.398 514.667, 994.423 514.667 C 995.242 514.667, 995.703 514.328, 995.447 513.914 C 995.191 513.500, 995.661 512.482, 996.491 511.652 C 997.321 510.822, 998 509.709, 998 509.178 C 998 507.724, 1000.828 506.934, 1003.829 507.550 C 1008.197 508.448, 1000.803 505.301, 992.907 502.903 C 987.641 501.304, 985.690 501.095, 984.074 501.960 C 982.108 503.012, 981.146 505.135, 982.750 504.882 C 985.565 504.437, 986.228 505.021, 984.872 506.750 C 983.621 508.345, 983.659 508.375, 985.292 507.092 C 986.748 505.949, 987.311 505.925, 988.292 506.967 C 989.237 507.971, 989.226 508.350, 988.244 508.710 C 987.553 508.964, 987.242 509.582, 987.553 510.085 C 988.314 511.318, 987.686 511.238, 984.787 509.733 C 983.444 509.036, 982.521 507.937, 982.737 507.290 C 982.962 506.615, 982.251 506.181, 981.064 506.270 C 978.761 506.444, 978.338 507.542, 980.250 508.384 C 980.938 508.687, 979.864 508.684, 977.865 508.378 C 975.865 508.071, 973.985 508.215, 973.687 508.698 C 973.388 509.181, 974.329 509.674, 975.778 509.794 C 977.226 509.914, 978.882 510.517, 979.456 511.135 C 980.221 511.958, 979.698 512.065, 977.500 511.534 C 965.786 508.709, 947.774 505.846, 938.500 505.337 C 925.391 504.617, 913.869 505.952, 898 510.030 C 891.675 511.655, 885.375 513.274, 884 513.628 C 881.943 514.158, 881.722 514.035, 882.750 512.936 C 884.242 511.342, 884.418 509.624, 883 510.500 C 882.450 510.840, 882 510.641, 882 510.059 C 882 509.477, 881.073 509, 879.941 509 C 878.809 509, 878.159 508.552, 878.497 508.004 C 879.526 506.339, 864.371 512.409, 848.500 520.018 C 813.667 536.718, 790.407 544.205, 763 547.539 C 724.249 552.252, 687.840 545.101, 647.647 524.881 C 630.379 516.195, 624.640 513, 626.302 513 C 626.714 513, 630.237 514.605, 634.131 516.566 C 638.026 518.528, 641.863 519.883, 642.658 519.578 C 643.453 519.273, 643.864 519.411, 643.571 519.886 C 641.577 523.112, 688.968 537.983, 712.269 541.443 C 727.743 543.740, 768.966 543.482, 770.452 541.078 C 770.676 540.716, 767.403 540.772, 763.180 541.204 C 753.292 542.214, 737.121 542.004, 736.411 540.856 C 736.109 540.367, 735.518 540.180, 735.097 540.440 C 734.676 540.700, 732.836 541.176, 731.009 541.498 C 727.952 542.037, 727.799 541.945, 729.093 540.350 C 730.269 538.900, 730.273 538.753, 729.112 539.452 C 728.349 539.912, 725.456 540.395, 722.683 540.525 C 718.183 540.737, 717.888 540.630, 719.938 539.533 C 721.915 538.475, 722.002 538.215, 720.565 537.663 C 719.647 537.311, 719.139 537.417, 719.437 537.898 C 720.208 539.146, 715.730 540.130, 714.567 538.967 C 713.944 538.344, 714.184 538, 715.241 538 C 716.144 538, 717.203 537.480, 717.595 536.845 C 717.988 536.211, 717.902 535.929, 717.405 536.220 C 716.907 536.512, 715.600 536.388, 714.500 535.945 C 713.034 535.355, 713.701 535.125, 717 535.084 C 722.855 535.010, 726 535.895, 726 537.617 C 726 538.377, 726.436 539, 726.969 539 C 727.501 539, 727.659 538.274, 727.318 537.388 C 726.799 536.034, 727.209 535.887, 729.868 536.471 C 733.016 537.162, 738.760 537.223, 744.500 536.625 C 746.150 536.454, 749.075 536.169, 751 535.994 C 752.925 535.819, 747.075 535.356, 738 534.965 C 711.157 533.811, 696.448 529.811, 660.040 513.765 C 637.021 503.620, 632.482 501.933, 619 498.509 C 605.239 495.015, 592.289 493.673, 578.500 494.311 C 564.217 494.972, 554.026 496.948, 541.139 501.553 C 535.905 503.424, 531.473 504.806, 531.291 504.624 C 530.714 504.048, 538.390 499.329, 546.591 495.218 C 565.525 485.725, 580.239 482.506, 601.258 483.258 C 622.428 484.014, 636.752 488.352, 665.250 502.635 C 675.143 507.593, 677.160 507.802, 668 502.919 C 664.700 501.160, 662 499.348, 662 498.892 C 662 498.436, 662.753 498.352, 663.674 498.705 C 664.929 499.187, 665.191 498.940, 664.721 497.717 C 663.968 495.752, 664.375 495.893, 678.278 502.390 C 689.428 507.602, 694.253 509.104, 709 511.958 C 722.716 514.613, 739.845 516.043, 750.208 515.399 C 780.940 513.491, 802.617 506.775, 829.039 490.976 C 842.299 483.048, 847.055 481.080, 855.500 480.024 L 861.500 479.274 856 479.161 C 848.462 479.007, 844.026 480.174, 827.634 486.622 C 819.860 489.679, 810.684 493.281, 807.242 494.625 C 795.941 499.040, 766 503.860, 766 501.265 C 766 500.719, 768.136 499.979, 770.746 499.621 C 778.363 498.577, 791.015 494.266, 797.500 490.505 L 803.500 487.025 796.493 487.013 C 792.224 487.005, 786.079 486.063, 780.766 484.601 C 763.050 479.727, 753.610 480.435, 734.788 488.053 C 721.259 493.528, 717.249 494.726, 706.500 496.504 C 690.129 499.211, 679.156 498.173, 658.108 491.925 C 651.503 489.965, 647.488 489.211, 647.088 489.857 C 646.260 491.198, 642.688 490.723, 636.256 488.416 C 632.331 487.008, 631.141 486.132, 631.522 484.931 C 632.089 483.143, 627.748 481.475, 619.629 480.363 C 616.061 479.874, 614.984 480.046, 614.930 481.114 C 614.890 481.891, 614.482 481.621, 614 480.500 C 613.527 479.400, 613.109 479.063, 613.070 479.750 C 613.032 480.438, 612.052 481, 610.893 481 C 609.516 481, 608.969 480.524, 609.314 479.625 C 609.696 478.630, 608.583 478.078, 605.281 477.625 C 600.618 476.986, 588.275 477.023, 582 477.695 M 224 479.432 C 224 479.890, 224.937 481.779, 226.081 483.632 C 227.743 486.320, 227.844 486.877, 226.581 486.393 C 225.508 485.981, 225 486.352, 225 487.548 C 225 489.187, 224.847 489.177, 222.811 487.405 L 220.622 485.500 222.764 488.589 C 223.943 490.288, 225.715 492.305, 226.703 493.072 C 228.254 494.275, 228.238 494.159, 226.589 492.227 C 225.539 490.995, 225.001 489.666, 225.394 489.273 C 225.787 488.880, 226.527 489.220, 227.039 490.029 C 227.853 491.316, 227.973 491.313, 228 490 C 228.027 488.667, 228.138 488.667, 229 490 C 229.533 490.825, 229.976 491.111, 229.985 490.635 C 229.993 490.159, 231.194 490.552, 232.654 491.509 C 234.784 492.905, 234.358 491.991, 230.492 486.874 C 224.580 479.049, 224 478.384, 224 479.432 M 446.391 480.646 C 447.981 481.507, 451.968 484.189, 455.251 486.606 C 458.534 489.023, 461.711 491, 462.311 491 C 462.911 491, 461.575 489.762, 459.341 488.250 C 447.592 480.293, 445.521 479.003, 444.554 479.040 C 443.974 479.062, 444.801 479.785, 446.391 480.646 M 338.086 483.717 C 335.658 484.575, 331.751 487.196, 329.404 489.543 C 309.955 508.992, 338.400 536.648, 372.043 530.998 C 384.779 528.860, 409.105 519.348, 416.500 513.614 C 419.441 511.334, 418.041 511.646, 410.026 515.057 C 398.308 520.043, 387.963 522.705, 374.058 524.312 C 367.343 525.088, 355.418 523.245, 350.268 520.636 C 343.226 517.067, 336.509 509.292, 334.987 502.946 C 333.949 498.618, 334.016 497.247, 335.449 493.496 C 336.370 491.082, 338.771 487.508, 340.783 485.554 C 344.824 481.629, 344.541 481.437, 338.086 483.717 M 855.500 483.008 C 853.300 483.470, 849.700 484.604, 847.500 485.528 C 842.688 487.547, 821.824 500.157, 822.378 500.711 C 822.593 500.926, 826.517 500.145, 831.099 498.975 C 835.681 497.805, 842.596 496.612, 846.465 496.324 C 851.520 495.947, 858.210 494.139, 870.235 489.900 C 879.439 486.655, 887.539 483.993, 888.235 483.985 C 888.931 483.976, 890.019 483.639, 890.653 483.235 C 892.284 482.196, 860.342 481.990, 855.500 483.008 M 754.275 485 C 754.405 486.726, 755.142 487, 759.654 487 C 762.529 487, 765.164 486.543, 765.510 485.984 C 765.905 485.344, 764.355 485.017, 761.319 485.100 C 754.888 485.275, 754.235 485.140, 756 484 C 757.293 483.164, 757.267 483.029, 755.812 483.015 C 754.736 483.006, 754.179 483.725, 754.275 485 M 309.980 485.524 C 309.284 486.362, 308.968 487.301, 309.276 487.610 C 309.585 487.919, 310.340 487.233, 310.954 486.086 C 312.264 483.638, 311.778 483.358, 309.980 485.524 M 501.150 485.250 C 500.462 485.938, 499.472 486.556, 498.950 486.625 C 497.012 486.880, 496.949 487.029, 498.204 488.373 C 499.283 489.529, 499.764 489.426, 501.243 487.720 C 503.763 484.814, 503.684 482.716, 501.150 485.250 M 505.500 486 C 505.840 486.550, 506.316 487, 506.559 487 C 506.802 487, 507 486.550, 507 486 C 507 485.450, 506.523 485, 505.941 485 C 505.359 485, 505.160 485.450, 505.500 486 M 766.507 486.989 C 766.163 487.545, 763.986 488, 761.669 488 C 756.691 488, 748.409 490.342, 734 495.825 C 722.307 500.274, 710.780 502.956, 702.792 503.086 C 697.932 503.165, 697.745 503.251, 700.500 504.139 C 702.150 504.670, 709.575 505.171, 717 505.250 C 732.545 505.417, 739.992 504.075, 758.253 497.816 C 764.717 495.601, 770.703 494.056, 771.555 494.383 C 772.407 494.710, 772.849 494.565, 772.537 494.061 C 772.226 493.556, 772.877 492.856, 773.985 492.505 C 776.584 491.680, 776.594 490, 774 490 C 772.900 490, 772 489.550, 772 489 C 772 488.450, 772.477 488, 773.059 488 C 773.641 488, 773.901 487.648, 773.635 487.219 C 772.898 486.026, 767.215 485.843, 766.507 486.989 M 415 487.845 C 415 488.310, 415.970 489.547, 417.155 490.595 L 419.310 492.500 417.540 489.750 C 415.715 486.914, 415 486.378, 415 487.845 M 767.750 488.662 C 768.438 488.940, 769.563 488.940, 770.250 488.662 C 770.938 488.385, 770.375 488.158, 769 488.158 C 767.625 488.158, 767.063 488.385, 767.750 488.662 M 141.813 491.683 C 142.534 491.972, 143.397 491.936, 143.729 491.604 C 144.061 491.272, 143.471 491.036, 142.417 491.079 C 141.252 491.127, 141.015 491.364, 141.813 491.683 M 945.269 491.693 C 946.242 491.947, 947.592 491.930, 948.269 491.656 C 948.946 491.382, 948.150 491.175, 946.500 491.195 C 944.850 491.215, 944.296 491.439, 945.269 491.693 M 130 493.383 C 130 494.456, 132.975 500, 133.551 500 C 133.826 500, 133.308 498.538, 132.399 496.750 C 130.542 493.100, 130 492.339, 130 493.383 M 148.813 493.683 C 149.534 493.972, 150.397 493.936, 150.729 493.604 C 151.061 493.272, 150.471 493.036, 149.417 493.079 C 148.252 493.127, 148.015 493.364, 148.813 493.683 M 157.750 495.662 C 158.438 495.940, 159.563 495.940, 160.250 495.662 C 160.938 495.385, 160.375 495.158, 159 495.158 C 157.625 495.158, 157.063 495.385, 157.750 495.662 M 475.250 497.031 C 474.012 497.529, 473 498.175, 473 498.468 C 473 499.438, 474.592 499.020, 476.559 497.532 C 478.771 495.858, 478.462 495.740, 475.250 497.031 M 500.983 498.407 C 481.298 508.391, 458.448 520.945, 453.351 524.576 C 446.776 529.260, 442.491 534.527, 436.627 545.132 C 433.331 551.092, 426.717 558.339, 421.446 561.764 C 417.881 564.081, 431.740 562.071, 441.446 558.863 C 459.341 552.949, 468.688 544.894, 481.454 524.384 C 490.663 509.588, 493.260 506.418, 500.331 501.338 C 503.174 499.295, 505.688 497.483, 505.917 497.312 C 506.146 497.140, 506.138 496.805, 505.900 496.567 C 505.662 496.328, 503.449 497.156, 500.983 498.407 M 332.158 502 C 332.158 503.375, 332.385 503.938, 332.662 503.250 C 332.940 502.563, 332.940 501.438, 332.662 500.750 C 332.385 500.063, 332.158 500.625, 332.158 502 M 247.703 505.402 C 248.691 506.723, 249.649 507.662, 249.831 507.488 C 250.455 506.891, 247.930 503, 246.918 503 C 246.362 503, 246.715 504.081, 247.703 505.402 M 239 507.313 C 239 507.485, 240.463 508.948, 242.250 510.563 L 245.500 513.500 242.563 510.250 C 239.825 507.221, 239 506.540, 239 507.313 M 685.500 512.472 C 691.550 515.500, 696.950 517.962, 697.500 517.943 C 698.050 517.923, 696.393 516.810, 693.819 515.469 C 691.244 514.129, 688.809 512.462, 688.408 511.766 C 688.007 511.070, 688.036 510.822, 688.471 511.215 C 688.907 511.608, 690.076 511.494, 691.071 510.962 C 692.251 510.331, 693.094 510.343, 693.498 510.997 C 693.839 511.549, 695.329 511.967, 696.809 511.927 C 698.949 511.869, 698.476 511.489, 694.500 510.073 C 685.097 506.725, 684.646 506.635, 685.260 508.234 C 685.719 509.430, 685.151 509.566, 682.161 508.975 C 680.147 508.576, 677.600 507.961, 676.500 507.608 C 675.400 507.254, 679.450 509.443, 685.500 512.472 M 487.872 509.750 C 486.629 511.336, 486.664 511.371, 488.250 510.128 C 489.916 508.821, 490.445 508, 489.622 508 C 489.415 508, 488.627 508.788, 487.872 509.750 M 251 509.378 C 251 509.585, 251.787 510.373, 252.750 511.128 C 254.336 512.371, 254.371 512.336, 253.128 510.750 C 251.821 509.084, 251 508.555, 251 509.378 M 999.700 510.341 C 999.417 511.078, 999.537 512.251, 999.968 512.947 C 1000.468 513.757, 1000.750 513.274, 1000.750 511.607 C 1000.750 508.697, 1000.463 508.351, 999.700 510.341 M 650.500 512 C 650.840 512.550, 651.316 513, 651.559 513 C 651.802 513, 652 512.550, 652 512 C 652 511.450, 651.523 511, 650.941 511 C 650.359 511, 650.160 511.450, 650.500 512 M 1007.560 512.098 C 1007.820 512.518, 1007.575 513.144, 1007.016 513.490 C 1006.457 513.835, 1006.029 514.879, 1006.063 515.809 C 1006.109 517.034, 1006.376 516.880, 1007.031 515.250 C 1007.529 514.013, 1008.400 513, 1008.968 513 C 1009.535 513, 1010 512.625, 1010 512.167 C 1010 511.708, 1009.345 511.333, 1008.544 511.333 C 1007.743 511.333, 1007.301 511.677, 1007.560 512.098 M 655 514 C 655.825 514.533, 656.950 514.969, 657.500 514.969 C 658.050 514.969, 657.825 514.533, 657 514 C 656.175 513.467, 655.050 513.031, 654.500 513.031 C 653.950 513.031, 654.175 513.467, 655 514 M 792.813 515.683 C 793.534 515.972, 794.397 515.936, 794.729 515.604 C 795.061 515.272, 794.471 515.036, 793.417 515.079 C 792.252 515.127, 792.015 515.364, 792.813 515.683 M 1001 515.969 C 1001 516.501, 1001.675 516.678, 1002.500 516.362 C 1003.325 516.045, 1004 515.609, 1004 515.393 C 1004 515.177, 1003.325 515, 1002.500 515 C 1001.675 515, 1001 515.436, 1001 515.969 M 639.565 516.895 C 639.260 517.388, 639.661 518.040, 640.455 518.344 C 641.418 518.714, 641.713 518.416, 641.342 517.449 C 640.697 515.769, 640.331 515.655, 639.565 516.895 M 787.269 516.693 C 788.242 516.947, 789.592 516.930, 790.269 516.656 C 790.946 516.382, 790.150 516.175, 788.500 516.195 C 786.850 516.215, 786.296 516.439, 787.269 516.693 M 726.500 518.148 C 727.894 519.014, 734.716 519.452, 749 519.594 L 769.500 519.797 749.500 519.062 C 738.500 518.659, 728.375 518.008, 727 517.616 C 724.687 516.958, 724.650 516.998, 726.500 518.148 M 780.250 517.689 C 781.212 517.941, 782.788 517.941, 783.750 517.689 C 784.712 517.438, 783.925 517.232, 782 517.232 C 780.075 517.232, 779.288 517.438, 780.250 517.689 M 771.750 518.706 C 772.987 518.944, 775.013 518.944, 776.250 518.706 C 777.487 518.467, 776.475 518.272, 774 518.272 C 771.525 518.272, 770.513 518.467, 771.750 518.706 M 1020.500 520 C 1020.840 520.550, 1021.316 521, 1021.559 521 C 1021.802 521, 1022 520.550, 1022 520 C 1022 519.450, 1021.523 519, 1020.941 519 C 1020.359 519, 1020.160 519.450, 1020.500 520 M 547.818 521.498 C 537.828 523.179, 525.501 527.250, 515.500 532.171 C 507.324 536.194, 491.653 545.987, 492.322 546.655 C 492.526 546.859, 495.180 545.926, 498.221 544.581 C 505.860 541.203, 521.972 536.292, 531.225 534.521 C 556.468 529.691, 581.943 532.665, 603.495 542.956 C 611.523 546.789, 623.266 553.926, 621.624 553.974 C 621.142 553.988, 616.699 552.380, 611.750 550.400 C 582.306 538.620, 550.061 536.806, 524 545.463 C 519.823 546.851, 518.051 547.745, 520 547.481 C 531.451 545.931, 549.269 545.884, 560.542 547.375 C 581.852 550.192, 597.254 555.562, 633.500 572.815 C 643.950 577.789, 657.053 583.430, 662.618 585.350 C 682.654 592.263, 712.288 597.151, 732.804 596.927 L 739.500 596.854 728.219 594.003 C 706.270 588.455, 688.322 579.999, 663.473 563.498 C 649.513 554.227, 644.500 551.763, 646.638 555.224 C 647.048 555.887, 646.841 556.020, 646.106 555.565 C 645.236 555.028, 645.202 554.462, 645.983 553.520 C 646.806 552.529, 646.163 551.517, 643.282 549.272 C 630.660 539.439, 613.254 530.057, 598.400 525.080 C 583.777 520.181, 563.975 518.779, 547.818 521.498 M 1032.500 521.005 C 1031.063 521.619, 1032.103 521.879, 1036.191 521.930 C 1039.321 521.968, 1042.088 521.663, 1042.339 521.250 C 1042.990 520.182, 1034.897 519.981, 1032.500 521.005 M 459.033 533.388 C 452.362 539.611, 443.817 546.682, 440.044 549.101 C 436.272 551.521, 432.731 554.222, 432.176 555.104 C 431.267 556.547, 431.533 556.580, 434.833 555.431 C 437.191 554.611, 438.854 554.499, 439.492 555.119 C 440.746 556.338, 438.149 558.180, 435.921 557.651 C 435.053 557.445, 433.504 557.889, 432.480 558.638 C 430.823 559.850, 430.804 560, 432.309 560 C 433.239 560, 434 559.523, 434 558.941 C 434 558.359, 434.456 558.164, 435.013 558.508 C 436.590 559.483, 446.912 556.159, 453 552.717 C 459.940 548.793, 469.141 540.132, 473.946 533 C 479.227 525.162, 479.244 525.123, 477.246 525.646 C 476.280 525.898, 474.516 525.198, 473.327 524.090 L 471.163 522.074 459.033 533.388 M 338 523.393 C 338 523.609, 338.698 524.054, 339.552 524.382 C 340.442 524.723, 340.843 524.555, 340.493 523.989 C 339.906 523.038, 338 522.583, 338 523.393 M 718.016 524.988 C 725.048 527.268, 740.201 529.801, 750.500 530.418 C 757.373 530.830, 757.725 530.780, 753 530.067 C 749.975 529.610, 744.800 528.908, 741.500 528.507 C 738.200 528.106, 735.190 527.593, 734.812 527.368 C 734.433 527.143, 732.183 526.706, 729.812 526.398 C 727.440 526.089, 722.960 525.198, 719.856 524.418 C 712.222 522.500, 711.261 522.798, 718.016 524.988 M 270.226 525.574 C 271.176 526.568, 272.227 527.107, 272.562 526.771 C 272.897 526.436, 272.120 525.623, 270.836 524.964 C 268.603 523.819, 268.576 523.846, 270.226 525.574 M 681.756 525.664 C 682.447 525.943, 682.715 526.652, 682.352 527.240 C 681.980 527.842, 682.159 528.020, 682.762 527.647 C 683.350 527.283, 685.107 527.514, 686.666 528.159 C 688.225 528.804, 689.837 529.370, 690.250 529.416 C 691.519 529.558, 691.061 531.475, 689.741 531.547 C 687.651 531.661, 685 533.157, 685 534.224 C 685 534.779, 685.900 534.998, 687 534.710 C 688.100 534.423, 689 534.644, 689 535.202 C 689 535.794, 690.077 535.947, 691.584 535.568 C 693.259 535.148, 693.942 535.285, 693.525 535.960 C 692.297 537.947, 695.517 536.983, 698.406 534.499 C 700.004 533.124, 701.804 531.975, 702.406 531.944 C 703.007 531.914, 698.775 530.344, 693 528.455 C 687.225 526.567, 682.050 525.052, 681.500 525.090 C 680.950 525.127, 681.065 525.386, 681.756 525.664 M 825 527 C 824.175 527.533, 823.950 527.969, 824.500 527.969 C 825.050 527.969, 826.175 527.533, 827 527 C 827.825 526.467, 828.050 526.031, 827.500 526.031 C 826.950 526.031, 825.825 526.467, 825 527 M 814.500 530.464 C 810.638 532.232, 812.434 532.258, 817 530.500 C 818.925 529.759, 819.825 529.138, 819 529.121 C 818.175 529.104, 816.150 529.708, 814.500 530.464 M 953 531.080 C 948.875 531.527, 943.700 532.315, 941.500 532.830 C 937.623 533.737, 937.684 533.763, 943.500 533.656 C 951.297 533.512, 960.093 534.330, 959.200 535.116 C 958.815 535.455, 955.456 536.536, 951.736 537.519 C 942.018 540.084, 944.025 540.342, 955.026 537.941 C 960.182 536.816, 969.372 535.255, 975.450 534.471 L 986.500 533.047 976.844 533.491 C 968.629 533.868, 967.097 533.694, 966.571 532.326 C 966.033 530.923, 966.174 530.895, 967.669 532.109 C 968.696 532.942, 969.093 533.015, 968.658 532.291 C 968.120 531.394, 970.072 530.995, 976.216 530.745 C 982.346 530.495, 981.379 530.389, 972.500 530.337 C 965.900 530.298, 957.125 530.632, 953 531.080 M 964 531.941 C 964 532.459, 964.445 533.157, 964.989 533.493 C 965.555 533.843, 965.723 533.442, 965.382 532.552 C 964.717 530.820, 964 530.503, 964 531.941 M 989 531.958 C 987.233 532.554, 989.024 532.830, 995.103 532.900 C 999.835 532.955, 1006.585 533.210, 1010.103 533.466 C 1015.693 533.874, 1015.932 533.826, 1012 533.089 C 1004.560 531.694, 991.667 531.060, 989 531.958 M 795.500 535.527 C 788.350 537.342, 783.186 538.866, 784.025 538.914 C 785.798 539.014, 810.175 533.158, 810.868 532.466 C 811.751 531.582, 808.456 532.239, 795.500 535.527 M 961 533.393 C 961 533.609, 961.698 534.054, 962.552 534.382 C 963.442 534.723, 963.843 534.555, 963.493 533.989 C 962.906 533.038, 961 532.583, 961 533.393 M 932.750 534.662 C 933.438 534.940, 934.563 534.940, 935.250 534.662 C 935.938 534.385, 935.375 534.158, 934 534.158 C 932.625 534.158, 932.063 534.385, 932.750 534.662 M 927.813 535.683 C 928.534 535.972, 929.397 535.936, 929.729 535.604 C 930.061 535.272, 929.471 535.036, 928.417 535.079 C 927.252 535.127, 927.015 535.364, 927.813 535.683 M 456.395 538.510 C 454.905 539.890, 453.891 541.225, 454.141 541.475 C 454.601 541.934, 460 537.312, 460 536.460 C 460 535.517, 459.028 536.069, 456.395 538.510 M 277 537.393 C 277 537.609, 277.698 538.054, 278.552 538.382 C 279.442 538.723, 279.843 538.555, 279.493 537.989 C 278.906 537.038, 277 536.583, 277 537.393 M 911 539.969 C 906.325 541.542, 900.925 543.556, 899 544.445 L 895.500 546.062 899 545.415 C 900.925 545.060, 903.057 544.321, 903.737 543.773 C 904.418 543.225, 905.655 543.037, 906.487 543.357 C 907.319 543.676, 908 543.501, 908 542.969 C 908 542.436, 909.050 542, 910.333 542 C 911.617 542, 913.004 541.663, 913.416 541.250 C 913.829 540.837, 916.041 539.738, 918.333 538.806 C 924.989 536.100, 920.286 536.846, 911 539.969 M 281 539.393 C 281 539.609, 281.698 540.054, 282.552 540.382 C 283.442 540.723, 283.843 540.555, 283.493 539.989 C 282.906 539.038, 281 538.583, 281 539.393 M 777.750 539.662 C 778.438 539.940, 779.563 539.940, 780.250 539.662 C 780.938 539.385, 780.375 539.158, 779 539.158 C 777.625 539.158, 777.063 539.385, 777.750 539.662 M 772.750 540.662 C 773.438 540.940, 774.563 540.940, 775.250 540.662 C 775.938 540.385, 775.375 540.158, 774 540.158 C 772.625 540.158, 772.063 540.385, 772.750 540.662 M 460.729 542.092 C 459.755 542.659, 459.195 543.506, 459.484 543.974 C 460.093 544.960, 458.049 544.787, 456.319 543.706 C 454.938 542.842, 454.343 543.719, 454.434 546.484 C 454.470 547.575, 455.175 548.597, 456 548.756 C 457.613 549.067, 465 543.462, 465 541.927 C 465 540.716, 462.957 540.795, 460.729 542.092 M 928.500 544.671 C 923 546.596, 917.746 548.229, 916.823 548.300 C 915.901 548.371, 915.306 548.686, 915.500 549 C 915.694 549.315, 904.228 555.406, 890.020 562.536 C 875.811 569.666, 864.356 575.674, 864.564 575.887 C 864.771 576.100, 877.217 570.139, 892.221 562.640 C 907.224 555.142, 924.450 547.228, 930.500 545.054 C 936.550 542.880, 940.825 541.117, 940 541.136 C 939.175 541.155, 934 542.746, 928.500 544.671 M 450.681 543.800 C 449.157 545.484, 449.202 545.600, 451.380 545.600 C 453.130 545.600, 453.591 545.153, 453.237 543.800 C 452.979 542.810, 452.664 542, 452.538 542 C 452.413 542, 451.577 542.810, 450.681 543.800 M 879 553 C 878.099 553.582, 877.975 553.975, 878.691 553.985 C 879.346 553.993, 880.160 553.550, 880.500 553 C 881.267 551.758, 880.921 551.758, 879 553 M 865.500 558.972 C 861.100 561.092, 857.846 562.866, 858.270 562.913 C 859.530 563.055, 870.727 558.305, 873.177 556.589 C 876.907 553.976, 873.993 554.881, 865.500 558.972 M 679 560.532 C 684.871 564.011, 697.718 570.463, 696.741 569.441 C 696.323 569.005, 693.398 567.146, 690.241 565.310 C 685.571 562.595, 685.060 562.065, 687.500 562.470 C 689.150 562.743, 687.800 562.064, 684.500 560.960 C 674.933 557.759, 674.228 557.704, 679 560.532 M 654 559.924 C 654 560.398, 654.675 561.045, 655.500 561.362 C 656.325 561.678, 657 561.549, 657 561.076 C 657 560.602, 656.325 559.955, 655.500 559.638 C 654.675 559.322, 654 559.451, 654 559.924 M 744.784 570.738 C 747.689 570.941, 752.189 570.939, 754.784 570.734 C 757.378 570.528, 755 570.363, 749.500 570.365 C 744 570.368, 741.878 570.536, 744.784 570.738 M 827.500 573.535 C 822 575.364, 818.400 576.890, 819.500 576.926 C 821.119 576.978, 829.843 574.205, 839 570.728 C 840.333 570.221, 840.333 570.161, 839 570.183 C 838.175 570.197, 833 571.705, 827.500 573.535 M 706 574.500 C 707.375 575.286, 708.950 575.929, 709.500 575.929 C 710.050 575.929, 709.375 575.286, 708 574.500 C 706.625 573.714, 705.050 573.071, 704.500 573.071 C 703.950 573.071, 704.625 573.714, 706 574.500 M 712 577 C 712.825 577.533, 713.950 577.969, 714.500 577.969 C 715.050 577.969, 714.825 577.533, 714 577 C 713.175 576.467, 712.050 576.031, 711.500 576.031 C 710.950 576.031, 711.175 576.467, 712 577 M 859 577.206 C 857.625 577.800, 850.425 580.265, 843 582.683 C 835.575 585.101, 831.245 586.806, 833.378 586.471 C 839.447 585.517, 865.715 576.203, 862.500 576.145 C 861.950 576.135, 860.375 576.613, 859 577.206 M 716 578.417 C 716 579.345, 738.145 586.101, 747.360 587.985 C 761.968 590.970, 762.413 590.285, 748 587.001 C 741.125 585.434, 731.351 582.768, 726.279 581.076 C 716.787 577.910, 716 577.706, 716 578.417 M 826.813 587.683 C 827.534 587.972, 828.397 587.936, 828.729 587.604 C 829.061 587.272, 828.471 587.036, 827.417 587.079 C 826.252 587.127, 826.015 587.364, 826.813 587.683 M 681.417 589.134 C 681.123 589.610, 682.259 590, 683.941 590 C 685.623 590, 687 589.827, 687 589.617 C 687 588.768, 681.915 588.329, 681.417 589.134 M 821.750 588.662 C 822.438 588.940, 823.563 588.940, 824.250 588.662 C 824.938 588.385, 824.375 588.158, 823 588.158 C 821.625 588.158, 821.063 588.385, 821.750 588.662 M 816.269 589.693 C 817.242 589.947, 818.592 589.930, 819.269 589.656 C 819.946 589.382, 819.150 589.175, 817.500 589.195 C 815.850 589.215, 815.296 589.439, 816.269 589.693 M 763.269 590.693 C 764.242 590.947, 765.592 590.930, 766.269 590.656 C 766.946 590.382, 766.150 590.175, 764.500 590.195 C 762.850 590.215, 762.296 590.439, 763.269 590.693 M 796.250 590.746 C 790.612 590.924, 786 591.414, 786 591.834 C 786 592.740, 801.370 592.201, 808.500 591.045 C 813.885 590.171, 814.187 590.179, 796.250 590.746 M 772.750 591.723 C 774.538 591.945, 777.462 591.945, 779.250 591.723 C 781.038 591.502, 779.575 591.320, 776 591.320 C 772.425 591.320, 770.962 591.502, 772.750 591.723" />
</svg>