<svg xmlns="http://www.w3.org/2000/svg" width="1367" height="768" viewBox="0 0 1367 768" version="1.1">
	<path fill="black" d="M 784.369 124.683 C 784.028 125.682, 771.372 155.975, 756.244 192 C 711.533 298.477, 674.544 386.986, 671.526 394.719 C 669.976 398.689, 668.370 401.729, 667.957 401.473 C 667.294 401.063, 651.642 379.499, 649.644 376.242 C 649.155 375.446, 651.415 371.590, 655.797 365.742 C 671.305 345.047, 679.056 333.656, 678.208 332.808 C 677.721 332.321, 672.871 332.053, 667.430 332.212 L 657.535 332.500 651.018 341.138 C 629.902 369.121, 630.004 369, 627.494 369 L 625.045 369 624.773 350.750 L 624.500 332.500 614.240 332.215 L 603.979 331.930 604.240 376.715 L 604.500 421.500 614.500 421.500 L 624.500 421.500 624.500 404.249 L 624.500 386.999 629.027 386.999 L 633.553 387 642.433 399.250 C 647.316 405.988, 653.056 413.863, 655.188 416.750 L 659.065 422 670.032 422 C 676.389 422, 681 421.596, 681 421.038 C 681 420.509, 678.358 416.300, 675.129 411.684 C 671.264 406.160, 669.522 402.815, 670.032 401.896 C 670.458 401.128, 683.854 369.225, 699.801 331 C 715.748 292.775, 734.970 246.875, 742.518 229 C 755.192 198.986, 766.801 171.159, 769.963 163.218 C 770.681 161.413, 771.435 160.101, 771.637 160.304 C 771.839 160.506, 769.261 168.283, 765.907 177.586 C 762.554 186.889, 757.429 201.475, 754.518 210 C 751.607 218.525, 747.619 230, 745.657 235.500 C 739.290 253.343, 699.393 368.968, 693.035 388 C 689.636 398.175, 686.189 407.533, 685.375 408.796 C 684.560 410.058, 684.173 411.971, 684.514 413.046 C 685.265 415.409, 683.943 415.381, 725.131 413.913 L 755.762 412.822 761.360 416.538 C 765.712 419.428, 767.091 420.970, 767.560 423.469 C 768.461 428.273, 767.748 432.553, 766.105 432.202 C 765.338 432.037, 758.557 431.903, 751.038 431.903 C 738.223 431.903, 727.022 433.015, 721.775 434.808 C 720.524 435.235, 712.750 435.726, 704.500 435.898 C 696.250 436.070, 688.825 436.623, 688 437.128 C 687.067 437.699, 689.997 437.800, 695.750 437.394 C 704.648 436.767, 705 436.821, 705 438.812 C 705 441.598, 704.696 441.715, 695.309 442.533 L 687.137 443.246 686.442 439.543 C 685.669 435.421, 683.677 434.096, 680.881 435.842 C 679.743 436.553, 674.372 437, 666.978 437 C 655.556 437, 654.981 436.904, 655.922 435.146 C 658.229 430.836, 660.901 423, 660.064 423 C 659.565 423, 657.884 426.144, 656.329 429.988 L 653.500 436.975 647.750 436.988 C 641.299 437.002, 641.452 436.724, 643.212 445.250 C 644.062 449.365, 644.107 451.326, 643.362 451.810 C 640.549 453.637, 637.757 463.535, 638.710 468.302 C 639.114 470.321, 640.250 471.636, 642.397 472.571 C 644.104 473.314, 644.840 473.939, 644.034 473.961 C 643.227 473.982, 636.400 474.502, 628.863 475.116 L 615.159 476.232 607.713 472.697 C 591.903 465.193, 577.661 462.676, 560 464.265 C 544.287 465.678, 523.501 471.919, 504.960 480.790 C 497.566 484.328, 477.255 495.299, 473 498.053 C 472.175 498.587, 469.361 500.409, 466.746 502.101 C 464.131 503.793, 462.242 505.582, 462.548 506.077 C 462.854 506.572, 462.332 506.681, 461.388 506.319 C 460.132 505.836, 459.891 506.015, 460.490 506.985 C 461.010 507.826, 460.921 508.069, 460.245 507.651 C 458.736 506.719, 455.881 507.999, 456.660 509.259 C 457.039 509.872, 456.829 510.012, 456.155 509.595 C 455.520 509.203, 455 509.247, 455 509.693 C 455 510.139, 453.087 511.481, 450.750 512.676 C 446.203 515, 442 516.435, 442 515.663 C 442 515.124, 452.490 508.931, 455.476 507.707 C 456.768 507.178, 457.059 506.654, 456.316 506.195 C 455.652 505.785, 458.363 503.711, 462.840 501.204 C 470.786 496.755, 480.945 488.645, 479.904 487.582 C 479.575 487.248, 477.677 487.655, 475.686 488.487 C 473.694 489.319, 469.844 490, 467.131 490 C 462.866 490, 461.406 489.409, 456.349 485.632 C 444.723 476.949, 438.456 475.029, 421.692 475.012 C 410.912 475.001, 409.488 474.778, 405.323 472.453 C 399.989 469.475, 398.760 469.934, 401.808 473.766 C 403.004 475.270, 406.124 479.392, 408.741 482.926 C 416.206 493.007, 421.547 498.436, 426.831 501.312 C 433.753 505.079, 443.113 507.279, 449.341 506.602 C 454.112 506.083, 452.932 506.816, 433.669 516.344 C 406.540 529.762, 386.577 537.133, 365 541.701 C 358.470 543.083, 352.211 543.484, 338 543.429 C 321.390 543.365, 318.520 543.094, 309.911 540.778 C 292.351 536.052, 268.486 523.070, 257.563 512.300 C 250.541 505.378, 247.647 499.049, 247.593 490.500 C 247.515 478.286, 251.970 472.710, 269.192 463.466 C 283.035 456.034, 289.860 449.607, 294.677 439.466 C 297.809 432.869, 298.343 430.654, 298.721 422.683 L 299.156 413.500 282.586 398.503 C 273.473 390.254, 265.588 383.363, 265.065 383.188 C 264.542 383.014, 260.826 385.980, 256.807 389.780 C 252.788 393.580, 245.113 400.635, 239.750 405.457 L 230 414.225 229.823 426.363 C 229.444 452.371, 230.735 470.525, 233.835 482.750 C 234.847 486.738, 235.536 490, 235.368 490 C 234.405 490, 226.462 477.947, 221.074 468.310 C 209.773 448.097, 199.924 420.153, 198.371 403.900 L 197.741 397.299 205.120 392.140 C 216.876 383.922, 221.412 376.390, 222.607 363.106 C 223.348 354.868, 221.433 346.233, 216.470 335.427 C 214.467 331.067, 211.968 325.347, 210.915 322.715 C 209.004 317.936, 209.004 317.932, 211.022 319.012 C 212.132 319.606, 213.482 319.820, 214.021 319.487 C 215.287 318.705, 215.296 314.268, 214.032 313.833 C 213.464 313.638, 213.420 312.926, 213.927 312.110 C 214.641 310.962, 215.634 311.126, 219.645 313.056 C 224.682 315.480, 231.731 322.164, 248.090 340.030 C 257.787 350.619, 273.414 363.757, 274.406 362.153 C 275.315 360.681, 273.205 345.427, 271.542 341.446 C 270.679 339.382, 270.092 337.597, 270.237 337.479 C 270.382 337.362, 276.037 337.722, 282.804 338.279 C 291.393 338.987, 295.426 338.974, 296.164 338.236 C 297.317 337.083, 294.115 331.902, 286.379 322.405 L 282.033 317.068 286.266 315.946 C 291.991 314.427, 307 307.361, 307 306.184 C 307 305.664, 303.856 303.948, 300.014 302.369 C 294.490 300.100, 293.141 299.141, 293.571 297.783 C 293.953 296.575, 293.430 295.909, 291.807 295.534 C 290.538 295.241, 286.575 294.333, 283 293.515 C 272.657 291.151, 256.697 291.561, 243.452 294.532 C 237.242 295.925, 228.897 298.175, 224.906 299.532 C 213.598 303.378, 209.753 302.360, 213.573 296.530 C 217.010 291.284, 230.236 286.637, 247.905 284.466 C 254.832 283.615, 262.750 282.444, 265.500 281.863 C 278.511 279.114, 294 273.657, 294 271.822 C 294 270.633, 284.941 266.614, 277.351 264.435 C 274.133 263.511, 271.344 262.617, 271.154 262.448 C 270.963 262.279, 272.141 260.196, 273.771 257.820 C 277.108 252.955, 283 241.597, 283 240.029 C 283 239.463, 281.406 239, 279.458 239 C 275.208 239, 261.270 241.785, 258.738 243.140 C 256.880 244.135, 256.873 243.319, 258.678 236.694 C 259.408 234.016, 257.900 218, 256.918 218 C 255.014 218, 242.921 230.479, 238.269 237.244 C 235.525 241.235, 228.341 253.596, 222.304 264.714 C 214.551 278.991, 211.015 284.615, 210.265 283.865 C 209.177 282.777, 204.929 283.567, 205.179 284.811 C 205.255 285.190, 204.953 286.339, 204.507 287.366 C 203.841 288.901, 203.370 288.369, 201.849 284.366 C 200.833 281.689, 200.001 279.179, 200.001 278.786 C 200 278.394, 203.449 272.994, 207.664 266.786 C 215.207 255.676, 224.311 238.128, 227.431 228.682 C 229.537 222.307, 231.942 207.082, 230.940 206.463 C 229.835 205.780, 218.451 212.532, 212.750 217.253 C 208.575 220.710, 208 220.938, 208 219.137 C 208 217.007, 198.014 197, 196.950 197 C 196.010 197, 186.997 216.278, 186.998 218.286 C 187 219.639, 185.494 218.819, 180.805 214.917 C 174.952 210.047, 167.527 206, 164.442 206 C 162.896 206, 163.017 207.085, 166.054 220.500 C 168.338 230.586, 172.456 241.778, 179.417 256.821 C 186.641 272.430, 187.601 276.323, 185.481 281.394 L 183.853 285.287 181.941 282.144 C 179.682 278.429, 178.250 278.165, 177.088 281.250 C 176.276 283.404, 176.172 283.351, 174.660 280 C 173.791 278.075, 169.882 268.400, 165.973 258.500 C 162.064 248.600, 157.055 237.125, 154.840 233 C 151.015 225.874, 143.251 215.149, 141.844 215.047 C 140.550 214.954, 137.929 224.637, 137.324 231.750 C 136.984 235.738, 136.530 239, 136.313 239 C 136.097 239, 134.251 238.162, 132.210 237.138 C 126.704 234.375, 112.191 229.764, 111.107 230.434 C 109.688 231.311, 111.605 237.428, 116.073 246.282 C 118.233 250.561, 120 254.210, 120 254.389 C 120 254.568, 117.330 254.994, 114.066 255.335 C 107.328 256.040, 94.736 260.707, 95.268 262.304 C 95.744 263.733, 109.921 271.631, 118.215 275.088 C 121.909 276.628, 132.220 279.712, 141.130 281.941 C 157.777 286.107, 171 291.278, 171 293.623 C 171 294.649, 170.392 294.719, 168.327 293.934 C 166.298 293.163, 165.315 293.257, 164.249 294.322 C 163.043 295.528, 163.386 296.173, 166.672 298.883 L 170.500 302.040 161.500 298.988 C 140.459 291.853, 128.371 289.795, 115.500 291.159 C 106.047 292.160, 94.115 295.680, 92 298.090 C 91.175 299.030, 88.138 300.977, 85.250 302.416 C 82.362 303.856, 80 305.409, 80 305.869 C 80 306.942, 91.831 312.316, 99.141 314.563 L 104.782 316.296 100.214 321.898 C 95.148 328.112, 90 335.886, 90 337.324 C 90 337.877, 95.625 338.077, 103.819 337.815 L 117.637 337.374 116.250 341.401 C 114.491 346.505, 112.388 360.722, 113.262 361.596 C 114.577 362.910, 129.555 352.445, 136.968 345.032 C 141.143 340.857, 147.668 333.278, 151.467 328.191 C 158.320 319.014, 165.245 313.112, 169.421 312.889 C 173.434 312.676, 176.506 313.215, 177.147 314.245 C 178.005 315.623, 175.129 323.811, 170.697 332.611 C 164.609 344.697, 162.766 351.418, 162.773 361.500 C 162.785 375.975, 167.057 384.546, 178.458 392.969 L 183.677 396.825 186.465 408.662 C 190.193 424.497, 198.325 448.698, 203.126 458.250 C 207.508 466.966, 206.956 467.731, 199.741 462.952 C 193.602 458.885, 184.226 448.733, 177.840 439.236 C 168.600 425.494, 152.746 410.959, 139.898 404.448 C 130.094 399.480, 102.950 392.654, 101.611 394.820 C 101.367 395.215, 103.562 398.680, 106.488 402.519 C 109.414 406.359, 114.625 414.900, 118.068 421.500 C 128.677 441.839, 137.167 450.562, 155.466 459.919 C 163.868 464.216, 175.530 467.194, 190.044 468.749 C 195.436 469.327, 200.643 470.606, 204.158 472.215 C 209.137 474.494, 210.817 476.181, 220.014 488.132 C 225.672 495.484, 235.876 507.048, 242.690 513.830 C 249.504 520.611, 254.274 525.920, 253.289 525.627 C 252.305 525.335, 250.150 524.796, 248.500 524.430 C 241.598 522.900, 236.007 520.665, 228.480 516.426 C 214.403 508.499, 200.702 502.173, 193.052 500.067 C 188.955 498.940, 178.961 497.100, 170.842 495.978 C 148.775 492.929, 137.321 489.571, 127.790 483.353 C 126.300 482.381, 124.782 481.885, 124.417 482.250 C 123.657 483.009, 133.257 502.372, 138.309 510.269 C 154.850 536.127, 184.881 549.380, 213.525 543.463 C 220.311 542.061, 233.946 537.526, 243.159 533.606 C 245.171 532.750, 248.950 531.572, 251.555 530.988 C 256.245 529.937, 256.453 530.002, 271.897 537.377 C 296.503 549.129, 309.629 552.744, 331 553.657 C 342.024 554.127, 346.701 553.854, 356.500 552.166 C 383.460 547.523, 402.492 540.176, 453 514.917 C 522.208 480.306, 542.834 472.685, 571 471.316 C 583.195 470.723, 592.656 471.758, 602.536 474.766 L 608.492 476.580 594.496 476.697 C 559.243 476.992, 527.793 490.362, 504.901 514.785 C 498.261 521.869, 486.269 538.602, 487.179 539.513 C 487.392 539.726, 490.477 537.861, 494.033 535.368 C 503.083 529.026, 520.834 520.554, 531.500 517.485 C 557.839 509.907, 580.397 510.479, 606.553 519.387 C 617.697 523.183, 618.572 523.553, 643 534.759 C 684.665 553.873, 707.952 559.427, 746.500 559.442 C 783.621 559.457, 806.232 554.457, 847.166 537.182 C 906.672 512.070, 939.194 508.496, 1001.500 520.221 C 1016.433 523.031, 1020.628 523.425, 1036 523.460 C 1049.647 523.491, 1054.931 523.114, 1060 521.745 C 1075.052 517.681, 1090.664 507.405, 1098.998 496.077 C 1103.414 490.076, 1103.557 488.152, 1099.265 492.496 C 1097.744 494.035, 1093.350 496.791, 1089.500 498.621 C 1078.384 503.902, 1071.168 505.417, 1057 505.444 C 1037.507 505.481, 1033.191 504.393, 982.500 486.655 C 967.256 481.320, 957.432 479.168, 943 477.999 C 933.769 477.251, 931.231 476.599, 922 472.608 C 916.225 470.111, 908.298 467.310, 904.383 466.383 L 897.267 464.697 906.199 451.099 L 915.131 437.500 911.110 437.195 L 907.088 436.889 911.686 430.968 C 915.537 426.009, 916.079 424.800, 915.020 423.524 C 913.607 421.822, 913.811 421.743, 920 421.588 L 923.500 421.500 923.777 406.750 L 924.053 392 932.979 392 L 941.905 392 951.483 406.500 L 961.061 421 970.531 421 C 975.739 421, 980 420.803, 980 420.563 C 980 420.114, 967.638 402.517, 960.900 393.374 L 957.123 388.248 961.070 386.468 C 966.179 384.164, 973.347 376.470, 975.066 371.444 C 980.093 356.744, 972.418 340.863, 957.419 334.928 C 951.971 332.773, 949.730 332.557, 929.240 332.210 L 906.979 331.833 907.240 376.657 L 907.500 421.481 910.500 422.155 C 912.768 422.665, 912.291 422.789, 908.543 422.665 L 903.587 422.500 900.932 409 C 890.643 356.690, 869.847 293.427, 849.064 251.215 C 846.279 245.558, 844 240.648, 844 240.305 C 844 237.728, 814.108 185.906, 799.876 163.811 L 791.059 150.121 790.779 136.811 L 790.500 123.500 787.744 123.183 C 785.791 122.958, 784.808 123.395, 784.369 124.683" />
</svg>